<svg width="91" height="91" viewBox="0 0 91 91" fill="none" xmlns="http://www.w3.org/2000/svg">
<path d="M20.0216 7.62793H71.6883C79.0981 7.62793 85.105 13.6351 85.105 21.0454V70.7147C85.105 78.125 79.0981 84.1321 71.6883 84.1321H20.0216C12.6119 84.1321 6.60498 78.125 6.60498 70.7147V21.0454C6.60498 13.6351 12.6119 7.62793 20.0216 7.62793Z" fill="white" stroke="#EBEFF6" stroke-width="1.5"/>
<path d="M39.253 48.6446C39.4782 44.6275 41.4453 41.0884 44.4131 38.5796C47.3234 36.1153 51.2407 34.6092 55.5149 34.6092C59.7848 34.6092 63.7021 36.1153 66.6146 38.5796C69.5801 41.0884 71.5473 44.6275 71.7746 48.6404C71.9997 52.7679 70.3407 56.6023 67.4303 59.4447C64.4626 62.3359 60.2415 64.1501 55.5149 64.1501C50.7882 64.1501 46.5586 62.3359 43.5931 59.4447C40.6806 56.6023 39.0257 52.7679 39.253 48.6446Z" fill="white"/>
<path d="M47.1713 49.0057C47.2869 46.9445 48.2962 45.1285 49.819 43.8412C51.3123 42.5768 53.3223 41.804 55.5154 41.804C57.7063 41.804 59.7163 42.5768 61.2107 43.8412C62.7323 45.1285 63.7417 46.9445 63.8583 49.0035C63.9739 51.1214 63.1226 53.0888 61.6293 54.5473C60.1065 56.0308 57.9406 56.9616 55.5154 56.9616C53.0901 56.9616 50.9199 56.0308 49.3982 54.5473C47.9038 53.0888 47.0547 51.1214 47.1713 49.0057Z" fill="#265787"/>
<path d="M33.8839 53.1701C33.8981 53.9767 34.1554 55.5442 34.5412 56.7683C35.3522 59.3592 36.7278 61.7561 38.6418 63.8685C40.606 66.0398 43.0248 67.7838 45.8185 69.0221C48.755 70.3224 51.9367 70.9852 55.2416 70.9797C58.5411 70.9754 61.7229 70.2996 64.6594 68.9894C67.4531 67.7391 69.8696 65.9875 71.8305 63.8151C73.7435 61.694 75.117 59.2927 75.9301 56.7018C76.3389 55.3927 76.5972 54.064 76.7007 52.7309C76.8021 51.4174 76.7596 50.1018 76.5732 48.7872C76.2091 46.2257 75.3229 43.8223 73.9582 41.6313C72.7102 39.6181 71.1014 37.8556 69.1884 36.3721L69.1927 36.3688L49.8875 21.5458C49.8701 21.5327 49.8559 21.5186 49.8374 21.5066C48.5708 20.5343 46.4409 20.5376 45.0479 21.5121C43.6396 22.4974 43.4782 24.127 44.7317 25.1548L44.7263 25.1603L52.7782 31.7079L28.2366 31.7341H28.2039C26.1754 31.7363 24.2253 33.0672 23.8395 34.7491C23.4427 36.4625 24.8205 37.8839 26.9297 37.8915L26.9264 37.8992L39.3656 37.8752L17.1686 54.913C17.1403 54.9338 17.1097 54.9556 17.0836 54.9763C14.9897 56.5797 14.3128 59.2458 15.6317 60.9332C16.9702 62.6488 19.8162 62.6521 21.932 60.943L34.0464 51.0283C34.0464 51.0283 33.8698 52.3668 33.8839 53.1701ZM65.0136 57.6522C62.5175 60.1952 59.0229 61.6373 55.2416 61.6449C51.4549 61.6515 47.9604 60.2225 45.4642 57.6839C44.2445 56.4467 43.3485 55.0232 42.7959 53.507C42.2541 52.0169 42.0438 50.4353 42.1833 48.8396C42.3152 47.2798 42.7795 45.7919 43.5208 44.4457C44.2489 43.1225 45.2517 41.9268 46.4899 40.9152C48.9163 38.938 52.0054 37.8676 55.2362 37.8632C58.4703 37.8588 61.5572 38.9194 63.9857 40.8901C65.2218 41.8973 66.2235 43.0887 66.9517 44.4098C67.6961 45.7548 68.1572 47.2372 68.2946 48.8014C68.4319 50.395 68.2215 51.9744 67.6798 53.4655C67.1261 54.9861 66.2333 56.4096 65.0136 57.6522Z" fill="#EA7600"/>
</svg>
