<svg width="91" height="91" viewBox="0 0 91 91" fill="none" xmlns="http://www.w3.org/2000/svg">
<path d="M20.0216 7.62793H71.6883C79.0981 7.62793 85.105 13.6351 85.105 21.0454V70.7147C85.105 78.125 79.0981 84.1321 71.6883 84.1321H20.0216C12.6119 84.1321 6.60498 78.125 6.60498 70.7147V21.0454C6.60498 13.6351 12.6119 7.62793 20.0216 7.62793Z" fill="white" stroke="#ECF0F7" stroke-width="1.5"/>
<path d="M63.8823 65.8747L45.828 70.8799L27.8235 65.8817L23.8113 20.8799H67.8987L63.8823 65.8747Z" fill="#264DE4"/>
<path d="M45.855 67.0542L60.4437 63.0097L63.876 24.5596H45.855V67.0542Z" fill="#2965F1"/>
<path d="M45.8549 41.25H33.0092L33.5038 46.7692H45.8549V41.25Z" fill="#EBEBEB"/>
<path d="M45.8359 30.0791H32.0153L32.517 35.5985H45.855V30.0791H45.8359Z" fill="#EBEBEB"/>
<path d="M45.8308 55.591L39.6839 53.9312L39.291 49.5293H36.3041H33.7505L34.5237 58.1954L45.8296 61.334L45.855 61.3269V55.5845L45.8308 55.591Z" fill="#EBEBEB"/>
<path d="M53.6132 35.5985L53.111 41.2503H45.8359V46.7695H52.6323L51.9917 53.9276L45.8359 55.5891V61.3312L57.1508 58.1953L57.2338 57.2629L58.5308 42.7324L58.6654 41.2503L59.6618 30.0791H45.8359V35.5985H53.6132Z" fill="white"/>
</svg>
