<svg width="91" height="91" viewBox="0 0 91 91" fill="none" xmlns="http://www.w3.org/2000/svg">
<path d="M20.0216 7.62793H71.6883C79.0981 7.62793 85.105 13.6351 85.105 21.0454V70.7147C85.105 78.125 79.0981 84.1321 71.6883 84.1321H20.0216C12.6119 84.1321 6.60498 78.125 6.60498 70.7147V21.0454C6.60498 13.6351 12.6119 7.62793 20.0216 7.62793Z" fill="white" stroke="#ECF0F7" stroke-width="1.5"/>
<path d="M45.5239 45.8779C45.5239 41.3621 49.1847 37.7012 53.7006 37.7012C58.2163 37.7012 61.8772 41.3621 61.8772 45.8779C61.8772 50.3938 58.2163 54.0547 53.7006 54.0547C49.1847 54.0547 45.5239 50.3938 45.5239 45.8779Z" fill="#1ABCFE"/>
<path d="M29.1686 62.2314C29.1686 57.7156 32.8294 54.0547 37.3452 54.0547H45.5219V62.2314C45.5219 66.7474 41.8611 70.4082 37.3452 70.4082C32.8294 70.4082 29.1686 66.7474 29.1686 62.2314Z" fill="#0ACF83"/>
<path d="M45.5239 21.3477V37.7011H53.7006C58.2165 37.7011 61.8772 34.0403 61.8772 29.5244C61.8772 25.0085 58.2165 21.3477 53.7006 21.3477H45.5239Z" fill="#FF7262"/>
<path d="M29.1687 29.5244C29.1687 34.0403 32.8295 37.7011 37.3454 37.7011H45.522V21.3477H37.3454C32.8295 21.3477 29.1687 25.0085 29.1687 29.5244Z" fill="#F24E1E"/>
<path d="M29.1686 45.8779C29.1686 50.3938 32.8294 54.0547 37.3452 54.0547H45.5219V37.7012H37.3452C32.8294 37.7012 29.1686 41.3621 29.1686 45.8779Z" fill="#A259FF"/>
</svg>
