<svg width="91" height="91" viewBox="0 0 91 91" fill="none" xmlns="http://www.w3.org/2000/svg">
<path d="M20.0216 7.62793H71.6883C79.0981 7.62793 85.105 13.6351 85.105 21.0454V70.7147C85.105 78.125 79.0981 84.1321 71.6883 84.1321H20.0216C12.6119 84.1321 6.60498 78.125 6.60498 70.7147V21.0454C6.60498 13.6351 12.6119 7.62793 20.0216 7.62793Z" fill="white" stroke="#ECF0F7" stroke-width="1.5"/>
<path d="M23.8113 20.8799H67.8985L63.8823 65.8743L45.8291 70.8799L27.8247 65.8813L23.8113 20.8799Z" fill="#E44D26"/>
<path d="M60.4472 63.0109L63.8795 24.5605H45.8708V67.055L60.4472 63.0109Z" fill="#F16529"/>
<path d="M38.5547 41.2516L38.0502 35.5994H45.8708V30.0811H32.033L33.5213 46.7714H45.8708V41.253L38.5547 41.2516ZM33.7526 49.532L34.526 58.1998L45.8317 61.338L45.8568 61.3311V55.5897L45.8331 55.5967L39.7016 53.9244L39.3086 49.5209H36.3223L33.7526 49.532Z" fill="#EBEBEB"/>
<path d="M58.5324 42.7318L58.6676 41.2491H45.8387V46.7675H52.635L51.994 53.9261L45.8387 55.5872V61.3285L57.1542 58.1931L57.2379 57.2594L58.5324 42.7318ZM45.8513 35.5997H59.1832L59.6779 30.0674H45.8513V35.5718V35.5997Z" fill="white"/>
</svg>
