<svg width="91" height="91" viewBox="0 0 91 91" fill="none" xmlns="http://www.w3.org/2000/svg">
<path d="M20.0216 7.62793H71.6883C79.0981 7.62793 85.105 13.6351 85.105 21.0454V70.7147C85.105 78.125 79.0981 84.1321 71.6883 84.1321H20.0216C12.6119 84.1321 6.60498 78.125 6.60498 70.7147V21.0454C6.60498 13.6351 12.6119 7.62793 20.0216 7.62793Z" fill="white" stroke="#ECF0F7" stroke-width="1.5"/>
<path d="M44.62 53.6923H32.223L29.7007 61.5281C29.6664 61.6709 29.5832 61.7973 29.4657 61.8855C29.3481 61.9737 29.2035 62.0181 29.0567 62.0111H22.7777C22.4197 62.0111 22.2944 61.8143 22.4021 61.4207L33.1353 30.507C33.2427 30.1851 33.3501 29.8183 33.4574 29.4068C33.5978 28.6907 33.6697 27.9629 33.6721 27.2332C33.6648 27.1822 33.6695 27.1302 33.6858 27.0813C33.7021 27.0324 33.7296 26.9879 33.766 26.9515C33.8025 26.915 33.8469 26.8875 33.8958 26.8712C33.9447 26.8549 33.9967 26.8502 34.0477 26.8575H42.5806C42.8306 26.8575 42.9737 26.947 43.01 27.1259L55.1924 61.4743C55.2997 61.8324 55.1923 62.0113 54.8703 62.0111H47.8936C47.7738 62.0243 47.6532 61.9935 47.5545 61.9244C47.4557 61.8553 47.3855 61.7525 47.357 61.6354L44.62 53.6923ZM34.155 46.9299H42.6343C42.4197 46.2146 42.1692 45.4096 41.883 44.5148C41.5963 43.6208 41.2922 42.6637 40.9708 41.6434C40.6487 40.6238 40.3266 39.604 40.0046 38.5843C39.6827 37.5646 39.3875 36.5807 39.1192 35.6325C38.8508 34.6849 38.6093 33.8172 38.3948 33.0295H38.341C38.0389 34.479 37.6628 35.9121 37.2141 37.3231C36.7126 38.9332 36.2028 40.579 35.6845 42.2607C35.1654 43.9429 34.6556 45.4993 34.155 46.9299Z" fill="#FF9A00"/>
<path d="M62.4462 32.5467C61.8988 32.5686 61.3529 32.4748 60.8443 32.2714C60.3357 32.0679 59.8757 31.7594 59.4945 31.3659C59.1143 30.9554 58.819 30.4739 58.6256 29.9489C58.4322 29.4239 58.3444 28.8658 58.3674 28.3068C58.3479 27.7533 58.4453 27.2019 58.6534 26.6886C58.8615 26.1754 59.1755 25.7118 59.5749 25.3281C59.9704 24.9484 60.4374 24.6509 60.9486 24.4529C61.4599 24.2548 62.0053 24.1601 62.5534 24.1742C63.8415 24.1742 64.8522 24.5588 65.5856 25.3281C65.9558 25.7279 66.2436 26.1967 66.4323 26.7079C66.6211 27.219 66.7072 27.7623 66.6857 28.3068C66.7082 28.868 66.6176 29.428 66.4194 29.9535C66.2212 30.479 65.9194 30.9593 65.5319 31.3659C65.127 31.7651 64.6437 32.0762 64.1126 32.2794C63.5816 32.4826 63.0141 32.5736 62.4462 32.5467ZM58.743 61.4745V35.8204C58.743 35.4985 58.8856 35.3374 59.1724 35.3374H65.7735C66.0594 35.3374 66.2026 35.4984 66.2028 35.8204V61.4745C66.2028 61.8326 66.0597 62.0115 65.7735 62.0112H59.2261C58.9042 62.0112 58.7431 61.8323 58.743 61.4745Z" fill="#FF9A00"/>
</svg>
