<svg width="91" height="91" viewBox="0 0 91 91" fill="none" xmlns="http://www.w3.org/2000/svg">
<path d="M20.0216 7.62793H71.6883C79.0981 7.62793 85.105 13.6351 85.105 21.0454V70.7147C85.105 78.125 79.0981 84.1321 71.6883 84.1321H20.0216C12.6119 84.1321 6.60498 78.125 6.60498 70.7147V21.0454C6.60498 13.6351 12.6119 7.62793 20.0216 7.62793Z" fill="white" stroke="#ECF0F7" stroke-width="1.5"/>
<path d="M58.7777 66.9989C60.3892 69.5643 62.4857 71.4499 66.1936 71.4499C69.3085 71.4499 71.2984 69.932 71.2984 67.8346C71.2984 65.3213 69.2539 64.4311 65.8254 62.9689L63.946 62.1827C58.5212 59.9294 54.9174 57.1066 54.9174 51.1389C54.9174 45.6418 59.2133 41.457 65.9269 41.457C70.7066 41.457 74.1428 43.0789 76.619 47.3256L70.765 50.9904C69.4761 48.737 68.0857 47.8493 65.9269 47.8493C63.725 47.8493 62.3295 49.2112 62.3295 50.9904C62.3295 53.1892 63.7263 54.0794 66.9517 55.4413L68.8311 56.2263C75.2184 58.8968 78.8247 61.6194 78.8247 67.7406C78.8247 74.3396 73.5079 77.9548 66.3676 77.9548C59.386 77.9548 54.8755 74.711 52.6685 70.4594L58.7777 66.9989ZM32.2215 67.6341C33.4025 69.6769 34.4768 71.4041 37.0596 71.4041C39.5295 71.4041 41.0876 70.4619 41.0876 66.7984V41.8755H48.605V66.8974C48.605 74.4869 44.0412 77.9412 37.3796 77.9412C31.3606 77.9412 27.8749 74.9042 26.1022 71.2462L32.2215 67.6341Z" fill="black"/>
</svg>
