<svg width="91" height="91" viewBox="0 0 91 91" fill="none" xmlns="http://www.w3.org/2000/svg">
<path d="M20.0216 7.62793H71.6883C79.0981 7.62793 85.105 13.6351 85.105 21.0454V70.7147C85.105 78.125 79.0981 84.1321 71.6883 84.1321H20.0216C12.6119 84.1321 6.60498 78.125 6.60498 70.7147V21.0454C6.60498 13.6351 12.6119 7.62793 20.0216 7.62793Z" fill="white" stroke="#ECF0F7" stroke-width="1.5"/>
<path d="M23.8667 61.5777V27.2828C23.8667 27.0329 23.9741 26.9072 24.1888 26.9072C24.7606 26.9072 25.2827 26.8988 26.0701 26.8803C26.8567 26.8627 27.7064 26.8448 28.6192 26.8267C29.5317 26.809 30.4977 26.7911 31.5174 26.773C32.5369 26.7554 33.5476 26.7464 34.5494 26.7461C37.268 26.7461 39.5578 27.086 41.4187 27.7658C43.0974 28.3337 44.6283 29.2688 45.9 30.503C46.978 31.5728 47.8111 32.8637 48.3417 34.2867C48.8438 35.6716 49.0982 37.134 49.0932 38.6071C49.0932 41.47 48.4313 43.8315 47.1075 45.6915C45.775 47.5591 43.9019 48.9733 41.7408 49.7435C39.4868 50.5846 36.9821 50.8699 34.2275 50.8699C33.4401 50.8699 32.8855 50.8609 32.5638 50.843C32.2418 50.8254 31.7589 50.8164 31.1149 50.8162V61.524C31.1242 61.5896 31.1182 61.6565 31.0972 61.7194C31.0763 61.7823 31.0409 61.8394 30.9941 61.8863C30.9472 61.9332 30.8901 61.9685 30.8272 61.9894C30.7643 62.0104 30.6974 62.0164 30.6318 62.007H24.2423C23.9917 62.007 23.8667 61.8645 23.8667 61.5777ZM31.1149 33.3475V44.533C31.5794 44.5691 32.0087 44.587 32.4028 44.5867H34.1738C35.4769 44.5824 36.7714 44.3757 38.011 43.9741C39.0742 43.6583 40.0243 43.0435 40.748 42.203C41.4456 41.3804 41.7944 40.2354 41.7945 38.7681C41.8228 37.73 41.5527 36.7055 41.0162 35.8163C40.4522 34.9564 39.6371 34.2912 38.6817 33.911C37.4343 33.4261 36.1018 33.1979 34.7641 33.2402C33.9054 33.2402 33.1451 33.2491 32.4833 33.267C31.8209 33.2854 31.3647 33.3123 31.1149 33.3475Z" fill="#31A8FF"/>
<path d="M69.8436 42.4982C68.835 41.9799 67.7608 41.6008 66.6504 41.3711C65.4269 41.0903 64.1759 40.9463 62.9206 40.9417C62.2415 40.9233 61.5635 41.0047 60.9081 41.1833C60.4909 41.2762 60.1201 41.5138 59.8615 41.8541C59.6866 42.1263 59.5935 42.443 59.5933 42.7665C59.6031 43.0804 59.7162 43.3823 59.9152 43.6252C60.2287 43.9919 60.6117 44.2929 61.0422 44.5107C61.8074 44.9228 62.5958 45.2902 63.4035 45.611C65.2047 46.2139 66.9257 47.0339 68.5287 48.0529C69.6207 48.7422 70.5243 49.692 71.1584 50.8169C71.6916 51.8822 71.9586 53.0608 71.9366 54.2518C71.9687 55.8245 71.5193 57.3695 70.6486 58.6795C69.7165 60.0094 68.4217 61.0433 66.9187 61.6581C65.2902 62.3735 63.2778 62.7313 60.8812 62.7316C59.3588 62.747 57.8389 62.6031 56.3464 62.3022C55.1705 62.0866 54.0258 61.726 52.9385 61.2288C52.8212 61.1682 52.7235 61.0755 52.657 60.9614C52.5905 60.8474 52.5578 60.7167 52.5628 60.5848V54.7885C52.5564 54.7317 52.5655 54.6743 52.5891 54.6223C52.6128 54.5703 52.6501 54.5257 52.6971 54.4933C52.7432 54.4672 52.7961 54.4558 52.8489 54.4606C52.9016 54.4654 52.9516 54.4862 52.9922 54.5201C54.2762 55.2773 55.6704 55.8295 57.1245 56.157C58.4062 56.4783 59.721 56.6494 61.0422 56.6669C62.2941 56.6669 63.2154 56.5059 63.806 56.1839C64.0727 56.0618 64.2983 55.865 64.4555 55.6174C64.6127 55.3697 64.6947 55.0818 64.6916 54.7885C64.6916 54.3239 64.4233 53.8767 63.8866 53.4468C63.35 53.0174 62.2587 52.4986 60.6128 51.8903C58.9277 51.3038 57.33 50.4913 55.8633 49.4752C54.8143 48.7456 53.9505 47.7806 53.341 46.6575C52.8132 45.5999 52.5464 44.4314 52.5629 43.2495C52.5599 41.8295 52.9499 40.4363 53.6898 39.2243C54.5335 37.8896 55.7449 36.8273 57.1783 36.1651C58.7522 35.3786 60.7199 34.985 63.0816 34.9844C64.4647 34.9733 65.8465 35.072 67.2139 35.2796C68.2042 35.4052 69.1723 35.6671 70.0908 36.0578C70.1637 36.0787 70.2307 36.1163 70.2865 36.1675C70.3424 36.2187 70.3856 36.2822 70.4128 36.353C70.449 36.4841 70.4671 36.6195 70.4665 36.7555V42.1761C70.4702 42.2392 70.4573 42.3021 70.429 42.3587C70.4008 42.4152 70.3582 42.4633 70.3055 42.4982C70.2337 42.5339 70.1547 42.5524 70.0746 42.5524C69.9944 42.5524 69.9154 42.5339 69.8436 42.4982Z" fill="#31A8FF"/>
</svg>
