<svg width="91" height="91" viewBox="0 0 91 91" fill="none" xmlns="http://www.w3.org/2000/svg">
<path d="M20.0216 7.62793H71.6883C79.0981 7.62793 85.105 13.6351 85.105 21.0454V70.7147C85.105 78.125 79.0981 84.1321 71.6883 84.1321H20.0216C12.6119 84.1321 6.60498 78.125 6.60498 70.7147V21.0454C6.60498 13.6351 12.6119 7.62793 20.0216 7.62793Z" fill="white" stroke="#ECF0F7" stroke-width="1.5"/>
<g clip-path="url(#clip0_1892_9091)">
<path fill-rule="evenodd" clip-rule="evenodd" d="M26.855 28.3365C26.855 29.6936 27.972 30.7944 29.3494 30.7944H50.0206C52.3766 30.7944 54.3168 31.5115 55.8411 32.9458C57.3654 34.3801 58.1275 36.2236 58.1275 38.4772C58.1275 40.5601 57.3654 42.2672 55.8404 43.5986C54.3168 44.8965 52.3766 45.5451 50.0206 45.5451H41.0369C39.6588 45.5451 38.5418 46.6451 38.5418 48.0036C38.5418 49.3608 39.6588 50.4615 41.0369 50.4615H50.957L59.8949 64.5972C60.4491 65.4515 61.2285 65.8779 62.233 65.8779C63.3421 65.8779 64.1215 65.4515 64.5718 64.5972C65.022 63.7101 64.9353 62.7708 64.3122 61.7808L56.3609 49.1808C58.509 48.2251 60.2068 46.8251 61.4536 44.9815C62.7012 43.1036 63.3249 40.9358 63.3249 38.4772C63.3249 35.9844 62.7528 33.7994 61.6099 31.9215C60.5015 30.0429 58.9428 28.5751 56.9331 27.5165C54.9234 26.4236 52.6197 25.8779 50.0206 25.8779H29.3501C27.972 25.8779 26.855 26.9779 26.855 28.3365Z" fill="black"/>
</g>
<defs>
<clipPath id="clip0_1892_9091">
<rect width="38" height="40" fill="white" transform="translate(26.855 25.8779)"/>
</clipPath>
</defs>
</svg>
