<svg width="91" height="91" viewBox="0 0 91 91" fill="none" xmlns="http://www.w3.org/2000/svg">
<path d="M20.0216 7.62793H71.6883C79.0981 7.62793 85.105 13.6351 85.105 21.0454V70.7147C85.105 78.125 79.0981 84.1321 71.6883 84.1321H20.0216C12.6119 84.1321 6.60498 78.125 6.60498 70.7147V21.0454C6.60498 13.6351 12.6119 7.62793 20.0216 7.62793Z" fill="white" stroke="#ECF0F7" stroke-width="1.5"/>
<path d="M30.3243 22.7201L45.8556 21.0781L61.3869 22.7201L73.4112 38.8618L45.8556 70.9504L18.3 38.8618L30.3243 22.7201Z" fill="#FDB300"/>
<path d="M29.4614 38.8621L45.8556 70.9504L18.3 38.8618L29.4614 38.8621Z" fill="#EA6C00"/>
<path d="M62.2494 38.8621L45.8556 70.9504L73.4112 38.8618L62.2494 38.8621Z" fill="#EA6C00"/>
<path d="M29.4614 38.8621L62.2494 38.8621L45.8556 70.9504L29.4614 38.8621Z" fill="#FDAD00"/>
<path d="M45.8556 21.0781L30.3243 22.7201L29.4614 38.8621L45.8556 21.0781Z" fill="#FDD231"/>
<path d="M45.8556 21.0781L61.3869 22.7201L62.2494 38.8621L45.8556 21.0781Z" fill="#FDD231"/>
<path d="M73.4112 38.8618L61.3869 22.7201L62.2494 38.8621L73.4112 38.8618Z" fill="#FDAD00"/>
<path d="M18.3 38.8618L30.3243 22.7201L29.4614 38.8621L18.3 38.8618Z" fill="#FDAD00"/>
<path d="M45.8556 21.0781L29.4614 38.8621L62.2494 38.8621L45.8556 21.0781Z" fill="#FEEEB7"/>
</svg>
