<svg width="91" height="91" viewBox="0 0 91 91" fill="none" xmlns="http://www.w3.org/2000/svg">
<path d="M20.0216 7.62793H71.6883C79.0981 7.62793 85.105 13.6351 85.105 21.0454V70.7147C85.105 78.125 79.0981 84.1321 71.6883 84.1321H20.0216C12.6119 84.1321 6.60498 78.125 6.60498 70.7147V21.0454C6.60498 13.6351 12.6119 7.62793 20.0216 7.62793Z" fill="white" stroke="#ECF0F7" stroke-width="1.5"/>
<path fill-rule="evenodd" clip-rule="evenodd" d="M30.3151 40.0435C32.3741 31.8003 37.527 27.6787 45.7685 27.6787C58.1333 27.6787 59.6758 36.9479 65.8564 38.4957C69.9781 39.527 73.5831 37.9827 76.6735 33.8611C74.6144 42.1026 69.4615 46.2242 61.2218 46.2242C48.857 46.2242 47.3145 36.955 41.1339 35.4072C37.0122 34.3759 33.4072 35.9202 30.3168 40.0418L30.3151 40.0435ZM14.8617 58.589C16.9243 50.3458 22.0719 46.2242 30.3151 46.2242C42.6799 46.2242 44.2224 55.4934 50.4031 57.0412C54.5247 58.0725 58.1297 56.5282 61.2201 52.4066C59.161 60.6498 54.0081 64.7714 45.7667 64.7714C33.4019 64.7714 31.8594 55.5022 25.6787 53.9544C21.5571 52.9231 17.952 54.4674 14.8617 58.589Z" fill="url(#paint0_linear_1533_4409)"/>
<defs>
<linearGradient id="paint0_linear_1533_4409" x1="14.8617" y1="-5.28532" x2="76.6735" y2="97.7337" gradientUnits="userSpaceOnUse">
<stop stop-color="#2383AE"/>
<stop offset="1" stop-color="#6DD7B9"/>
</linearGradient>
</defs>
</svg>
