<svg width="96" height="96" viewBox="0 0 96 96" fill="none" xmlns="http://www.w3.org/2000/svg">
<g clip-path="url(#clip0_1345_3500)">
<path d="M77.9493 18.1087L32.6134 8.98311C25.7481 7.6012 19.0623 12.0467 17.6803 18.9124L8.90751 62.4957C7.52552 69.3614 11.9707 76.0474 18.836 77.4293L64.1719 86.5549C71.0372 87.9368 77.723 83.4913 79.105 76.6256L87.8778 33.0423C89.2598 26.1766 84.8146 19.4906 77.9493 18.1087Z" fill="#330000"/>
<path d="M45.9292 54.4059L35.0512 52.2163L31.454 58.6464C31.3986 58.7657 31.3033 58.862 31.1846 58.9186C31.0659 58.9752 30.9311 58.9886 30.8036 58.9565L25.294 57.8475C24.9798 57.7842 24.9047 57.5895 25.0686 57.2631L39.9468 32.0331C40.0979 31.7695 40.2569 31.4667 40.4238 31.1245C40.6734 30.521 40.865 29.8951 40.996 29.2552C40.9987 29.2092 41.012 29.1644 41.0349 29.1243C41.0579 29.0843 41.0898 29.0501 41.1282 29.0246C41.1666 28.999 41.2105 28.9828 41.2563 28.9771C41.3021 28.9714 41.3485 28.9765 41.392 28.9919L48.8794 30.499C49.0987 30.5432 49.2085 30.6469 49.2087 30.8104L53.8317 63.1017C53.8625 63.4349 53.7367 63.5729 53.4542 63.5158L47.3324 62.2836C47.2249 62.274 47.1245 62.2257 47.0501 62.1476C46.9757 62.0695 46.9322 61.9669 46.9279 61.8591L45.9292 54.4059ZM37.9409 46.6238L45.3812 48.1214C45.3192 47.4559 45.2416 46.7052 45.1486 45.8695C45.0548 45.0344 44.957 44.1409 44.8552 43.1889C44.7527 42.2372 44.6502 41.2856 44.5478 40.3339C44.4454 39.3823 44.3602 38.4668 44.2922 37.5874C44.2241 36.7085 44.1654 35.9045 44.1163 35.1754L44.0691 35.166C43.548 36.3845 42.9649 37.5755 42.3219 38.7343C41.5975 40.0586 40.8594 41.4127 40.1076 42.7968C39.3551 44.1812 38.6328 45.4569 37.9409 46.6238Z" fill="#FF9A00"/>
<path d="M65.3059 38.9998C64.8217 38.9224 64.3593 38.7437 63.9489 38.4753C63.5386 38.2069 63.1895 37.855 62.9244 37.4424C62.6634 37.0151 62.4893 36.5403 62.4123 36.0455C62.3353 35.5507 62.3569 35.0455 62.4758 34.559C62.5564 34.0699 62.7393 33.6033 63.0125 33.1897C63.2858 32.776 63.6432 32.4247 64.0614 32.1586C64.4756 31.8953 64.9378 31.7167 65.4214 31.6333C65.905 31.5498 66.4003 31.563 66.8788 31.6722C68.009 31.8997 68.828 32.4157 69.3357 33.2202C69.5899 33.6364 69.7595 34.0987 69.8349 34.5805C69.9103 35.0623 69.8899 35.5543 69.7749 36.0282C69.6954 36.5247 69.517 37 69.2503 37.4262C68.9836 37.8523 68.6339 38.2204 68.2221 38.5088C67.7963 38.7875 67.3173 38.9751 66.8154 39.0596C66.3135 39.1441 65.7995 39.1237 65.3059 38.9998ZM56.9472 63.729L61.4783 41.2184C61.5352 40.9359 61.6887 40.8197 61.9404 40.8704L67.7326 42.0363C67.9835 42.0868 68.0807 42.2533 68.024 42.536L63.4929 65.0466C63.4297 65.3608 63.2725 65.4925 63.0214 65.4417L57.2762 64.2853C56.9938 64.2284 56.8841 64.043 56.9472 63.729Z" fill="#FF9A00"/>
</g>
<defs>
<clipPath id="clip0_1345_3500">
<rect width="80.5561" height="80.5561" fill="white" transform="translate(16.855 0.333008) rotate(11.3809)"/>
</clipPath>
</defs>
</svg>
