<svg width="166" height="61" viewBox="0 0 166 61" fill="none" xmlns="http://www.w3.org/2000/svg">
<rect x="0.243164" y="0.0683594" width="164.866" height="60" rx="10" fill="#090909"/>
<path d="M38.0331 30.9781C38.0656 28.4431 39.4217 26.0445 41.573 24.7167C40.2159 22.7709 37.9427 21.5372 35.5777 21.4629C33.0552 21.1971 30.6098 22.9782 29.3243 22.9782C28.0141 22.9782 26.035 21.4893 23.9038 21.5333C21.1259 21.6234 18.5362 23.2089 17.1847 25.647C14.2796 30.6965 16.4466 38.1175 19.2295 42.1992C20.6218 44.1978 22.2491 46.4304 24.3783 46.3512C26.4619 46.2644 27.2401 45.0174 29.7552 45.0174C32.2469 45.0174 32.977 46.3512 35.1494 46.3009C37.3852 46.2644 38.7939 44.2933 40.1374 42.2757C41.1378 40.8516 41.9076 39.2777 42.4183 37.6122C39.7908 36.4965 38.0362 33.842 38.0331 30.9781Z" fill="white"/>
<path d="M33.9297 18.7786C35.1488 17.3095 35.7493 15.4211 35.6039 13.5146C33.7415 13.711 32.0211 14.6046 30.7856 16.0174C29.5774 17.3977 28.9487 19.2528 29.0676 21.0864C30.9307 21.1057 32.7622 20.2363 33.9297 18.7786Z" fill="white"/>
<path d="M112.348 28.3596V31.4314H110.43V33.4459H112.348V40.2908C112.348 42.6281 113.402 43.563 116.051 43.563C116.517 43.563 116.961 43.5073 117.349 43.4405V41.4483C117.016 41.4817 116.805 41.5039 116.439 41.5039C115.253 41.5039 114.732 40.9475 114.732 39.6786V33.4459H117.349V31.4314H114.732V28.3596H112.348Z" fill="white"/>
<path d="M124.099 43.7299C127.624 43.7299 129.786 41.3593 129.786 37.4304C129.786 33.5238 127.613 31.142 124.099 31.142C120.573 31.142 118.4 33.5238 118.4 37.4304C118.4 41.3593 120.562 43.7299 124.099 43.7299ZM124.099 41.6041C122.025 41.6041 120.861 40.0793 120.861 37.4304C120.861 34.8038 122.025 33.2678 124.099 33.2678C126.161 33.2678 127.336 34.8038 127.336 37.4304C127.336 40.0682 126.161 41.6041 124.099 41.6041Z" fill="white"/>
<path d="M131.636 43.4962H134.019V36.3397C134.019 34.6368 135.294 33.4904 137.101 33.4904C137.523 33.4904 138.232 33.5683 138.432 33.6351V31.2756C138.177 31.2088 137.722 31.1754 137.367 31.1754C135.793 31.1754 134.452 32.0435 134.108 33.2344H133.931V31.3758H131.636V43.4962Z" fill="white"/>
<path d="M144.35 33.1788C146.113 33.1788 147.266 34.4142 147.321 36.3174H141.224C141.357 34.4253 142.587 33.1788 144.35 33.1788ZM147.31 40.224C146.867 41.17 145.88 41.6932 144.439 41.6932C142.532 41.6932 141.301 40.3464 141.224 38.2206V38.0871H149.749V37.2523C149.749 33.4459 147.721 31.142 144.361 31.142C140.958 31.142 138.796 33.6017 138.796 37.4749C138.796 41.3481 140.913 43.7299 144.372 43.7299C147.133 43.7299 149.062 42.3943 149.605 40.224H147.31Z" fill="white"/>
<path d="M96.717 39.0203C96.9009 41.9965 99.3714 43.8999 103.049 43.8999C106.978 43.8999 109.438 41.9043 109.438 38.7204C109.438 36.2171 108.036 34.8328 104.634 34.0368L102.807 33.5869C100.647 33.0794 99.7736 32.3988 99.7736 31.2106C99.7736 29.7109 101.13 28.7304 103.163 28.7304C105.094 28.7304 106.427 29.6878 106.668 31.2221H109.173C109.024 28.4189 106.565 26.4463 103.198 26.4463C99.5783 26.4463 97.1652 28.4189 97.1652 31.3836C97.1652 33.8292 98.5326 35.2827 101.532 35.9864L103.669 36.5055C105.864 37.0246 106.829 37.786 106.829 39.0549C106.829 40.5315 105.312 41.6043 103.244 41.6043C101.026 41.6043 99.4864 40.6007 99.268 39.0203H96.717Z" fill="white"/>
<path d="M72.0252 31.1754C70.3843 31.1754 68.9653 31.999 68.2335 33.3791H68.0562V31.3758H65.7612V47.5252H68.1448V41.6598H68.3333C68.9653 42.9397 70.3289 43.6965 72.0473 43.6965C75.0962 43.6965 77.0363 41.2813 77.0363 37.4304C77.0363 33.5795 75.0962 31.1754 72.0252 31.1754ZM71.3489 41.5485C69.3533 41.5485 68.1005 39.968 68.1005 37.4415C68.1005 34.9039 69.3533 33.3235 71.36 33.3235C73.3777 33.3235 74.5862 34.8705 74.5862 37.4304C74.5862 40.0014 73.3777 41.5485 71.3489 41.5485Z" fill="white"/>
<path d="M85.377 31.1754C83.7362 31.1754 82.3171 31.999 81.5854 33.3791H81.408V31.3758H79.1131V47.5252H81.4967V41.6598H81.6852C82.3171 42.9397 83.6807 43.6965 85.3992 43.6965C88.448 43.6965 90.3881 41.2813 90.3881 37.4304C90.3881 33.5795 88.448 31.1754 85.377 31.1754ZM84.7007 41.5485C82.7051 41.5485 81.4523 39.968 81.4523 37.4415C81.4523 34.9039 82.7051 33.3235 84.7118 33.3235C86.7296 33.3235 87.938 34.8705 87.938 37.4304C87.938 40.0014 86.7296 41.5485 84.7007 41.5485Z" fill="white"/>
<path d="M61.4846 43.4962H64.2194L58.2327 26.85H55.4633L49.4766 43.4962H52.1195L53.6478 39.078H59.9678L61.4846 43.4962ZM56.7159 29.8724H56.9112L59.3128 36.9093H54.3028L56.7159 29.8724Z" fill="white"/>
<path d="M49.4106 15.1089V21.6887H51.7771C53.7302 21.6887 54.8611 20.4804 54.8611 18.3783C54.8611 16.3081 53.7211 15.1089 51.7771 15.1089H49.4106ZM50.4281 16.0391H51.6635C53.0216 16.0391 53.8255 16.9055 53.8255 18.392C53.8255 19.9013 53.0352 20.7585 51.6635 20.7585H50.4281V16.0391Z" fill="white"/>
<path d="M58.3249 21.7845C59.7693 21.7845 60.655 20.8132 60.655 19.2036C60.655 17.6031 59.7648 16.6273 58.3249 16.6273C56.8805 16.6273 55.9903 17.6031 55.9903 19.2036C55.9903 20.8132 56.876 21.7845 58.3249 21.7845ZM58.3249 20.9135C57.4756 20.9135 56.9986 20.2888 56.9986 19.2036C56.9986 18.1275 57.4756 17.4982 58.3249 17.4982C59.1697 17.4982 59.6512 18.1275 59.6512 19.2036C59.6512 20.2843 59.1697 20.9135 58.3249 20.9135Z" fill="white"/>
<path d="M68.1976 16.7231H67.221L66.3399 20.5123H66.2627L65.2452 16.7231H64.3096L63.2921 20.5123H63.2195L62.3338 16.7231H61.3436L62.7062 21.6887H63.71L64.7274 18.0317H64.8046L65.8266 21.6887H66.8395L68.1976 16.7231Z" fill="white"/>
<path d="M69.3222 21.6887H70.2987V18.7841C70.2987 18.0089 70.7575 17.5256 71.4797 17.5256C72.2019 17.5256 72.5471 17.9223 72.5471 18.7203V21.6887H73.5236V18.474C73.5236 17.293 72.915 16.6273 71.8113 16.6273C71.0664 16.6273 70.5758 16.9602 70.3351 17.5119H70.2624V16.7231H69.3222V21.6887Z" fill="white"/>
<path d="M75.0616 21.6887H76.0381V14.7852H75.0616V21.6887Z" fill="white"/>
<path d="M79.7108 21.7845C81.1552 21.7845 82.0409 20.8132 82.0409 19.2036C82.0409 17.6031 81.1507 16.6273 79.7108 16.6273C78.2665 16.6273 77.3762 17.6031 77.3762 19.2036C77.3762 20.8132 78.2619 21.7845 79.7108 21.7845ZM79.7108 20.9135C78.8615 20.9135 78.3845 20.2888 78.3845 19.2036C78.3845 18.1275 78.8615 17.4982 79.7108 17.4982C80.5557 17.4982 81.0371 18.1275 81.0371 19.2036C81.0371 20.2843 80.5557 20.9135 79.7108 20.9135Z" fill="white"/>
<path d="M84.9506 20.9455C84.4191 20.9455 84.0331 20.6855 84.0331 20.2387C84.0331 19.8009 84.3419 19.5684 85.0232 19.5228L86.2314 19.4453V19.8602C86.2314 20.4758 85.6864 20.9455 84.9506 20.9455ZM84.7008 21.7708C85.3503 21.7708 85.8908 21.4881 86.186 20.9911H86.2632V21.6887H87.2034V18.2962C87.2034 17.2475 86.504 16.6273 85.264 16.6273C84.1421 16.6273 83.3427 17.1745 83.2427 18.0272H84.1875C84.2965 17.6761 84.6735 17.4754 85.2186 17.4754C85.8862 17.4754 86.2314 17.7718 86.2314 18.2962V18.7248L84.8915 18.8023C83.7151 18.8753 83.052 19.3906 83.052 20.2843C83.052 21.1917 83.7469 21.7708 84.7008 21.7708Z" fill="white"/>
<path d="M90.5173 21.7708C91.1987 21.7708 91.7755 21.447 92.0707 20.9044H92.1479V21.6887H93.0836V14.7852H92.1071V17.5119H92.0344C91.7664 16.9647 91.1941 16.641 90.5173 16.641C89.2683 16.641 88.4643 17.635 88.4643 19.2036C88.4643 20.7767 89.2592 21.7708 90.5173 21.7708ZM90.7944 17.521C91.612 17.521 92.1252 18.1731 92.1252 19.2082C92.1252 20.2478 91.6165 20.8907 90.7944 20.8907C89.9677 20.8907 89.4727 20.2569 89.4727 19.2036C89.4727 18.1594 89.9723 17.521 90.7944 17.521Z" fill="white"/>
<path d="M99.4162 21.7845C100.861 21.7845 101.746 20.8132 101.746 19.2036C101.746 17.6031 100.856 16.6273 99.4162 16.6273C97.9718 16.6273 97.0815 17.6031 97.0815 19.2036C97.0815 20.8132 97.9673 21.7845 99.4162 21.7845ZM99.4162 20.9135C98.5668 20.9135 98.0899 20.2888 98.0899 19.2036C98.0899 18.1275 98.5668 17.4982 99.4162 17.4982C100.261 17.4982 100.742 18.1275 100.742 19.2036C100.742 20.2843 100.261 20.9135 99.4162 20.9135Z" fill="white"/>
<path d="M103.039 21.6887H104.015V18.7841C104.015 18.0089 104.474 17.5256 105.196 17.5256C105.919 17.5256 106.264 17.9223 106.264 18.7203V21.6887H107.24V18.474C107.24 17.293 106.632 16.6273 105.528 16.6273C104.783 16.6273 104.293 16.9602 104.052 17.5119H103.979V16.7231H103.039V21.6887Z" fill="white"/>
<path d="M111.738 15.4874V16.7459H110.952V17.5712H111.738V20.3755C111.738 21.333 112.169 21.7161 113.255 21.7161C113.446 21.7161 113.627 21.6933 113.786 21.6659V20.8497C113.65 20.8634 113.564 20.8725 113.414 20.8725C112.928 20.8725 112.714 20.6445 112.714 20.1247V17.5712H113.786V16.7459H112.714V15.4874H111.738Z" fill="white"/>
<path d="M115.097 21.6887H116.074V18.7887C116.074 18.0363 116.519 17.5302 117.318 17.5302C118.009 17.5302 118.377 17.9314 118.377 18.7248V21.6887H119.353V18.4832C119.353 17.3022 118.704 16.6319 117.65 16.6319C116.905 16.6319 116.383 16.9647 116.142 17.521H116.065V14.7852H115.097V21.6887Z" fill="white"/>
<path d="M122.876 17.4618C123.598 17.4618 124.071 17.9679 124.093 18.7476H121.595C121.65 17.9725 122.154 17.4618 122.876 17.4618ZM124.089 20.3481C123.907 20.7357 123.503 20.95 122.912 20.95C122.131 20.95 121.627 20.3983 121.595 19.5274V19.4726H125.088V19.1307C125.088 17.5712 124.257 16.6273 122.881 16.6273C121.486 16.6273 120.6 17.635 120.6 19.2218C120.6 20.8087 121.468 21.7845 122.885 21.7845C124.016 21.7845 124.806 21.2373 125.029 20.3481H124.089Z" fill="white"/>
</svg>
