<svg width="168" height="63" viewBox="0 0 168 63" fill="none" xmlns="http://www.w3.org/2000/svg">
<rect x="0.830566" y="1.43286" width="165.866" height="61" rx="10.5" fill="white" stroke="white"/>
<path d="M39.1203 32.8424C39.1528 30.3074 40.5089 27.9087 42.6602 26.581C41.303 24.6351 39.0299 23.4014 36.6648 23.3271C34.1424 23.0613 31.6969 24.8424 30.4115 24.8424C29.1012 24.8424 27.1221 23.3535 24.991 23.3975C22.2131 23.4876 19.6234 25.0731 18.2719 27.5112C15.3667 32.5607 17.5337 39.9818 20.3166 44.0634C21.709 46.0621 23.3363 48.2946 25.4655 48.2155C27.5491 48.1287 28.3273 46.8816 30.8423 46.8816C33.3341 46.8816 34.0642 48.2155 36.2366 48.1651C38.4724 48.1287 39.881 46.1576 41.2245 44.14C42.2249 42.7159 42.9947 41.1419 43.5054 39.4764C40.878 38.3608 39.1233 35.7063 39.1203 32.8424Z" fill="#090909"/>
<path d="M35.0169 20.6428C36.2359 19.1737 36.8365 17.2854 36.6911 15.3789C34.8286 15.5753 33.1083 16.4689 31.8728 17.8816C30.6646 19.262 30.0359 21.1171 30.1547 22.9507C32.0178 22.97 33.8494 22.1006 35.0169 20.6428Z" fill="#090909"/>
<path d="M113.436 30.2243V33.2961H111.518V35.3107H113.436V42.1555C113.436 44.4928 114.489 45.4277 117.139 45.4277C117.605 45.4277 118.048 45.3721 118.436 45.3053V43.313C118.104 43.3464 117.893 43.3687 117.527 43.3687C116.341 43.3687 115.82 42.8122 115.82 41.5434V35.3107H118.436V33.2961H115.82V30.2243H113.436Z" fill="#090909"/>
<path d="M125.186 45.5947C128.712 45.5947 130.874 43.224 130.874 39.2952C130.874 35.3886 128.701 33.0068 125.186 33.0068C121.661 33.0068 119.488 35.3886 119.488 39.2952C119.488 43.224 121.65 45.5947 125.186 45.5947ZM125.186 43.4689C123.113 43.4689 121.949 41.9441 121.949 39.2952C121.949 36.6685 123.113 35.1326 125.186 35.1326C127.248 35.1326 128.423 36.6685 128.423 39.2952C128.423 41.9329 127.248 43.4689 125.186 43.4689Z" fill="#090909"/>
<path d="M132.723 45.3609H135.107V38.2044C135.107 36.5016 136.382 35.3552 138.189 35.3552C138.61 35.3552 139.32 35.4331 139.519 35.4999V33.1403C139.264 33.0736 138.81 33.0402 138.455 33.0402C136.881 33.0402 135.539 33.9083 135.196 35.0992H135.018V33.2405H132.723V45.3609Z" fill="#090909"/>
<path d="M145.438 35.0435C147.201 35.0435 148.354 36.279 148.409 38.1822H142.311C142.444 36.2901 143.675 35.0435 145.438 35.0435ZM148.398 42.0888C147.954 43.0348 146.968 43.5579 145.527 43.5579C143.62 43.5579 142.389 42.2112 142.311 40.0854V39.9518H150.837V39.1171C150.837 35.3107 148.808 33.0068 145.449 33.0068C142.045 33.0068 139.883 35.4665 139.883 39.3397C139.883 43.2129 142.001 45.5947 145.46 45.5947C148.221 45.5947 150.15 44.2591 150.693 42.0888H148.398Z" fill="#090909"/>
<path d="M97.8047 40.8851C97.9885 43.8613 100.459 45.7647 104.136 45.7647C108.066 45.7647 110.525 43.769 110.525 40.5851C110.525 38.0819 109.123 36.6976 105.722 35.9016L103.895 35.4517C101.735 34.9441 100.861 34.2635 100.861 33.0753C100.861 31.5757 102.217 30.5951 104.251 30.5951C106.182 30.5951 107.515 31.5526 107.756 33.0869H110.261C110.111 30.2837 107.652 28.311 104.286 28.311C100.666 28.311 98.2528 30.2837 98.2528 33.2484C98.2528 35.6939 99.6203 37.1475 102.619 37.8511L104.757 38.3702C106.951 38.8894 107.917 39.6507 107.917 40.9197C107.917 42.3962 106.4 43.4691 104.332 43.4691C102.114 43.4691 100.574 42.4655 100.356 40.8851H97.8047Z" fill="#090909"/>
<path d="M73.1128 33.0402C71.472 33.0402 70.0529 33.8638 69.3212 35.2439H69.1438V33.2405H66.8489V49.39H69.2325V43.5245H69.421C70.0529 44.8044 71.4166 45.5613 73.135 45.5613C76.1838 45.5613 78.124 43.1461 78.124 39.2952C78.124 35.4442 76.1838 33.0402 73.1128 33.0402ZM72.4365 43.4132C70.4409 43.4132 69.1882 41.8328 69.1882 39.3063C69.1882 36.7687 70.4409 35.1882 72.4476 35.1882C74.4654 35.1882 75.6738 36.7353 75.6738 39.2952C75.6738 41.8662 74.4654 43.4132 72.4365 43.4132Z" fill="#090909"/>
<path d="M86.4646 33.0402C84.8238 33.0402 83.4047 33.8638 82.673 35.2439H82.4956V33.2405H80.2007V49.39H82.5843V43.5245H82.7728C83.4047 44.8044 84.7684 45.5613 86.4868 45.5613C89.5356 45.5613 91.4758 43.1461 91.4758 39.2952C91.4758 35.4442 89.5356 33.0402 86.4646 33.0402ZM85.7884 43.4132C83.7928 43.4132 82.54 41.8328 82.54 39.3063C82.54 36.7687 83.7928 35.1882 85.7994 35.1882C87.8172 35.1882 89.0256 36.7353 89.0256 39.2952C89.0256 41.8662 87.8172 43.4132 85.7884 43.4132Z" fill="#090909"/>
<path d="M62.5722 45.3609H65.3071L59.3203 28.7148H56.551L50.5642 45.3609H53.2071L54.7354 40.9427H61.0554L62.5722 45.3609ZM57.8035 31.7372H57.9989L60.4005 38.774H55.3904L57.8035 31.7372Z" fill="#090909"/>
<path d="M50.498 16.9736V23.5534H52.8645C54.8176 23.5534 55.9485 22.3451 55.9485 20.243C55.9485 18.1729 54.8085 16.9736 52.8645 16.9736H50.498ZM51.5155 17.9038H52.7509C54.109 17.9038 54.9129 18.7702 54.9129 20.2567C54.9129 21.766 54.1226 22.6232 52.7509 22.6232H51.5155V17.9038Z" fill="#090909"/>
<path d="M59.4123 23.6492C60.8567 23.6492 61.7424 22.678 61.7424 21.0684C61.7424 19.4679 60.8522 18.4921 59.4123 18.4921C57.9679 18.4921 57.0777 19.4679 57.0777 21.0684C57.0777 22.678 57.9634 23.6492 59.4123 23.6492ZM59.4123 22.7783C58.563 22.7783 58.086 22.1536 58.086 21.0684C58.086 19.9922 58.563 19.363 59.4123 19.363C60.2572 19.363 60.7386 19.9922 60.7386 21.0684C60.7386 22.149 60.2572 22.7783 59.4123 22.7783Z" fill="#090909"/>
<path d="M69.285 18.5878H68.3084L67.4273 22.377H67.3501L66.3326 18.5878H65.397L64.3795 22.377H64.3069L63.4212 18.5878H62.431L63.7936 23.5534H64.7974L65.8148 19.8965H65.892L66.914 23.5534H67.9269L69.285 18.5878Z" fill="#090909"/>
<path d="M70.4096 23.5534H71.3861V20.6489C71.3861 19.8737 71.8449 19.3903 72.5671 19.3903C73.2893 19.3903 73.6345 19.787 73.6345 20.585V23.5534H74.611V20.3388C74.611 19.1578 74.0024 18.4921 72.8987 18.4921C72.1538 18.4921 71.6632 18.8249 71.4225 19.3767H71.3498V18.5878H70.4096V23.5534Z" fill="#090909"/>
<path d="M76.149 23.5534H77.1255V16.6499H76.149V23.5534Z" fill="#090909"/>
<path d="M80.7982 23.6492C82.2426 23.6492 83.1283 22.678 83.1283 21.0684C83.1283 19.4679 82.2381 18.4921 80.7982 18.4921C79.3539 18.4921 78.4636 19.4679 78.4636 21.0684C78.4636 22.678 79.3493 23.6492 80.7982 23.6492ZM80.7982 22.7783C79.9489 22.7783 79.4719 22.1536 79.4719 21.0684C79.4719 19.9922 79.9489 19.363 80.7982 19.363C81.6431 19.363 82.1245 19.9922 82.1245 21.0684C82.1245 22.149 81.6431 22.7783 80.7982 22.7783Z" fill="#090909"/>
<path d="M86.038 22.8102C85.5065 22.8102 85.1205 22.5503 85.1205 22.1034C85.1205 21.6657 85.4293 21.4331 86.1106 21.3875L87.3188 21.31V21.725C87.3188 22.3405 86.7738 22.8102 86.038 22.8102ZM85.7882 23.6355C86.4377 23.6355 86.9782 23.3528 87.2734 22.8558H87.3506V23.5534H88.2908V20.161C88.2908 19.1122 87.5914 18.4921 86.3514 18.4921C85.2295 18.4921 84.4301 19.0392 84.3302 19.8919H85.2749C85.3839 19.5408 85.7609 19.3402 86.306 19.3402C86.9736 19.3402 87.3188 19.6366 87.3188 20.161V20.5896L85.9789 20.6671C84.8025 20.74 84.1394 21.2553 84.1394 22.149C84.1394 23.0564 84.8343 23.6355 85.7882 23.6355Z" fill="#090909"/>
<path d="M91.6047 23.6355C92.2861 23.6355 92.8629 23.3118 93.1581 22.7692H93.2353V23.5534H94.171V16.6499H93.1945V19.3767H93.1218C92.8538 18.8295 92.2815 18.5057 91.6047 18.5057C90.3557 18.5057 89.5517 19.4998 89.5517 21.0684C89.5517 22.6415 90.3466 23.6355 91.6047 23.6355ZM91.8818 19.3858C92.6994 19.3858 93.2126 20.0378 93.2126 21.0729C93.2126 22.1125 92.7039 22.7555 91.8818 22.7555C91.0551 22.7555 90.5601 22.1217 90.5601 21.0684C90.5601 20.0242 91.0597 19.3858 91.8818 19.3858Z" fill="#090909"/>
<path d="M100.504 23.6492C101.948 23.6492 102.834 22.678 102.834 21.0684C102.834 19.4679 101.943 18.4921 100.504 18.4921C99.0592 18.4921 98.1689 19.4679 98.1689 21.0684C98.1689 22.678 99.0547 23.6492 100.504 23.6492ZM100.504 22.7783C99.6542 22.7783 99.1773 22.1536 99.1773 21.0684C99.1773 19.9922 99.6542 19.363 100.504 19.363C101.348 19.363 101.83 19.9922 101.83 21.0684C101.83 22.149 101.348 22.7783 100.504 22.7783Z" fill="#090909"/>
<path d="M104.126 23.5534H105.103V20.6489C105.103 19.8737 105.562 19.3903 106.284 19.3903C107.006 19.3903 107.351 19.787 107.351 20.585V23.5534H108.328V20.3388C108.328 19.1578 107.719 18.4921 106.615 18.4921C105.87 18.4921 105.38 18.8249 105.139 19.3767H105.067V18.5878H104.126V23.5534Z" fill="#090909"/>
<path d="M112.825 17.3521V18.6106H112.04V19.4359H112.825V22.2402C112.825 23.1978 113.257 23.5808 114.342 23.5808C114.533 23.5808 114.715 23.558 114.874 23.5306V22.7144C114.738 22.7281 114.651 22.7372 114.501 22.7372C114.015 22.7372 113.802 22.5093 113.802 21.9894V19.4359H114.874V18.6106H113.802V17.3521H112.825Z" fill="#090909"/>
<path d="M116.185 23.5534H117.161V20.6534C117.161 19.901 117.606 19.3949 118.406 19.3949C119.096 19.3949 119.464 19.7962 119.464 20.5896V23.5534H120.441V20.3479C120.441 19.1669 119.791 18.4966 118.737 18.4966C117.992 18.4966 117.47 18.8295 117.229 19.3858H117.152V16.6499H116.185V23.5534Z" fill="#090909"/>
<path d="M123.963 19.3265C124.686 19.3265 125.158 19.8326 125.181 20.6124H122.683C122.737 19.8372 123.241 19.3265 123.963 19.3265ZM125.176 22.2129C124.994 22.6004 124.59 22.8148 124 22.8148C123.218 22.8148 122.714 22.263 122.683 21.3921V21.3374H126.175V20.9954C126.175 19.4359 125.344 18.4921 123.968 18.4921C122.574 18.4921 121.688 19.4998 121.688 21.0866C121.688 22.6734 122.555 23.6492 123.972 23.6492C125.103 23.6492 125.894 23.102 126.116 22.2129H125.176Z" fill="#090909"/>
</svg>
