<svg width="33" height="33" viewBox="0 0 33 33" fill="none" xmlns="http://www.w3.org/2000/svg">
<path d="M0.624268 5.5C0.624268 2.73858 2.86284 0.5 5.62427 0.5H27.6243C30.3857 0.5 32.6243 2.73858 32.6243 5.5V27.5C32.6243 30.2614 30.3857 32.5 27.6243 32.5H5.62427C2.86284 32.5 0.624268 30.2614 0.624268 27.5V5.5Z" fill="#07377E"/>
<path d="M13.278 11.5C13.7398 11.5 14.1661 11.5355 14.5569 11.6421C14.9476 11.7131 15.2674 11.8552 15.5516 12.0329C15.8358 12.2105 16.0489 12.4592 16.191 12.7789C16.3331 13.0986 16.4042 13.4894 16.4042 13.9157C16.4042 14.413 16.2976 14.8393 16.0489 15.159C15.8358 15.4788 15.4805 15.763 15.0542 15.9761C15.6581 16.1537 16.12 16.4734 16.4042 16.8997C16.6883 17.326 16.866 17.8589 16.866 18.4628C16.866 18.9602 16.7594 19.3865 16.5818 19.7417C16.4042 20.097 16.12 20.4167 15.8002 20.6298C15.4805 20.843 15.0897 21.0206 14.6634 21.1272C14.2372 21.2337 13.8109 21.3048 13.3846 21.3048H8.62427V11.5H13.278ZM12.9938 15.4788C13.3846 15.4788 13.7043 15.3722 13.953 15.1946C14.2016 15.0169 14.3082 14.6972 14.3082 14.3064C14.3082 14.0933 14.2727 13.8801 14.2016 13.738C14.1306 13.596 14.024 13.4894 13.8819 13.3828C13.7398 13.3118 13.5977 13.2407 13.4201 13.2052C13.2425 13.1697 13.0648 13.1697 12.8517 13.1697H10.7913V15.4788H12.9938ZM13.1004 19.6707C13.3135 19.6707 13.5267 19.6351 13.7043 19.5996C13.8819 19.5641 14.0595 19.493 14.2016 19.3865C14.3437 19.2799 14.4503 19.1733 14.5569 18.9957C14.6279 18.8181 14.699 18.6049 14.699 18.3562C14.699 17.8589 14.5569 17.5037 14.2727 17.255C13.9885 17.0418 13.5977 16.9353 13.1359 16.9353H10.7913V19.6707H13.1004ZM19.9566 19.6351C20.2408 19.9193 20.6671 20.0614 21.2355 20.0614C21.6263 20.0614 21.9815 19.9549 22.2657 19.7772C22.5499 19.5641 22.7275 19.3509 22.7986 19.1378H24.5393C24.2551 19.9904 23.8288 20.5943 23.2604 20.9851C22.692 21.3403 22.017 21.5535 21.2 21.5535C20.6316 21.5535 20.1342 21.4469 19.6724 21.2693C19.2106 21.0916 18.8553 20.843 18.5356 20.4877C18.2159 20.168 17.9672 19.7772 17.8251 19.3154C17.6475 18.8536 17.5765 18.3562 17.5765 17.7879C17.5765 17.255 17.6475 16.7576 17.8251 16.2958C18.0028 15.834 18.2514 15.4432 18.5712 15.088C18.8909 14.7683 19.2816 14.4841 19.7079 14.3064C20.1698 14.1288 20.6316 14.0222 21.2 14.0222C21.8039 14.0222 22.3368 14.1288 22.7986 14.3775C23.2604 14.6262 23.6156 14.9104 23.8998 15.3367C24.184 15.7274 24.3972 16.1892 24.5393 16.6866C24.6103 17.1839 24.6459 17.6813 24.6103 18.2497H19.4593C19.4593 18.8181 19.6724 19.3509 19.9566 19.6351ZM22.1947 15.905C21.946 15.6564 21.5552 15.5143 21.0934 15.5143C20.7737 15.5143 20.525 15.5853 20.3119 15.6919C20.0987 15.7985 19.9566 15.9406 19.8145 16.0827C19.6724 16.2248 19.6014 16.4024 19.5658 16.58C19.5303 16.7576 19.4948 16.8997 19.4948 17.0418H22.692C22.621 16.509 22.4433 16.1537 22.1947 15.905ZM19.0685 12.175H23.0472V13.1341H19.0685V12.175Z" fill="white"/>
</svg>
