<svg width="33" height="33" viewBox="0 0 33 33" fill="none" xmlns="http://www.w3.org/2000/svg">
<path d="M0.624268 5.97559C0.624268 3.21416 2.86284 0.975586 5.62427 0.975586H27.6243C30.3857 0.975586 32.6243 3.21416 32.6243 5.97559V27.9756C32.6243 30.737 30.3857 32.9756 27.6243 32.9756H5.62427C2.86284 32.9756 0.624268 30.737 0.624268 27.9756V5.97559Z" fill="#2B2B2B"/>
<path d="M13.278 11.9756C13.7398 11.9756 14.1661 12.0111 14.5569 12.1177C14.9476 12.1887 15.2674 12.3308 15.5516 12.5085C15.8358 12.6861 16.0489 12.9347 16.191 13.2545C16.3331 13.5742 16.4042 13.965 16.4042 14.3913C16.4042 14.8886 16.2976 15.3149 16.0489 15.6346C15.8358 15.9543 15.4805 16.2385 15.0542 16.4517C15.6581 16.6293 16.12 16.949 16.4042 17.3753C16.6883 17.8016 16.866 18.3345 16.866 18.9384C16.866 19.4357 16.7594 19.862 16.5818 20.2173C16.4042 20.5725 16.12 20.8923 15.8002 21.1054C15.4805 21.3186 15.0897 21.4962 14.6634 21.6027C14.2372 21.7093 13.8109 21.7804 13.3846 21.7804H8.62427V11.9756H13.278ZM12.9938 15.9543C13.3846 15.9543 13.7043 15.8478 13.953 15.6701C14.2016 15.4925 14.3082 15.1728 14.3082 14.782C14.3082 14.5689 14.2727 14.3557 14.2016 14.2136C14.1306 14.0715 14.024 13.965 13.8819 13.8584C13.7398 13.7873 13.5977 13.7163 13.4201 13.6808C13.2425 13.6452 13.0648 13.6452 12.8517 13.6452H10.7913V15.9543H12.9938ZM13.1004 20.1462C13.3135 20.1462 13.5267 20.1107 13.7043 20.0752C13.8819 20.0397 14.0595 19.9686 14.2016 19.862C14.3437 19.7555 14.4503 19.6489 14.5569 19.4713C14.6279 19.2937 14.699 19.0805 14.699 18.8318C14.699 18.3345 14.5569 17.9792 14.2727 17.7306C13.9885 17.5174 13.5977 17.4108 13.1359 17.4108H10.7913V20.1462H13.1004ZM19.9566 20.1107C20.2408 20.3949 20.6671 20.537 21.2355 20.537C21.6263 20.537 21.9815 20.4304 22.2657 20.2528C22.5499 20.0397 22.7275 19.8265 22.7986 19.6134H24.5393C24.2551 20.466 23.8288 21.0699 23.2604 21.4607C22.692 21.8159 22.017 22.029 21.2 22.029C20.6316 22.029 20.1342 21.9225 19.6724 21.7448C19.2106 21.5672 18.8553 21.3186 18.5356 20.9633C18.2159 20.6436 17.9672 20.2528 17.8251 19.791C17.6475 19.3292 17.5765 18.8318 17.5765 18.2634C17.5765 17.7306 17.6475 17.2332 17.8251 16.7714C18.0028 16.3096 18.2514 15.9188 18.5712 15.5636C18.8909 15.2438 19.2816 14.9597 19.7079 14.782C20.1698 14.6044 20.6316 14.4978 21.2 14.4978C21.8039 14.4978 22.3368 14.6044 22.7986 14.8531C23.2604 15.1017 23.6156 15.3859 23.8998 15.8122C24.184 16.203 24.3972 16.6648 24.5393 17.1622C24.6103 17.6595 24.6459 18.1569 24.6103 18.7253H19.4593C19.4593 19.2937 19.6724 19.8265 19.9566 20.1107ZM22.1947 16.3806C21.946 16.132 21.5552 15.9899 21.0934 15.9899C20.7737 15.9899 20.525 16.0609 20.3119 16.1675C20.0987 16.2741 19.9566 16.4162 19.8145 16.5583C19.6724 16.7004 19.6014 16.878 19.5658 17.0556C19.5303 17.2332 19.4948 17.3753 19.4948 17.5174H22.692C22.621 16.9846 22.4433 16.6293 22.1947 16.3806ZM19.0685 12.6506H23.0472V13.6097H19.0685V12.6506Z" fill="white"/>
</svg>
