<svg width="72" height="73" viewBox="0 0 72 73" fill="none" xmlns="http://www.w3.org/2000/svg">
<path d="M15.3333 5.97207H56.6667C62.5945 5.97207 67.4 10.7778 67.4 16.706V56.4415C67.4 62.3697 62.5945 67.1754 56.6667 67.1754H15.3333C9.40551 67.1754 4.6 62.3697 4.6 56.4415V16.706C4.6 10.7778 9.40551 5.97207 15.3333 5.97207Z" fill="black" stroke="#2A2A2A" stroke-width="1.2"/>
<path d="M59.5584 38.7697C59.2812 36.8118 58.6029 34.9562 57.5429 33.2541C56.6194 31.7675 55.4335 30.4473 54.0194 29.3233L54.0237 29.319L39.164 17.9061C39.1534 17.8975 39.1427 17.8869 39.1299 17.8805C38.6351 17.503 37.9675 17.2939 37.2466 17.2939C36.5257 17.2939 35.8304 17.503 35.2908 17.8826C34.7106 18.2879 34.3779 18.8275 34.3544 19.3991C34.3331 19.9344 34.589 20.4484 35.0753 20.8494C36.0309 21.6045 36.9864 22.3744 37.9419 23.1465C38.8697 23.8952 39.8252 24.6672 40.7765 25.4201L22.5768 25.4073C20.4951 25.4073 19.0789 26.3842 18.7867 28.0201C18.6587 28.7367 18.8848 29.5259 19.3903 30.1295C19.9256 30.7694 20.7041 31.1213 21.5829 31.1213H22.9713C24.8888 31.1213 26.8126 31.117 28.7365 31.1128L30.5707 31.1085L14.0517 43.3298L13.9856 43.3767C13.0621 44.0848 12.4585 45.0745 12.3284 46.0961C12.2303 46.8703 12.4094 47.5763 12.8509 48.1415C13.3756 48.8155 14.1946 49.1845 15.1587 49.1845C16.1057 49.1845 17.0719 48.8262 17.8802 48.1735L26.7998 40.8727C26.7614 41.2289 26.7145 41.7515 26.7209 42.1311C26.7316 42.7326 26.9235 43.9376 27.2285 44.9166C27.8599 46.9279 28.922 48.7686 30.3873 50.3853C31.9123 52.0681 33.77 53.4012 35.9071 54.3481C38.1658 55.3485 40.5952 55.8539 43.1269 55.8539H43.1503C45.6906 55.8475 48.1263 55.3335 50.3935 54.3226C52.5349 53.3649 54.3905 52.0255 55.9091 50.3426C57.3723 48.7174 58.4344 46.8746 59.0636 44.8633C59.375 43.8673 59.5755 42.8414 59.6587 41.8027C59.7333 40.8045 59.6992 39.7807 59.5584 38.7697ZM43.3082 48.4124C37.7286 48.4124 33.2048 44.3664 33.2048 39.3733C33.2048 34.3824 37.7286 30.3343 43.3082 30.3343C48.8877 30.3343 53.4094 34.3803 53.4094 39.3733C53.4094 44.3664 48.8856 48.4124 43.3082 48.4124ZM49.133 38.5799C49.2162 40.0708 48.6211 41.4529 47.576 42.4766C46.5139 43.5196 44.9953 44.1744 43.2996 44.1744C41.604 44.1744 40.0876 43.5196 39.0233 42.4766C37.9782 41.4529 37.3852 40.0686 37.4663 38.5799C37.5473 37.1317 38.2533 35.8541 39.3155 34.9498C40.3606 34.0604 41.7661 33.5186 43.2996 33.5186C44.8332 33.5186 46.2366 34.0625 47.2838 34.9498C48.346 35.8562 49.052 37.1338 49.133 38.5799Z" fill="white"/>
</svg>
