<svg width="127" height="294" viewBox="0 0 127 294" fill="none" xmlns="http://www.w3.org/2000/svg">
<path fill-rule="evenodd" clip-rule="evenodd" d="M43.0271 267.566C44.2472 266.689 46.0196 264.88 46.8176 262.851L59.1929 262.258C59.0501 263.791 58.8884 265.322 58.7078 266.849C58.4243 269.257 57.8846 271.652 56.8346 273.837C54.9509 277.763 49.7177 279.37 46.3871 279.974C43.2623 280.539 40.4525 280.998 37.5671 280.394C35.3831 279.936 34.52 277.921 34.436 276.188C34.2465 272.255 37.5402 270.55 40.4353 269.051C41.3887 268.558 42.2988 268.087 43.0271 267.566ZM73.9391 269.141C71.6186 269.793 69.0293 269.816 66.902 268.684L66.1061 268.182C66.1124 268.777 66.1166 269.372 66.1166 269.969C66.1166 270.183 66.1227 270.398 66.1289 270.616C66.1721 272.144 66.2202 273.844 64.2266 276.605C64.1066 276.77 63.9519 276.971 63.7741 277.202C62.8851 278.357 61.4172 280.263 60.7994 282.3C60.4571 283.439 60.5684 284.668 61.1102 285.725C61.6499 286.783 62.5802 287.591 63.7037 287.978C66.6311 289 69.9281 288.775 72.8282 287.622C73.6808 287.263 74.4914 286.811 75.2432 286.272C81.4823 282.02 81.6965 274.836 81.6566 271.982C81.6251 269.772 81.5873 267.566 81.5453 265.364L80.4491 266.054C78.368 267.267 76.2596 268.489 73.9391 269.141Z" fill="#07377E"/>
<path fill-rule="evenodd" clip-rule="evenodd" d="M46.9338 232.319C46.7517 227.38 46.5629 222.259 46.4628 217.936L61.6752 217.387C61.2783 222.895 60.7722 233.538 60.5412 239.061L60.1716 239.341C58.5546 240.603 56.4525 241.114 54.4029 241.147C52.0858 241.186 51.2327 240.999 49.6801 240.659C49.2824 240.572 48.8388 240.475 48.3129 240.369L47.2041 239.89C47.1254 237.515 47.0306 234.943 46.9338 232.319ZM64.8005 228.236C64.7008 225.971 64.6029 223.745 64.5123 221.644L80.97 221.048C80.9154 226.966 80.9553 233.454 81.0393 239.324L80.109 240.165C79.395 241.236 78.4689 242.144 77.3853 242.834C76.3038 243.526 75.0879 243.982 73.8195 244.176C72.5511 244.369 71.2554 244.295 70.0164 243.961C68.7774 243.627 67.6224 243.036 66.6228 242.228L65.3733 241.583C65.2042 237.411 64.9988 232.743 64.8005 228.236Z" fill="white"/>
<path fill-rule="evenodd" clip-rule="evenodd" d="M91.5603 174.535L84.3699 134.001L40.923 134.292C36.1308 160.815 33.4386 187.679 32.8737 214.628C32.859 215.255 32.8737 215.949 33.2937 216.409C33.6108 216.756 34.0959 216.889 34.5537 217C41.4669 218.672 48.6321 219.023 55.6755 218.031L56.3874 220.847C69.4599 223.276 82.9398 222.256 95.4999 217.888C95.4999 217.888 94.0803 188.735 91.5603 174.535ZM58.9704 262.356C54.2433 264.449 51.297 264.182 46.7904 262.878L46.8009 262.851C47.034 262.277 47.1726 261.667 47.2104 261.046C47.5443 254.089 47.4309 246.975 47.1957 239.89L48.3045 240.369L48.3159 240.371L48.316 240.371C50.324 240.774 52.3488 241.181 54.3945 241.147C56.4441 241.114 58.5462 240.603 60.1632 239.341L60.5328 239.061L60.4878 240.136C60.1783 247.539 59.8692 254.93 59.1762 262.258L58.9704 262.356ZM66.9021 268.684C69.0294 269.816 71.6187 269.793 73.9392 269.141C76.2597 268.489 78.3681 267.267 80.4492 266.054L81.5454 265.364C81.4853 262.175 81.4177 258.992 81.35 255.81L81.35 255.81C81.2332 250.312 81.1164 244.819 81.0393 239.313L80.109 240.155C79.3971 241.223 78.4689 242.131 77.3853 242.823C76.3017 243.513 75.0879 243.972 73.8195 244.165C72.5511 244.359 71.2554 244.287 70.0164 243.951C68.7774 243.616 67.6203 243.025 66.6228 242.218L65.3733 241.572C65.7324 250.445 66.0243 259.311 66.0999 268.18L66.9021 268.684Z" fill="#F15F30"/>
<path fill-rule="evenodd" clip-rule="evenodd" d="M65.8454 223.263C67.3448 223.35 68.8458 223.393 70.3461 223.393C73.4724 223.393 76.5968 223.205 79.7003 222.83C79.6623 228.208 79.6986 233.596 79.7721 238.947C79.492 239.026 79.2374 239.201 79.0632 239.463C78.4437 240.392 77.652 241.168 76.7112 241.768C75.7704 242.367 74.733 242.758 73.6305 242.926C72.528 243.095 71.4234 243.032 70.3461 242.741C69.2688 242.449 68.2839 241.946 67.4145 241.244C67.1781 241.053 66.8938 240.962 66.6121 240.964C66.4492 236.966 66.2737 232.991 66.0999 229.055C66.0138 227.125 65.9295 225.193 65.8454 223.263ZM63.3146 223.075C63.0885 223.055 62.8623 223.033 62.6363 223.011C62.2447 228.549 62.008 234.192 61.7787 239.659L61.7787 239.659L61.7717 239.824L61.7716 239.827C61.3979 248.764 61.0114 258.004 59.9511 266.994C59.6109 269.89 58.9599 272.306 57.9624 274.382C55.7805 278.931 49.9088 280.613 46.6034 281.212C44.369 281.614 42.3762 281.934 40.4253 281.934C39.3816 281.934 38.3505 281.841 37.3004 281.622C35.4084 281.225 33.3315 279.604 33.1677 276.243C32.9388 271.5 36.9309 269.433 39.8478 267.923L39.8513 267.921L39.8515 267.921C40.7678 267.447 41.6316 266.999 42.2859 266.531C43.6488 265.553 45.8538 263.181 45.9588 260.977C46.4156 251.477 46.0255 241.576 45.6483 232.001L45.6459 231.94L45.6397 231.784C45.484 227.822 45.3232 223.731 45.2294 219.786C41.5444 219.622 37.8767 219.1 34.2534 218.222L34.2483 218.221C33.7605 218.101 32.9535 217.902 32.3634 217.259C31.5738 216.392 31.5969 215.225 31.6095 214.596C32.1744 187.663 34.8897 160.567 39.6777 134.06C39.8016 133.375 40.4568 132.918 41.1414 133.042C41.826 133.167 42.2817 133.823 42.1578 134.508C37.3929 160.885 34.6923 187.846 34.1274 214.647C34.1148 215.297 34.1694 215.499 34.2177 215.551C34.2946 215.63 34.6815 215.727 34.8298 215.764L34.8456 215.768C41.6142 217.406 48.5439 217.747 55.4426 216.782C56.4527 203.031 56.747 189.117 56.316 175.36C56.2614 173.543 56.169 172.056 55.5474 170.788C55.0224 169.715 53.8842 168.714 52.7271 168.872C52.0362 168.967 51.402 168.483 51.3075 167.793C51.213 167.103 51.696 166.466 52.3848 166.371C54.8313 166.037 56.9124 167.85 57.8091 169.675C58.7205 171.534 58.7835 173.612 58.8339 175.282C59.298 190.073 58.9284 205.046 57.7356 219.806C69.9114 221.877 82.4715 220.912 94.1916 217C93.9207 211.871 92.541 187.28 90.3192 174.756L83.1288 134.222C83.007 133.537 83.4648 132.881 84.1494 132.759C84.834 132.634 85.4892 133.095 85.611 133.781L92.8014 174.315C95.3067 188.43 96.7452 217.534 96.7578 217.827C96.7851 218.386 96.4407 218.897 95.9136 219.08C91.4523 220.632 86.8672 221.768 82.223 222.483C82.1374 233.568 82.3729 244.716 82.6009 255.509L82.6059 255.742C82.7193 261.053 82.8348 266.544 82.9146 271.972C82.9818 276.76 81.8289 283.309 75.9615 287.315C75.1383 287.902 74.2479 288.401 73.3155 288.794C73.3071 288.798 73.2987 288.8 73.2924 288.804C71.4423 289.532 69.5313 289.902 67.6665 289.902C66.1566 289.902 64.6761 289.66 63.2838 289.174C61.8516 288.68 60.6756 287.66 59.9826 286.306C59.2896 284.949 59.1489 283.399 59.5878 281.942C60.2745 279.681 61.8369 277.652 62.7714 276.438C62.9415 276.22 63.0885 276.028 63.2019 275.871C64.9596 273.454 64.9155 272.089 64.8672 270.642L64.863 270.502C64.8577 270.327 64.8525 270.155 64.8525 269.984C64.7833 256.415 64.1743 242.601 63.5852 229.238L63.5852 229.238L63.582 229.164C63.4915 227.136 63.4031 225.106 63.3146 223.075ZM55.2449 219.357C52.7616 219.681 50.2719 219.843 47.7858 219.843L47.752 219.843C47.8455 223.783 48.0077 227.878 48.1658 231.839C48.2611 234.245 48.357 236.67 48.4402 239.106C48.4802 239.11 48.5204 239.116 48.5606 239.124L48.5732 239.126L48.5915 239.13C50.5903 239.53 52.4787 239.909 54.3818 239.877C55.7732 239.854 57.7451 239.578 59.3088 238.405C59.5256 233.243 59.7595 227.942 60.1303 222.72C58.8018 222.544 57.4767 222.333 56.1564 222.087C55.5201 221.97 55.077 221.387 55.1316 220.741C55.1702 220.28 55.2079 219.819 55.2449 219.357ZM48.523 241.691C48.7157 248.181 48.7849 254.716 48.4788 261.099C48.4641 261.403 48.4263 261.703 48.3683 262C51.8291 262.894 54.3122 262.944 57.9976 261.403C58.5981 254.751 58.9055 248 59.1836 241.393C57.5024 242.165 55.749 242.379 54.4238 242.401C54.3377 242.403 54.2495 242.403 54.1634 242.403C52.2314 242.403 50.3495 242.054 48.523 241.691ZM57.7252 264.212C57.6388 265.042 57.5473 265.871 57.45 266.697C57.1413 269.309 56.568 271.465 55.6923 273.286C55.1064 274.508 53.0022 277.486 46.1562 278.727C42.8991 279.315 40.3937 279.692 37.8192 279.153C35.9586 278.762 35.7171 276.733 35.6877 276.121C35.547 273.214 37.7037 271.875 41.007 270.165L41.0653 270.135C42.0433 269.627 42.9672 269.147 43.7538 268.584C44.7801 267.848 46.4239 266.301 47.4788 264.376C49.3021 264.858 50.936 265.147 52.5863 265.147C54.2163 265.147 55.8636 264.866 57.7252 264.212ZM80.0874 255.766C79.9942 251.39 79.8999 246.954 79.8259 242.487C79.2942 243.016 78.7054 243.487 78.0636 243.896C76.8246 244.685 75.4617 245.198 74.0106 245.421C73.4793 245.498 72.948 245.541 72.4188 245.541C71.5011 245.541 70.5876 245.419 69.6888 245.177C68.6299 244.891 67.6379 244.449 66.7275 243.859C67.0334 251.716 67.278 259.642 67.3542 267.508C67.4016 267.526 67.4483 267.547 67.4942 267.572C69.1364 268.447 71.3057 268.573 73.5989 267.927C75.7913 267.311 77.8367 266.119 79.8149 264.964C79.9601 264.879 80.1153 264.827 80.2722 264.805C80.2205 262.107 80.1641 259.419 80.1085 256.772L80.1085 256.772L80.1085 256.772L80.1085 256.771L80.088 255.795L80.0874 255.767L80.0874 255.766ZM67.3869 270.553C67.3839 270.46 67.381 270.367 67.3785 270.275C68.432 270.661 69.5891 270.855 70.8038 270.855C71.9231 270.855 73.0949 270.689 74.2772 270.356C76.47 269.741 78.4982 268.64 80.3234 267.586C80.3495 269.061 80.3735 270.535 80.3946 272.005C80.4786 278.075 78.5067 282.527 74.5314 285.235C74.5261 285.239 74.5216 285.243 74.5169 285.246L74.5083 285.252C73.8384 285.734 73.1118 286.14 72.3495 286.462C69.6153 287.545 66.6144 287.667 64.1112 286.792C63.2901 286.51 62.6223 285.929 62.2275 285.158C61.8327 284.384 61.7508 283.503 62.0007 282.674C62.553 280.859 63.939 279.057 64.7685 277.98C64.9554 277.738 65.1171 277.528 65.241 277.355C67.5051 274.243 67.4398 272.204 67.3873 270.566L67.3872 270.563L67.3869 270.553Z" fill="#07377E"/>
<g clip-path="url(#clip0_1776_5442)">
<path d="M71.6754 80.3828C71.8644 82.5042 72.7317 87.2973 75.9594 86.579L76.3059 87.1041C76.1484 90.3954 74.481 92.7164 71.8686 95.1214C69.2142 97.5264 65.829 98.9714 62.2569 99.2256C59.1069 99.4566 55.7574 98.7026 53.4012 96.5896C51.045 94.4766 49.806 91.5486 51.3663 89.0386H51.5931C52.3029 89.0596 52.956 88.6878 53.5566 88.3097C54.321 87.8266 55.8981 85.8459 56.3706 85.2767C57.0006 84.4597 57.2568 81.3615 57.5802 80.3828H71.6754V80.3828Z" fill="white"/>
<path d="M76.4045 85.4048C79.6196 86.2639 82.2572 88.5744 84.4223 91.0949C87.1586 94.2938 89.3279 97.938 90.8399 101.868C94.1852 110.57 94.1873 120.379 98.2214 128.785C96.0311 129.434 93.803 129.938 91.5476 130.297L93.3662 138.923C98.0177 153.328 101.254 164.376 105.504 178.279C105.714 178.989 106.554 181.499 106.166 182.127C105.905 182.547 105.469 182.816 105.042 183.057C102.711 184.383 100.166 184.494 97.5368 185.023L87.7781 186.966C73.811 189.472 59.7935 190.085 45.8012 187.725L43.1615 187.416L34.1315 185.687C33.3167 185.532 32.4221 185.324 31.9454 184.637C31.5506 184.074 31.5527 183.333 31.5821 182.646C31.7018 179.915 32.0168 177.206 32.3318 174.494L34.8161 153.07C35.8976 143.918 36.9476 134.729 38.4176 125.609L38.3168 125.567C35.8745 124.727 33.47 123.794 31.0634 122.859C30.7316 122.765 30.4334 122.58 30.1982 122.328C29.7257 121.719 30.131 120.845 30.5363 120.188C34.1126 114.37 37.1702 108.249 39.6776 101.895C41.5928 97.0432 43.592 91.5843 48.2666 89.2717L53.5649 87.0537C53.1155 87.8203 53.6846 90.0068 54.2915 90.6559C54.8984 91.3049 55.7615 91.6452 56.6015 91.9161C59.4197 92.7941 62.4815 93.0272 65.3417 92.3362C68.2019 91.6452 70.8752 89.9669 72.5552 87.5367C72.9752 86.9402 73.3259 86.2933 73.8467 85.7871C74.3675 85.2809 75.1067 84.9238 75.8144 85.0814L76.4045 85.4048Z" fill="#FEC426"/>
<path fill-rule="evenodd" clip-rule="evenodd" d="M29.9189 161.364L33.0458 124.13L38.6045 124.011C37.019 133.658 35.8892 143.389 34.7615 153.103L32.2772 174.528L32.2761 174.538C31.9615 177.246 31.6471 179.952 31.5275 182.679L31.37 183.223C29.7551 182.934 27.9785 182.455 27.1217 181.056C26.3723 179.838 26.575 178.389 26.7802 176.923C26.9579 175.653 27.1374 174.37 26.7017 173.213C26.4747 172.608 26.0844 172.029 25.6997 171.458C24.9745 170.382 24.2692 169.335 24.7151 168.201C25.0672 167.314 25.9579 166.899 26.8589 166.48C27.425 166.216 27.9952 165.951 28.4384 165.565C29.5871 164.565 29.7908 162.885 29.9189 161.364ZM85.1762 172.198C83.5004 158.567 82.4735 144.889 82.0976 131.167L92.4632 130.852L97.5662 177.393C97.8791 180.253 98.1227 183.406 96.4574 185.754C95.819 186.653 94.9412 187.359 93.9248 187.79C92.9084 188.22 91.7933 188.359 90.7013 188.191C89.6114 188.023 88.5887 187.552 87.7487 186.836C86.9087 186.12 86.2871 185.183 85.949 184.131C85.8274 183.747 85.742 183.349 85.657 182.953C85.4793 182.125 85.3031 181.303 84.8003 180.636C84.272 179.936 83.4639 179.52 82.6619 179.106C81.7424 178.632 80.8311 178.162 80.3588 177.275C79.7078 176.044 80.2412 174.429 81.2954 173.524C82.3496 172.618 83.7881 172.284 85.1762 172.198Z" fill="white"/>
<path fill-rule="evenodd" clip-rule="evenodd" d="M71.9295 85.5246C71.9893 85.6312 72.0498 85.7388 72.112 85.8465C71.9903 86.0205 71.8775 86.1923 71.7699 86.3563C71.6649 86.5159 71.5599 86.6756 71.4444 86.8415C70.0038 88.9251 67.6455 90.4899 64.9722 91.1327C62.4648 91.7355 59.676 91.5989 56.9145 90.7378C56.2341 90.5172 55.5474 90.2547 55.1379 89.8157C54.8978 89.5588 54.7715 89.1831 54.8336 88.9518C55.3209 88.606 55.7015 88.262 55.982 88.0084L55.9926 87.9988L56.0661 87.9316C57.1014 86.9969 57.4143 86.4445 57.6894 85.869C57.7209 85.8018 57.7524 85.7367 57.7881 85.6674C58.1115 85.052 57.8763 84.2895 57.261 83.9639C56.6457 83.6405 55.8834 83.8757 55.5579 84.4911C55.5054 84.592 55.4592 84.6865 55.413 84.7831C55.2685 85.0874 55.1498 85.3349 54.5719 85.8812C54.2052 85.4578 53.5862 85.3171 53.061 85.5771L49.6611 87.2574C49.2477 87.4621 48.9958 87.8632 48.9627 88.2921C48.5934 88.0078 48.0802 87.94 47.6346 88.1606C42.7017 90.5992 40.5492 96.0687 38.6508 100.895L38.4324 101.452C35.9565 107.72 32.9115 113.809 29.3835 119.547C28.4931 120.994 28.4049 122.196 29.1231 123.122C29.1462 123.151 29.1693 123.179 29.1945 123.206C29.5704 123.611 30.0471 123.91 30.5742 124.074L30.5784 124.076C30.9654 124.226 31.3545 124.377 31.7455 124.529L28.6611 161.257C28.5435 162.646 28.3755 163.946 27.609 164.614C27.3003 164.883 26.8278 165.103 26.3259 165.336L26.32 165.339C25.3214 165.805 24.0778 166.385 23.5413 167.739C22.8546 169.489 23.852 170.969 24.6542 172.16L24.6543 172.16L24.6853 172.207C25.0288 172.719 25.3523 173.201 25.5216 173.656C25.845 174.513 25.6938 175.599 25.5321 176.748C25.3116 178.323 25.0617 180.111 26.0466 181.713C27.0092 183.285 28.7022 183.94 30.3703 184.308C30.4593 184.685 30.6093 185.057 30.8556 185.408C31.6452 186.529 33.0081 186.805 33.8355 186.971L41.5152 188.441C41.595 188.456 41.6748 188.464 41.7525 188.464C42.3447 188.464 42.8739 188.044 42.9873 187.443C43.1196 186.761 42.6702 186.099 41.9877 185.969L34.3185 184.5C33.8733 184.412 33.1257 184.261 32.9157 183.963C32.7372 183.711 32.7645 183.085 32.7792 182.751C32.8987 180.07 33.2151 177.342 33.5213 174.701L33.5226 174.689L36.0069 153.265L36.0678 152.74L36.0735 152.691C37.7937 137.961 39.5723 122.732 43.0167 108.108C43.1763 107.43 42.7563 106.751 42.0801 106.592C41.3997 106.43 40.7235 106.852 40.5639 107.529C39.2888 112.941 38.2411 118.426 37.3401 123.932C35.3842 123.232 33.4288 122.473 31.526 121.734L31.5258 121.734L31.4919 121.721L31.4415 121.702C31.4058 121.69 31.3701 121.677 31.3323 121.666C31.2777 121.652 31.2273 121.629 31.1811 121.601C31.2084 121.484 31.2903 121.255 31.5297 120.866C35.1354 115.002 38.2476 108.78 40.776 102.376L40.9965 101.818C42.813 97.2008 44.6925 92.4266 48.7518 90.4207C49.1651 90.216 49.4171 89.8149 49.4501 89.386C49.5953 89.4976 49.7628 89.5758 49.9397 89.6161C49.5678 89.9157 49.384 90.4152 49.5099 90.908C50.0853 93.1743 52.1034 94.5102 53.9493 95.5835C55.7532 96.6337 57.828 96.8396 59.6319 96.9509C60.495 97.0055 61.4442 97.0475 62.4438 97.0475C64.5207 97.0475 66.8202 96.8648 69.0273 96.2115C72.8388 95.0878 75.2748 91.5381 76.3878 89.5238C76.7238 88.9147 76.5033 88.148 75.8943 87.812C75.2853 87.4759 74.5188 87.6964 74.1828 88.3056C73.2567 89.9817 71.2638 92.9244 68.3154 93.7939C65.4342 94.6446 62.385 94.5963 59.7852 94.4367C58.2711 94.3422 56.5428 94.1783 55.2156 93.4054C53.8128 92.5904 52.2882 91.6074 51.9522 90.2883C51.8367 89.8291 51.483 89.4938 51.0568 89.3798L52.3169 88.757C52.2154 89.7145 52.5586 90.7467 53.2983 91.538C54.1005 92.395 55.14 92.813 56.1543 93.1407C58.0359 93.7288 59.9343 94.0228 61.7781 94.0228C63.0759 94.0228 64.3443 93.8779 65.5644 93.5838C68.832 92.7962 71.73 90.8617 73.5129 88.2845C73.6388 88.106 73.7585 87.9234 73.8781 87.7407L73.8783 87.7405L73.8852 87.7299C74.1388 87.3431 74.3785 86.9777 74.6511 86.7134C74.919 86.4517 75.2567 86.2927 75.4591 86.3318C75.6084 86.4775 75.7961 86.5882 76.0119 86.6462C78.5004 87.312 80.9175 89.047 83.3976 91.9455C86.0478 95.0437 88.1331 98.545 89.5968 102.351C91.0731 106.188 91.9047 110.364 92.709 114.405L92.7098 114.41C93.6147 118.951 94.5471 123.632 96.4029 127.997C90.0315 129.692 83.4984 130.154 76.9485 129.373L77.4903 110.385C77.5092 109.69 76.9611 109.108 76.266 109.089C75.5709 109.064 74.9892 109.618 74.9703 110.314L74.397 130.44C74.3781 131.081 74.8443 131.633 75.4806 131.723C77.2777 131.976 79.0738 132.14 80.8667 132.214C81.2535 145.162 82.2303 158.234 83.7734 171.1C82.4315 171.346 81.3248 171.837 80.4743 172.568C78.893 173.925 78.3659 176.202 79.2458 177.867C79.9024 179.101 81.0596 179.697 82.0815 180.224L82.085 180.226C82.7822 180.585 83.4395 180.926 83.7944 181.394C84.1283 181.839 84.2669 182.478 84.4244 183.217C84.5126 183.637 84.6071 184.07 84.7478 184.515C84.928 185.076 85.1747 185.609 85.4812 186.105C71.2635 188.469 58.3095 188.601 45.942 186.515C45.2553 186.397 44.6064 186.861 44.4909 187.548C44.3754 188.233 44.8374 188.884 45.5241 189C51.4713 190.004 57.5445 190.506 63.8214 190.506C71.4095 190.506 79.2941 189.769 87.5942 188.299C88.4678 188.886 89.461 189.275 90.5081 189.436C90.8756 189.493 91.2431 189.52 91.6106 189.52C92.5724 189.52 93.5258 189.329 94.4204 188.951C95.6531 188.428 96.7137 187.575 97.4886 186.483C97.5299 186.425 97.5702 186.366 97.6096 186.307C97.6266 186.305 97.6436 186.303 97.6607 186.301C97.6789 186.298 97.6971 186.295 97.7154 186.292C98.311 186.171 98.9183 186.071 99.5092 185.974L99.5802 185.962L99.5843 185.962C101.578 185.634 103.639 185.296 105.592 184.185C106.136 183.877 106.752 183.492 107.167 182.82C107.711 181.938 107.432 180.522 106.724 178.22C106.691 178.115 106.663 178.025 106.638 177.941C105.477 174.141 104.385 170.539 103.331 167.054L103.243 166.763C100.506 157.729 97.9103 149.162 94.6248 138.974L93.7723 131.199C95.3612 130.88 96.9421 130.49 98.5134 130.028C98.8662 129.923 99.156 129.669 99.3072 129.331C99.4584 128.993 99.4521 128.608 99.2925 128.274C97.1572 123.825 96.2012 119.028 95.1893 113.951L95.1828 113.918C94.3575 109.774 93.5028 105.489 91.9509 101.45C90.3843 97.3751 88.152 93.6259 85.3149 90.3093C82.4925 87.0096 79.6617 85.0142 76.665 84.2118C76.6495 84.2076 76.634 84.2038 76.6186 84.2003C76.4568 84.0425 76.2506 83.9264 76.014 83.8736C75.3668 83.7299 74.6758 83.8208 74.0289 84.1178C73.8804 83.8537 73.7128 83.5644 73.5087 83.2625C73.1202 82.6869 72.3369 82.5336 71.7594 82.9222C71.184 83.3108 71.0307 84.0942 71.4192 84.6718C71.6008 84.9414 71.7559 85.2166 71.9061 85.4831L71.9295 85.5246ZM98.7637 183.54C98.901 183.517 99.0374 183.495 99.1728 183.473L99.1905 183.47H99.1905C101.04 183.167 102.788 182.88 104.347 181.993L104.375 181.977L104.375 181.976L104.375 181.976C104.547 181.878 104.794 181.737 104.937 181.596C104.933 181.285 104.807 180.571 104.314 178.962C104.278 178.846 104.246 178.745 104.223 178.668C103.064 174.876 101.972 171.272 100.918 167.785L100.828 167.489L100.828 167.489L100.828 167.488L100.826 167.481C99.2333 162.223 97.6887 157.122 96.0277 151.769L98.8221 177.254L98.8224 177.258C99.0117 178.989 99.2669 181.323 98.7637 183.54ZM92.0597 138.703C92.0177 138.909 92.0266 139.128 92.0958 139.341L92.1471 139.5L96.3167 177.529C96.6296 180.384 96.7956 183.104 95.4326 185.026C94.9286 185.735 94.2398 186.29 93.4376 186.63C92.6354 186.968 91.7576 187.078 90.8966 186.945C90.0377 186.813 89.2314 186.443 88.5698 185.878C87.9083 185.311 87.4169 184.574 87.1523 183.748C87.0545 183.439 86.9813 183.101 86.9039 182.743L86.9039 182.743L86.8919 182.688L86.8914 182.685C86.6983 181.785 86.4797 180.765 85.8083 179.875C85.1094 178.95 84.1226 178.44 83.2513 177.99L83.2421 177.985L83.2334 177.98C82.4433 177.573 81.7606 177.221 81.476 176.685C81.1442 176.059 81.4319 175.07 82.1186 174.479C82.8074 173.887 83.8637 173.543 85.256 173.456C85.6025 173.435 85.9238 173.272 86.1464 173.005C86.369 172.736 86.4698 172.389 86.4278 172.045C84.8105 158.891 83.7889 145.513 83.3901 132.26C86.0346 132.247 88.6691 132.039 91.2851 131.639L92.0597 138.703ZM33.5717 152.383C34.5689 143.846 35.5856 135.142 36.9352 126.47C36.0184 126.146 35.1041 125.809 34.1959 125.467L31.1727 161.467C31.0173 163.316 30.7422 165.227 29.2638 166.512C28.6863 167.014 27.9975 167.336 27.3885 167.619L27.3865 167.62C26.6691 167.954 26.0506 168.241 25.8849 168.663C25.6959 169.142 26.0844 169.772 26.7438 170.751C27.1659 171.377 27.6006 172.024 27.8799 172.768C28.4264 174.221 28.215 175.741 28.0285 177.083L28.0269 177.094L28.0268 177.095C27.842 178.418 27.6825 179.56 28.1928 180.392C28.5994 181.055 29.4093 181.441 30.3121 181.696C30.4566 179.26 30.7377 176.83 31.0106 174.471L31.0194 174.395L33.5646 152.444L33.5717 152.383Z" fill="#07377E"/>
</g>
<path d="M74.1723 61.6344C75.6276 59.9204 75.1761 56.9526 73.2777 55.7532C72.5973 55.3205 71.7363 55.0517 71.3646 54.3375C70.9446 53.5499 71.3247 52.6068 71.5452 51.7456C71.5452 51.7183 71.5599 51.6889 71.5683 51.6616C72.1983 49.0655 69.231 47.1394 67.0701 48.7105C64.3716 50.6723 61.3056 52.0712 58.0548 52.8252C56.3748 53.2117 54.3105 53.2873 53.2731 51.9137C52.6599 51.0987 52.5129 49.8679 50.9631 49.9834C50.5116 50.0212 50.0769 50.1787 49.7031 50.4371C46.929 52.3085 43.7559 53.4995 40.4358 53.9175C39.5076 54.033 38.5458 54.0855 37.6491 53.8187C35.0745 53.0521 33.9048 49.7733 34.6818 47.2024C35.4588 44.6315 37.6533 42.7306 39.9717 41.3696C41.4081 40.5294 43.0083 39.7564 43.8735 38.3303C44.3817 37.4901 44.5812 36.4903 45.0915 35.6522C45.6018 34.8142 46.3998 34.1819 47.2125 33.6106C51.591 30.5797 56.8263 29.038 62.1477 29.2081C65.2977 29.3174 69 30.5839 69.6804 33.6547L74.5104 35.69C78.2274 36.2613 82.0074 37.5132 84.6387 40.2017C87.27 42.8903 88.4187 47.2822 86.5287 50.5358C86.2809 50.9559 85.9743 51.4012 85.9869 51.8969C86.0037 52.527 86.5308 53.0227 86.9676 53.489C87.732 54.3165 88.3137 55.2953 88.6728 56.3623C89.0319 57.4294 89.1621 58.5594 89.055 59.681C88.9563 60.6556 88.635 61.6638 87.9042 62.3086C87.1734 62.9535 85.9281 63.0858 85.2372 62.3926L74.7582 63.9995L74.1723 61.6344Z" fill="#07377E"/>
<path d="M40.0577 54.0267C38.7032 57.5113 37.8884 60.6577 37.6826 62.5628C37.1639 67.3601 38.132 72.691 41.8007 76.1083C43.7558 77.9273 46.1771 78.8221 48.7664 79.2779C51.467 79.7547 54.365 80.1895 56.9858 79.1182C56.8472 81.3048 56.8262 82.8654 56.927 85.054L71.732 83.4115C71.4926 80.536 72.026 78.0701 73.2776 75.4698C73.5611 74.8817 74.1701 74.888 74.7728 74.6969C75.3083 74.5288 75.8333 74.3356 76.352 74.1172C77.4041 73.6803 78.3974 73.1153 79.313 72.4368C81.1232 71.0695 82.5344 69.1497 83.0636 66.9232C83.5445 64.9047 83.2064 62.5018 80.9636 61.3655C79.3823 60.5674 77.9648 60.8509 75.5561 62.9681L74.1911 61.6407C75.6464 59.9267 75.1949 56.9588 73.2965 55.7595C72.6161 55.3268 71.7551 55.058 71.3834 54.3438C70.9634 53.5562 71.3435 52.6131 71.564 51.7519C71.564 51.7246 71.5787 51.6952 71.5871 51.6679C72.2171 49.0718 69.2498 47.1457 67.0889 48.7168C64.3904 50.6786 61.3244 52.0775 58.0736 52.8315C56.3936 53.218 54.3293 53.2936 53.2919 51.9199C52.6787 51.105 52.5317 49.8741 50.9819 49.9897C50.5304 50.0275 50.0957 50.185 49.7219 50.4434C46.9415 52.3148 43.76 53.5037 40.4357 53.9174" fill="white"/>
<path d="M86.4488 64.1213C85.6613 64.1213 84.8969 63.8419 84.3383 63.2832C83.8469 62.7896 83.849 61.9915 84.3404 61.5C84.8339 61.0085 85.6319 61.0106 86.1233 61.5021C86.2808 61.6596 86.7743 61.6197 87.0641 61.3634C87.4526 61.0211 87.7109 60.3783 87.7949 59.5529C87.8852 58.6077 87.7781 57.6688 87.4715 56.7635C87.167 55.8582 86.684 55.0454 86.0351 54.3438L85.928 54.2304C85.4303 53.7053 84.7478 52.987 84.7205 51.9305C84.6995 51.1218 85.0796 50.4896 85.3568 50.0275L85.4366 49.8952C87.1082 47.0155 85.8083 43.2032 83.7314 41.0839C81.6671 38.9751 78.4982 37.5804 74.3129 36.9356C73.6241 36.8306 73.1537 36.1857 73.2587 35.4989C73.3637 34.8121 74.0084 34.3395 74.6951 34.4445C79.4327 35.1733 83.0783 36.8137 85.5332 39.3195C87.0221 40.8402 88.0784 42.823 88.5068 44.9025C88.9709 47.152 88.6538 49.3763 87.6122 51.1701L87.5177 51.3276C87.4211 51.4873 87.2615 51.7519 87.2426 51.8611C87.2867 52.0019 87.5807 52.3106 87.7571 52.4976L87.881 52.6278C88.7777 53.5982 89.4413 54.7156 89.8613 55.9591C90.2813 57.2025 90.4283 58.4943 90.3044 59.8007C90.1532 61.2878 89.6114 62.4788 88.7336 63.2538C88.0763 63.8314 87.251 64.1213 86.4488 64.1213Z" fill="#07377E"/>
<path d="M74.1722 62.8946C73.8845 62.8946 73.5947 62.7959 73.3574 62.5943C72.8261 62.1427 72.7631 61.3487 73.2125 60.8173C73.664 60.2859 73.8593 59.4899 73.7375 58.6875C73.6157 57.8872 73.1915 57.1878 72.6056 56.8181C72.4607 56.7257 72.2906 56.6354 72.11 56.5388C71.4821 56.2048 70.6988 55.7868 70.2473 54.9194C69.6593 53.8166 69.9848 52.6551 70.2242 51.8044C70.2536 51.6994 70.283 51.5944 70.3103 51.4915C70.3229 51.4243 70.3397 51.3633 70.3565 51.3129C70.5623 50.3551 69.905 49.8279 69.695 49.6872C69.2351 49.3785 68.5001 49.2293 67.8134 49.7271C64.9616 51.8002 61.7759 53.2537 58.3424 54.0498C55.5389 54.6946 53.4389 54.2178 52.2713 52.6698C52.0634 52.3947 51.9101 52.1132 51.7757 51.8653C51.4187 51.21 51.4061 51.21 51.0596 51.2373C50.8391 51.2562 50.6165 51.336 50.4254 51.4684C47.4875 53.4491 44.0939 54.724 40.5974 55.163C39.6104 55.2869 38.447 55.3646 37.2941 55.0223C35.9312 54.6169 34.7741 53.6381 34.0349 52.2686C33.1529 50.6303 32.945 48.5992 33.4784 46.8327C34.2386 44.3185 36.2084 42.1131 39.3374 40.2773C39.5306 40.1639 39.7238 40.0547 39.9191 39.9434C41.1014 39.2691 42.2165 38.6327 42.8003 37.6707C42.9956 37.3494 43.1468 36.9545 43.3085 36.5365C43.5038 36.0303 43.7054 35.5073 44.0204 34.9906C44.6546 33.9467 45.5849 33.2115 46.4921 32.573C51.068 29.4056 56.6393 27.7652 62.1917 27.9416C65.6882 28.0634 70.0688 29.5589 70.9151 33.3754C71.0663 34.0559 70.6379 34.728 69.9575 34.8793C69.2792 35.0284 68.6051 34.602 68.4539 33.9215C67.9541 31.6656 64.907 30.5587 62.1077 30.4621C57.095 30.2983 52.0592 31.7854 47.9327 34.6419C47.2544 35.1187 46.5656 35.6543 46.1708 36.3034C45.9734 36.6268 45.8201 37.0238 45.6584 37.4439C45.4652 37.9459 45.2657 38.4647 44.9549 38.9772C44.033 40.4979 42.5105 41.3675 41.1665 42.132C40.9796 42.2391 40.7948 42.3442 40.61 42.4513C38.048 43.9552 36.4604 45.6754 35.8892 47.5616C35.5511 48.6832 35.6897 50.0275 36.2525 51.0714C36.5486 51.6196 37.0925 52.3316 38.0102 52.6047C38.7179 52.8147 39.5558 52.7517 40.2824 52.6614C43.3883 52.2707 46.4039 51.1386 49.0016 49.3869C49.5413 49.013 50.1881 48.7798 50.8601 48.7231C52.853 48.5719 53.5922 49.9309 53.9891 50.6597C54.092 50.8487 54.1886 51.0273 54.2831 51.1512C55.0055 52.109 56.9669 51.7792 57.7754 51.5923C60.8771 50.8739 63.7562 49.5591 66.3329 47.6855C67.763 46.6458 69.6341 46.608 71.0999 47.5889C72.5405 48.553 73.2062 50.2669 72.7967 51.9515C72.7904 51.9767 72.7841 51.9998 72.7757 52.025C72.7757 52.0271 72.7757 52.0292 72.7736 52.0292C72.7715 52.0355 72.7694 52.0439 72.7694 52.0502C72.7337 52.1909 72.6938 52.3337 72.6539 52.4787C72.5237 52.9408 72.3641 53.5163 72.4817 53.7368C72.5783 53.9238 72.9458 54.1191 73.3007 54.3081C73.5149 54.4216 73.7354 54.5392 73.9601 54.682C75.1697 55.4466 75.9992 56.7656 76.2344 58.2989C76.4696 59.8364 76.0706 61.3466 75.1403 62.4409C74.8841 62.7434 74.5292 62.8946 74.1722 62.8946ZM72.8051 51.7477C72.8051 51.7498 72.8051 51.7498 72.8051 51.7477C72.8051 51.7498 72.8051 51.7498 72.8051 51.7477ZM72.8051 51.7456V51.7477V51.7456Z" fill="#07377E"/>
<path d="M46.278 59.8196C47.0898 59.8196 47.748 59.0203 47.748 58.0343C47.748 57.0482 47.0898 56.2489 46.278 56.2489C45.4661 56.2489 44.808 57.0482 44.808 58.0343C44.808 59.0203 45.4661 59.8196 46.278 59.8196Z" fill="#07377E"/>
<path d="M53.4179 60.3132C54.2298 60.3132 54.8879 59.5139 54.8879 58.5278C54.8879 57.5418 54.2298 56.7425 53.4179 56.7425C52.6061 56.7425 51.9479 57.5418 51.9479 58.5278C51.9479 59.5139 52.6061 60.3132 53.4179 60.3132Z" fill="#07377E"/>
<path d="M71.7216 83.4052C71.0748 83.4052 70.5225 82.9095 70.4679 82.25C70.2012 79.0867 70.8165 77.6395 72.1227 74.9174C72.6015 73.9239 73.5066 73.7055 74.0484 73.5752C74.166 73.5458 74.2773 73.5206 74.3739 73.4891C74.8737 73.3316 75.3672 73.1509 75.8439 72.9493C76.8078 72.5502 77.7129 72.0356 78.5445 71.4181C80.2203 70.1516 81.3879 68.4481 81.8205 66.625C82.0431 65.7071 82.3455 63.4764 80.3778 62.4829C79.5189 62.0481 78.6768 61.878 76.3689 63.907C75.846 64.367 75.0501 64.3145 74.5902 63.7915C74.1303 63.2685 74.1828 62.4724 74.7057 62.0124C78.0195 59.0992 79.9347 59.4352 81.5118 60.2313C83.9562 61.4663 85.0125 64.1402 84.2691 67.211C83.7021 69.597 82.2048 71.8088 80.0544 73.4324C79.0506 74.1781 77.9628 74.7956 76.8162 75.2703C76.2723 75.4992 75.7032 75.7093 75.1299 75.8878C74.9556 75.9424 74.7876 75.9844 74.6406 76.0201C74.5482 76.0432 74.4285 76.0705 74.3508 76.0957C73.1433 78.6162 72.7695 79.5635 72.9795 82.0336C73.0383 82.7267 72.5238 83.3359 71.8308 83.3947C71.793 83.4031 71.7573 83.4052 71.7216 83.4052Z" fill="#07377E"/>
<path d="M56.9271 85.2641C56.2572 85.2641 55.7007 84.7369 55.6692 84.0606C55.602 82.5819 55.5873 81.8383 55.6293 80.8238C53.1051 81.3111 50.5347 80.8637 48.5523 80.5172C45.3498 79.9521 42.8613 78.8116 40.944 77.0284C37.4202 73.7454 35.7759 68.4229 36.4311 62.4221C36.6768 60.1977 37.5924 56.8875 38.8839 53.5667C39.1359 52.9177 39.8667 52.5963 40.5156 52.8484C41.1645 53.1004 41.4858 53.8314 41.2338 54.4804C39.8016 58.1645 39.1086 61.1408 38.9364 62.6972C38.3673 67.8957 39.7239 72.4473 42.6618 75.1821C44.2326 76.644 46.2423 77.5493 48.987 78.0324C51.7926 78.5218 54.2979 78.8515 56.5113 77.9462C56.9124 77.7824 57.3702 77.837 57.723 78.0891C58.0758 78.3432 58.2732 78.7591 58.2459 79.1918C58.1115 81.3048 58.0884 81.7711 58.1892 83.9387C58.2207 84.634 57.6831 85.2242 56.988 85.2557C56.9649 85.2641 56.946 85.2641 56.9271 85.2641Z" fill="#07377E"/>
<defs>
<clipPath id="clip0_1776_5442">
<rect width="126" height="126.025" fill="white" transform="translate(0.407654 80.3828)"/>
</clipPath>
</defs>
</svg>
