<svg width="127" height="294" viewBox="0 0 127 294" fill="none" xmlns="http://www.w3.org/2000/svg">
<path fill-rule="evenodd" clip-rule="evenodd" d="M47.0244 258.361C47.0255 258.322 47.0265 258.284 47.0277 258.247L59.445 257.967C59.3857 258.74 59.341 259.533 59.2956 260.337C58.9871 265.809 58.6493 271.8 53.523 275.33C52.635 275.9 51.6428 276.27 50.6198 276.651C50.1911 276.811 49.757 276.972 49.323 277.152C47.727 277.809 39.9465 279.097 35.043 276.949C32.523 274.722 34.413 271.281 36.513 269.459C37.591 268.55 38.6906 267.724 39.7772 266.908C42.0773 265.181 44.3188 263.497 46.173 261.16C46.278 260.957 46.383 260.704 46.488 260.451C46.593 260.198 46.698 259.945 46.803 259.743C46.9967 259.369 47.0117 258.823 47.0244 258.361ZM66.1188 270.457C67.1982 267.139 67.5888 265.194 67.3053 262.158L82.5828 262.075C82.8516 264.816 82.4757 268.67 82.0263 271.87C81.432 276.265 79.1577 280.287 75.6486 283.151C75.0564 283.662 74.3928 284.091 73.6788 284.425C73.1727 284.591 72.6813 284.793 72.2088 285.032C65.6883 286.904 61.9188 284.02 61.7088 283.817C58.3726 280.529 60.7919 277.684 63.2018 274.849C64.4325 273.401 65.6609 271.957 66.1188 270.457Z" fill="#07377E"/>
<path d="M63.9074 256.943C64.0187 258.522 64.2287 259.939 64.2287 261.559C71.1587 261.963 78.2987 262.166 85.2287 261.761C88.2128 261.522 91.1297 260.769 93.8387 259.534C96.9887 239.494 97.1987 219.049 95.3087 198.604C95.3087 197.996 95.5187 197.187 95.3087 196.579C95.0987 195.567 95.0987 194.757 94.8887 193.745V191.721C92.7887 172.895 89.8487 154.677 86.0687 136.458C71.3687 136.863 56.8787 137.673 42.1787 138.078C35.6813 166.571 33.3482 195.802 35.2487 224.919C35.213 225.869 35.2844 226.818 35.4587 227.753C35.8535 233.419 36.7691 239.043 38.1887 244.555C38.6087 245.972 39.0287 247.591 39.6587 249.008C40.7087 251.64 42.1787 254.271 43.2287 256.903C47.2187 257.915 51.4187 258.117 55.6187 257.915C57.9287 257.712 60.4487 257.712 62.8595 257.144L63.9074 256.943Z" fill="#26BCD3"/>
<path fill-rule="evenodd" clip-rule="evenodd" d="M84.9095 136.673C92.5992 175.842 98.8618 217.723 92.7582 258.704C88.5618 260.507 83.6431 260.716 79.3424 260.765C74.7392 260.814 70.0835 260.7 65.4866 260.429C65.0708 255.787 64.6298 251.107 64.2014 246.571C62.2967 226.389 60.329 205.52 60.4214 185.061C60.4571 177.865 59.6906 170.758 53.9051 167.498C53.3045 167.16 52.5317 167.355 52.181 167.934C51.8282 168.513 52.0319 169.258 52.6325 169.596C57.3155 172.233 57.9329 178.581 57.9014 185.049C57.809 205.622 59.7827 226.547 61.6914 246.784L61.6919 246.789L61.8373 248.337L61.8375 248.338C62.0738 250.852 62.3135 253.403 62.5494 255.96C56.4793 256.907 50.3312 256.926 44.2598 256.016C37.6574 243.439 36.6116 230.899 36.1538 220.107C34.9967 192.699 37.4033 165.193 43.3064 138.357C43.4513 137.701 43.0166 137.057 42.3362 136.918C41.6558 136.778 40.988 137.197 40.8431 137.853C34.8959 164.887 32.4725 192.595 33.6359 220.207C34.1105 231.415 35.213 244.476 42.311 257.678C42.4937 258.018 42.8318 258.255 43.2224 258.318C44.0635 258.452 44.9058 258.57 45.7493 258.67C45.738 258.885 45.7169 259.107 45.6731 259.198C45.5547 259.428 45.447 259.686 45.3418 259.938L45.3161 260C45.2405 260.184 45.1607 260.372 45.0914 260.52C43.3506 262.682 41.2382 264.269 39.0018 265.949L39.0014 265.949L38.9507 265.987C37.8786 266.793 36.7686 267.628 35.6687 268.556C34.1798 269.848 32.5859 272.044 32.5754 274.336C32.5691 275.692 33.1277 276.905 34.1903 277.844C34.2869 277.931 34.3982 278.002 34.52 278.054C36.7523 279.032 39.4571 279.364 41.9876 279.364C45.5387 279.364 48.7454 278.71 49.8185 278.271C50.2301 278.101 50.6585 277.941 51.0722 277.787L51.0857 277.782C52.1357 277.391 53.2206 276.987 54.2201 276.344C54.2254 276.34 54.2312 276.336 54.2369 276.333C54.2427 276.329 54.2485 276.326 54.2537 276.322C59.8704 272.455 60.2321 266.059 60.5511 260.415L60.5516 260.407L60.5631 260.204C60.5927 259.679 60.6213 259.173 60.6546 258.674C61.3612 258.59 62.067 258.494 62.7717 258.385C62.8716 259.484 62.9704 260.581 63.0674 261.676C63.122 262.275 63.6176 262.745 64.2392 262.785C64.8588 262.825 65.4796 262.863 66.1012 262.897C66.2619 265.443 65.864 267.186 64.9175 270.093C64.9154 270.099 64.9133 270.107 64.9112 270.113C64.5248 271.376 63.3572 272.751 62.2274 274.079L62.2152 274.093C60.959 275.572 59.6615 277.1 59.1005 278.793C58.4075 280.888 58.9808 282.866 60.8183 284.676C60.8477 284.706 63.3614 286.878 67.9562 286.878C69.3149 286.878 70.8563 286.688 72.5699 286.194C72.6476 286.172 72.7232 286.141 72.7946 286.105C73.2083 285.896 73.6409 285.716 74.084 285.573C74.1323 285.556 74.1827 285.538 74.2289 285.516C75.0437 285.135 75.7997 284.647 76.4759 284.067C80.2265 281.002 82.6415 276.726 83.2757 272.032C83.7959 268.335 84.0091 265.317 83.9126 263.038C87.3713 262.804 90.9634 262.225 94.2335 260.724C94.3608 260.666 94.4732 260.589 94.5691 260.499C94.8804 260.318 95.1079 260.009 95.1638 259.635C101.468 218.113 95.1512 175.782 87.3854 136.221C87.2573 135.561 86.5979 135.13 85.9133 135.254C85.2287 135.379 84.7793 136.013 84.9095 136.673ZM58.1123 258.925C56.4836 259.052 54.8521 259.115 53.2205 259.115C51.5649 259.115 49.9099 259.05 48.2576 258.919C48.2271 259.366 48.1506 259.849 47.9243 260.285C47.8483 260.432 47.7597 260.643 47.6718 260.852L47.6513 260.901L47.6257 260.962C47.5205 261.214 47.4128 261.472 47.2943 261.702C47.2586 261.771 47.2166 261.836 47.1683 261.897C45.2153 264.358 42.8423 266.141 40.547 267.866L40.4806 267.916C39.4407 268.698 38.3663 269.506 37.3382 270.374C36.2315 271.334 35.0996 272.943 35.0933 274.348C35.0912 274.961 35.3075 275.479 35.7548 275.927C40.2866 277.787 47.5358 276.567 48.8252 276.036C49.2496 275.86 49.6702 275.703 50.0786 275.551L50.1629 275.52C51.1247 275.162 52.0361 274.822 52.8047 274.332C57.4226 271.139 57.7334 265.615 58.0337 260.273C58.0585 259.828 58.084 259.375 58.1123 258.925ZM68.6312 263.021C68.7666 265.778 68.295 267.826 67.3241 270.812C66.7937 272.54 65.4655 274.102 64.1822 275.612L64.1762 275.619C61.3286 278.969 60.3122 280.68 62.5802 282.939C62.8091 283.113 66.0788 285.481 71.7383 283.901C72.2087 283.67 72.698 283.469 73.1957 283.301C73.7795 283.022 74.3234 282.666 74.8085 282.247L74.8138 282.242L74.8212 282.235L74.8271 282.23L74.8337 282.224C78.1097 279.55 80.2202 275.818 80.7767 271.712C81.2701 268.204 81.4789 265.277 81.3936 263.155C80.7083 263.175 80.033 263.186 79.3718 263.194C78.6599 263.2 77.9459 263.204 77.2319 263.204C74.3696 263.204 71.4944 263.143 68.6312 263.021Z" fill="#07377E"/>
<g clip-path="url(#clip0_1776_5391)">
<path d="M71.6754 80.3828C71.8644 82.5042 72.7317 87.2973 75.9594 86.579L76.3059 87.1041C76.1484 90.3954 74.481 92.7164 71.8686 95.1214C69.2142 97.5264 65.829 98.9714 62.2569 99.2256C59.1069 99.4566 55.7574 98.7026 53.4012 96.5896C51.045 94.4766 49.806 91.5486 51.3663 89.0386H51.5931C52.3029 89.0596 52.956 88.6878 53.5566 88.3097C54.321 87.8266 55.8981 85.8459 56.3706 85.2767C57.0006 84.4597 57.2568 81.3615 57.5802 80.3828H71.6754V80.3828Z" fill="white"/>
<path d="M31.3638 183.23C30.3348 183.196 29.3373 182.875 28.4805 182.303C27.6237 181.732 26.9454 180.934 26.5191 179.997C26.7291 176.636 27.3591 172.646 24.6291 169.915C24.2091 168.235 25.4691 166.975 26.9391 166.426L32.8359 167.191L31.3638 183.23Z" fill="white"/>
<path fill-rule="evenodd" clip-rule="evenodd" d="M30.706 161.73C31.663 161.827 32.6147 161.924 33.6023 162.112L33.7031 162.125L32.2646 174.53L32.2634 174.54C31.9488 177.248 31.6344 179.954 31.5149 182.682C31.4855 183.368 31.4834 184.11 31.8782 184.673C32.3549 185.36 33.2495 185.567 34.0643 185.723L43.0943 187.452L45.734 187.76C59.7263 190.121 73.7438 189.508 87.7109 187.002L97.4696 185.059C98.3605 184.783 99.3356 184.661 100.318 184.538C102.382 184.281 104.479 184.019 105.901 182.312C106.073 181.915 106.145 181.482 106.111 181.052C105.504 178.135 103.631 172.899 101.91 168.086C100.656 164.58 99.4827 161.299 98.9375 159.304L98.7275 158.961C98.4902 143.07 97.8455 127.132 94.2566 111.679L93.5888 109.66C91.8248 103.968 89.5148 98.5073 86.264 93.5734L85.844 89.5406C85.8524 88.8832 85.6865 88.232 85.3631 87.6586C85.0397 87.0852 84.5714 86.6063 84.0044 86.2702C83.4374 85.9342 82.7927 85.7556 82.1333 85.7493C81.4739 85.743 80.825 85.9111 80.2517 86.2366C81.0161 85.2284 80.636 83.6489 79.6385 82.876C78.641 82.103 77.2319 82.0379 76.0286 82.416C74.8253 82.794 73.7879 83.5607 72.8009 84.3463C72.0861 84.917 71.3788 85.5096 70.6699 86.1036C67.6923 88.5984 64.6865 91.1167 60.9821 92.1346L58.4999 91.3575C57.116 91.0466 56.1878 89.7464 55.646 88.4379C55.4582 87.9844 55.3017 87.5168 55.1454 87.0496C54.8506 86.1688 54.5564 85.2897 54.0542 84.5101C53.2856 83.3171 51.8324 82.3866 50.4842 82.8193C48.8315 83.3486 48.38 85.4196 48.0734 87.1293C48.0461 87.3898 47.9558 87.6418 47.8088 87.8582C47.5738 88.1505 47.1771 88.2348 46.8058 88.3137C46.7823 88.3187 46.7589 88.3237 46.7357 88.3287C45.8957 88.5093 45.041 88.8327 44.4257 89.444C43.8104 90.0552 43.4702 90.9983 43.7516 91.8195L42.689 93.5755C42.101 94.2371 40.589 96.4006 40.589 96.4006C36.7052 102.943 35.209 109.685 33.5827 117.013C33.5382 117.213 33.4937 117.414 33.449 117.615C30.5367 131.402 29.2399 144.472 27.8991 157.985C27.7897 159.088 27.6799 160.194 27.569 161.303C28.654 161.52 29.683 161.625 30.706 161.73ZM32.8379 167.191C30.971 167.178 29.1146 166.895 27.3275 166.351C27.4535 164.786 27.59 163.179 28.2641 161.761L33.4574 162.341L32.8379 167.191Z" fill="#F15F30"/>
<path d="M83.2989 171.961C81.2745 172.614 78.9078 175.046 80.6193 177.29C81.5601 178.527 82.9818 179.193 84.2859 179.97C85.2897 180.566 85.5564 182.583 85.9449 183.65C86.9277 186.34 88.8366 188.554 91.9677 188.344C95.1513 188.134 97.1316 185.423 97.7364 182.499C98.3916 179.327 97.2744 175.164 96.7473 172.028L83.2989 171.961Z" fill="white"/>
<path fill-rule="evenodd" clip-rule="evenodd" d="M65.3145 99.694C65.3586 100.362 65.913 100.872 66.5703 100.872C66.5997 100.872 66.627 100.872 66.6522 100.866C72.2697 100.498 77.7696 98.7383 82.5597 95.7809C83.5489 95.1712 84.3782 94.5336 85.0459 93.8702C85.0794 94.0046 85.1358 94.1358 85.2162 94.2581C88.1226 98.669 90.4683 103.828 92.3898 110.026C92.5578 110.568 93.0555 110.914 93.5931 110.914C93.717 110.914 93.843 110.896 93.9648 110.858C94.6305 110.652 95.0022 109.946 94.7964 109.28C92.8035 102.851 90.3591 97.4843 87.3204 92.8718C87.0836 92.5113 86.6935 92.3129 86.2926 92.3051C86.8175 91.4277 87.0877 90.5125 87.0999 89.5637C87.1104 88.6836 86.8878 87.814 86.4573 87.0474C86.0268 86.2807 85.3989 85.638 84.6408 85.1906C83.8848 84.7432 83.0196 84.5038 82.1397 84.4954C82.0557 84.4954 81.9738 84.4954 81.8898 84.4996C81.768 83.5124 81.2577 82.5462 80.4051 81.8866C79.164 80.9246 77.3832 80.6747 75.6465 81.2208C74.2164 81.6703 73.0215 82.563 72.0114 83.3674C70.9035 84.2514 69.976 85.119 69.079 85.958L69.0462 85.9888L69.044 85.9908C66.9199 87.9789 65.2421 89.5492 62.2926 90.3597C61.6206 90.5446 61.2258 91.2377 61.4106 91.9098C61.5954 92.582 62.2905 92.9768 62.9604 92.792C66.5115 91.8174 68.58 89.8808 70.7682 87.8308L70.8024 87.7989C71.6633 86.9938 72.5542 86.1606 73.5822 85.3397C74.4516 84.6487 75.384 83.945 76.4025 83.6258C77.3391 83.3317 78.282 83.4283 78.8637 83.8799C79.3614 84.2664 79.5525 85.0751 79.2438 85.4826C78.8826 85.9593 78.9057 86.6252 79.3005 87.0747C79.6953 87.5242 80.3505 87.6355 80.8713 87.3414C81.2451 87.1293 81.6693 87.018 82.0977 87.018H82.1187C82.5555 87.0201 82.986 87.1398 83.3619 87.3624C83.7378 87.5851 84.0486 87.9022 84.2628 88.2845C84.477 88.6668 84.5883 89.0974 84.582 89.5343C84.5652 90.9016 83.4396 92.2816 81.2388 93.6385C76.7973 96.3816 71.6964 98.0115 66.4884 98.3539C65.7954 98.4001 65.2683 98.9987 65.3145 99.694ZM41.4711 188.411C41.3934 188.411 41.3136 188.403 41.2338 188.388L33.8334 186.971C33.006 186.805 31.6431 186.529 30.8535 185.408C30.6259 185.083 30.4805 184.741 30.3895 184.394C29.461 184.233 28.5736 183.88 27.7833 183.351C26.7312 182.65 25.8975 181.671 25.3746 180.52C25.2885 180.331 25.2507 180.125 25.2633 179.919C25.2832 179.589 25.3087 179.252 25.3345 178.91L25.3345 178.91L25.3389 178.852C25.5573 175.901 25.782 172.849 23.7408 170.806C23.5791 170.644 23.4657 170.442 23.409 170.22C22.913 168.235 24.006 166.334 26.1451 165.389C26.2405 164.365 26.3846 163.284 26.7258 162.234C26.4405 161.973 26.2803 161.587 26.3216 161.177C26.4128 160.269 26.5025 159.362 26.592 158.458L26.5921 158.457L26.6513 157.859L26.6571 157.8C28.0158 144.117 29.2994 131.189 32.2226 117.352L32.3591 116.737C33.9866 109.4 35.5259 102.471 39.5117 95.7536C39.5285 95.7263 39.5453 95.7011 39.5621 95.6759L39.5852 95.6431C39.8263 95.2999 41.1582 93.4045 41.7545 92.7353C41.9784 92.4829 42.2811 92.342 42.5926 92.3165C42.5817 92.2876 42.5712 92.2585 42.561 92.2291C42.1389 91.0003 42.5232 89.5573 43.5396 88.5491C44.2515 87.8434 45.2091 87.3687 46.4733 87.0957L46.5468 87.0788C46.6287 87.062 46.7379 87.0389 46.8198 87.0158C46.8198 87.0127 46.8203 87.0101 46.8209 87.0074C46.8214 87.0048 46.8219 87.0022 46.8219 86.999C46.8261 86.9654 46.8303 86.9339 46.8366 86.9024L46.8377 86.8967C47.1444 85.2136 47.6563 82.4045 50.1021 81.6178C51.5595 81.1515 53.7498 81.6493 55.1253 83.8379C55.2739 84.0743 55.4059 84.3143 55.5254 84.5567C55.7739 84.0153 56.3817 83.7104 56.9796 83.8632C57.6537 84.0333 58.0632 84.7201 57.891 85.3944C57.7011 86.1487 57.3971 86.6531 56.6098 87.4241C56.6753 87.6039 56.7426 87.7799 56.8137 87.9526C57.1098 88.6647 57.7587 89.8955 58.7793 90.1266C59.4576 90.2799 59.8839 90.9541 59.7327 91.6326C59.5794 92.311 58.9053 92.7374 58.227 92.5861C56.6478 92.2312 55.3185 90.9289 54.4848 88.9209C54.279 88.4252 54.1089 87.9274 53.9472 87.4443L53.9393 87.4211C53.6609 86.6021 53.3974 85.8272 52.9896 85.1801C52.5171 84.4281 51.5952 83.7875 50.8707 84.0185C49.9509 84.3147 49.5876 85.8669 49.323 87.312C49.2684 87.7594 49.1067 88.19 48.8547 88.5638C48.8358 88.5911 48.8148 88.6185 48.7938 88.6458C48.2789 89.2864 47.5574 89.4408 47.0765 89.5437L47.0718 89.5447L47.0046 89.5594C46.2381 89.7254 45.6711 89.9858 45.3162 90.3366C45.0033 90.6475 44.8437 91.1095 44.9466 91.4099C45.0432 91.6914 45.3624 91.9938 45.6606 92.2501C48.3654 94.6193 51.6561 96.2052 55.1841 96.8395C55.8687 96.9634 56.3244 97.6187 56.2005 98.3035C56.0871 98.9126 55.5558 99.3411 54.9594 99.3411C54.8859 99.3411 54.8103 99.3348 54.7347 99.3201C50.7573 98.6038 47.0466 96.8164 44.0058 94.1531C43.9606 94.1141 43.9151 94.0743 43.8693 94.0335C43.8162 94.1687 43.7386 94.2968 43.6361 94.4114C43.2035 94.8966 42.0842 96.4677 41.6537 97.081C37.8905 103.439 36.3974 110.162 34.8182 117.283L34.6838 117.886C31.7887 131.589 30.5118 144.464 29.1598 158.096L29.1587 158.107C29.0873 158.821 29.0159 159.537 28.9445 160.255C29.5724 160.344 30.194 160.409 30.8387 160.474L30.8726 160.477C31.4394 160.535 32.0171 160.594 32.6083 160.674L33.5625 152.444L33.5697 152.383C35.2978 137.587 37.0848 122.289 40.5618 107.529C40.7214 106.852 41.3997 106.43 42.078 106.592C42.7542 106.751 43.1742 107.43 43.0146 108.108C39.5702 122.732 37.7916 137.961 36.0714 152.691L36.0657 152.74L36.0048 153.265L33.5205 174.689L33.5192 174.701C33.213 177.342 32.8966 180.07 32.7771 182.751C32.7624 183.085 32.7351 183.711 32.9136 183.963C33.1236 184.261 33.8712 184.412 34.3164 184.5L41.7042 185.914C42.3867 186.044 42.8361 186.706 42.7038 187.389C42.5925 187.991 42.0654 188.411 41.4711 188.411ZM25.8135 169.329C25.7756 168.37 26.8519 167.826 27.2717 167.651C28.7208 168.067 30.2081 168.324 31.7106 168.416L31.0173 174.395L31.0086 174.471C30.7322 176.859 30.4475 179.32 30.3047 181.787C29.9093 181.666 29.5318 181.487 29.184 181.255C28.6065 180.869 28.1319 180.35 27.8022 179.741C27.8115 179.593 27.8225 179.445 27.8336 179.296C27.84 179.21 27.8464 179.124 27.8526 179.037L27.8528 179.034C28.0796 175.959 28.3599 172.159 25.8135 169.329ZM32.3178 163.179L32.0014 165.908C30.8794 165.848 29.7651 165.683 28.6737 165.416C28.763 164.52 28.8972 163.633 29.1854 162.83C29.6601 162.888 30.125 162.935 30.5825 162.982L30.6794 162.992L30.6798 162.992L30.6803 162.992C31.2374 163.049 31.7775 163.105 32.3178 163.179ZM45.524 189C51.4712 190.004 57.5444 190.506 63.8214 190.506C71.4264 190.506 79.3293 189.766 87.6498 188.289C88.7788 189.158 90.1074 189.617 91.5708 189.617C91.7283 189.617 91.89 189.613 92.0517 189.6C94.2783 189.454 96.2139 188.244 97.511 186.314C97.6209 186.311 97.7322 186.292 97.8435 186.261C98.6268 186.017 99.5256 185.904 100.475 185.786C102.657 185.515 105.128 185.206 106.869 183.116C106.947 183.024 107.01 182.921 107.058 182.81C107.308 182.228 107.415 181.585 107.367 180.953C107.363 180.898 107.354 180.846 107.344 180.793C106.718 177.79 104.877 172.641 103.096 167.662L103.096 167.659C101.854 164.194 100.685 160.919 100.151 158.97C100.115 158.838 100.06 158.716 99.9884 158.608C99.7814 143.421 99.2245 128.806 95.6511 113.399C95.4936 112.721 94.8174 112.299 94.1391 112.456C93.4608 112.614 93.0387 113.29 93.1962 113.968C97.1837 131.165 97.3563 147.479 97.5389 164.751L97.539 164.756L97.5432 165.076L81.6441 164.815C79.2816 146.353 78.4668 127.573 79.2207 108.978C79.2501 108.283 78.7083 107.694 78.0132 107.667C77.3181 107.642 76.7301 108.18 76.7028 108.875C75.9279 127.974 76.7973 147.268 79.2858 166.22C79.3502 166.708 79.6877 167.101 80.1325 167.251C79.9549 168.541 79.9087 169.848 79.9956 171.15C79.9956 171.385 80.0355 171.616 80.1174 171.837C80.2119 172.089 80.3526 172.316 80.5374 172.509C80.5549 172.528 80.573 172.546 80.5917 172.563C79.8305 173.138 79.2001 173.875 78.9225 174.761C78.6831 175.527 78.6096 176.721 79.6176 178.044C80.55 179.27 81.8373 180.008 82.9734 180.657C83.1981 180.785 83.4207 180.913 83.6433 181.045C83.954 181.229 84.2938 182.467 84.4424 183.008L84.4455 183.02C84.5484 183.398 84.6471 183.755 84.7626 184.074C85.029 184.806 85.3454 185.472 85.7066 186.068C71.4003 188.467 58.3748 188.613 45.9419 186.515C45.2552 186.397 44.6063 186.861 44.4908 187.548C44.3753 188.233 44.8373 188.884 45.524 189ZM84.4872 172.987C84.3616 173.347 84.0747 173.646 83.6832 173.772C82.5156 174.15 81.5244 174.883 81.327 175.515C81.2892 175.635 81.1905 175.952 81.621 176.517C82.2444 177.336 83.2054 177.886 84.2212 178.467L84.2229 178.468L84.3947 178.567C84.5745 178.67 84.7538 178.772 84.9306 178.878C86.1152 179.58 86.5357 181.114 86.8735 182.346L86.8752 182.352C86.9634 182.677 87.0495 182.986 87.1293 183.209C87.8097 185.076 89.1831 187.258 91.8837 187.084C93.6582 186.966 95.8002 185.633 96.5037 182.24C97.0428 179.633 96.5552 176.826 96.0832 174.108L96.0832 174.108L96.0832 174.108L96.0816 174.099L96.0568 173.956L96.0567 173.955L96.0556 173.949C96.0076 173.672 95.9598 173.396 95.9136 173.12C95.9043 173.065 95.8987 173.01 95.8967 172.955L84.4872 172.987ZM98.0839 172.058C98.2432 172.232 98.3559 172.453 98.3979 172.702C98.4525 173.024 98.5071 173.345 98.5638 173.669L98.5656 173.679C99.0775 176.627 99.6067 179.675 98.9712 182.753C98.9207 182.997 98.8629 183.236 98.7981 183.47C99.2538 183.397 99.7103 183.34 100.16 183.284C102.05 183.049 103.694 182.843 104.799 181.652C104.841 181.512 104.86 181.362 104.855 181.215C104.245 178.368 102.379 173.148 100.729 168.53L100.728 168.53L100.728 168.53L100.728 168.53L100.72 168.508L100.665 168.354L100.664 168.351L100.661 168.34C100.453 167.76 100.248 167.186 100.048 166.623C99.9966 166.859 99.8782 167.077 99.7041 167.25C99.471 167.485 99.1497 167.617 98.8179 167.617H98.7969L98.3737 167.61L98.4777 170.272C98.4885 170.599 98.5129 171.405 98.0839 172.058ZM95.8504 167.569L82.6639 167.352C82.5062 168.386 82.4463 169.433 82.484 170.478L95.9619 170.44V170.44C95.9619 170.417 95.9619 170.392 95.9598 170.365L95.8504 167.569Z" fill="#07377E"/>
</g>
<path d="M74.1722 61.6344C75.6275 59.9204 75.176 56.9526 73.2776 55.7532C72.5972 55.3205 71.7362 55.0517 71.3645 54.3375C70.9445 53.5499 71.3246 52.6068 71.5451 51.7456C71.5451 51.7183 71.5598 51.6889 71.5682 51.6616C72.1982 49.0655 69.2309 47.1394 67.07 48.7105C64.3715 50.6723 61.3055 52.0712 58.0547 52.8252C56.3747 53.2117 54.3104 53.2873 53.273 51.9137C52.6598 51.0987 52.5128 49.8679 50.963 49.9834C50.5115 50.0212 50.0768 50.1787 49.703 50.4371C46.9289 52.3085 43.7558 53.4995 40.4357 53.9175C39.5075 54.033 38.5457 54.0855 37.649 53.8187C35.0744 53.0521 33.9047 49.7733 34.6817 47.2024C35.4587 44.6315 37.6532 42.7306 39.9716 41.3696C41.408 40.5294 43.0082 39.7564 43.8734 38.3303C44.3816 37.4901 44.5811 36.4903 45.0914 35.6522C45.6017 34.8142 46.3997 34.1819 47.2124 33.6106C51.5909 30.5797 56.8262 29.038 62.1476 29.2081C65.2976 29.3174 68.9999 30.5839 69.6803 33.6547L74.5103 35.69C78.2273 36.2613 82.0073 37.5132 84.6386 40.2017C87.2699 42.8903 88.4186 47.2822 86.5286 50.5358C86.2808 50.9559 85.9742 51.4012 85.9868 51.8969C86.0036 52.527 86.5307 53.0227 86.9675 53.489C87.7319 54.3165 88.3136 55.2953 88.6727 56.3623C89.0318 57.4294 89.162 58.5594 89.0549 59.681C88.9562 60.6556 88.6349 61.6638 87.9041 62.3086C87.1733 62.9535 85.928 63.0858 85.2371 62.3926L74.7581 63.9995L74.1722 61.6344Z" fill="#07377E"/>
<path d="M40.0578 54.0267C38.7033 57.5113 37.8885 60.6577 37.6827 62.5628C37.164 67.3601 38.1321 72.691 41.8008 76.1083C43.7559 77.9273 46.1772 78.8221 48.7665 79.2779C51.4671 79.7547 54.3651 80.1895 56.9859 79.1182C56.8473 81.3048 56.8263 82.8654 56.9271 85.054L71.7321 83.4115C71.4927 80.536 72.0261 78.0701 73.2777 75.4698C73.5612 74.8817 74.1702 74.888 74.7729 74.6969C75.3084 74.5288 75.8334 74.3356 76.3521 74.1172C77.4042 73.6803 78.3975 73.1153 79.3131 72.4368C81.1233 71.0695 82.5345 69.1497 83.0637 66.9232C83.5446 64.9047 83.2065 62.5018 80.9637 61.3655C79.3824 60.5674 77.9649 60.8509 75.5562 62.9681L74.1912 61.6407C75.6465 59.9267 75.195 56.9588 73.2966 55.7595C72.6162 55.3268 71.7552 55.058 71.3835 54.3438C70.9635 53.5562 71.3436 52.6131 71.5641 51.7519C71.5641 51.7246 71.5788 51.6952 71.5872 51.6679C72.2172 49.0718 69.2499 47.1457 67.089 48.7168C64.3905 50.6786 61.3245 52.0775 58.0737 52.8315C56.3937 53.218 54.3294 53.2936 53.292 51.9199C52.6788 51.105 52.5318 49.8741 50.982 49.9897C50.5305 50.0275 50.0958 50.185 49.722 50.4434C46.9416 52.3148 43.7601 53.5037 40.4358 53.9174" fill="white"/>
<path d="M86.4488 64.1213C85.6613 64.1213 84.8969 63.8419 84.3383 63.2832C83.8469 62.7896 83.849 61.9915 84.3404 61.5C84.8339 61.0085 85.6319 61.0106 86.1233 61.5021C86.2808 61.6596 86.7743 61.6197 87.0641 61.3634C87.4526 61.0211 87.7109 60.3783 87.7949 59.5529C87.8852 58.6077 87.7781 57.6688 87.4715 56.7635C87.167 55.8582 86.684 55.0454 86.0351 54.3438L85.928 54.2304C85.4303 53.7053 84.7478 52.987 84.7205 51.9305C84.6995 51.1218 85.0796 50.4896 85.3568 50.0275L85.4366 49.8952C87.1082 47.0155 85.8083 43.2032 83.7314 41.0839C81.6671 38.9751 78.4982 37.5804 74.3129 36.9356C73.6241 36.8306 73.1537 36.1857 73.2587 35.4989C73.3637 34.8121 74.0084 34.3395 74.6951 34.4445C79.4327 35.1733 83.0783 36.8137 85.5332 39.3195C87.0221 40.8402 88.0784 42.823 88.5068 44.9025C88.9709 47.152 88.6538 49.3763 87.6122 51.1701L87.5177 51.3276C87.4211 51.4873 87.2615 51.7519 87.2426 51.8611C87.2867 52.0019 87.5807 52.3106 87.7571 52.4976L87.881 52.6278C88.7777 53.5982 89.4413 54.7156 89.8613 55.9591C90.2813 57.2025 90.4283 58.4943 90.3044 59.8007C90.1532 61.2878 89.6114 62.4788 88.7336 63.2538C88.0763 63.8314 87.251 64.1213 86.4488 64.1213Z" fill="#07377E"/>
<path d="M74.1722 62.8946C73.8845 62.8946 73.5947 62.7959 73.3574 62.5943C72.8261 62.1427 72.7631 61.3487 73.2125 60.8173C73.664 60.2859 73.8593 59.4899 73.7375 58.6875C73.6157 57.8872 73.1915 57.1878 72.6056 56.8181C72.4607 56.7257 72.2906 56.6354 72.11 56.5388C71.4821 56.2048 70.6988 55.7868 70.2473 54.9194C69.6593 53.8166 69.9848 52.6551 70.2242 51.8044C70.2536 51.6994 70.283 51.5944 70.3103 51.4915C70.3229 51.4243 70.3397 51.3633 70.3565 51.3129C70.5623 50.3551 69.905 49.8279 69.695 49.6872C69.2351 49.3785 68.5001 49.2293 67.8134 49.7271C64.9616 51.8002 61.7759 53.2537 58.3424 54.0498C55.5389 54.6946 53.4389 54.2178 52.2713 52.6698C52.0634 52.3947 51.9101 52.1132 51.7757 51.8653C51.4187 51.21 51.4061 51.21 51.0596 51.2373C50.8391 51.2562 50.6165 51.336 50.4254 51.4684C47.4875 53.4491 44.0939 54.724 40.5974 55.163C39.6104 55.2869 38.447 55.3646 37.2941 55.0223C35.9312 54.6169 34.7741 53.6381 34.0349 52.2686C33.1529 50.6303 32.945 48.5992 33.4784 46.8327C34.2386 44.3185 36.2084 42.1131 39.3374 40.2773C39.5306 40.1639 39.7238 40.0547 39.9191 39.9434C41.1014 39.2691 42.2165 38.6327 42.8003 37.6707C42.9956 37.3494 43.1468 36.9545 43.3085 36.5365C43.5038 36.0303 43.7054 35.5073 44.0204 34.9906C44.6546 33.9467 45.5849 33.2115 46.4921 32.573C51.068 29.4056 56.6393 27.7652 62.1917 27.9416C65.6882 28.0634 70.0688 29.5589 70.9151 33.3754C71.0663 34.0559 70.6379 34.728 69.9575 34.8793C69.2792 35.0284 68.6051 34.602 68.4539 33.9215C67.9541 31.6656 64.907 30.5587 62.1077 30.4621C57.095 30.2983 52.0592 31.7854 47.9327 34.6419C47.2544 35.1187 46.5656 35.6543 46.1708 36.3034C45.9734 36.6268 45.8201 37.0238 45.6584 37.4439C45.4652 37.9459 45.2657 38.4647 44.9549 38.9772C44.033 40.4979 42.5105 41.3675 41.1665 42.132C40.9796 42.2391 40.7948 42.3442 40.61 42.4513C38.048 43.9552 36.4604 45.6754 35.8892 47.5616C35.5511 48.6832 35.6897 50.0275 36.2525 51.0714C36.5486 51.6196 37.0925 52.3316 38.0102 52.6047C38.7179 52.8147 39.5558 52.7517 40.2824 52.6614C43.3883 52.2707 46.4039 51.1386 49.0016 49.3869C49.5413 49.013 50.1881 48.7798 50.8601 48.7231C52.853 48.5719 53.5922 49.9309 53.9891 50.6597C54.092 50.8487 54.1886 51.0273 54.2831 51.1512C55.0055 52.109 56.9669 51.7792 57.7754 51.5923C60.8771 50.8739 63.7562 49.5591 66.3329 47.6855C67.763 46.6458 69.6341 46.608 71.0999 47.5889C72.5405 48.553 73.2062 50.2669 72.7967 51.9515C72.7904 51.9767 72.7841 51.9998 72.7757 52.025C72.7757 52.0271 72.7757 52.0292 72.7736 52.0292C72.7715 52.0355 72.7694 52.0439 72.7694 52.0502C72.7337 52.1909 72.6938 52.3337 72.6539 52.4787C72.5237 52.9408 72.3641 53.5163 72.4817 53.7368C72.5783 53.9238 72.9458 54.1191 73.3007 54.3081C73.5149 54.4216 73.7354 54.5392 73.9601 54.682C75.1697 55.4466 75.9992 56.7656 76.2344 58.2989C76.4696 59.8364 76.0706 61.3466 75.1403 62.4409C74.8841 62.7434 74.5292 62.8946 74.1722 62.8946ZM72.8051 51.7477C72.8051 51.7498 72.8051 51.7498 72.8051 51.7477C72.8051 51.7498 72.8051 51.7498 72.8051 51.7477ZM72.8051 51.7456V51.7477V51.7456Z" fill="#07377E"/>
<path d="M46.278 59.8196C47.0898 59.8196 47.748 59.0203 47.748 58.0343C47.748 57.0482 47.0898 56.2489 46.278 56.2489C45.4661 56.2489 44.808 57.0482 44.808 58.0343C44.808 59.0203 45.4661 59.8196 46.278 59.8196Z" fill="#07377E"/>
<path d="M53.4179 60.3132C54.2298 60.3132 54.8879 59.5139 54.8879 58.5278C54.8879 57.5418 54.2298 56.7425 53.4179 56.7425C52.6061 56.7425 51.9479 57.5418 51.9479 58.5278C51.9479 59.5139 52.6061 60.3132 53.4179 60.3132Z" fill="#07377E"/>
<path d="M71.7216 83.4052C71.0748 83.4052 70.5225 82.9095 70.4679 82.25C70.2012 79.0867 70.8165 77.6395 72.1227 74.9174C72.6015 73.9239 73.5066 73.7055 74.0484 73.5752C74.166 73.5458 74.2773 73.5206 74.3739 73.4891C74.8737 73.3316 75.3672 73.1509 75.8439 72.9493C76.8078 72.5502 77.7129 72.0356 78.5445 71.4181C80.2203 70.1516 81.3879 68.4481 81.8205 66.625C82.0431 65.7071 82.3455 63.4764 80.3778 62.4829C79.5189 62.0481 78.6768 61.878 76.3689 63.907C75.846 64.367 75.0501 64.3145 74.5902 63.7915C74.1303 63.2685 74.1828 62.4724 74.7057 62.0124C78.0195 59.0992 79.9347 59.4352 81.5118 60.2313C83.9562 61.4663 85.0125 64.1402 84.2691 67.211C83.7021 69.597 82.2048 71.8088 80.0544 73.4324C79.0506 74.1781 77.9628 74.7956 76.8162 75.2703C76.2723 75.4992 75.7032 75.7093 75.1299 75.8878C74.9556 75.9424 74.7876 75.9844 74.6406 76.0201C74.5482 76.0432 74.4285 76.0705 74.3508 76.0957C73.1433 78.6162 72.7695 79.5635 72.9795 82.0336C73.0383 82.7267 72.5238 83.3359 71.8308 83.3947C71.793 83.4031 71.7573 83.4052 71.7216 83.4052Z" fill="#07377E"/>
<path d="M56.9271 85.2641C56.2572 85.2641 55.7007 84.7369 55.6692 84.0606C55.602 82.5819 55.5873 81.8383 55.6293 80.8238C53.1051 81.3111 50.5347 80.8637 48.5523 80.5172C45.3498 79.9521 42.8613 78.8116 40.944 77.0284C37.4202 73.7454 35.7758 68.4229 36.431 62.4221C36.6767 60.1977 37.5924 56.8875 38.8839 53.5667C39.1359 52.9177 39.8667 52.5963 40.5156 52.8484C41.1645 53.1004 41.4858 53.8314 41.2338 54.4804C39.8016 58.1645 39.1086 61.1408 38.9364 62.6972C38.3673 67.8957 39.7239 72.4473 42.6618 75.1821C44.2326 76.644 46.2423 77.5493 48.987 78.0324C51.7926 78.5218 54.2979 78.8515 56.5113 77.9462C56.9124 77.7824 57.3702 77.837 57.723 78.0891C58.0758 78.3432 58.2732 78.7591 58.2459 79.1918C58.1115 81.3048 58.0884 81.7711 58.1892 83.9387C58.2207 84.634 57.6831 85.2242 56.988 85.2557C56.9649 85.2641 56.946 85.2641 56.9271 85.2641Z" fill="#07377E"/>
<defs>
<clipPath id="clip0_1776_5391">
<rect width="126" height="126.025" fill="white" transform="translate(0.407654 80.3828)"/>
</clipPath>
</defs>
</svg>
