<svg width="126" height="294" viewBox="0 0 126 294" fill="none" xmlns="http://www.w3.org/2000/svg">
<path fill-rule="evenodd" clip-rule="evenodd" d="M46.6544 258.361C46.6555 258.323 46.6565 258.284 46.6576 258.247L58.9764 257.968C58.9176 258.74 58.8733 259.533 58.8283 260.338C58.5222 265.809 58.187 271.8 53.1014 275.33C52.2205 275.9 51.2362 276.27 50.2213 276.651C49.796 276.811 49.3654 276.972 48.9347 277.152C47.3514 277.81 39.6326 279.097 34.7681 276.949C32.2681 274.722 34.1431 271.281 36.2264 269.459C37.2959 268.55 38.3868 267.724 39.4647 266.908C41.7465 265.181 43.9703 263.497 45.8097 261.16C45.9139 260.957 46.0181 260.704 46.1222 260.451C46.2264 260.198 46.3306 259.945 46.4347 259.743C46.6269 259.369 46.6418 258.824 46.6544 258.361ZM65.5972 270.457C66.6681 267.139 67.0556 265.194 66.7743 262.158L81.9306 262.075C82.1972 264.816 81.8243 268.67 81.3785 271.87C80.7889 276.265 78.5327 280.287 75.0514 283.152C74.4639 283.662 73.8056 284.091 73.0972 284.425C72.5952 284.591 72.1077 284.793 71.6389 285.032C65.1702 286.905 61.4306 284.02 61.2222 283.817C57.9126 280.529 60.3126 277.684 62.7034 274.849C63.9244 273.401 65.143 271.957 65.5972 270.457Z" fill="#07377E"/>
<path d="M63.4035 256.943C63.5139 258.522 63.7222 259.939 63.7222 261.559C70.5972 261.963 77.6806 262.166 84.5556 261.761C87.516 261.522 90.4097 260.769 93.0972 259.534C96.2222 239.494 96.4306 219.049 94.5556 198.604C94.5556 197.996 94.7639 197.187 94.5556 196.579C94.3472 195.567 94.3472 194.757 94.1389 193.745V191.721C92.0556 172.895 89.1389 154.677 85.3889 136.458C70.8056 136.863 56.4306 137.673 41.8472 138.078C35.4014 166.571 33.0868 195.802 34.9722 224.919C34.9368 225.869 35.0077 226.818 35.1806 227.753C35.5722 233.419 36.4806 239.043 37.8889 244.555C38.3056 245.972 38.7222 247.591 39.3472 249.008C40.3889 251.64 41.8472 254.271 42.8889 256.903C46.8472 257.915 51.0139 258.117 55.1806 257.915C57.4722 257.712 59.9722 257.712 62.3639 257.144L63.4035 256.943Z" fill="#FEC426"/>
<path fill-rule="evenodd" clip-rule="evenodd" d="M84.2389 136.673C91.8675 175.842 98.0804 217.723 92.0253 258.704C87.8621 260.507 82.9825 260.716 78.716 260.765C74.1493 260.814 69.5305 260.7 64.9701 260.429C64.5576 255.787 64.1201 251.107 63.6951 246.571C61.8055 226.389 59.8535 205.52 59.9451 185.061C59.9805 177.865 59.2201 170.758 53.4805 167.498C52.8847 167.16 52.118 167.355 51.7701 167.934C51.4201 168.513 51.6222 169.258 52.218 169.596C56.8639 172.233 57.4764 178.581 57.4451 185.049C57.3535 205.622 59.3114 226.547 61.205 246.784L61.2055 246.789L61.3498 248.337L61.3499 248.338L61.35 248.339C61.5844 250.853 61.8222 253.403 62.0562 255.96C56.0342 256.907 49.9349 256.926 43.9118 256.016C37.3618 243.439 36.3243 230.899 35.8701 220.107C34.7222 192.699 37.1097 165.193 42.966 138.357C43.1097 137.701 42.6785 137.057 42.0035 136.918C41.3285 136.778 40.666 137.197 40.5222 137.853C34.6222 164.887 32.218 192.595 33.3722 220.207C33.843 231.415 34.9368 244.476 41.9785 257.678C42.1597 258.018 42.4951 258.255 42.8826 258.318C43.717 258.452 44.5527 258.57 45.3894 258.67C45.3782 258.885 45.3573 259.108 45.3139 259.198C45.1963 259.429 45.0895 259.686 44.9851 259.938L44.9597 260C44.8847 260.184 44.8055 260.372 44.7368 260.52C43.0098 262.682 40.9141 264.269 38.6955 265.949L38.6951 265.949L38.6448 265.987C37.5812 266.793 36.48 267.628 35.3889 268.556C33.9118 269.848 32.3305 272.044 32.3201 274.336C32.3139 275.692 32.868 276.905 33.9222 277.844C34.018 277.931 34.1285 278.002 34.2493 278.054C36.4639 279.032 39.1472 279.364 41.6576 279.364C45.1805 279.364 48.3618 278.71 49.4264 278.271C49.8347 278.101 50.2597 277.941 50.6701 277.787L50.6835 277.782C51.7252 277.391 52.8015 276.987 53.793 276.344C53.7982 276.34 53.804 276.336 53.8097 276.333C53.8154 276.329 53.8212 276.326 53.8264 276.322C59.3985 272.455 59.7573 266.059 60.0738 260.415L60.0743 260.407L60.0857 260.204C60.1151 259.679 60.1434 259.173 60.1765 258.674C60.8774 258.59 61.5776 258.494 62.2767 258.386C62.3759 259.484 62.4739 260.581 62.5701 261.676C62.6243 262.275 63.116 262.745 63.7326 262.785C64.3473 262.825 64.9631 262.863 65.5799 262.897C65.7392 265.443 65.3445 267.186 64.4055 270.093C64.4035 270.099 64.4014 270.107 64.3993 270.113C64.016 271.376 62.8576 272.751 61.7368 274.079L61.7247 274.093C60.4784 275.572 59.1912 277.1 58.6347 278.793C57.9472 280.888 58.516 282.866 60.3389 284.676C60.368 284.706 62.8618 286.878 67.4201 286.878C68.768 286.878 70.2972 286.688 71.9972 286.194C72.0743 286.172 72.1493 286.141 72.2201 286.105C72.6305 285.896 73.0597 285.716 73.4993 285.573C73.5472 285.556 73.5972 285.538 73.643 285.516C74.4514 285.135 75.2014 284.648 75.8722 284.067C79.593 281.002 81.9889 276.726 82.618 272.032C83.1341 268.335 83.3456 265.317 83.2499 263.038C86.6811 262.804 90.2447 262.225 93.4889 260.725C93.6151 260.666 93.7267 260.589 93.8218 260.5C94.1306 260.318 94.3563 260.009 94.4118 259.635C100.666 218.114 94.3993 175.782 86.6951 136.221C86.568 135.561 85.9139 135.13 85.2347 135.254C84.5555 135.379 84.1097 136.013 84.2389 136.673ZM57.6543 258.925C56.0385 259.052 54.42 259.115 52.8014 259.115C51.1589 259.115 49.517 259.05 47.8778 258.919C47.8475 259.366 47.7717 259.849 47.5472 260.285C47.4718 260.432 47.3838 260.643 47.2966 260.852L47.2764 260.901L47.2509 260.962C47.1466 261.214 47.0397 261.472 46.9222 261.702C46.8868 261.771 46.8451 261.836 46.7972 261.897C44.8597 264.358 42.5055 266.142 40.2285 267.866L40.1625 267.916C39.1309 268.698 38.065 269.506 37.0451 270.374C35.9472 271.334 34.8243 272.943 34.818 274.348C34.816 274.961 35.0305 275.48 35.4743 275.927C39.9701 277.787 47.1618 276.567 48.441 276.036C48.8619 275.86 49.2792 275.703 49.6843 275.551L49.768 275.52C50.7222 275.162 51.6264 274.822 52.3889 274.332C56.9701 271.139 57.2785 265.615 57.5764 260.273C57.601 259.828 57.6262 259.375 57.6543 258.925ZM68.0897 263.021C68.2241 265.778 67.7562 267.826 66.793 270.812C66.2668 272.54 64.9492 274.102 63.676 275.612L63.6701 275.619C60.8451 278.969 59.8368 280.68 62.0868 282.939C62.3139 283.113 65.5576 285.481 71.1722 283.901C71.6389 283.67 72.1243 283.469 72.618 283.301C73.1972 283.022 73.7368 282.666 74.218 282.247C74.2222 282.243 74.2264 282.239 74.2306 282.236C74.2347 282.232 74.2389 282.228 74.243 282.224C77.493 279.55 79.5868 275.818 80.1389 271.712C80.6283 268.204 80.8354 265.277 80.7509 263.155C80.0709 263.175 79.4011 263.186 78.7451 263.194C78.0389 263.2 77.3305 263.204 76.6222 263.204C73.7826 263.204 70.9302 263.143 68.0897 263.021Z" fill="#07377E"/>
<g clip-path="url(#clip0_1776_5004)">
<path d="M71.1098 80.3828C71.2973 82.5042 72.1577 87.2973 75.3598 86.579L75.7035 87.1041C75.5473 90.3954 73.8931 92.7164 71.3014 95.1214C68.6681 97.5264 65.3098 98.9714 61.766 99.2256C58.641 99.4566 55.3181 98.7026 52.9806 96.5896C50.6431 94.4766 49.4139 91.5486 50.9618 89.0386H51.1868C51.891 89.0596 52.5389 88.6878 53.1348 88.3097C53.8931 87.8266 54.5389 85.6569 55.0077 85.0877C55.6327 84.2706 56.8035 81.3615 57.1243 80.3828H71.1098V80.3828Z" fill="white"/>
<path d="M92.5598 138.955C97.1743 153.36 100.385 164.408 104.601 178.311C104.81 179.02 105.643 181.53 105.258 182.158C104.999 182.579 104.566 182.847 104.143 183.089C101.831 184.414 99.3056 184.526 96.6973 185.055L87.016 186.998C73.1598 189.504 59.2535 190.117 45.3723 187.756L42.7535 187.447L33.7952 185.719C32.9868 185.563 32.0993 185.355 31.6264 184.668C31.2348 184.106 31.2368 183.364 31.266 182.677C31.3848 179.947 31.6973 177.237 32.0098 174.526L34.4743 153.101C35.5306 143.922 36.5889 134.729 38.0285 125.607L37.9285 125.575C35.5056 124.735 33.1202 123.803 30.7327 122.868C30.4035 122.773 30.1077 122.589 29.8743 122.337C29.4056 121.727 29.8077 120.854 30.2098 120.196C33.7598 114.378 36.7952 108.257 39.2848 101.904C41.1848 97.0517 43.1681 91.5927 47.8056 89.2801L57.4973 90.3955L75.7327 85.4238C78.9223 86.2849 81.5389 88.5912 83.6868 91.1222C86.4014 94.3211 88.5535 97.9654 90.0535 101.895C93.3723 110.597 93.3743 120.406 97.3764 128.812C95.4785 129.379 93.5514 129.835 91.6035 130.182L92.5598 138.955Z" fill="#26BCD3"/>
<path fill-rule="evenodd" clip-rule="evenodd" d="M58.6993 97.8163C57.7222 95.886 57.1368 93.7793 56.9806 91.6179C62.2472 86.9844 67.616 84.4135 73.2014 82.5C73.5472 82.3824 74.0202 82.3089 74.2035 82.6281C74.2722 82.7857 74.2889 82.9621 74.2535 83.1322L73.8806 86.4656C73.7056 88.0262 73.5118 89.6435 72.6993 90.9857C71.841 92.4077 70.3868 93.3445 68.9493 94.1678C66.1306 95.7831 63.1806 97.1567 60.1327 98.2721C59.7952 98.396 59.3972 98.5115 59.091 98.3225C58.9181 98.1922 58.7827 98.0179 58.6993 97.8163ZM54.0764 87.3141C53.9681 86.0455 54.5931 84.8398 55.1993 83.7224C55.5639 83.6972 55.1743 83.0398 54.691 82.9768C54.2077 82.9138 53.7598 83.2393 53.3743 83.5439C51.791 84.7894 50.2493 86.1064 48.9243 87.6271C48.6639 87.8434 48.4785 88.1354 48.3889 88.4631C48.3014 88.7907 48.3139 89.1373 48.4285 89.4566C48.9306 91.7523 49.7389 93.9683 50.8306 96.0456C51.0056 96.3795 51.3056 96.7618 51.6639 96.6589C51.8139 96.6001 51.9431 96.4993 52.0389 96.369L54.6181 93.4285C55.6097 92.3005 56.6639 91.0088 56.5931 89.5028C55.3743 89.8346 54.1847 88.5828 54.0764 87.3141Z" fill="#FEC426"/>
<path fill-rule="evenodd" clip-rule="evenodd" d="M31.2743 182.686C31.393 179.959 31.7055 177.246 32.018 174.534L34.4847 153.118C35.5264 143.95 36.5889 134.765 38.0264 125.649L37.9305 125.592C36.2284 125.004 34.5451 124.368 32.8659 123.716L32.7805 124.137L29.6784 161.371C29.5514 162.885 29.368 164.549 28.2097 165.572C27.7584 165.97 27.1838 166.239 26.6171 166.504C25.7292 166.919 24.8606 167.325 24.5159 168.208C24.0735 169.341 24.7732 170.388 25.4927 171.464C25.8743 172.035 26.2615 172.614 26.4868 173.219C26.9229 174.379 26.7445 175.665 26.5681 176.938C26.3652 178.401 26.1647 179.847 26.9034 181.062C27.7534 182.461 29.5159 182.94 31.118 183.23L31.2743 182.686ZM84.5055 172.202C82.8284 158.564 81.7972 144.889 81.4097 131.173L91.693 130.849C92.1943 135.416 92.6957 139.983 93.1972 144.55C94.3987 155.493 95.6005 166.439 96.8014 177.388C97.1159 180.249 97.3618 183.4 95.7118 185.75C95.0784 186.651 94.2097 187.359 93.2014 187.79C92.193 188.22 91.0868 188.361 90.0034 188.193C88.9201 188.025 87.9055 187.557 87.0722 186.84C86.2389 186.124 85.6201 185.189 85.2847 184.137C85.163 183.753 85.0775 183.354 84.9923 182.957C84.815 182.13 84.6391 181.309 84.1409 180.644C83.6161 179.942 82.8125 179.525 82.0154 179.111C81.1037 178.638 80.2005 178.17 79.7326 177.283C79.0847 176.05 79.6139 174.437 80.6576 173.53C81.7014 172.623 83.1284 172.289 84.5055 172.202Z" fill="white"/>
<path fill-rule="evenodd" clip-rule="evenodd" d="M59.4702 99.6814C59.1431 99.6814 58.7847 99.61 58.4389 99.3958C58.4077 99.3769 58.3785 99.3559 58.3493 99.3348C58.0077 99.0807 57.7389 98.7404 57.5681 98.3498C56.8569 96.9386 56.3444 95.4559 56.0357 93.9213C55.9019 94.0787 55.7735 94.2248 55.6556 94.3589L53.1035 97.2659C52.8744 97.56 52.5702 97.7889 52.2244 97.9254C52.1848 97.9401 52.1452 97.9548 52.1056 97.9653C52.0119 97.9884 51.8494 98.0241 51.6452 98.0241C51.1431 98.0241 50.3973 97.8078 49.8285 96.724C48.8529 94.8682 48.0941 92.9046 47.5652 90.8741C44.0842 93.0842 42.3522 97.5191 40.6744 101.818L40.4556 102.376C37.9473 108.78 34.8598 115.002 31.2827 120.866C31.0452 121.255 30.9639 121.484 30.9369 121.601C30.9827 121.629 31.0327 121.652 31.0869 121.666C31.1244 121.677 31.1598 121.69 31.1952 121.702L31.2452 121.721L31.2789 121.734L31.2792 121.734L31.2796 121.735C33.1665 122.473 35.1055 123.232 37.045 123.932C37.9388 118.426 38.9782 112.941 40.2431 107.529C40.4014 106.852 41.0722 106.43 41.7472 106.592C42.4181 106.751 42.8348 107.43 42.6764 108.108C39.2594 122.732 37.4949 137.961 35.7883 152.691L35.7827 152.74L35.7222 153.265L33.2577 174.689L33.2564 174.701C32.9526 177.342 32.6388 180.07 32.5202 182.751C32.5056 183.085 32.4785 183.711 32.6556 183.963C32.8639 184.261 33.6056 184.412 34.0473 184.5L41.2993 185.899C41.9764 186.03 42.4222 186.691 42.291 187.374C42.1806 187.975 41.6577 188.395 41.0681 188.395C40.991 188.395 40.9118 188.386 40.8327 188.372L33.5681 186.971C32.7473 186.805 31.3952 186.529 30.6118 185.408C30.3674 185.057 30.2185 184.684 30.1303 184.308C28.4761 183.939 26.7976 183.284 25.8431 181.713C24.866 180.111 25.1139 178.323 25.3327 176.748C25.4931 175.599 25.6431 174.513 25.3223 173.656C25.1544 173.201 24.8334 172.719 24.4926 172.207L24.4618 172.16L24.4618 172.16C23.6659 170.969 22.6764 169.489 23.3577 167.739C23.89 166.385 25.1237 165.805 26.1143 165.339L26.1202 165.336C26.6181 165.103 27.0868 164.883 27.3931 164.614C28.1535 163.946 28.3202 162.646 28.4368 161.257L31.4968 124.529C31.1089 124.377 30.7229 124.226 30.3389 124.076L30.3348 124.074C29.8119 123.91 29.3389 123.611 28.966 123.206C28.941 123.179 28.9181 123.151 28.8952 123.122C28.1827 122.196 28.2702 120.994 29.1535 119.547C32.6535 113.809 35.6744 107.72 38.1306 101.452L38.3473 100.895C40.2306 96.0687 42.366 90.5992 47.2598 88.1606C47.2801 88.1504 47.3007 88.1409 47.3213 88.1319C47.4876 87.645 47.7636 87.201 48.1244 86.8373C49.5202 85.2977 51.0639 83.882 52.716 82.6281C53.1452 82.292 53.9327 81.6766 54.9598 81.8152C55.7681 81.9244 56.9244 82.7436 56.891 83.7833C56.8785 84.1614 56.7202 84.4954 56.4639 84.7306L56.4639 84.7307C56.4035 84.8357 56.3431 84.9407 56.2827 85.0478L56.2795 85.0534L56.2795 85.0534C55.8305 85.8372 55.3662 86.6477 55.4202 87.3036C55.4452 87.6082 55.6639 87.9526 57.066 88.3937C57.4635 88.5184 57.7656 88.8313 57.8867 89.2189C62.1356 85.8312 66.8258 83.3512 72.8014 81.3049C74.091 80.8659 74.9306 81.3742 75.2868 81.9938C75.3098 82.0358 75.3306 82.0778 75.3493 82.1198C75.5139 82.5 75.5618 82.9117 75.491 83.3192L75.3907 84.2175C75.602 84.156 75.832 84.1501 76.0598 84.2118C79.0327 85.0142 81.841 87.0095 84.641 90.3093C87.4556 93.6259 89.6702 97.3751 91.2244 101.45C92.7639 105.489 93.6118 109.774 94.4306 113.918L94.4371 113.951L94.4371 113.951C95.4409 119.028 96.3893 123.825 98.5077 128.274C98.666 128.608 98.6723 128.993 98.5223 129.331C98.3723 129.669 98.0848 129.923 97.7348 130.028C96.176 130.49 94.6076 130.88 93.0313 131.199L93.8771 138.974C97.1363 149.162 99.7111 157.728 102.426 166.762L102.426 166.762L102.514 167.054C103.56 170.539 104.643 174.141 105.795 177.941C105.82 178.025 105.847 178.115 105.881 178.22C106.583 180.522 106.86 181.938 106.32 182.82C105.908 183.492 105.297 183.877 104.758 184.185C102.819 185.296 100.775 185.634 98.7972 185.962L98.7931 185.962L98.7227 185.974L98.7226 185.974H98.7226L98.7207 185.974L98.7197 185.974C98.1344 186.071 97.533 186.171 96.9431 186.292C96.9226 186.296 96.9021 186.299 96.8818 186.302C96.8672 186.304 96.8526 186.306 96.8381 186.307C96.8216 186.332 96.8049 186.357 96.7881 186.382C96.7651 186.416 96.7417 186.45 96.7181 186.483C95.9493 187.575 94.8972 188.428 93.6743 188.951C92.7868 189.329 91.841 189.52 90.8868 189.52C90.5222 189.52 90.1577 189.493 89.7931 189.436C88.7543 189.275 87.769 188.886 86.9023 188.299C78.668 189.769 70.846 190.506 63.3181 190.506C57.091 190.506 51.066 190.004 45.166 189C44.4848 188.884 44.0264 188.233 44.141 187.548C44.2556 186.861 44.8994 186.397 45.5806 186.515C57.85 188.601 70.7012 188.469 84.8061 186.105C84.5019 185.609 84.2572 185.076 84.0785 184.515C83.9389 184.07 83.8452 183.637 83.7577 183.217C83.6014 182.478 83.4639 181.839 83.1327 181.394C82.7806 180.926 82.1285 180.585 81.4368 180.226L81.4333 180.224C80.4196 179.697 79.2715 179.101 78.6202 177.867C77.7472 176.202 78.2702 173.925 79.8389 172.568C80.6827 171.837 81.7806 171.346 83.1118 171.1C81.5809 158.234 80.6119 145.162 80.2281 132.214C78.4495 132.14 76.6676 131.976 74.8848 131.723C74.2535 131.633 73.791 131.081 73.8098 130.44L74.3785 110.314C74.3973 109.618 74.9723 109.064 75.6639 109.089C76.3535 109.108 76.8973 109.69 76.8785 110.385L76.341 129.373C82.8389 130.154 89.3202 129.692 95.641 127.997C93.7999 123.632 92.875 118.952 91.9773 114.41L91.9773 114.41L91.9764 114.405C91.1785 110.364 90.3535 106.188 88.8889 102.351C87.4368 98.545 85.3681 95.0436 82.7389 91.9455C80.2785 89.047 77.8806 87.312 75.4118 86.6462C75.3123 86.6192 75.2188 86.5808 75.1323 86.5329L75.1243 86.6042C74.9535 88.1333 74.7389 90.0342 73.7681 91.6389C72.7327 93.355 71.0577 94.4073 69.5681 95.26C66.6952 96.9068 63.666 98.3161 60.5598 99.4525C60.3535 99.5323 59.9452 99.6814 59.4702 99.6814ZM58.2847 92.1493C58.4806 93.8675 58.966 95.5226 59.7306 97.079C62.6952 95.9931 65.5889 94.6446 68.3327 93.0735C69.5493 92.3762 70.9077 91.5339 71.6327 90.3325C72.3166 89.205 72.4799 87.7471 72.6379 86.3364L72.6389 86.327L72.9056 83.9388C67.0097 86.0287 62.4493 88.5891 58.2847 92.1493ZM98.3889 183.473C98.2546 183.495 98.1193 183.517 97.9832 183.54C98.4823 181.323 98.2291 178.989 98.0414 177.258L98.041 177.254L95.2688 151.769C96.9171 157.124 98.4499 162.226 100.03 167.486L100.031 167.489L100.031 167.489L100.032 167.49L100.12 167.785C101.166 171.272 102.249 174.876 103.399 178.668L103.421 178.74C103.434 178.784 103.45 178.834 103.466 178.887L103.489 178.962C103.979 180.571 104.104 181.285 104.108 181.596C103.966 181.737 103.721 181.878 103.55 181.977L103.522 181.993C101.975 182.88 100.242 183.167 98.4065 183.47L98.3889 183.473ZM91.3681 139.341C91.2995 139.128 91.2906 138.909 91.3323 138.703L90.5639 131.639C87.9686 132.039 85.3551 132.247 82.7315 132.26C83.1272 145.513 84.1407 158.891 85.7452 172.045C85.7868 172.389 85.6868 172.736 85.466 173.005C85.2452 173.272 84.9264 173.435 84.5827 173.456C83.2014 173.543 82.1535 173.887 81.4702 174.479C80.7889 175.07 80.5035 176.059 80.8327 176.685C81.115 177.22 81.7923 177.573 82.5761 177.98L82.5847 177.985L82.5938 177.99C83.4582 178.44 84.4372 178.95 85.1306 179.875C85.7966 180.765 86.0135 181.785 86.205 182.685L86.2056 182.688L86.2174 182.743C86.2942 183.101 86.3668 183.439 86.4639 183.748C86.7264 184.574 87.2139 185.311 87.8702 185.878C88.5264 186.443 89.3264 186.813 90.1785 186.945C91.0327 187.078 91.9035 186.968 92.6993 186.63C93.4952 186.29 94.1785 185.735 94.6785 185.026C96.0306 183.104 95.866 180.384 95.5556 177.529L91.419 139.5L91.3681 139.341ZM36.6433 126.469C35.3043 135.141 34.2957 143.846 33.3064 152.383L33.2993 152.444L30.7743 174.395L30.7657 174.471L30.7657 174.471C30.4949 176.83 30.216 179.259 30.0727 181.695C29.1779 181.44 28.3754 181.054 27.9723 180.392C27.466 179.56 27.6243 178.418 27.8076 177.095L27.8077 177.094L27.8093 177.083C27.9943 175.741 28.204 174.221 27.6618 172.768C27.3848 172.024 26.9535 171.377 26.5348 170.751C25.8806 169.772 25.4952 169.142 25.6827 168.663C25.8471 168.241 26.4607 167.954 27.1724 167.62L27.1743 167.619C27.7785 167.336 28.4618 167.014 29.0348 166.512C30.5014 165.227 30.7743 163.316 30.9285 161.467L33.9278 125.467C34.8281 125.809 35.7345 126.146 36.6433 126.469ZM49.7348 89.194C49.7098 89.1016 49.6973 89.0092 49.7014 88.9146C49.7452 88.8033 49.8139 88.7004 49.9014 88.6143C49.9202 88.5954 49.9369 88.5786 49.9535 88.5597C50.991 87.4128 52.116 86.3416 53.3119 85.3607C53.041 86.0182 52.8702 86.7323 52.9348 87.5116C53.0723 89.1667 54.2973 89.9921 55.3223 90.4353C55.0577 91.1894 54.4285 91.9518 53.7869 92.6828L51.7577 94.9932C50.8598 93.1764 50.1869 91.2545 49.7535 89.2696L49.7348 89.194ZM55.0952 101.807C55.728 101.807 56.241 101.29 56.241 100.652C56.241 100.014 55.728 99.4966 55.0952 99.4966C54.4624 99.4966 53.9494 100.014 53.9494 100.652C53.9494 101.29 54.4624 101.807 55.0952 101.807ZM55.4077 108.633C55.4077 109.271 54.8947 109.789 54.2618 109.789C53.629 109.789 53.116 109.271 53.116 108.633C53.116 107.995 53.629 107.478 54.2618 107.478C54.8947 107.478 55.4077 107.995 55.4077 108.633Z" fill="#07377E"/>
</g>
<path d="M73.5868 61.6344C75.0305 59.9205 74.5826 56.9526 72.6993 55.7532C72.0243 55.3206 71.1701 55.0517 70.8014 54.3376C70.3847 53.5499 70.7618 52.6068 70.9805 51.7457C70.9805 51.7183 70.9951 51.6889 71.0035 51.6616C71.6285 49.0655 68.6847 47.1394 66.541 48.7106C63.8639 50.6723 60.8222 52.0712 57.5972 52.8253C55.9305 53.2117 53.8826 53.2874 52.8535 51.9137C52.2451 51.0987 52.0993 49.8679 50.5618 49.9834C50.1139 50.0212 49.6826 50.1787 49.3118 50.4371C46.5597 52.3086 43.4118 53.4995 40.118 53.9175C39.1972 54.033 38.243 54.0855 37.3535 53.8188C34.7993 53.0521 33.6389 49.7734 34.4097 47.2025C35.1805 44.6315 37.3576 42.7307 39.6576 41.3696C41.0826 40.5294 42.6701 39.7565 43.5285 38.3303C44.0326 37.4901 44.2305 36.4903 44.7368 35.6523C45.243 34.8142 46.0347 34.182 46.841 33.6107C51.1847 30.5797 56.3785 29.038 61.6576 29.2082C64.7826 29.3174 68.4555 30.5839 69.1305 33.6548L73.9222 35.6901C77.6097 36.2614 81.3597 37.5132 83.9701 40.2018C86.5805 42.8903 87.7201 47.2823 85.8451 50.5358C85.5993 50.9559 85.2951 51.4012 85.3076 51.8969C85.3243 52.527 85.8472 53.0227 86.2805 53.489C87.0389 54.3166 87.616 55.2954 87.9722 56.3624C88.3285 57.4294 88.4576 58.5594 88.3514 59.681C88.2535 60.6556 87.9347 61.6638 87.2097 62.3087C86.4847 62.9535 85.2493 63.0858 84.5639 62.3927L74.168 63.9995L73.5868 61.6344Z" fill="#07377E"/>
<path d="M39.7431 54.0267C38.3993 57.5113 37.591 60.6577 37.3868 62.5628C36.8723 67.3602 37.8327 72.691 41.4723 76.1084C43.4118 77.9274 45.8139 78.8221 48.3827 79.2779C51.0618 79.7547 53.9368 80.1895 56.5368 79.1183C56.3993 81.3048 56.3785 82.8654 56.4785 85.0541L71.166 83.4116C70.9285 80.5361 71.4577 78.0702 72.6993 75.4699C72.9806 74.8818 73.5848 74.8881 74.1827 74.6969C74.7139 74.5289 75.2348 74.3357 75.7493 74.1172C76.7931 73.6803 77.7785 73.1153 78.6868 72.4369C80.4827 71.0695 81.8827 69.1497 82.4077 66.9233C82.8848 64.9048 82.5493 62.5019 80.3243 61.3656C78.7556 60.5674 77.3493 60.851 74.9598 62.9682L73.6056 61.6407C75.0493 59.9268 74.6014 56.9589 72.7181 55.7596C72.0431 55.3269 71.1889 55.058 70.8202 54.3439C70.4035 53.5562 70.7806 52.6131 70.9993 51.752C70.9993 51.7247 71.0139 51.6953 71.0223 51.668C71.6473 49.0718 68.7035 47.1458 66.5598 48.7169C63.8827 50.6787 60.841 52.0775 57.616 52.8316C55.9493 53.2181 53.9014 53.2937 52.8723 51.92C52.2639 51.105 52.1181 49.8742 50.5806 49.9897C50.1327 50.0275 49.7014 50.1851 49.3306 50.4434C46.5723 52.3149 43.416 53.5037 40.1181 53.9175" fill="white"/>
<path d="M85.766 64.1213C84.9848 64.1213 84.2264 63.8419 83.6723 63.2832C83.1848 62.7896 83.1869 61.9915 83.6744 61.5C84.1639 61.0085 84.9556 61.0106 85.4431 61.5021C85.5994 61.6596 86.0889 61.6197 86.3764 61.3635C86.7619 61.0211 87.0181 60.3784 87.1014 59.5529C87.191 58.6077 87.0848 57.6688 86.7806 56.7635C86.4785 55.8583 85.9994 55.0454 85.3556 54.3439L85.2494 54.2304C84.7556 53.7053 84.0785 52.987 84.0514 51.9305C84.0306 51.1218 84.4077 50.4896 84.6827 50.0275L84.7619 49.8952C86.4202 47.0155 85.1306 43.2032 83.0702 41.0839C81.0223 38.9751 77.8785 37.5804 73.7264 36.9356C73.0431 36.8306 72.5764 36.1858 72.6806 35.4989C72.7848 34.8121 73.4244 34.3395 74.1056 34.4445C78.8056 35.1734 82.4223 36.8138 84.8577 39.3196C86.3348 40.8403 87.3827 42.8231 87.8077 44.9025C88.2681 47.152 87.9535 49.3764 86.9202 51.1701L86.8264 51.3277C86.7306 51.4873 86.5723 51.752 86.5535 51.8612C86.5973 52.0019 86.8889 52.3107 87.0639 52.4976L87.1869 52.6278C88.0764 53.5982 88.7348 54.7156 89.1514 55.9591C89.5681 57.2025 89.7139 58.4943 89.591 59.8008C89.441 61.2878 88.9035 62.4788 88.0327 63.2538C87.3806 63.8315 86.5619 64.1213 85.766 64.1213Z" fill="#07377E"/>
<path d="M73.5868 62.8947C73.3014 62.8947 73.0139 62.7959 72.7785 62.5943C72.2514 62.1427 72.1889 61.3488 72.6348 60.8174C73.0827 60.286 73.2764 59.4899 73.1556 58.6875C73.0348 57.8873 72.6139 57.1878 72.0327 56.8182C71.8889 56.7257 71.7202 56.6354 71.541 56.5388C70.9181 56.2048 70.141 55.7869 69.6931 54.9194C69.1098 53.8167 69.4327 52.6551 69.6702 51.8045C69.6993 51.6994 69.7285 51.5944 69.7556 51.4915C69.7681 51.4243 69.7847 51.3634 69.8014 51.313C70.0056 50.3552 69.3535 49.828 69.1452 49.6872C68.6889 49.3785 67.9598 49.2294 67.2785 49.7272C64.4493 51.8003 61.2889 53.2538 57.8827 54.0498C55.1014 54.6946 53.0181 54.2178 51.8597 52.6698C51.6535 52.3947 51.5014 52.1132 51.3681 51.8654C51.0139 51.21 51.0014 51.21 50.6577 51.2374C50.4389 51.2563 50.2181 51.3361 50.0285 51.4684C47.1139 53.4491 43.7473 54.724 40.2785 55.163C39.2993 55.287 38.1452 55.3647 37.0014 55.0223C35.6493 54.6169 34.5014 53.6381 33.7681 52.2687C32.8931 50.6303 32.6868 48.5992 33.216 46.8328C33.9702 44.3186 35.9243 42.1131 39.0285 40.2774C39.2202 40.164 39.4118 40.0547 39.6056 39.9434C40.7785 39.2692 41.8847 38.6327 42.4639 37.6708C42.6577 37.3494 42.8077 36.9545 42.9681 36.5365C43.1618 36.0303 43.3618 35.5073 43.6743 34.9906C44.3035 33.9467 45.2264 33.2116 46.1264 32.573C50.666 29.4056 56.1931 27.7652 61.7014 27.9416C65.1702 28.0634 69.516 29.5589 70.3556 33.3754C70.5056 34.0559 70.0806 34.7281 69.4056 34.8793C68.7327 35.0284 68.0639 34.602 67.9139 33.9215C67.4181 31.6657 64.3952 30.5587 61.6181 30.4621C56.6452 30.2983 51.6493 31.7854 47.5556 34.642C46.8827 35.1187 46.1993 35.6544 45.8077 36.3034C45.6118 36.6268 45.4597 37.0238 45.2993 37.4439C45.1077 37.9459 44.9098 38.4647 44.6014 38.9772C43.6868 40.4979 42.1764 41.3675 40.8431 42.132C40.6577 42.2392 40.4743 42.3442 40.291 42.4513C37.7493 43.9552 36.1743 45.6754 35.6077 47.5616C35.2723 48.6832 35.4097 50.0275 35.9681 51.0714C36.2618 51.6196 36.8014 52.3317 37.7118 52.6047C38.4139 52.8148 39.2452 52.7518 39.966 52.6614C43.0473 52.2708 46.0389 51.1386 48.616 49.3869C49.1514 49.013 49.7931 48.7799 50.4597 48.7232C52.4368 48.5719 53.1702 49.9309 53.5639 50.6597C53.666 50.8488 53.7618 51.0273 53.8556 51.1512C54.5722 52.109 56.5181 51.7793 57.3202 51.5923C60.3972 50.874 63.2535 49.5591 65.8097 47.6855C67.2285 46.6458 69.0848 46.608 70.5389 47.5889C71.9681 48.553 72.6285 50.267 72.2222 51.9515C72.216 51.9767 72.2097 51.9998 72.2014 52.025C72.2014 52.0271 72.2014 52.0292 72.1993 52.0292C72.1973 52.0355 72.1952 52.0439 72.1952 52.0502C72.1597 52.1909 72.1202 52.3338 72.0806 52.4787C71.9514 52.9408 71.7931 53.5163 71.9097 53.7369C72.0056 53.9238 72.3702 54.1191 72.7222 54.3082C72.9347 54.4216 73.1535 54.5392 73.3764 54.682C74.5764 55.4466 75.3993 56.7656 75.6327 58.299C75.866 59.8365 75.4702 61.3467 74.5472 62.441C74.2931 62.7434 73.941 62.8947 73.5868 62.8947ZM72.2306 51.7478C72.2306 51.7499 72.2306 51.7499 72.2306 51.7478C72.2306 51.7499 72.2306 51.7499 72.2306 51.7478ZM72.2306 51.7457V51.7478V51.7457Z" fill="#07377E"/>
<path d="M45.914 59.8197C46.7194 59.8197 47.3723 59.0203 47.3723 58.0343C47.3723 57.0483 46.7194 56.249 45.914 56.249C45.1085 56.249 44.4556 57.0483 44.4556 58.0343C44.4556 59.0203 45.1085 59.8197 45.914 59.8197Z" fill="#07377E"/>
<path d="M52.9973 60.3133C53.8027 60.3133 54.4556 59.5139 54.4556 58.5279C54.4556 57.5419 53.8027 56.7426 52.9973 56.7426C52.1919 56.7426 51.5389 57.5419 51.5389 58.5279C51.5389 59.5139 52.1919 60.3133 52.9973 60.3133Z" fill="#07377E"/>
<path d="M71.1556 83.4053C70.514 83.4053 69.966 82.9096 69.9119 82.25C69.6473 79.0868 70.2577 77.6396 71.5535 74.9175C72.0285 73.924 72.9265 73.7055 73.464 73.5753C73.5806 73.5459 73.691 73.5207 73.7869 73.4892C74.2827 73.3316 74.7723 73.151 75.2452 72.9494C76.2015 72.5503 77.0994 72.0357 77.9244 71.4182C79.5869 70.1516 80.7452 68.4482 81.1744 66.625C81.3952 65.7071 81.6952 63.4765 79.7431 62.483C78.891 62.0482 78.0556 61.8781 75.766 63.9071C75.2473 64.3671 74.4577 64.3146 74.0015 63.7916C73.5452 63.2686 73.5973 62.4725 74.116 62.0125C77.4035 59.0992 79.3035 59.4353 80.8681 60.2313C83.2931 61.4664 84.341 64.1402 83.6035 67.211C83.041 69.5971 81.5556 71.8088 79.4223 73.4325C78.4265 74.1781 77.3473 74.7956 76.2098 75.2703C75.6702 75.4993 75.1056 75.7093 74.5369 75.8879C74.364 75.9425 74.1973 75.9845 74.0515 76.0202C73.9598 76.0433 73.841 76.0706 73.764 76.0958C72.566 78.6163 72.1952 79.5636 72.4035 82.0337C72.4619 82.7268 71.9515 83.3359 71.264 83.3947C71.2265 83.4031 71.191 83.4053 71.1556 83.4053Z" fill="#07377E"/>
<path d="M56.4785 85.2641C55.814 85.2641 55.2619 84.7369 55.2306 84.0606C55.164 82.5819 55.1494 81.8383 55.191 80.8238C52.6869 81.3111 50.1369 80.8637 48.1702 80.5172C44.9931 79.9521 42.5244 78.8116 40.6223 77.0284C37.1264 73.7454 35.4952 68.4229 36.1452 62.4221C36.3889 60.1977 37.2973 56.8875 38.5785 53.5667C38.8285 52.9177 39.5535 52.5963 40.1973 52.8484C40.841 53.1004 41.1598 53.8314 40.9098 54.4804C39.489 58.1645 38.8015 61.1408 38.6306 62.6972C38.066 67.8957 39.4119 72.4473 42.3265 75.1821C43.8848 76.644 45.8785 77.5493 48.6015 78.0324C51.3848 78.5218 53.8702 78.8515 56.066 77.9462C56.464 77.7824 56.9181 77.837 57.2681 78.0891C57.6181 78.3432 57.814 78.7591 57.7869 79.1918C57.6535 81.3048 57.6306 81.7711 57.7306 83.9387C57.7619 84.634 57.2285 85.2242 56.539 85.2557C56.516 85.2641 56.4973 85.2641 56.4785 85.2641Z" fill="#07377E"/>
<defs>
<clipPath id="clip0_1776_5004">
<rect width="125" height="126.025" fill="white" transform="translate(0.407654 80.3828)"/>
</clipPath>
</defs>
</svg>
