<svg width="126" height="294" viewBox="0 0 126 294" fill="none" xmlns="http://www.w3.org/2000/svg">
<path fill-rule="evenodd" clip-rule="evenodd" d="M42.6194 266.874C43.8395 265.997 45.6119 264.188 46.4099 262.158L58.7852 261.565C58.6424 263.099 58.4807 264.63 58.3001 266.156C58.0166 268.564 57.4769 270.96 56.4269 273.145C54.5432 277.071 49.31 278.678 45.9794 279.281C42.8546 279.847 40.0448 280.306 37.1594 279.702C34.9754 279.244 34.1123 277.229 34.0283 275.496C33.8388 271.563 37.1325 269.858 40.0276 268.359C40.981 267.866 41.8911 267.394 42.6194 266.874ZM73.5314 268.449C71.2109 269.101 68.6216 269.124 66.4943 267.992L65.6984 267.49C65.7047 268.085 65.7089 268.68 65.7089 269.277C65.7089 269.491 65.715 269.706 65.7212 269.924C65.7644 271.452 65.8125 273.152 63.8189 275.912C63.6989 276.078 63.5442 276.279 63.3664 276.51C62.4774 277.665 61.0095 279.571 60.3917 281.607C60.0494 282.747 60.1607 283.975 60.7025 285.033C61.2422 286.091 62.1725 286.899 63.296 287.286C66.2234 288.308 69.5204 288.083 72.4205 286.93C73.2731 286.571 74.0837 286.118 74.8355 285.58C81.0746 281.328 81.2888 274.144 81.2489 271.29C81.2174 269.08 81.1796 266.873 81.1376 264.672L80.0414 265.361C77.9603 266.575 75.8519 267.797 73.5314 268.449Z" fill="#2B2B2B"/>
<path fill-rule="evenodd" clip-rule="evenodd" d="M46.5262 231.627C46.3441 226.687 46.1553 221.566 46.0552 217.244L61.2676 216.695C60.8707 222.203 60.3646 232.846 60.1336 238.369L59.764 238.648C58.147 239.91 56.0449 240.421 53.9953 240.455C51.6782 240.494 50.8251 240.307 49.2725 239.967C48.8748 239.88 48.4312 239.783 47.9053 239.677L46.7965 239.197C46.7178 236.823 46.623 234.251 46.5262 231.627ZM64.3929 227.544C64.2932 225.278 64.1953 223.053 64.1047 220.951L80.5624 220.356C80.5078 226.274 80.5477 232.762 80.6317 238.632L79.7014 239.473C78.9874 240.543 78.0613 241.452 76.9777 242.142C75.8962 242.834 74.6803 243.29 73.4119 243.483C72.1435 243.677 70.8478 243.603 69.6088 243.269C68.3698 242.934 67.2148 242.344 66.2152 241.536L64.9657 240.89C64.7966 236.718 64.5912 232.051 64.3929 227.544Z" fill="white"/>
<path fill-rule="evenodd" clip-rule="evenodd" d="M91.1527 173.843L83.9623 133.309L40.5154 133.599C35.7232 160.123 33.031 186.987 32.4661 213.936C32.4514 214.562 32.4661 215.256 32.8861 215.717C33.2032 216.064 33.6883 216.196 34.1461 216.308C41.0593 217.98 48.2245 218.331 55.2679 217.338L55.9798 220.154C69.0523 222.583 82.5322 221.563 95.0923 217.195C95.0923 217.195 93.6727 188.043 91.1527 173.843ZM58.5628 261.664C53.8357 263.757 50.8894 263.49 46.3828 262.186L46.3933 262.158C46.6264 261.584 46.765 260.974 46.8028 260.354C47.1367 253.397 47.0233 246.282 46.7881 239.197L47.8969 239.677L47.9083 239.679L47.9084 239.679C49.9164 240.082 51.9412 240.489 53.9869 240.455C56.0365 240.421 58.1386 239.91 59.7556 238.648L60.1252 238.369L60.0802 239.443C59.7707 246.846 59.4617 254.237 58.7686 261.565L58.5628 261.664ZM66.4945 267.992C68.6218 269.124 71.2111 269.1 73.5316 268.449C75.8521 267.797 77.9605 266.575 80.0416 265.361L81.1378 264.671C81.0777 261.483 81.0101 258.3 80.9424 255.118L80.9424 255.117C80.8256 249.62 80.7088 244.127 80.6317 238.621L79.7014 239.462C78.9895 240.531 78.0613 241.439 76.9777 242.131C75.8941 242.821 74.6803 243.279 73.4119 243.473C72.1435 243.666 70.8478 243.595 69.6088 243.258C68.3698 242.924 67.2127 242.333 66.2152 241.525L64.9657 240.88C65.3248 249.752 65.6167 258.619 65.6923 267.487L66.4945 267.992Z" fill="#316AFE"/>
<path fill-rule="evenodd" clip-rule="evenodd" d="M65.4379 222.571C66.9373 222.658 68.4382 222.701 69.9385 222.701C73.0648 222.701 76.1893 222.513 79.2927 222.138C79.2547 227.516 79.291 232.904 79.3646 238.255C79.0844 238.334 78.8299 238.509 78.6556 238.771C78.0361 239.7 77.2444 240.476 76.3036 241.076C75.3628 241.675 74.3254 242.066 73.2229 242.234C72.1204 242.403 71.0158 242.34 69.9385 242.049C68.8612 241.757 67.8763 241.254 67.0069 240.552C66.7706 240.361 66.4862 240.27 66.2045 240.272C66.0416 236.274 65.8661 232.299 65.6923 228.363C65.6063 226.433 65.522 224.501 65.4379 222.571ZM62.9071 222.383C62.6809 222.363 62.4548 222.341 62.2287 222.319C61.8371 227.857 61.6004 233.5 61.3711 238.967L61.3711 238.967L61.3642 239.132L61.3641 239.135C60.9903 248.072 60.6039 257.312 59.5435 266.302C59.2033 269.198 58.5523 271.614 57.5548 273.69C55.3729 278.239 49.5013 279.921 46.1959 280.52C43.9615 280.922 41.9686 281.242 40.0177 281.242C38.974 281.242 37.9429 281.149 36.8929 280.93C35.0008 280.533 32.9239 278.912 32.7601 275.551C32.5312 270.809 36.5233 268.741 39.4402 267.231L39.4438 267.229L39.444 267.229C40.3603 266.755 41.224 266.307 41.8783 265.839C43.2412 264.861 45.4462 262.489 45.5512 260.285C46.008 250.785 45.618 240.884 45.2407 231.309L45.2383 231.248L45.2322 231.092C45.0764 227.13 44.9156 223.039 44.8218 219.094C41.1368 218.93 37.4691 218.408 33.8458 217.53L33.8407 217.529C33.3529 217.409 32.5459 217.21 31.9558 216.567C31.1662 215.7 31.1893 214.533 31.2019 213.904C31.7668 186.971 34.4821 159.875 39.2701 133.368C39.394 132.683 40.0492 132.226 40.7338 132.35C41.4184 132.475 41.8741 133.131 41.7502 133.816C36.9853 160.193 34.2847 187.154 33.7198 213.955C33.7072 214.605 33.7618 214.807 33.8101 214.859C33.887 214.938 34.2739 215.035 34.4222 215.072L34.438 215.076C41.2067 216.714 48.1363 217.055 55.035 216.09C56.0452 202.339 56.3395 188.425 55.9084 174.668C55.8538 172.851 55.7614 171.364 55.1398 170.096C54.6148 169.023 53.4766 168.022 52.3195 168.18C51.6286 168.275 50.9944 167.791 50.8999 167.101C50.8054 166.411 51.2884 165.774 51.9772 165.68C54.4237 165.345 56.5048 167.158 57.4015 168.983C58.3129 170.842 58.3759 172.92 58.4263 174.59C58.8904 189.381 58.5208 204.354 57.328 219.114C69.5038 221.185 82.0639 220.22 93.784 216.308C93.5131 211.179 92.1334 186.588 89.9116 174.064L82.7212 133.53C82.5994 132.845 83.0572 132.189 83.7418 132.067C84.4264 131.943 85.0816 132.403 85.2034 133.089L92.3938 173.623C94.8991 187.738 96.3376 216.842 96.3502 217.135C96.3775 217.694 96.0331 218.205 95.506 218.388C91.0447 219.94 86.4596 221.076 81.8154 221.791C81.7298 232.876 81.9653 244.024 82.1934 254.817L82.1983 255.05C82.3117 260.361 82.4272 265.852 82.507 271.28C82.5742 276.068 81.4213 282.617 75.5539 286.623C74.7307 287.21 73.8403 287.709 72.9079 288.102C72.8995 288.106 72.8911 288.108 72.8848 288.112C71.0347 288.84 69.1237 289.21 67.2589 289.21C65.749 289.21 64.2685 288.968 62.8762 288.482C61.444 287.988 60.268 286.968 59.575 285.614C58.882 284.257 58.7413 282.708 59.1802 281.25C59.8669 278.989 61.4293 276.96 62.3638 275.746C62.5339 275.528 62.6809 275.336 62.7943 275.179C64.552 272.762 64.5079 271.397 64.4596 269.95L64.4554 269.81C64.4501 269.635 64.4449 269.463 64.4449 269.292C64.3757 255.723 63.7668 241.909 63.1777 228.546L63.1777 228.546L63.1744 228.472C63.084 226.444 62.9955 224.414 62.9071 222.383ZM54.8374 218.665C52.354 218.989 49.8643 219.151 47.3782 219.151L47.3445 219.151C47.438 223.091 47.6001 227.186 47.7583 231.147C47.8535 233.553 47.9495 235.978 48.0326 238.414C48.0726 238.418 48.1128 238.424 48.1531 238.432L48.1657 238.434L48.184 238.438C50.1827 238.838 52.0712 239.217 53.9743 239.185C55.3656 239.162 57.3376 238.886 58.9012 237.713C59.118 232.551 59.3519 227.25 59.7227 222.028C58.3942 221.852 57.0691 221.641 55.7488 221.395C55.1125 221.278 54.6694 220.695 54.724 220.049C54.7626 219.588 54.8004 219.127 54.8374 218.665ZM48.1154 240.999C48.3082 247.489 48.3774 254.024 48.0712 260.407C48.0566 260.711 48.0187 261.011 47.9608 261.308C51.4215 262.202 53.9047 262.252 57.59 260.711C58.1905 254.059 58.4979 247.308 58.776 240.701C57.0948 241.473 55.3414 241.687 54.0163 241.709C53.9302 241.711 53.842 241.711 53.7559 241.711C51.8238 241.711 49.942 241.362 48.1154 240.999ZM57.3177 263.52C57.2313 264.35 57.1397 265.179 57.0424 266.005C56.7337 268.617 56.1604 270.773 55.2847 272.594C54.6988 273.816 52.5946 276.794 45.7486 278.035C42.4915 278.623 39.9862 279 37.4116 278.462C35.551 278.07 35.3095 276.041 35.2801 275.429C35.1394 272.522 37.2961 271.183 40.5994 269.473L40.6577 269.443C41.6357 268.935 42.5596 268.455 43.3462 267.892C44.3726 267.156 46.0163 265.609 47.0712 263.684C48.8946 264.166 50.5284 264.455 52.1788 264.455C53.8088 264.455 55.456 264.174 57.3177 263.52ZM79.6798 255.074C79.5867 250.698 79.4923 246.263 79.4184 241.795C78.8866 242.324 78.2978 242.795 77.656 243.204C76.417 243.993 75.0541 244.506 73.603 244.729C73.0717 244.807 72.5404 244.849 72.0112 244.849C71.0935 244.849 70.18 244.727 69.2812 244.485C68.2224 244.199 67.2303 243.757 66.3199 243.167C66.6259 251.024 66.8704 258.95 66.9466 266.816C66.994 266.834 67.0408 266.855 67.0867 266.88C68.7289 267.755 70.8982 267.881 73.1914 267.235C75.3838 266.619 77.4292 265.427 79.4074 264.272C79.5525 264.187 79.7078 264.135 79.8646 264.113C79.813 261.415 79.7565 258.727 79.7009 256.08L79.7009 256.08L79.7009 256.08L79.7009 256.079L79.6804 255.103L79.6798 255.075L79.6798 255.074ZM66.9793 269.861C66.9764 269.768 66.9734 269.675 66.971 269.583C68.0244 269.969 69.1816 270.163 70.3963 270.163C71.5156 270.163 72.6874 269.997 73.8697 269.664C76.0625 269.049 78.0906 267.948 79.9159 266.894C79.9419 268.369 79.9659 269.843 79.987 271.313C80.071 277.383 78.0991 281.835 74.1238 284.543C74.1185 284.547 74.1141 284.551 74.1094 284.554L74.1007 284.56C73.4308 285.042 72.7042 285.448 71.9419 285.77C69.2077 286.853 66.2068 286.975 63.7036 286.1C62.8825 285.818 62.2147 285.237 61.8199 284.466C61.4251 283.692 61.3432 282.811 61.5931 281.982C62.1454 280.167 63.5314 278.365 64.3609 277.288C64.5478 277.046 64.7095 276.836 64.8334 276.663C67.0976 273.551 67.0322 271.512 66.9797 269.874L66.9796 269.871L66.9793 269.861Z" fill="#2B2B2B"/>
<g clip-path="url(#clip0_2696_3799)">
<path d="M71.2677 79.6909C71.4567 81.8123 72.324 86.6055 75.5517 85.8871L75.8982 86.4123C75.7407 89.7036 74.0733 92.0246 71.4609 94.4295C68.8065 96.8345 65.4213 98.2796 61.8492 98.5338C58.6992 98.7648 55.3497 98.0108 52.9935 95.8977C50.6373 93.7847 49.3983 90.8567 50.9586 88.3467H51.1854C51.8952 88.3677 52.5483 87.996 53.1489 87.6179C53.9133 87.1348 55.4904 85.1541 55.9629 84.5849C56.5929 83.7678 56.8491 80.6697 57.1725 79.6909H71.2677V79.6909Z" fill="white"/>
<path d="M75.9276 84.7319C79.6425 85.7275 82.5237 88.5904 84.8442 91.5226C87.3747 94.7236 89.3592 98.3195 90.72 102.165C91.4823 104.314 92.6877 106.732 93.1854 108.954L93.849 110.987C97.4442 126.474 98.0868 142.447 98.322 158.373L98.532 158.612C99.8256 163.346 104.656 175.319 105.706 180.36C105.739 180.79 105.668 181.223 105.496 181.62C103.396 184.14 99.8256 183.51 97.0641 184.367L87.3054 186.31C73.3383 188.816 59.3208 189.429 45.3285 187.068L42.6888 186.76L33.6588 185.031C32.844 184.876 31.9494 184.668 31.4727 183.981C31.0779 183.418 31.08 182.676 31.1094 181.99C31.2291 179.259 31.5441 176.55 31.8591 173.838L33.2997 161.416H33.1905C31.0569 161.156 29.3433 160.897 27.2097 160.639C28.0938 150.882 29.2278 141.151 30.6117 131.443C31.815 122.989 33.2157 114.533 35.7021 106.364C37.9113 99.1051 41.4162 91.5982 48.0711 87.9582L57.3111 88.5883L75.9276 84.7319Z" fill="#12E37F"/>
<path fill-rule="evenodd" clip-rule="evenodd" d="M26.1113 179.305C26.9513 181.196 28.9883 182.475 31.103 182.557L32.8313 165.405L26.5313 165.735C25.0613 166.283 23.8013 167.543 24.2213 169.223C26.6712 171.674 26.4152 175.139 26.1851 178.253C26.1588 178.609 26.1328 178.961 26.1113 179.305ZM80.2073 176.258C78.5063 174.014 81.125 171.698 83.1473 171.044H96.5831C96.6413 171.391 96.7038 171.749 96.7678 172.117C97.2833 175.077 97.9048 178.646 97.3202 181.467C96.7154 184.393 94.7351 187.104 91.5515 187.314C88.4267 187.516 86.5157 185.313 85.535 182.618C85.4357 182.346 85.3445 182.013 85.2473 181.658C84.9619 180.616 84.6241 179.382 83.8739 178.936C83.6496 178.802 83.4219 178.672 83.1939 178.542C82.0956 177.915 80.988 177.282 80.2073 176.258Z" fill="white"/>
<path fill-rule="evenodd" clip-rule="evenodd" d="M59.3418 97.3344L57.33 88.6009C61.3813 86.9406 64.4481 85.3954 67.5043 83.8555L67.6032 83.8056C69.93 82.6315 72.3324 81.4364 74.9322 81.2368C74.7368 83.3936 74.146 85.4743 73.5553 87.5541L73.5378 87.6158C73.1409 89.0084 72.7209 90.4345 71.7822 91.5289C70.9884 92.4551 69.888 93.0601 68.7918 93.5957C65.753 95.0819 62.5531 96.2062 59.3612 97.3276L59.3418 97.3344ZM54.2955 85.9376L55.167 82.8247C55.398 83.018 55.6962 82.1988 55.3056 81.5582L48.8481 86.7672C48.6927 88.3551 48.8754 89.9578 49.3878 91.4701C49.9002 92.9824 50.7276 94.3665 51.8154 95.5344C53.781 93.5075 55.3497 91.1277 56.4354 88.5211C55.4694 88.3173 54.3039 87.9141 54.1611 86.9353C54.138 86.5971 54.1821 86.2568 54.2955 85.9376ZM81.1776 165.543C80.8458 167.15 80.7366 168.793 80.85 170.429C80.8458 170.523 80.8584 170.618 80.892 170.706C80.9256 170.794 80.976 170.876 81.0411 170.946C81.1734 171.025 81.3288 171.061 81.4821 171.044L95.7621 171.004C95.9784 171.021 96.1947 170.981 96.3921 170.891C96.7953 170.662 96.8268 170.103 96.8121 169.631L96.6609 165.76L81.1776 165.543ZM26.9199 165.661C27.0459 164.096 27.1824 162.489 27.8565 161.072L33.0939 161.561L32.4303 166.501C30.5634 166.489 28.707 166.205 26.9199 165.661Z" fill="#316AFE"/>
<path fill-rule="evenodd" clip-rule="evenodd" d="M58.7433 98.4351C58.9281 98.5359 59.1402 98.5884 59.3502 98.5884C59.4951 98.5884 59.64 98.5653 59.7723 98.5191C62.9496 97.4038 66.234 96.2486 69.3399 94.73C70.5516 94.1398 71.7991 93.4424 72.7335 92.3523C73.8738 91.0248 74.3568 89.3277 74.7453 87.9624L74.7642 87.8994L74.7648 87.8976C74.957 87.2207 75.1514 86.5361 75.3334 85.843C75.4163 85.8872 75.5055 85.9227 75.6 85.9481C79.2687 86.9332 82.068 90.0461 83.8551 92.304C86.3037 95.4021 88.2126 98.8615 89.5314 102.588C89.8065 103.361 90.1362 104.171 90.4575 104.955C91.0455 106.394 91.6524 107.881 91.9548 109.229C92.0871 109.815 92.6058 110.214 93.1833 110.214C93.2757 110.214 93.3681 110.204 93.4605 110.183C94.1388 110.029 94.5651 109.355 94.4139 108.677C94.0653 107.122 93.4185 105.535 92.7906 103.999L92.7618 103.928C92.449 103.163 92.153 102.438 91.9065 101.743C90.4974 97.7567 88.452 94.0558 85.8312 90.7392C83.8236 88.2019 80.6442 84.69 76.2531 83.5138C76.1284 83.4802 76.0031 83.4667 75.8804 83.4711C76.0134 82.7742 76.119 82.0682 76.1838 81.3524C76.2174 80.9848 76.0872 80.6194 75.8268 80.3547C75.5664 80.0901 75.2031 79.9535 74.8336 79.9829C71.9456 80.2034 69.3387 81.519 67.038 82.68L67.0341 82.682L66.9333 82.7324L66.8424 82.7781L66.8424 82.7782C63.9137 84.2521 60.8805 85.7787 56.9772 87.3835C56.8884 87.3412 56.794 87.309 56.6958 87.2882C55.6983 87.0782 55.4547 86.8219 55.4148 86.7652C55.4148 86.6434 55.4316 86.5237 55.4673 86.4081L56.7651 83.6461C56.9961 83.1546 56.8848 82.5686 56.49 82.1947C56.0952 81.8208 55.5051 81.7431 55.0263 82.0015L48.2496 85.6562C47.8821 85.8557 47.6343 86.2254 47.5944 86.6434C47.589 86.6985 47.584 86.7536 47.5793 86.8086C47.544 86.8239 47.5091 86.8409 47.4747 86.8598C41.6346 90.0545 37.5123 96.1352 34.4988 105.999C31.9641 114.327 30.534 123.065 29.3664 131.267C27.9846 140.943 26.838 150.788 25.956 160.528C25.92 160.915 26.0642 161.279 26.3205 161.535C25.9777 162.588 25.833 163.671 25.7375 164.697C23.5984 165.642 22.5053 167.544 23.0013 169.528C23.058 169.751 23.1714 169.952 23.3331 170.114C25.3743 172.158 25.1496 175.21 24.9312 178.161L24.9269 178.218L24.9269 178.218C24.901 178.56 24.8755 178.898 24.8556 179.228C24.843 179.434 24.8808 179.639 24.9669 179.828C25.4898 180.979 26.3235 181.958 27.3756 182.66C28.1665 183.189 29.0547 183.542 29.984 183.703C30.075 184.05 30.2204 184.392 30.4479 184.716C31.2375 185.838 32.6004 186.113 33.4278 186.279L40.5573 187.644C40.6371 187.659 40.7169 187.667 40.7946 187.667C41.3868 187.667 41.9139 187.247 42.0294 186.646C42.1617 185.964 41.7123 185.302 41.0298 185.172L33.9108 183.809C33.4656 183.721 32.718 183.569 32.508 183.271C32.3295 183.019 32.3568 182.393 32.3715 182.059C32.4911 179.379 32.8074 176.65 33.1136 174.009L33.1136 174.009L33.1149 173.998L35.5992 152.573L35.6601 152.048L35.6658 151.999C37.3861 137.27 39.1646 122.04 42.609 107.417C42.7686 106.738 42.3486 106.06 41.6724 105.9C40.9941 105.738 40.3158 106.161 40.1562 106.837C36.6792 121.597 34.8923 136.896 33.1641 151.691L33.1569 151.752L32.198 160.023C31.7158 159.96 31.2487 159.897 30.7905 159.836L30.4206 159.786C29.8221 159.704 29.2131 159.622 28.5747 159.54C29.4378 150.242 30.5403 140.855 31.8591 131.622C33.012 123.52 34.4232 114.898 36.9075 106.734C39.5295 98.1505 42.9664 92.6883 47.6646 89.6752C47.7736 90.4175 47.9505 91.1514 48.195 91.8734C48.7683 93.5664 49.6755 95.0871 50.8935 96.3935C51.1287 96.6456 51.4584 96.7905 51.8028 96.7947H51.8154C52.1556 96.7947 52.4832 96.6561 52.7205 96.4124C53.5629 95.5435 54.333 94.6191 55.0276 93.6436L52.6323 131.389L52.6305 131.417C51.4798 149.553 50.2911 168.286 52.2978 186.736C50.0215 186.504 47.7683 186.2 45.5343 185.823C44.8476 185.705 44.1987 186.17 44.0832 186.856C43.9677 187.541 44.4297 188.192 45.1164 188.308C47.816 188.764 50.5416 189.116 53.3005 189.365C53.435 189.414 53.5793 189.44 53.7285 189.44C53.7789 189.44 53.8293 189.438 53.8797 189.432C53.9032 189.429 53.9264 189.425 53.9494 189.421C57.0579 189.683 60.2093 189.814 63.4137 189.814C71.0188 189.814 78.9216 189.074 87.2421 187.597C88.3711 188.466 89.6997 188.925 91.1631 188.925C91.3206 188.925 91.4823 188.921 91.644 188.909C93.8706 188.762 95.8063 187.552 97.1033 185.623C97.2132 185.619 97.3245 185.6 97.4358 185.569C98.2191 185.325 99.1179 185.212 100.067 185.094C102.249 184.823 104.721 184.514 106.462 182.425C106.539 182.332 106.602 182.229 106.651 182.118C106.901 181.536 107.008 180.893 106.959 180.261C106.955 180.207 106.947 180.154 106.936 180.102C106.311 177.098 104.469 171.949 102.689 166.97L102.688 166.968C101.447 163.502 100.277 160.227 99.7437 158.278C99.7094 158.152 99.657 158.035 99.59 157.931C99.4163 142.44 98.993 127.629 95.4093 112.178C95.2518 111.5 94.5756 111.078 93.8973 111.235C93.219 111.393 92.7969 112.069 92.9544 112.747C96.7932 129.301 96.9486 145.23 97.1124 162.097C97.1167 162.48 97.1204 162.865 97.1241 163.25L97.1241 163.252C97.1256 163.41 97.1272 163.567 97.1287 163.725C97.1309 163.944 97.1331 164.164 97.1355 164.384L81.2364 164.124C78.8739 145.661 78.0591 126.881 78.813 108.286C78.8424 107.591 78.3006 107.003 77.6055 106.975C76.9083 106.95 76.3224 107.488 76.2951 108.183C75.5202 127.282 76.3896 146.577 78.8781 165.529C78.9426 166.016 79.28 166.409 79.7248 166.559C79.5472 167.849 79.501 169.156 79.5879 170.458C79.5879 170.694 79.6278 170.925 79.7097 171.145C79.8042 171.397 79.9449 171.624 80.1297 171.817C80.1472 171.836 80.1654 171.854 80.184 171.871C79.4229 172.447 78.7924 173.183 78.5148 174.069C78.2754 174.836 78.2019 176.029 79.2099 177.352C80.1423 178.579 81.4296 179.316 82.5657 179.965C82.7904 180.093 83.013 180.221 83.2356 180.354C83.5464 180.537 83.8861 181.775 84.0348 182.317L84.0378 182.328C84.1407 182.706 84.2394 183.063 84.3549 183.382C84.6214 184.114 84.9377 184.78 85.2989 185.376C74.5239 187.183 64.4753 187.712 54.8593 186.966C52.7981 168.561 53.9923 149.75 55.1481 131.548L57.4767 94.8544L58.1133 97.618C58.1952 97.9667 58.4283 98.2629 58.7433 98.4351ZM26.864 166.959C26.4443 167.134 25.3679 167.678 25.4058 168.637C27.9522 171.468 27.6719 175.268 27.4452 178.342L27.4449 178.345C27.4388 178.432 27.4324 178.518 27.426 178.604C27.4149 178.753 27.4039 178.901 27.3945 179.049C27.7242 179.658 28.1988 180.177 28.7763 180.564C29.1248 180.796 29.5029 180.975 29.8991 181.095C30.0419 178.629 30.3266 176.168 30.603 173.779L30.603 173.779L30.6117 173.704L31.305 167.724C29.8018 167.632 28.3138 167.376 26.864 166.959ZM31.5958 165.216L31.9075 162.528C31.2772 162.447 30.6742 162.365 30.0846 162.286L29.7887 162.246L29.7877 162.246L29.7865 162.246C29.4585 162.202 29.126 162.157 28.7869 162.113C28.4924 162.923 28.3563 163.818 28.266 164.724C29.3581 164.992 30.4731 165.157 31.5958 165.216ZM82.0764 169.786C82.0386 168.741 82.0985 167.694 82.2562 166.66L95.4427 166.877L95.5521 169.673C95.5542 169.7 95.5542 169.725 95.5542 169.748V169.748L82.0764 169.786ZM98.07 169.58L97.966 166.919L98.3892 166.926H98.4102C98.742 166.926 99.0633 166.793 99.2964 166.56C99.4708 166.387 99.5894 166.168 99.6402 165.932C99.8422 166.499 100.049 167.078 100.258 167.662L100.313 167.816L100.321 167.838L100.321 167.838L100.321 167.838L100.321 167.839C101.972 172.456 103.838 177.676 104.448 180.524C104.452 180.671 104.433 180.82 104.391 180.961C103.286 182.152 101.642 182.357 99.7521 182.593C99.3026 182.648 98.8461 182.705 98.3905 182.778C98.4553 182.544 98.5131 182.305 98.5635 182.061C99.1991 178.984 98.6698 175.935 98.158 172.987L98.1561 172.977C98.0994 172.653 98.0448 172.332 97.9902 172.011C97.9482 171.761 97.8356 171.54 97.6762 171.367C98.1052 170.713 98.0808 169.908 98.07 169.58ZM84.0789 172.295L95.4891 172.263C95.4911 172.318 95.4966 172.373 95.5059 172.429C95.5522 172.704 95.5999 172.98 95.6479 173.257L95.6491 173.264L95.6491 173.264L95.6739 173.407L95.6755 173.417L95.6755 173.417L95.6756 173.417C96.1475 176.134 96.6351 178.941 96.096 181.549C95.3925 184.941 93.2505 186.275 91.476 186.392C88.7754 186.567 87.402 184.384 86.7216 182.517C86.6418 182.294 86.5557 181.986 86.4675 181.66L86.4659 181.654C86.1281 180.422 85.7075 178.888 84.5229 178.186C84.3461 178.081 84.1669 177.978 83.9871 177.875L83.8152 177.776L83.8136 177.775C82.7978 177.194 81.8367 176.644 81.2133 175.825C80.7828 175.26 80.8815 174.943 80.9193 174.823C81.1167 174.191 82.1079 173.458 83.2755 173.08C83.6673 172.955 83.9537 172.656 84.0789 172.295ZM60.2533 95.6773L58.7979 89.355C62.4162 87.8301 65.2869 86.385 68.0631 84.984L68.166 84.9315C69.8754 84.0683 71.631 83.184 73.4517 82.7471C73.191 84.2116 72.7791 85.6637 72.3496 87.1774L72.3408 87.2084L72.324 87.2714C71.9712 88.5148 71.6038 89.8003 70.8247 90.7098C70.1569 91.4869 69.1383 92.0225 68.2374 92.4636C65.6859 93.7113 62.9538 94.7216 60.2533 95.6773ZM50.0598 87.5466C50.0199 88.7438 50.1963 89.9242 50.5827 91.0669C50.8914 91.9784 51.3219 92.827 51.8679 93.6042C52.9893 92.283 53.9385 90.8379 54.705 89.2857C53.655 88.7984 53.0544 88.0717 52.9137 87.1181L52.9124 87.1081C52.9086 87.0803 52.9051 87.0538 52.9032 87.0257C52.878 86.6686 52.9032 86.3157 52.9767 85.9691L50.0598 87.5466Z" fill="#2B2B2B"/>
</g>
<path d="M73.7647 60.9424C75.22 59.2284 74.7685 56.2605 72.8701 55.0612C72.1897 54.6285 71.3287 54.3597 70.957 53.6455C70.537 52.8579 70.9171 51.9148 71.1376 51.0536C71.1376 51.0263 71.1523 50.9969 71.1607 50.9696C71.7907 48.3735 68.8234 46.4474 66.6625 48.0185C63.964 49.9803 60.898 51.3792 57.6472 52.1332C55.9672 52.5197 53.9029 52.5953 52.8655 51.2216C52.2523 50.4067 52.1053 49.1758 50.5555 49.2914C50.104 49.3292 49.6693 49.4867 49.2955 49.745C46.5214 51.6165 43.3483 52.8075 40.0282 53.2254C39.1 53.341 38.1382 53.3935 37.2415 53.1267C34.6669 52.3601 33.4972 49.0813 34.2742 46.5104C35.0512 43.9395 37.2457 42.0386 39.5641 40.6775C41.0005 39.8374 42.6007 39.0644 43.4659 37.6382C43.9741 36.7981 44.1736 35.7983 44.6839 34.9602C45.1942 34.1221 45.9922 33.4899 46.8049 32.9186C51.1834 29.8877 56.4187 28.346 61.7401 28.5161C64.8901 28.6253 68.5924 29.8919 69.2728 32.9627L74.1028 34.998C77.8198 35.5693 81.5998 36.8212 84.2311 39.5097C86.8624 42.1982 88.0111 46.5902 86.1211 49.8438C85.8733 50.2638 85.5667 50.7091 85.5793 51.2048C85.5961 51.835 86.1232 52.3307 86.56 52.797C87.3244 53.6245 87.9061 54.6033 88.2652 55.6703C88.6243 56.7373 88.7545 57.8674 88.6474 58.989C88.5487 59.9636 88.2274 60.9718 87.4966 61.6166C86.7658 62.2614 85.5205 62.3938 84.8296 61.7006L74.3506 63.3074L73.7647 60.9424Z" fill="#2B2B2B"/>
<path d="M39.65 53.3346C38.2955 56.8192 37.4807 59.9657 37.2749 61.8707C36.7562 66.6681 37.7243 71.999 41.393 75.4163C43.3481 77.2353 45.7694 78.1301 48.3587 78.5859C51.0593 79.0627 53.9573 79.4974 56.5781 78.4262C56.4395 80.6128 56.4185 82.1734 56.5193 84.362L71.3243 82.7195C71.0849 79.844 71.6183 77.3781 72.8699 74.7778C73.1534 74.1897 73.7624 74.196 74.3651 74.0049C74.9006 73.8368 75.4256 73.6436 75.9443 73.4251C76.9964 72.9883 77.9897 72.4232 78.9053 71.7448C80.7155 70.3774 82.1267 68.4577 82.6559 66.2312C83.1368 64.2127 82.7987 61.8098 80.5559 60.6735C78.9746 59.8753 77.5571 60.1589 75.1484 62.2761L73.7834 60.9487C75.2387 59.2347 74.7872 56.2668 72.8888 55.0675C72.2084 54.6348 71.3474 54.366 70.9757 53.6518C70.5557 52.8642 70.9358 51.9211 71.1563 51.0599C71.1563 51.0326 71.171 51.0032 71.1794 50.9759C71.8094 48.3798 68.8421 46.4537 66.6812 48.0248C63.9827 49.9866 60.9167 51.3855 57.6659 52.1395C55.9859 52.526 53.9216 52.6016 52.8842 51.2279C52.271 50.413 52.124 49.1821 50.5742 49.2976C50.1227 49.3355 49.688 49.493 49.3142 49.7513C46.5338 51.6228 43.3523 52.8116 40.028 53.2254" fill="white"/>
<path d="M86.0412 63.4292C85.2537 63.4292 84.4893 63.1498 83.9307 62.5911C83.4393 62.0975 83.4414 61.2994 83.9328 60.8079C84.4263 60.3164 85.2243 60.3185 85.7157 60.81C85.8732 60.9675 86.3667 60.9276 86.6565 60.6714C87.045 60.329 87.3033 59.6863 87.3873 58.8608C87.4776 57.9156 87.3705 56.9767 87.0639 56.0714C86.7594 55.1662 86.2764 54.3533 85.6275 53.6518L85.5204 53.5383C85.0227 53.0132 84.3402 52.2949 84.3129 51.2384C84.2919 50.4297 84.672 49.7975 84.9492 49.3354L85.029 49.2031C86.7006 46.3234 85.4007 42.5111 83.3238 40.3918C81.2595 38.283 78.0906 36.8883 73.9053 36.2435C73.2165 36.1385 72.7461 35.4936 72.8511 34.8068C72.9561 34.12 73.6008 33.6474 74.2875 33.7524C79.0251 34.4812 82.6707 36.1217 85.1256 38.6275C86.6145 40.1482 87.6708 42.131 88.0992 44.2104C88.5633 46.4599 88.2462 48.6843 87.2046 50.478L87.1101 50.6356C87.0135 50.7952 86.8539 51.0598 86.835 51.1691C86.8791 51.3098 87.1731 51.6186 87.3495 51.8055L87.4734 51.9357C88.3701 52.9061 89.0337 54.0235 89.4537 55.267C89.8737 56.5104 90.0207 57.8022 89.8968 59.1086C89.7456 60.5957 89.2038 61.7867 88.326 62.5617C87.6687 63.1393 86.8434 63.4292 86.0412 63.4292Z" fill="#2B2B2B"/>
<path d="M73.7647 62.2027C73.477 62.2027 73.1872 62.104 72.9499 61.9024C72.4186 61.4508 72.3556 60.6568 72.805 60.1254C73.2565 59.594 73.4518 58.798 73.33 57.9956C73.2082 57.1953 72.7839 56.4959 72.198 56.1262C72.0531 56.0338 71.8831 55.9435 71.7025 55.8469C71.0746 55.5129 70.2913 55.0949 69.8398 54.2275C69.2518 53.1247 69.5772 51.9632 69.8166 51.1125C69.846 51.0075 69.8755 50.9025 69.9028 50.7996C69.9154 50.7324 69.9322 50.6715 69.949 50.621C70.1548 49.6633 69.4975 49.136 69.2875 48.9953C68.8276 48.6866 68.0926 48.5374 67.4059 49.0352C64.5541 51.1083 61.3684 52.5618 57.9349 53.3579C55.1313 54.0027 53.0313 53.5259 51.8637 51.9779C51.6558 51.7028 51.5025 51.4213 51.3681 51.1735C51.0111 50.5181 50.9985 50.5181 50.652 50.5454C50.4315 50.5643 50.2089 50.6441 50.0178 50.7765C47.0799 52.7572 43.6864 54.0321 40.1899 54.4711C39.2029 54.595 38.0394 54.6728 36.8865 54.3304C35.5236 53.925 34.3665 52.9462 33.6273 51.5767C32.7453 49.9384 32.5374 47.9073 33.0708 46.1409C33.831 43.6267 35.8009 41.4212 38.9299 39.5854C39.1231 39.472 39.3162 39.3628 39.5115 39.2515C40.6938 38.5773 41.8089 37.9408 42.3927 36.9788C42.588 36.6575 42.7392 36.2626 42.9009 35.8446C43.0962 35.3384 43.2978 34.8154 43.6128 34.2987C44.247 33.2548 45.1773 32.5196 46.0845 31.8811C50.6604 28.7137 56.2317 27.0733 61.7841 27.2497C65.2806 27.3715 69.6613 28.867 70.5076 32.6835C70.6588 33.364 70.2304 34.0361 69.55 34.1874C68.8717 34.3365 68.1976 33.9101 68.0464 33.2296C67.5466 30.9737 64.4995 29.8668 61.7002 29.7702C56.6874 29.6064 51.6516 31.0935 47.5251 33.95C46.8468 34.4268 46.158 34.9624 45.7632 35.6115C45.5658 35.9349 45.4125 36.3319 45.2508 36.752C45.0576 37.254 44.8582 37.7728 44.5474 38.2853C43.6255 39.806 42.1029 40.6756 40.7589 41.4401C40.572 41.5472 40.3872 41.6523 40.2024 41.7594C37.6404 43.2633 36.0529 44.9835 35.4817 46.8697C35.1436 47.9913 35.2821 49.3356 35.8449 50.3795C36.141 50.9277 36.6849 51.6397 37.6026 51.9128C38.3103 52.1228 39.1483 52.0598 39.8749 51.9695C42.9808 51.5788 45.9963 50.4467 48.594 48.695C49.1337 48.3211 49.7805 48.0879 50.4525 48.0312C52.4454 47.88 53.1846 49.239 53.5815 49.9678C53.6844 50.1569 53.781 50.3354 53.8755 50.4593C54.5979 51.4171 56.5593 51.0873 57.3678 50.9004C60.4695 50.1821 63.3486 48.8672 65.9253 46.9936C67.3554 45.9539 69.2266 45.9161 70.6924 46.897C72.133 47.8611 72.7986 49.575 72.3891 51.2596C72.3828 51.2848 72.3765 51.3079 72.3681 51.3331C72.3681 51.3352 72.3682 51.3373 72.3661 51.3373C72.364 51.3436 72.3618 51.352 72.3618 51.3583C72.3261 51.499 72.2863 51.6418 72.2464 51.7868C72.1162 52.2489 71.9565 52.8244 72.0741 53.0449C72.1707 53.2319 72.5382 53.4272 72.8931 53.6162C73.1073 53.7297 73.3279 53.8473 73.5526 53.9901C74.7622 54.7547 75.5916 56.0737 75.8268 57.607C76.062 59.1445 75.6631 60.6547 74.7328 61.7491C74.4766 62.0515 74.1217 62.2027 73.7647 62.2027ZM72.3976 51.0558C72.3976 51.0579 72.3976 51.0579 72.3976 51.0558C72.3976 51.0579 72.3976 51.0579 72.3976 51.0558ZM72.3976 51.0537V51.0558V51.0537Z" fill="#2B2B2B"/>
<path d="M45.8704 59.1278C46.6823 59.1278 47.3404 58.3285 47.3404 57.3425C47.3404 56.3565 46.6823 55.5571 45.8704 55.5571C45.0585 55.5571 44.4004 56.3565 44.4004 57.3425C44.4004 58.3285 45.0585 59.1278 45.8704 59.1278Z" fill="#2B2B2B"/>
<path d="M53.0103 59.6215C53.8221 59.6215 54.4803 58.8222 54.4803 57.8361C54.4803 56.8501 53.8221 56.0508 53.0103 56.0508C52.1984 56.0508 51.5403 56.8501 51.5403 57.8361C51.5403 58.8222 52.1984 59.6215 53.0103 59.6215Z" fill="#2B2B2B"/>
<path d="M71.3139 82.7134C70.6671 82.7134 70.1148 82.2177 70.0602 81.5582C69.7935 78.395 70.4088 76.9478 71.715 74.2256C72.1938 73.2321 73.0989 73.0137 73.6407 72.8835C73.7583 72.8541 73.8696 72.8288 73.9662 72.7973C74.466 72.6398 74.9595 72.4592 75.4362 72.2575C76.4001 71.8585 77.3052 71.3439 78.1368 70.7263C79.8126 69.4598 80.9802 67.7563 81.4128 65.9332C81.6354 65.0153 81.9378 62.7847 79.9701 61.7912C79.1112 61.3564 78.2691 61.1862 75.9612 63.2152C75.4383 63.6752 74.6424 63.6227 74.1825 63.0997C73.7226 62.5767 73.7751 61.7807 74.298 61.3207C77.6118 58.4074 79.527 58.7435 81.1041 59.5395C83.5485 60.7746 84.6048 63.4484 83.8614 66.5192C83.2944 68.9053 81.7971 71.117 79.6467 72.7406C78.6429 73.4863 77.5551 74.1038 76.4085 74.5785C75.8646 74.8074 75.2955 75.0175 74.7222 75.196C74.5479 75.2506 74.3799 75.2926 74.2329 75.3283C74.1405 75.3515 74.0208 75.3788 73.9431 75.404C72.7356 77.9245 72.3618 78.8717 72.5718 81.3418C72.6306 82.035 72.1161 82.6441 71.4231 82.7029C71.3853 82.7113 71.3496 82.7134 71.3139 82.7134Z" fill="#2B2B2B"/>
<path d="M56.5196 84.572C55.8497 84.572 55.2932 84.0448 55.2617 83.3684C55.1945 81.8897 55.1798 81.1462 55.2218 80.1317C52.6976 80.619 50.1272 80.1716 48.1448 79.825C44.9423 79.26 42.4538 78.1195 40.5365 76.3362C37.0127 73.0533 35.3684 67.7308 36.0236 61.7299C36.2693 59.5056 37.1849 56.1953 38.4764 52.8746C38.7284 52.2255 39.4592 51.9042 40.1081 52.1562C40.757 52.4083 41.0783 53.1392 40.8263 53.7882C39.3941 57.4724 38.7011 60.4487 38.5289 62.0051C37.9598 67.2036 39.3164 71.7552 42.2543 74.49C43.8251 75.9518 45.8348 76.8571 48.5795 77.3402C51.3851 77.8296 53.8904 78.1594 56.1038 77.2541C56.5049 77.0903 56.9627 77.1449 57.3155 77.3969C57.6683 77.6511 57.8657 78.067 57.8384 78.4996C57.704 80.6127 57.6809 81.079 57.7817 83.2466C57.8132 83.9418 57.2756 84.5321 56.5805 84.5636C56.5574 84.572 56.5385 84.572 56.5196 84.572Z" fill="#2B2B2B"/>
<defs>
<clipPath id="clip0_2696_3799">
<rect width="126" height="126.025" fill="white" transform="translate(0 79.6909)"/>
</clipPath>
</defs>
</svg>
