<svg width="127" height="294" viewBox="0 0 127 294" fill="none" xmlns="http://www.w3.org/2000/svg">
<path fill-rule="evenodd" clip-rule="evenodd" d="M43.0271 267.566C44.2472 266.689 46.0196 264.88 46.8176 262.851L59.1929 262.258C59.0501 263.791 58.8884 265.322 58.7078 266.849C58.4243 269.257 57.8846 271.652 56.8346 273.837C54.9509 277.763 49.7177 279.37 46.3871 279.974C43.2623 280.539 40.4525 280.998 37.5671 280.394C35.3831 279.936 34.52 277.921 34.436 276.188C34.2465 272.255 37.5402 270.55 40.4353 269.051C41.3887 268.558 42.2988 268.087 43.0271 267.566ZM73.9391 269.141C71.6186 269.793 69.0293 269.816 66.902 268.685L66.1061 268.182C66.1124 268.777 66.1166 269.372 66.1166 269.969C66.1166 270.183 66.1227 270.398 66.1289 270.616C66.1721 272.144 66.2202 273.844 64.2266 276.605C64.1066 276.77 63.9519 276.971 63.7741 277.202C62.8851 278.357 61.4172 280.263 60.7994 282.3C60.4571 283.439 60.5684 284.668 61.1102 285.725C61.6499 286.783 62.5802 287.591 63.7037 287.978C66.6311 289 69.9281 288.775 72.8282 287.622C73.6808 287.263 74.4914 286.811 75.2432 286.272C81.4823 282.02 81.6965 274.836 81.6566 271.982C81.6251 269.772 81.5873 267.566 81.5453 265.364L80.4491 266.054C78.368 267.267 76.2596 268.489 73.9391 269.141Z" fill="#07377E"/>
<path fill-rule="evenodd" clip-rule="evenodd" d="M46.9338 232.319C46.7517 227.38 46.5629 222.259 46.4628 217.936L61.6752 217.387C61.2783 222.895 60.7722 233.539 60.5412 239.061L60.1716 239.341C58.5546 240.603 56.4525 241.114 54.4029 241.147C52.0858 241.186 51.2327 240.999 49.6801 240.659C49.2824 240.572 48.8388 240.475 48.3129 240.369L47.2041 239.89C47.1254 237.515 47.0306 234.943 46.9338 232.319ZM64.8005 228.236C64.7008 225.971 64.6029 223.745 64.5123 221.644L80.97 221.049C80.9154 226.966 80.9553 233.454 81.0393 239.324L80.109 240.165C79.395 241.236 78.4689 242.144 77.3853 242.834C76.3038 243.526 75.0879 243.982 73.8195 244.176C72.5511 244.369 71.2554 244.296 70.0164 243.961C68.7774 243.627 67.6224 243.036 66.6228 242.228L65.3733 241.583C65.2042 237.411 64.9988 232.744 64.8005 228.236Z" fill="white"/>
<path fill-rule="evenodd" clip-rule="evenodd" d="M91.5603 174.536L84.3699 134.001L40.923 134.292C36.1308 160.815 33.4386 187.68 32.8737 214.628C32.859 215.255 32.8737 215.949 33.2937 216.409C33.6108 216.756 34.0959 216.889 34.5537 217C41.4669 218.672 48.6321 219.023 55.6755 218.031L56.3874 220.847C69.4599 223.276 82.9398 222.256 95.4999 217.888C95.4999 217.888 94.0803 188.735 91.5603 174.536ZM58.9704 262.356C54.2433 264.449 51.297 264.182 46.7904 262.878L46.8009 262.851C47.034 262.277 47.1726 261.667 47.2104 261.046C47.5443 254.089 47.4309 246.975 47.1957 239.89L48.3045 240.369L48.3159 240.371L48.316 240.371C50.324 240.775 52.3488 241.181 54.3945 241.147C56.4441 241.114 58.5462 240.603 60.1632 239.341L60.5328 239.061L60.4878 240.136C60.1783 247.539 59.8692 254.93 59.1762 262.258L58.9704 262.356ZM66.9021 268.685C69.0294 269.816 71.6187 269.793 73.9392 269.141C76.2597 268.489 78.3681 267.267 80.4492 266.054L81.5454 265.364C81.4853 262.175 81.4177 258.992 81.35 255.81L81.35 255.81C81.2332 250.312 81.1164 244.819 81.0393 239.313L80.109 240.155C79.3971 241.223 78.4689 242.132 77.3853 242.823C76.3017 243.513 75.0879 243.972 73.8195 244.165C72.5511 244.359 71.2554 244.287 70.0164 243.951C68.7774 243.616 67.6203 243.025 66.6228 242.218L65.3733 241.572C65.7324 250.445 66.0243 259.311 66.0999 268.18L66.9021 268.685Z" fill="#26BCD3"/>
<path fill-rule="evenodd" clip-rule="evenodd" d="M65.8454 223.263C67.3448 223.35 68.8458 223.393 70.3461 223.393C73.4724 223.393 76.5968 223.205 79.7003 222.83C79.6623 228.208 79.6986 233.596 79.7721 238.947C79.492 239.026 79.2374 239.201 79.0632 239.463C78.4437 240.392 77.652 241.168 76.7112 241.768C75.7704 242.367 74.733 242.758 73.6305 242.926C72.528 243.095 71.4234 243.032 70.3461 242.741C69.2688 242.449 68.2839 241.946 67.4145 241.244C67.1781 241.053 66.8938 240.962 66.6121 240.964C66.4492 236.966 66.2737 232.991 66.0999 229.055C66.0138 227.125 65.9295 225.193 65.8454 223.263ZM63.3146 223.075C63.0885 223.055 62.8623 223.033 62.6363 223.011C62.2447 228.549 62.008 234.192 61.7787 239.659L61.7787 239.659L61.7717 239.824L61.7716 239.827C61.3979 248.764 61.0114 258.004 59.9511 266.994C59.6109 269.89 58.9599 272.306 57.9624 274.382C55.7805 278.931 49.9088 280.613 46.6034 281.212C44.369 281.614 42.3762 281.934 40.4253 281.934C39.3816 281.934 38.3505 281.841 37.3004 281.622C35.4084 281.225 33.3315 279.604 33.1677 276.243C32.9388 271.5 36.9309 269.433 39.8478 267.923L39.8513 267.921L39.8515 267.921C40.7678 267.447 41.6316 266.999 42.2859 266.531C43.6488 265.553 45.8538 263.181 45.9588 260.977C46.4156 251.477 46.0255 241.576 45.6483 232.001L45.6459 231.94L45.6397 231.784C45.484 227.822 45.3232 223.731 45.2294 219.786C41.5444 219.622 37.8767 219.1 34.2534 218.222L34.2483 218.221C33.7605 218.101 32.9535 217.902 32.3634 217.259C31.5738 216.392 31.5969 215.225 31.6095 214.596C32.1744 187.663 34.8897 160.567 39.6777 134.06C39.8016 133.375 40.4568 132.918 41.1414 133.042C41.826 133.167 42.2817 133.823 42.1578 134.508C37.3929 160.885 34.6923 187.846 34.1274 214.647C34.1148 215.297 34.1694 215.499 34.2177 215.551C34.2946 215.63 34.6815 215.727 34.8298 215.764L34.8456 215.768C41.6142 217.406 48.5439 217.747 55.4426 216.782C56.4527 203.031 56.747 189.117 56.316 175.36C56.2614 173.543 56.169 172.056 55.5474 170.788C55.0224 169.715 53.8842 168.714 52.7271 168.872C52.0362 168.967 51.402 168.483 51.3075 167.793C51.213 167.103 51.696 166.466 52.3848 166.371C54.8313 166.037 56.9124 167.85 57.8091 169.675C58.7205 171.534 58.7835 173.612 58.8339 175.282C59.298 190.073 58.9284 205.046 57.7356 219.806C69.9114 221.877 82.4715 220.912 94.1916 217C93.9207 211.871 92.541 187.28 90.3192 174.756L83.1288 134.222C83.007 133.537 83.4648 132.881 84.1494 132.759C84.834 132.634 85.4892 133.095 85.611 133.781L92.8014 174.315C95.3067 188.43 96.7452 217.534 96.7578 217.827C96.7851 218.386 96.4407 218.897 95.9136 219.08C91.4523 220.632 86.8672 221.768 82.223 222.483C82.1374 233.568 82.3729 244.716 82.6009 255.509L82.6059 255.742C82.7193 261.053 82.8348 266.544 82.9146 271.972C82.9818 276.76 81.8289 283.309 75.9615 287.315C75.1383 287.902 74.2479 288.401 73.3155 288.794C73.3071 288.798 73.2987 288.8 73.2924 288.804C71.4423 289.532 69.5313 289.902 67.6665 289.902C66.1566 289.902 64.6761 289.66 63.2838 289.174C61.8516 288.68 60.6756 287.66 59.9826 286.306C59.2896 284.949 59.1489 283.399 59.5878 281.942C60.2745 279.681 61.8369 277.652 62.7714 276.438C62.9415 276.22 63.0885 276.028 63.2019 275.871C64.9596 273.454 64.9155 272.089 64.8672 270.642L64.863 270.502C64.8577 270.327 64.8525 270.155 64.8525 269.984C64.7833 256.415 64.1743 242.601 63.5852 229.238L63.5852 229.238L63.582 229.164C63.4915 227.136 63.4031 225.106 63.3146 223.075ZM55.2449 219.357C52.7616 219.681 50.2719 219.843 47.7858 219.843L47.752 219.843C47.8455 223.783 48.0077 227.878 48.1658 231.839C48.2611 234.245 48.357 236.67 48.4402 239.106C48.4802 239.11 48.5204 239.116 48.5606 239.124L48.5732 239.126L48.5915 239.13C50.5903 239.53 52.4787 239.909 54.3818 239.877C55.7732 239.854 57.7451 239.578 59.3088 238.405C59.5256 233.243 59.7595 227.942 60.1303 222.72C58.8018 222.544 57.4767 222.333 56.1564 222.087C55.5201 221.97 55.077 221.387 55.1316 220.741C55.1702 220.28 55.2079 219.819 55.2449 219.357ZM48.523 241.691C48.7157 248.181 48.7849 254.716 48.4788 261.099C48.4641 261.403 48.4263 261.703 48.3683 262C51.8291 262.894 54.3122 262.944 57.9976 261.403C58.5981 254.751 58.9055 248 59.1836 241.393C57.5024 242.165 55.749 242.379 54.4238 242.401C54.3377 242.403 54.2495 242.403 54.1634 242.403C52.2314 242.403 50.3495 242.054 48.523 241.691ZM57.7252 264.212C57.6388 265.042 57.5473 265.871 57.45 266.697C57.1413 269.309 56.568 271.465 55.6923 273.286C55.1064 274.508 53.0022 277.486 46.1562 278.727C42.8991 279.315 40.3937 279.692 37.8192 279.153C35.9586 278.762 35.7171 276.733 35.6877 276.121C35.547 273.214 37.7037 271.875 41.007 270.165L41.0653 270.135C42.0433 269.627 42.9672 269.147 43.7538 268.584C44.7801 267.848 46.4239 266.301 47.4788 264.376C49.3021 264.858 50.936 265.147 52.5863 265.147C54.2163 265.147 55.8636 264.866 57.7252 264.212ZM80.0874 255.766C79.9942 251.39 79.8999 246.954 79.8259 242.487C79.2942 243.016 78.7054 243.487 78.0636 243.896C76.8246 244.685 75.4617 245.198 74.0106 245.421C73.4793 245.498 72.948 245.541 72.4188 245.541C71.5011 245.541 70.5876 245.419 69.6888 245.177C68.6299 244.891 67.6379 244.449 66.7275 243.859C67.0334 251.716 67.278 259.642 67.3542 267.508C67.4016 267.526 67.4483 267.547 67.4942 267.572C69.1364 268.447 71.3057 268.573 73.5989 267.927C75.7913 267.311 77.8367 266.119 79.8149 264.964C79.9601 264.879 80.1153 264.827 80.2722 264.805C80.2205 262.107 80.1641 259.419 80.1085 256.772L80.1085 256.772L80.1085 256.772L80.1085 256.771L80.088 255.795L80.0874 255.767L80.0874 255.766ZM67.3869 270.553C67.3839 270.46 67.381 270.367 67.3785 270.275C68.432 270.661 69.5891 270.855 70.8038 270.855C71.9231 270.855 73.0949 270.689 74.2772 270.356C76.47 269.741 78.4982 268.64 80.3234 267.586C80.3495 269.061 80.3735 270.535 80.3946 272.005C80.4786 278.075 78.5067 282.527 74.5314 285.235C74.5261 285.239 74.5216 285.243 74.5169 285.246L74.5083 285.252C73.8384 285.734 73.1118 286.14 72.3495 286.462C69.6153 287.545 66.6144 287.667 64.1112 286.792C63.2901 286.51 62.6223 285.929 62.2275 285.158C61.8327 284.384 61.7508 283.503 62.0007 282.674C62.553 280.859 63.939 279.057 64.7685 277.98C64.9554 277.738 65.1171 277.528 65.241 277.355C67.5051 274.243 67.4398 272.204 67.3873 270.566L67.3872 270.563L67.3869 270.553Z" fill="#07377E"/>
<g clip-path="url(#clip0_1776_5147)">
<path d="M71.6754 80.3828C71.8644 82.5042 72.7317 87.2973 75.9594 86.579L76.3059 87.1041C76.1484 90.3954 74.481 92.7164 71.8686 95.1214C69.2142 97.5264 65.829 98.9714 62.2569 99.2256C59.1069 99.4566 55.7574 98.7026 53.4012 96.5896C51.045 94.4766 49.806 91.5486 51.3663 89.0386H51.5931C52.3029 89.0596 52.956 88.6878 53.5566 88.3097C54.321 87.8266 55.8981 85.8459 56.3706 85.2767C57.0006 84.4597 57.2568 81.3615 57.5802 80.3828H71.6754V80.3828Z" fill="white"/>
<path d="M76.3353 85.4238C80.0502 86.4194 82.9314 89.2822 85.2519 92.2144C87.7824 95.4155 89.7669 99.0114 91.1277 102.857C91.89 105.006 93.0954 107.424 93.5931 109.646L94.2567 111.679C97.8519 127.165 98.4945 143.139 98.7297 159.064L98.9397 159.304C100.233 164.038 105.063 176.011 106.113 181.052C106.147 181.482 106.075 181.915 105.903 182.312C103.803 184.832 100.233 184.202 97.4718 185.059L87.7131 187.002C73.746 189.508 59.7285 190.121 45.7362 187.76L43.0965 187.452L34.0665 185.723C33.2517 185.567 32.3571 185.36 31.8804 184.673C31.4856 184.11 31.4877 183.368 31.5171 182.681C31.6368 179.951 31.9518 177.241 32.2668 174.53L33.7074 162.108H33.5982C31.4646 161.847 29.751 161.589 27.6174 161.331C28.5015 151.574 29.6355 141.843 31.0194 132.135C32.2227 123.681 33.6234 115.224 36.1098 107.056C38.319 99.7969 41.8239 92.29 48.4788 88.65L57.7188 89.2801L76.3353 85.4238Z" fill="#4AB848"/>
<path fill-rule="evenodd" clip-rule="evenodd" d="M26.519 179.997C27.359 181.888 29.396 183.167 31.5107 183.249L33.239 166.097L26.939 166.426C25.469 166.975 24.209 168.235 24.629 169.915C27.079 172.366 26.8229 175.831 26.5928 178.945C26.5665 179.301 26.5406 179.652 26.519 179.997ZM80.615 176.949C78.914 174.706 81.5327 172.389 83.555 171.736H96.9908C97.0491 172.083 97.1115 172.441 97.1756 172.809C97.691 175.769 98.3126 179.337 97.7279 182.158C97.1231 185.084 95.1428 187.796 91.9592 188.006C88.8344 188.208 86.9234 186.004 85.9427 183.31C85.8434 183.038 85.7523 182.705 85.655 182.35C85.3697 181.308 85.0318 180.074 84.2816 179.627C84.0574 179.494 83.8297 179.364 83.6016 179.234C82.5034 178.607 81.3958 177.974 80.615 176.949Z" fill="white"/>
<path fill-rule="evenodd" clip-rule="evenodd" d="M59.7495 98.0263L57.7377 89.2927C61.7889 87.6324 64.8557 86.0872 67.9119 84.5473L68.0109 84.4975C70.3377 83.3234 72.7401 82.1282 75.3399 81.9287C75.1444 84.0855 74.5536 86.1661 73.963 88.246L73.9455 88.3076C73.5486 89.7002 73.1286 91.1264 72.1899 92.2207C71.3961 93.147 70.2957 93.7519 69.1995 94.2875C66.1606 95.7737 62.9607 96.898 59.7688 98.0195L59.7495 98.0263ZM54.7031 86.6294L55.5746 83.5166C55.8056 83.7098 56.1038 82.8907 55.7132 82.2501L49.2557 87.4591C49.1003 89.047 49.283 90.6496 49.7954 92.1619C50.3078 93.6742 51.1352 95.0584 52.223 96.2262C54.1886 94.1993 55.7573 91.8196 56.843 89.2129C55.877 89.0092 54.7115 88.6059 54.5687 87.6271C54.5456 87.289 54.5897 86.9487 54.7031 86.6294ZM81.5852 166.235C81.2534 167.842 81.1442 169.485 81.2576 171.121C81.2534 171.215 81.266 171.31 81.2996 171.398C81.3332 171.486 81.3836 171.568 81.4487 171.638C81.581 171.717 81.7364 171.753 81.8897 171.736L96.1697 171.696C96.386 171.713 96.6023 171.673 96.7997 171.583C97.2029 171.354 97.2344 170.795 97.2197 170.323L97.0685 166.452L81.5852 166.235ZM27.3275 166.353C27.4535 164.788 27.59 163.181 28.2641 161.763L33.5015 162.253L32.8379 167.193C30.971 167.18 29.1146 166.897 27.3275 166.353Z" fill="#26BCD3"/>
<path fill-rule="evenodd" clip-rule="evenodd" d="M59.151 99.1268C59.3358 99.2277 59.5479 99.2802 59.7579 99.2802C59.9028 99.2802 60.0477 99.2571 60.18 99.2109C63.3573 98.0955 66.6417 96.9403 69.7476 95.4217C70.9593 94.8315 72.2067 94.1342 73.1412 93.044C74.2815 91.7166 74.7645 90.0194 75.153 88.6542L75.1719 88.5912L75.1724 88.5894C75.3646 87.9124 75.559 87.2278 75.741 86.5348C75.8239 86.5789 75.9131 86.6145 76.0076 86.6399C79.6763 87.625 82.4756 90.7378 84.2627 92.9957C86.7113 96.0939 88.6202 99.5533 89.939 103.279C90.2141 104.052 90.5438 104.863 90.8651 105.647C91.4531 107.085 92.06 108.572 92.3624 109.921C92.4947 110.507 93.0134 110.906 93.5909 110.906C93.6833 110.906 93.7757 110.896 93.8681 110.875C94.5464 110.721 94.9727 110.047 94.8215 109.369C94.4729 107.814 93.8261 106.226 93.1982 104.691L93.1694 104.62C92.8566 103.854 92.5607 103.13 92.3141 102.435C90.905 98.4484 88.8596 94.7475 86.2388 91.4309C84.2312 88.8936 81.0518 85.3817 76.6607 84.2055C76.536 84.172 76.4107 84.1584 76.288 84.1629C76.421 83.4659 76.5267 82.7599 76.5915 82.0442C76.6251 81.6766 76.4949 81.3111 76.2345 81.0465C75.9741 80.7818 75.6108 80.6453 75.2412 80.6747C72.3532 80.8951 69.7463 82.2107 67.4457 83.3718L67.4418 83.3737L67.341 83.4241L67.2501 83.4699L67.25 83.4699C64.3214 84.9438 61.2881 86.4704 57.3848 88.0753C57.296 88.0329 57.2017 88.0007 57.1034 87.9799C56.1059 87.7699 55.8623 87.5137 55.8224 87.4569C55.8224 87.3351 55.8392 87.2154 55.8749 87.0999L57.1727 84.3378C57.4037 83.8463 57.2924 83.2603 56.8976 82.8864C56.5028 82.5126 55.9127 82.4348 55.4339 82.6932L48.6572 86.3479C48.2897 86.5475 48.0419 86.9171 48.002 87.3351C47.9966 87.3902 47.9916 87.4453 47.9869 87.5004C47.9516 87.5157 47.9167 87.5327 47.8823 87.5515C42.0422 90.7462 37.9199 96.8269 34.9064 106.69C32.3717 115.019 30.9416 123.756 29.774 131.959C28.3922 141.635 27.2456 151.48 26.3636 161.219C26.3276 161.607 26.4719 161.97 26.7282 162.226C26.3853 163.279 26.2407 164.363 26.1451 165.389C24.006 166.334 22.9129 168.235 23.4089 170.22C23.4656 170.442 23.579 170.644 23.7407 170.806C25.7819 172.849 25.5572 175.901 25.3388 178.852L25.3345 178.91L25.3345 178.91C25.3087 179.252 25.2831 179.589 25.2632 179.919C25.2506 180.125 25.2884 180.331 25.3745 180.52C25.8974 181.671 26.7311 182.65 27.7832 183.352C28.5741 183.88 29.4623 184.234 30.3917 184.394C30.4827 184.741 30.628 185.084 30.8556 185.408C31.6452 186.529 33.008 186.805 33.8354 186.971L40.965 188.336C41.0448 188.351 41.1245 188.359 41.2022 188.359C41.7944 188.359 42.3215 187.939 42.437 187.338C42.5693 186.656 42.12 185.994 41.4375 185.864L34.3184 184.5C33.8732 184.412 33.1257 184.261 32.9157 183.963C32.7372 183.711 32.7644 183.085 32.7791 182.751C32.8987 180.07 33.215 177.342 33.5212 174.701L33.5212 174.701L33.5226 174.689L36.0069 153.265L36.0677 152.74L36.0735 152.691C37.7937 137.961 39.5723 122.732 43.0166 108.108C43.1762 107.43 42.7562 106.751 42.0801 106.592C41.4018 106.43 40.7234 106.852 40.5638 107.529C37.0869 122.289 35.2999 137.587 33.5717 152.383L33.5646 152.444L32.6056 160.714C32.1234 160.652 31.6564 160.589 31.1981 160.528L30.8282 160.478C30.2297 160.396 29.6207 160.314 28.9823 160.232C29.8454 150.934 30.9479 141.547 32.2667 132.313C33.4196 124.212 34.8308 115.59 37.3151 107.426C39.9371 98.8422 43.374 93.3801 48.0722 90.3669C48.1812 91.1092 48.3581 91.8431 48.6026 92.5652C49.1759 94.2581 50.0831 95.7788 51.3011 97.0853C51.5363 97.3373 51.866 97.4822 52.2104 97.4864H52.223C52.5632 97.4864 52.8908 97.3478 53.1281 97.1042C53.9705 96.2353 54.7407 95.3108 55.4353 94.3353L53.04 132.08L53.0382 132.109C51.8874 150.244 50.6988 168.978 52.7054 187.428C50.4291 187.196 48.1759 186.892 45.9419 186.515C45.2552 186.397 44.6063 186.861 44.4908 187.548C44.3753 188.233 44.8373 188.884 45.524 189C48.2237 189.455 50.9493 189.808 53.7081 190.056C53.8426 190.105 53.9869 190.132 54.1362 190.132C54.1866 190.132 54.237 190.13 54.2874 190.123C54.3108 190.12 54.334 190.117 54.357 190.113C57.4656 190.375 60.6169 190.506 63.8213 190.506C71.4264 190.506 79.3292 189.766 87.6497 188.289C88.7787 189.158 90.1074 189.617 91.5708 189.617C91.7283 189.617 91.89 189.613 92.0517 189.6C94.2782 189.454 96.2139 188.244 97.511 186.314C97.6208 186.311 97.7321 186.292 97.8434 186.261C98.6267 186.017 99.5255 185.904 100.475 185.786C102.657 185.515 105.128 185.206 106.869 183.116C106.947 183.024 107.01 182.921 107.058 182.81C107.308 182.228 107.415 181.585 107.367 180.953C107.363 180.898 107.354 180.846 107.344 180.793C106.718 177.79 104.877 172.641 103.096 167.662L103.096 167.659C101.854 164.194 100.685 160.919 100.151 158.97C100.117 158.844 100.065 158.727 99.9977 158.622C99.8239 143.131 99.4006 128.32 95.817 112.87C95.6595 112.191 94.9833 111.769 94.305 111.927C93.6267 112.084 93.2046 112.761 93.3621 113.439C97.2009 129.992 97.3563 145.922 97.5201 162.788C97.5243 163.172 97.528 163.557 97.5317 163.941L97.5317 163.944C97.5333 164.101 97.5348 164.259 97.5363 164.417C97.5385 164.636 97.5407 164.856 97.5432 165.076L81.6441 164.815C79.2816 146.353 78.4668 127.573 79.2207 108.978C79.2501 108.283 78.7083 107.694 78.0132 107.667C77.316 107.642 76.7301 108.18 76.7028 108.875C75.9279 127.974 76.7973 147.268 79.2858 166.22C79.3502 166.708 79.6877 167.101 80.1324 167.251C79.9549 168.541 79.9086 169.848 79.9955 171.15C79.9955 171.385 80.0354 171.616 80.1173 171.837C80.2118 172.089 80.3525 172.316 80.5373 172.509C80.5549 172.528 80.573 172.546 80.5917 172.563C79.8305 173.138 79.2001 173.875 78.9225 174.761C78.6831 175.527 78.6096 176.721 79.6176 178.044C80.55 179.27 81.8373 180.008 82.9734 180.657C83.1981 180.785 83.4207 180.913 83.6433 181.045C83.954 181.229 84.2937 182.467 84.4424 183.008L84.4455 183.02C84.5484 183.398 84.6471 183.755 84.7626 184.074C85.029 184.806 85.3454 185.472 85.7065 186.068C74.9315 187.875 64.883 188.403 55.267 187.658C53.2057 169.252 54.3999 150.442 55.5558 132.24L57.8844 95.5461L58.521 98.3098C58.6029 98.6585 58.836 98.9546 59.151 99.1268ZM27.2716 167.651C26.8519 167.826 25.7755 168.37 25.8134 169.329C28.3598 172.159 28.0795 175.959 27.8528 179.034L27.8525 179.037C27.8464 179.124 27.84 179.21 27.8336 179.296C27.8225 179.445 27.8115 179.593 27.8021 179.741C28.1318 180.35 28.6064 180.869 29.1839 181.255C29.5324 181.488 29.9105 181.666 30.3067 181.787C30.4495 179.32 30.7342 176.86 31.0106 174.471L31.0106 174.471L31.0194 174.395L31.7127 168.416C30.2094 168.324 28.7214 168.067 27.2716 167.651ZM32.0034 165.908L32.3151 163.22C31.6848 163.139 31.0818 163.057 30.4922 162.977L30.1963 162.938L30.1954 162.938L30.1941 162.938C29.8661 162.894 29.5336 162.849 29.1945 162.804C28.9 163.614 28.7639 164.51 28.6737 165.416C29.7658 165.683 30.8807 165.848 32.0034 165.908ZM82.484 170.478C82.4462 169.433 82.5062 168.386 82.6638 167.352L95.8503 167.569L95.9597 170.365C95.9618 170.392 95.9618 170.417 95.9618 170.44V170.44L82.484 170.478ZM98.4776 170.272L98.3737 167.61L98.7969 167.617H98.8179C99.1497 167.617 99.471 167.485 99.7041 167.252C99.8784 167.079 99.997 166.86 100.048 166.624C100.25 167.191 100.457 167.77 100.665 168.354L100.72 168.508L100.728 168.53L100.728 168.53L100.728 168.53L100.728 168.53C102.379 173.148 104.245 178.368 104.855 181.215C104.86 181.362 104.841 181.512 104.799 181.652C103.694 182.843 102.05 183.049 100.16 183.284C99.7102 183.34 99.2538 183.397 98.7981 183.47C98.8629 183.236 98.9207 182.997 98.9712 182.753C99.6067 179.675 99.0774 176.627 98.5656 173.679L98.5638 173.669C98.5071 173.345 98.4525 173.024 98.3979 172.702C98.3558 172.453 98.2432 172.232 98.0838 172.058C98.5128 171.405 98.4884 170.599 98.4776 170.272ZM84.4866 172.987L95.8967 172.955C95.8987 173.01 95.9042 173.065 95.9136 173.12C95.9598 173.396 96.0076 173.672 96.0555 173.949L96.0567 173.955L96.0568 173.956L96.0816 174.099L96.0832 174.108L96.0832 174.108L96.0832 174.108C96.5552 176.826 97.0428 179.633 96.5037 182.24C95.8002 185.633 93.6582 186.966 91.8837 187.084C89.1831 187.258 87.8097 185.076 87.1293 183.209C87.0495 182.986 86.9634 182.677 86.8752 182.352L86.8735 182.346C86.5357 181.114 86.1151 179.58 84.9306 178.878C84.7537 178.773 84.5745 178.67 84.3947 178.567L84.2229 178.468L84.2212 178.467C83.2054 177.886 82.2443 177.336 81.621 176.517C81.1905 175.952 81.2892 175.635 81.327 175.515C81.5244 174.883 82.5156 174.15 83.6832 173.772C84.075 173.646 84.3614 173.348 84.4866 172.987ZM60.6609 96.369L59.2056 90.0467C62.8239 88.5218 65.6946 87.0768 68.4708 85.6758L68.5737 85.6233C70.2831 84.76 72.0387 83.8757 73.8594 83.4388C73.5986 84.9033 73.1867 86.3554 72.7572 87.8692L72.7485 87.9001L72.7317 87.9631C72.3789 89.2066 72.0114 90.492 71.2323 91.4015C70.5645 92.1787 69.546 92.7143 68.6451 93.1554C66.0936 94.403 63.3615 95.4133 60.6609 96.369ZM50.4674 88.2383C50.4275 89.4355 50.6039 90.616 50.9903 91.7586C51.299 92.6702 51.7295 93.5187 52.2755 94.2959C53.3969 92.9747 54.3461 91.5297 55.1126 89.9774C54.0626 89.4901 53.462 88.7634 53.3213 87.8098L53.32 87.7998C53.3162 87.772 53.3127 87.7455 53.3108 87.7174C53.2856 87.3603 53.3108 87.0075 53.3843 86.6609L50.4674 88.2383Z" fill="#07377E"/>
</g>
<path d="M74.1723 61.6344C75.6276 59.9205 75.1761 56.9526 73.2777 55.7532C72.5973 55.3206 71.7363 55.0517 71.3646 54.3376C70.9446 53.5499 71.3247 52.6068 71.5452 51.7457C71.5452 51.7183 71.5599 51.6889 71.5683 51.6616C72.1983 49.0655 69.231 47.1394 67.0701 48.7106C64.3716 50.6723 61.3056 52.0712 58.0548 52.8253C56.3748 53.2117 54.3105 53.2874 53.2731 51.9137C52.6599 51.0987 52.5129 49.8679 50.9631 49.9834C50.5116 50.0212 50.0769 50.1787 49.7031 50.4371C46.929 52.3086 43.7559 53.4995 40.4358 53.9175C39.5076 54.033 38.5458 54.0855 37.6491 53.8188C35.0745 53.0521 33.9048 49.7734 34.6818 47.2025C35.4588 44.6315 37.6533 42.7307 39.9717 41.3696C41.4081 40.5294 43.0083 39.7565 43.8735 38.3303C44.3817 37.4901 44.5812 36.4903 45.0915 35.6523C45.6018 34.8142 46.3998 34.182 47.2125 33.6107C51.591 30.5797 56.8263 29.038 62.1477 29.2082C65.2977 29.3174 69 30.5839 69.6804 33.6548L74.5104 35.6901C78.2274 36.2614 82.0074 37.5132 84.6387 40.2018C87.27 42.8903 88.4187 47.2823 86.5287 50.5358C86.2809 50.9559 85.9743 51.4012 85.9869 51.8969C86.0037 52.527 86.5308 53.0227 86.9676 53.489C87.732 54.3166 88.3137 55.2954 88.6728 56.3624C89.0319 57.4294 89.1621 58.5594 89.055 59.681C88.9563 60.6556 88.635 61.6638 87.9042 62.3087C87.1734 62.9535 85.9281 63.0858 85.2372 62.3927L74.7582 63.9995L74.1723 61.6344Z" fill="#07377E"/>
<path d="M40.0577 54.0267C38.7032 57.5113 37.8884 60.6577 37.6826 62.5628C37.1639 67.3602 38.132 72.691 41.8007 76.1084C43.7558 77.9274 46.1771 78.8221 48.7664 79.2779C51.467 79.7547 54.365 80.1895 56.9858 79.1183C56.8472 81.3048 56.8262 82.8654 56.927 85.0541L71.732 83.4116C71.4926 80.5361 72.026 78.0702 73.2776 75.4699C73.5611 74.8818 74.1701 74.8881 74.7728 74.6969C75.3083 74.5289 75.8333 74.3357 76.352 74.1172C77.4041 73.6803 78.3974 73.1153 79.313 72.4369C81.1232 71.0695 82.5344 69.1497 83.0636 66.9233C83.5445 64.9048 83.2064 62.5019 80.9636 61.3656C79.3823 60.5674 77.9648 60.851 75.5561 62.9682L74.1911 61.6407C75.6464 59.9268 75.1949 56.9589 73.2965 55.7596C72.6161 55.3269 71.7551 55.058 71.3834 54.3439C70.9634 53.5562 71.3435 52.6131 71.564 51.752C71.564 51.7247 71.5787 51.6953 71.5871 51.668C72.2171 49.0718 69.2498 47.1458 67.0889 48.7169C64.3904 50.6787 61.3244 52.0775 58.0736 52.8316C56.3936 53.2181 54.3293 53.2937 53.2919 51.92C52.6787 51.105 52.5317 49.8742 50.9819 49.9897C50.5304 50.0275 50.0957 50.1851 49.7219 50.4434C46.9415 52.3149 43.76 53.5037 40.4357 53.9175" fill="white"/>
<path d="M86.4488 64.1213C85.6613 64.1213 84.8969 63.8419 84.3383 63.2832C83.8469 62.7896 83.849 61.9915 84.3404 61.5C84.8339 61.0085 85.6319 61.0106 86.1233 61.5021C86.2808 61.6596 86.7743 61.6197 87.0641 61.3635C87.4526 61.0211 87.7109 60.3784 87.7949 59.5529C87.8852 58.6077 87.7781 57.6688 87.4715 56.7635C87.167 55.8583 86.684 55.0454 86.0351 54.3439L85.928 54.2304C85.4303 53.7053 84.7478 52.987 84.7205 51.9305C84.6995 51.1218 85.0796 50.4896 85.3568 50.0275L85.4366 49.8952C87.1082 47.0155 85.8083 43.2032 83.7314 41.0839C81.6671 38.9751 78.4982 37.5804 74.3129 36.9356C73.6241 36.8306 73.1537 36.1858 73.2587 35.4989C73.3637 34.8121 74.0084 34.3395 74.6951 34.4445C79.4327 35.1734 83.0783 36.8138 85.5332 39.3196C87.0221 40.8403 88.0784 42.8231 88.5068 44.9025C88.9709 47.152 88.6538 49.3764 87.6122 51.1701L87.5177 51.3277C87.4211 51.4873 87.2615 51.752 87.2426 51.8612C87.2867 52.0019 87.5807 52.3107 87.7571 52.4976L87.881 52.6278C88.7777 53.5982 89.4413 54.7156 89.8613 55.9591C90.2813 57.2025 90.4283 58.4943 90.3044 59.8008C90.1532 61.2878 89.6114 62.4788 88.7336 63.2538C88.0763 63.8315 87.251 64.1213 86.4488 64.1213Z" fill="#07377E"/>
<path d="M74.1722 62.8947C73.8845 62.8947 73.5947 62.7959 73.3574 62.5943C72.8261 62.1427 72.7631 61.3488 73.2125 60.8174C73.664 60.286 73.8593 59.4899 73.7375 58.6875C73.6157 57.8873 73.1915 57.1878 72.6056 56.8182C72.4607 56.7257 72.2906 56.6354 72.11 56.5388C71.4821 56.2048 70.6988 55.7869 70.2473 54.9194C69.6593 53.8167 69.9848 52.6551 70.2242 51.8045C70.2536 51.6994 70.283 51.5944 70.3103 51.4915C70.3229 51.4243 70.3397 51.3634 70.3565 51.313C70.5623 50.3552 69.905 49.828 69.695 49.6872C69.2351 49.3785 68.5001 49.2294 67.8134 49.7272C64.9616 51.8003 61.7759 53.2538 58.3424 54.0498C55.5389 54.6946 53.4389 54.2178 52.2713 52.6698C52.0634 52.3947 51.9101 52.1132 51.7757 51.8654C51.4187 51.21 51.4061 51.21 51.0596 51.2374C50.8391 51.2563 50.6165 51.3361 50.4254 51.4684C47.4875 53.4491 44.0939 54.724 40.5974 55.163C39.6104 55.287 38.447 55.3647 37.2941 55.0223C35.9312 54.6169 34.7741 53.6381 34.0349 52.2687C33.1529 50.6303 32.945 48.5992 33.4784 46.8328C34.2386 44.3186 36.2084 42.1131 39.3374 40.2774C39.5306 40.164 39.7238 40.0547 39.9191 39.9434C41.1014 39.2692 42.2165 38.6327 42.8003 37.6708C42.9956 37.3494 43.1468 36.9545 43.3085 36.5365C43.5038 36.0303 43.7054 35.5073 44.0204 34.9906C44.6546 33.9467 45.5849 33.2116 46.4921 32.573C51.068 29.4056 56.6393 27.7652 62.1917 27.9416C65.6882 28.0634 70.0688 29.5589 70.9151 33.3754C71.0663 34.0559 70.6379 34.7281 69.9575 34.8793C69.2792 35.0284 68.6051 34.602 68.4539 33.9215C67.9541 31.6657 64.907 30.5587 62.1077 30.4621C57.095 30.2983 52.0592 31.7854 47.9327 34.642C47.2544 35.1187 46.5656 35.6544 46.1708 36.3034C45.9734 36.6268 45.8201 37.0238 45.6584 37.4439C45.4652 37.9459 45.2657 38.4647 44.9549 38.9772C44.033 40.4979 42.5105 41.3675 41.1665 42.132C40.9796 42.2392 40.7948 42.3442 40.61 42.4513C38.048 43.9552 36.4604 45.6754 35.8892 47.5616C35.5511 48.6832 35.6897 50.0275 36.2525 51.0714C36.5486 51.6196 37.0925 52.3317 38.0102 52.6047C38.7179 52.8148 39.5558 52.7518 40.2824 52.6614C43.3883 52.2708 46.4039 51.1386 49.0016 49.3869C49.5413 49.013 50.1881 48.7799 50.8601 48.7232C52.853 48.5719 53.5922 49.9309 53.9891 50.6597C54.092 50.8488 54.1886 51.0273 54.2831 51.1512C55.0055 52.109 56.9669 51.7793 57.7754 51.5923C60.8771 50.874 63.7562 49.5591 66.3329 47.6855C67.763 46.6458 69.6341 46.608 71.0999 47.5889C72.5405 48.553 73.2062 50.267 72.7967 51.9515C72.7904 51.9767 72.7841 51.9998 72.7757 52.025C72.7757 52.0271 72.7757 52.0292 72.7736 52.0292C72.7715 52.0355 72.7694 52.0439 72.7694 52.0502C72.7337 52.1909 72.6938 52.3338 72.6539 52.4787C72.5237 52.9408 72.3641 53.5163 72.4817 53.7369C72.5783 53.9238 72.9458 54.1191 73.3007 54.3082C73.5149 54.4216 73.7354 54.5392 73.9601 54.682C75.1697 55.4466 75.9992 56.7656 76.2344 58.299C76.4696 59.8365 76.0706 61.3467 75.1403 62.441C74.8841 62.7434 74.5292 62.8947 74.1722 62.8947ZM72.8051 51.7478C72.8051 51.7499 72.8051 51.7499 72.8051 51.7478C72.8051 51.7499 72.8051 51.7499 72.8051 51.7478ZM72.8051 51.7457V51.7478V51.7457Z" fill="#07377E"/>
<path d="M46.278 59.8197C47.0898 59.8197 47.748 59.0203 47.748 58.0343C47.748 57.0483 47.0898 56.249 46.278 56.249C45.4661 56.249 44.808 57.0483 44.808 58.0343C44.808 59.0203 45.4661 59.8197 46.278 59.8197Z" fill="#07377E"/>
<path d="M53.4179 60.3133C54.2298 60.3133 54.8879 59.5139 54.8879 58.5279C54.8879 57.5419 54.2298 56.7426 53.4179 56.7426C52.6061 56.7426 51.9479 57.5419 51.9479 58.5279C51.9479 59.5139 52.6061 60.3133 53.4179 60.3133Z" fill="#07377E"/>
<path d="M71.7216 83.4053C71.0748 83.4053 70.5225 82.9096 70.4679 82.25C70.2012 79.0868 70.8165 77.6396 72.1227 74.9175C72.6015 73.924 73.5066 73.7055 74.0484 73.5753C74.166 73.5459 74.2773 73.5207 74.3739 73.4892C74.8737 73.3316 75.3672 73.151 75.8439 72.9494C76.8078 72.5503 77.7129 72.0357 78.5445 71.4182C80.2203 70.1516 81.3879 68.4482 81.8205 66.625C82.0431 65.7071 82.3455 63.4765 80.3778 62.483C79.5189 62.0482 78.6768 61.8781 76.3689 63.9071C75.846 64.3671 75.0501 64.3146 74.5902 63.7916C74.1303 63.2686 74.1828 62.4725 74.7057 62.0125C78.0195 59.0992 79.9347 59.4353 81.5118 60.2313C83.9562 61.4664 85.0125 64.1402 84.2691 67.211C83.7021 69.5971 82.2048 71.8088 80.0544 73.4325C79.0506 74.1781 77.9628 74.7956 76.8162 75.2703C76.2723 75.4993 75.7032 75.7093 75.1299 75.8879C74.9556 75.9425 74.7876 75.9845 74.6406 76.0202C74.5482 76.0433 74.4285 76.0706 74.3508 76.0958C73.1433 78.6163 72.7695 79.5636 72.9795 82.0337C73.0383 82.7268 72.5238 83.3359 71.8308 83.3947C71.793 83.4031 71.7573 83.4053 71.7216 83.4053Z" fill="#07377E"/>
<path d="M56.9271 85.2641C56.2572 85.2641 55.7007 84.7369 55.6692 84.0606C55.602 82.5819 55.5873 81.8383 55.6293 80.8238C53.1051 81.3111 50.5347 80.8637 48.5523 80.5172C45.3498 79.9521 42.8613 78.8116 40.944 77.0284C37.4202 73.7454 35.7759 68.4229 36.4311 62.4221C36.6768 60.1977 37.5924 56.8875 38.8839 53.5667C39.1359 52.9177 39.8667 52.5963 40.5156 52.8484C41.1645 53.1004 41.4858 53.8314 41.2338 54.4804C39.8016 58.1645 39.1086 61.1408 38.9364 62.6972C38.3673 67.8957 39.7239 72.4473 42.6618 75.1821C44.2326 76.644 46.2423 77.5493 48.987 78.0324C51.7926 78.5218 54.2979 78.8515 56.5113 77.9462C56.9124 77.7824 57.3702 77.837 57.723 78.0891C58.0758 78.3432 58.2732 78.7591 58.2459 79.1918C58.1115 81.3048 58.0884 81.7711 58.1892 83.9387C58.2207 84.634 57.6831 85.2242 56.988 85.2557C56.9649 85.2641 56.946 85.2641 56.9271 85.2641Z" fill="#07377E"/>
<defs>
<clipPath id="clip0_1776_5147">
<rect width="126" height="126.025" fill="white" transform="translate(0.407654 80.3828)"/>
</clipPath>
</defs>
</svg>
