<svg width="127" height="294" viewBox="0 0 127 294" fill="none" xmlns="http://www.w3.org/2000/svg">
<path fill-rule="evenodd" clip-rule="evenodd" d="M47.1277 257.669C47.1288 257.63 47.1299 257.592 47.131 257.555L59.5483 257.275C59.4891 258.048 59.4443 258.841 59.399 259.645C59.0905 265.117 58.7526 271.108 53.6263 274.638C52.7384 275.208 51.7462 275.578 50.7231 275.959C50.2945 276.118 49.8604 276.28 49.4263 276.459C47.8303 277.117 40.0498 278.405 35.1463 276.257C32.6263 274.03 34.5163 270.589 36.6163 268.767C37.6943 267.858 38.7939 267.032 39.8805 266.216C42.1806 264.488 44.4222 262.805 46.2763 260.468C46.3813 260.265 46.4863 260.012 46.5913 259.759C46.6963 259.506 46.8013 259.253 46.9063 259.051C47.1 258.677 47.115 258.131 47.1277 257.669ZM66.2221 269.765C67.3015 266.447 67.6921 264.502 67.4086 261.466L82.6861 261.383C82.9549 264.123 82.579 267.978 82.1296 271.178C81.5353 275.573 79.261 279.595 75.7519 282.459C75.1597 282.969 74.4961 283.399 73.7821 283.733C73.276 283.899 72.7846 284.101 72.3121 284.34C65.7916 286.212 62.0221 283.328 61.8121 283.125C58.4759 279.837 60.8952 276.992 63.3051 274.157C64.5359 272.709 65.7642 271.265 66.2221 269.765Z" fill="#2B2B2B"/>
<path d="M64.0108 256.251C64.1221 257.83 64.3321 259.247 64.3321 260.866C71.2621 261.271 78.4021 261.474 85.3321 261.069C88.3162 260.83 91.2331 260.077 93.9421 258.842C97.0921 238.802 97.3021 218.357 95.4121 197.911C95.4121 197.304 95.6221 196.494 95.4121 195.887C95.2021 194.875 95.2021 194.065 94.9921 193.053V191.029C92.8921 172.203 89.9521 153.985 86.1721 135.766C71.4721 136.171 56.9821 136.981 42.2821 137.386C35.7847 165.879 33.4516 195.11 35.3521 224.227C35.3164 225.176 35.3878 226.126 35.5621 227.061C35.9569 232.727 36.8725 238.35 38.2921 243.863C38.7121 245.28 39.1321 246.899 39.7621 248.316C40.8121 250.947 42.2821 253.579 43.3321 256.211C47.3221 257.223 51.5221 257.425 55.7221 257.223C58.0321 257.02 60.5521 257.02 62.9629 256.451L64.0108 256.251Z" fill="#FEC426"/>
<path fill-rule="evenodd" clip-rule="evenodd" d="M85.0129 135.981C92.7025 175.15 98.9651 217.031 92.8615 258.012C88.6651 259.815 83.7464 260.024 79.4458 260.073C74.8426 260.121 70.1869 260.008 65.59 259.737C65.1742 255.095 64.7332 250.415 64.3048 245.879C62.4001 225.697 60.4324 204.828 60.5248 184.369C60.5605 177.173 59.794 170.065 54.0085 166.806C53.4079 166.468 52.6351 166.663 52.2844 167.242C51.9316 167.82 52.1353 168.565 52.7359 168.903C57.4189 171.541 58.0363 177.889 58.0048 184.357C57.9124 204.93 59.886 225.855 61.7948 246.092L61.7953 246.097L61.9407 247.645C62.177 250.159 62.4168 252.711 62.6527 255.268C56.5826 256.215 50.4345 256.234 44.3632 255.324C37.7608 242.747 36.715 230.207 36.2572 219.415C35.1001 192.007 37.5067 164.501 43.4098 137.665C43.5547 137.009 43.12 136.365 42.4396 136.226C41.7592 136.086 41.0914 136.505 40.9465 137.161C34.9993 164.195 32.5759 191.903 33.7393 219.514C34.2139 230.723 35.3164 243.784 42.4144 256.986C42.5971 257.326 42.9352 257.563 43.3258 257.626C44.1668 257.76 45.0092 257.877 45.8526 257.978C45.8414 258.193 45.8202 258.415 45.7765 258.506C45.658 258.736 45.5503 258.994 45.4451 259.246L45.4195 259.308C45.3439 259.492 45.2641 259.68 45.1948 259.828C43.454 261.99 41.3415 263.577 39.1052 265.257L39.1048 265.257L39.0549 265.295C37.9825 266.101 36.8722 266.935 35.7721 267.864C34.2832 269.156 32.6893 271.352 32.6788 273.644C32.6725 275 33.2311 276.212 34.2937 277.152C34.3903 277.239 34.5016 277.31 34.6234 277.362C36.8557 278.34 39.5605 278.672 42.091 278.672C45.6421 278.672 48.8488 278.018 49.9219 277.579C50.3335 277.409 50.7619 277.249 51.1756 277.095L51.1887 277.09C52.2388 276.699 53.3238 276.295 54.3235 275.652C54.3287 275.648 54.3345 275.644 54.3403 275.641C54.3461 275.637 54.3518 275.633 54.3571 275.629C59.9738 271.763 60.3354 265.367 60.6545 259.723L60.655 259.715L60.6664 259.512C60.6961 258.987 60.7247 258.481 60.758 257.982C61.4645 257.898 62.1703 257.802 62.875 257.693C62.975 258.792 63.0737 259.889 63.1708 260.984C63.2254 261.583 63.721 262.053 64.3426 262.093C64.9622 262.133 65.5829 262.171 66.2046 262.205C66.3652 264.751 65.9673 266.493 65.0209 269.401L65.0177 269.411L65.0146 269.421C64.6282 270.684 63.4606 272.059 62.3308 273.387L62.3186 273.401C61.0624 274.88 59.7649 276.408 59.2039 278.101C58.5109 280.196 59.0842 282.174 60.9217 283.984C60.9511 284.014 63.4648 286.186 68.0596 286.186C69.4183 286.186 70.9597 285.996 72.6733 285.502C72.751 285.48 72.8266 285.449 72.898 285.413C73.3117 285.204 73.7443 285.024 74.1874 284.88C74.2357 284.864 74.2861 284.846 74.3323 284.824C75.1471 284.443 75.9031 283.955 76.5793 283.374C80.3299 280.31 82.7449 276.034 83.3791 271.34C83.8993 267.643 84.1124 264.625 84.0159 262.345C87.4747 262.112 91.0667 261.532 94.3369 260.032C94.4641 259.974 94.5765 259.897 94.6724 259.807C94.9837 259.626 95.2112 259.317 95.2672 258.943C101.571 217.421 95.2546 175.09 87.4888 135.529C87.3607 134.869 86.7013 134.438 86.0167 134.562C85.3321 134.687 84.8827 135.321 85.0129 135.981ZM58.2156 258.233C56.5869 258.36 54.9554 258.423 53.3239 258.423C51.6683 258.423 50.0132 258.357 48.3609 258.227C48.3304 258.674 48.254 259.157 48.0277 259.593C47.9517 259.74 47.863 259.951 47.7751 260.16L47.7547 260.208L47.729 260.27C47.6238 260.522 47.5161 260.78 47.3977 261.01C47.362 261.079 47.32 261.144 47.2717 261.204C45.3187 263.666 42.9457 265.449 40.6504 267.174L40.5837 267.224C39.5439 268.006 38.4696 268.814 37.4416 269.682C36.3349 270.642 35.203 272.251 35.1967 273.656C35.1946 274.269 35.4109 274.787 35.8582 275.235C40.39 277.095 47.6392 275.874 48.9286 275.344C49.3529 275.168 49.7735 275.011 50.1819 274.859L50.2663 274.828C51.2281 274.47 52.1395 274.129 52.9081 273.64C57.526 270.447 57.8368 264.923 58.1371 259.581C58.1618 259.136 58.1873 258.683 58.2156 258.233ZM68.7345 262.329C68.87 265.086 68.3983 267.134 67.4275 270.119C66.897 271.847 65.569 273.41 64.2856 274.92L64.2796 274.927C61.432 278.277 60.4156 279.988 62.6836 282.247C62.9125 282.421 66.1822 284.789 71.8417 283.208C72.3121 282.978 72.8014 282.777 73.2991 282.609C73.8829 282.33 74.4268 281.974 74.9119 281.555C74.916 281.551 74.9202 281.547 74.9244 281.543C74.9286 281.54 74.9328 281.536 74.9371 281.532C78.2131 278.858 80.3236 275.125 80.8801 271.02C81.3734 267.512 81.5822 264.585 81.497 262.463C80.8116 262.483 80.1364 262.494 79.4752 262.502C78.7633 262.508 78.0493 262.512 77.3353 262.512C74.4729 262.512 71.5977 262.451 68.7345 262.329Z" fill="#2B2B2B"/>
<g clip-path="url(#clip0_2677_602)">
<path d="M71.7787 79.6909C71.9677 81.8123 72.835 86.6055 76.0627 85.8871L76.4092 86.4123C76.2517 89.7036 74.5843 92.0246 71.9719 94.4295C69.3175 96.8345 65.9323 98.2796 62.3602 98.5338C59.2102 98.7648 55.8607 98.0108 53.5045 95.8977C51.1483 93.7847 49.9093 90.8567 51.4696 88.3467H51.6964C52.4062 88.3677 53.0593 87.996 53.6599 87.6179C54.4243 87.1348 55.0753 84.9651 55.5478 84.3959C56.1778 83.5788 57.358 80.6697 57.6814 79.6909H71.7787V79.6909Z" fill="white"/>
<path d="M93.4003 138.263C98.0518 152.668 101.288 163.716 105.538 177.619C105.748 178.329 106.588 180.839 106.2 181.467C105.939 181.887 105.503 182.156 105.076 182.397C102.745 183.723 100.2 183.834 97.5709 184.363L87.8122 186.306C73.8451 188.812 59.8276 189.425 45.8353 187.064L43.1956 186.756L34.1656 185.027C33.3508 184.871 32.4562 184.664 31.9795 183.977C31.5847 183.414 31.5868 182.672 31.6162 181.985C31.7359 179.255 32.0509 176.545 32.3659 173.834L34.8502 152.409C35.9149 143.231 36.9817 134.037 38.4328 124.915L38.332 124.884C35.8897 124.043 33.4852 123.111 31.0786 122.176C30.7468 122.082 30.4486 121.897 30.2134 121.645C29.7409 121.036 30.1462 120.162 30.5515 119.504C34.1299 113.686 37.1896 107.566 39.6991 101.212C41.6143 96.3598 43.6135 90.9009 48.2881 88.5883L58.0573 89.7036L76.4386 84.7319C79.6537 85.5931 82.2913 87.8994 84.4564 90.4304C87.1927 93.6293 89.362 97.2735 90.874 101.203C94.2193 109.905 94.2214 119.714 98.2555 128.12C96.3424 128.687 94.3999 129.143 92.4364 129.49L93.4003 138.263Z" fill="#316AFE"/>
<path fill-rule="evenodd" clip-rule="evenodd" d="M59.269 97.1242C58.2841 95.1939 57.694 93.0872 57.5365 90.9259C62.8453 86.2923 68.257 83.7214 73.8871 81.8079C74.2357 81.6903 74.7124 81.6168 74.8972 81.9361C74.9665 82.0936 74.9833 82.27 74.9476 82.4402L74.5717 85.7735C74.3953 87.3341 74.2 88.9515 73.381 90.2936C72.5158 91.7156 71.05 92.6524 69.601 93.4758C66.7597 95.091 63.7861 96.4647 60.7138 97.58C60.3736 97.7039 59.9725 97.8194 59.6638 97.6304C59.4895 97.5002 59.353 97.3258 59.269 97.1242ZM54.6091 86.6221C54.4999 85.3534 55.1299 84.1478 55.741 83.0303C56.1085 83.0051 55.7158 82.3477 55.2286 82.2847C54.7414 82.2217 54.2899 82.5473 53.9014 82.8518C52.3054 84.0974 50.7514 85.4143 49.4158 86.935C49.1533 87.1514 48.9664 87.4433 48.8761 87.771C48.7879 88.0987 48.8005 88.4452 48.916 88.7645C49.4221 91.0602 50.2369 93.2762 51.3373 95.3535C51.5137 95.6875 51.8161 96.0697 52.1773 95.9668C52.3285 95.908 52.4587 95.8072 52.5553 95.677L55.1551 92.7364C56.1547 91.6085 57.2173 90.3167 57.1459 88.8107C55.9174 89.1426 54.7183 87.8907 54.6091 86.6221Z" fill="#FEC426"/>
<path fill-rule="evenodd" clip-rule="evenodd" d="M31.6245 181.994C31.7442 179.267 32.0592 176.554 32.3742 173.842L34.8606 152.426C35.9106 143.258 36.9816 134.073 38.4306 124.957L38.334 124.9C36.6183 124.312 34.9215 123.676 33.2289 123.024L33.1428 123.444L30.0159 160.679C29.8878 162.193 29.703 163.857 28.5354 164.879C28.0805 165.278 27.5013 165.547 26.93 165.812C26.035 166.227 25.1595 166.633 24.8121 167.515C24.3661 168.649 25.0714 169.696 25.7966 170.772C26.1813 171.343 26.5716 171.922 26.7987 172.527C27.2383 173.687 27.0585 174.973 26.8806 176.246C26.6761 177.709 26.474 179.155 27.2187 180.37C28.0755 181.769 29.8521 182.248 31.467 182.538L31.6245 181.994ZM85.2816 171.51C83.5911 157.872 82.5516 144.197 82.161 130.481L92.5266 130.157C93.0336 134.74 93.5409 139.323 94.0482 143.906C95.2574 154.833 96.4671 165.763 97.6758 176.696C97.9929 179.557 98.2407 182.708 96.5775 185.058C95.9391 185.959 95.0634 186.667 94.047 187.098C93.0306 187.528 91.9155 187.669 90.8235 187.501C89.7315 187.333 88.7088 186.864 87.8688 186.148C87.0288 185.432 86.4051 184.497 86.067 183.445C85.9443 183.061 85.8581 182.662 85.7723 182.265C85.5936 181.438 85.4162 180.617 84.9141 179.952C84.3851 179.249 83.575 178.833 82.7715 178.419C81.8526 177.946 80.9422 177.478 80.4705 176.591C79.8174 175.358 80.3508 173.745 81.4029 172.838C82.455 171.931 83.8935 171.597 85.2816 171.51Z" fill="white"/>
<path fill-rule="evenodd" clip-rule="evenodd" d="M60.0459 98.9898C59.7162 98.9898 59.355 98.9184 59.0064 98.7041C58.9749 98.6852 58.9455 98.6642 58.9161 98.6432C58.5717 98.3891 58.3008 98.0488 58.1286 97.6581C57.4118 96.247 56.8951 94.7643 56.584 93.2296C56.4491 93.3871 56.3197 93.5332 56.2008 93.6673L53.6283 96.5743C53.3973 96.8683 53.0907 97.0973 52.7421 97.2338C52.7022 97.2485 52.6623 97.2632 52.6224 97.2737C52.5279 97.2968 52.3641 97.3325 52.1583 97.3325C51.6522 97.3325 50.9004 97.1162 50.3271 96.0324C49.3437 94.1766 48.5788 92.213 48.0457 90.1825C44.5368 92.3926 42.791 96.8275 41.0997 101.126L40.8792 101.685C38.3508 108.089 35.2386 114.31 31.6329 120.175C31.3935 120.563 31.3116 120.792 31.2843 120.91C31.3305 120.937 31.3809 120.96 31.4355 120.975C31.4733 120.985 31.509 120.998 31.5446 121.01L31.5447 121.011L31.5951 121.029L31.6289 121.043L31.6293 121.043L31.6294 121.043C33.5315 121.781 35.4862 122.54 37.4414 123.24C38.3423 117.734 39.39 112.249 40.665 106.837C40.8246 106.161 41.5008 105.738 42.1812 105.9C42.8574 106.06 43.2774 106.738 43.1178 107.417C39.6734 122.04 37.8949 137.27 36.1746 151.999L36.1689 152.048L36.108 152.574L33.6237 173.998L33.6224 174.009C33.3162 176.65 32.9999 179.379 32.8803 182.059C32.8656 182.393 32.8383 183.019 33.0168 183.271C33.2268 183.569 33.9744 183.721 34.4196 183.809L41.7297 185.208C42.4122 185.338 42.8616 186 42.7293 186.682C42.618 187.283 42.0909 187.703 41.4966 187.703C41.4189 187.703 41.3391 187.695 41.2593 187.68L33.9366 186.279C33.1092 186.113 31.7463 185.838 30.9567 184.716C30.7103 184.365 30.5603 183.993 30.4713 183.616C28.8039 183.248 27.112 182.592 26.1498 181.022C25.1649 179.419 25.4148 177.631 25.6353 176.056C25.797 174.907 25.9482 173.821 25.6248 172.964C25.4556 172.51 25.132 172.027 24.7886 171.515L24.7575 171.469L24.7575 171.469C23.9553 170.278 22.9578 168.797 23.6445 167.047C24.1811 165.693 25.4246 165.113 26.4233 164.647L26.4291 164.645C26.931 164.411 27.4035 164.191 27.7122 163.922C28.4787 163.254 28.6467 161.954 28.7643 160.566L31.8487 123.837C31.4578 123.686 31.0686 123.535 30.6816 123.384L30.6774 123.382C30.1503 123.218 29.6736 122.92 29.2977 122.514C29.2725 122.487 29.2494 122.46 29.2263 122.43C28.5081 121.504 28.5963 120.303 29.4867 118.856C33.0147 113.117 36.0597 107.028 38.5356 100.76L38.754 100.204C40.6524 95.377 42.8049 89.9076 47.7378 87.469C47.7584 87.4588 47.7791 87.4493 47.7999 87.4403C47.9675 86.9533 48.2457 86.5094 48.6093 86.1457C50.0163 84.6061 51.5724 83.1904 53.2377 81.9365C53.6703 81.6004 54.4641 80.985 55.4994 81.1236C56.3142 81.2328 57.4797 82.052 57.4461 83.0917C57.4335 83.4698 57.2739 83.8037 57.0156 84.039C56.9547 84.144 56.8938 84.249 56.833 84.3561L56.8297 84.3617C56.3771 85.1455 55.9091 85.9561 55.9635 86.612C55.9887 86.9166 56.2092 87.261 57.6225 87.7021C58.0232 87.8268 58.3277 88.1397 58.4498 88.5272C62.7327 85.1396 67.4604 82.6596 73.4838 80.6132C74.7837 80.1743 75.63 80.6826 75.9891 81.3022C76.0122 81.3442 76.0332 81.3862 76.0521 81.4282C76.218 81.8084 76.2663 82.2201 76.1949 82.6275L76.0939 83.5258C76.3068 83.4644 76.5386 83.4584 76.7682 83.5202C79.7649 84.3225 82.5957 86.3179 85.4181 89.6177C88.2552 92.9342 90.4875 96.6835 92.0541 100.758C93.606 104.797 94.4607 109.082 95.286 113.226L95.2926 113.259L95.2926 113.259L95.2926 113.259L95.2926 113.26L95.2927 113.26C96.3045 118.337 97.2605 123.133 99.3957 127.583C99.5553 127.917 99.5616 128.301 99.4104 128.639C99.2592 128.977 98.9694 129.232 98.6166 129.337C97.0454 129.798 95.4644 130.188 93.8756 130.507L94.7281 138.282C98.0132 148.47 100.609 157.036 103.345 166.069L103.345 166.07L103.345 166.07L103.346 166.07L103.434 166.363C104.488 169.847 105.58 173.45 106.742 177.249C106.767 177.333 106.794 177.424 106.828 177.529C107.535 179.831 107.815 181.246 107.271 182.128C106.855 182.801 106.24 183.185 105.696 183.494C103.742 184.604 101.681 184.943 99.6876 185.27L99.6835 185.271L99.6126 185.282C99.0217 185.379 98.4143 185.479 97.8186 185.6L97.7989 185.604C97.785 185.606 97.7713 185.608 97.7575 185.61C97.7426 185.612 97.7277 185.614 97.7128 185.616C97.6735 185.675 97.6332 185.733 97.5918 185.792C96.8169 186.884 95.7564 187.737 94.5237 188.26C93.6291 188.638 92.6757 188.829 91.7139 188.829C91.3464 188.829 90.9789 188.801 90.6114 188.745C89.5643 188.584 88.5711 188.195 87.6975 187.607C79.3974 189.078 71.5128 189.814 63.9246 189.814C57.6477 189.814 51.5745 189.312 45.6273 188.308C44.9406 188.192 44.4786 187.541 44.5941 186.857C44.7096 186.17 45.3585 185.705 46.0452 185.823C58.4128 187.91 71.3668 187.777 85.5845 185.414C85.278 184.918 85.0312 184.384 84.8511 183.824C84.7104 183.378 84.6159 182.946 84.5277 182.525C84.3702 181.786 84.2316 181.148 83.8977 180.702C83.5428 180.234 82.8855 179.894 82.1883 179.534L82.1847 179.533C81.1629 179.006 80.0056 178.409 79.3491 177.176C78.4692 175.51 78.9963 173.233 80.5776 171.876C81.4281 171.145 82.5348 170.654 83.8767 170.408C82.3335 157.542 81.3568 144.471 80.9699 131.522C79.1771 131.448 77.381 131.285 75.5838 131.032C74.9475 130.941 74.4813 130.389 74.5002 129.748L75.0735 109.622C75.0924 108.927 75.672 108.372 76.3692 108.398C77.0643 108.416 77.6124 108.998 77.5935 109.693L77.0517 128.681C83.6016 129.463 90.1347 129.001 96.5061 127.305C94.6503 122.94 93.7179 118.26 92.8131 113.718L92.8122 113.714C92.0079 109.672 91.1763 105.497 89.7 101.659C88.2363 97.8534 86.151 94.352 83.5008 91.2539C81.0207 88.3553 78.6036 86.6204 76.1151 85.9546C76.0148 85.9276 75.9205 85.8892 75.8334 85.8412L75.8253 85.9126C75.6531 87.4417 75.4368 89.3426 74.4582 90.9473C73.4145 92.6633 71.7261 93.7156 70.2246 94.5684C67.3287 96.2151 64.2753 97.6245 61.1442 98.7609C60.9363 98.8407 60.5247 98.9898 60.0459 98.9898ZM58.851 91.4577C59.0484 93.1758 59.5377 94.831 60.3084 96.3874C63.2967 95.3015 66.2136 93.953 68.9793 92.3819C70.2057 91.6845 71.5749 90.8423 72.3057 89.6408C72.9951 88.5133 73.1597 87.0554 73.319 85.6448L73.32 85.6353L73.5888 83.2472C67.6458 85.3371 63.0489 87.8975 58.851 91.4577ZM99.2761 182.782C99.1406 182.804 99.0042 182.826 98.867 182.848C99.3702 180.631 99.115 178.297 98.9257 176.566L98.9253 176.562L96.131 151.077C97.7922 156.432 99.3371 161.533 100.93 166.792L100.931 166.797L101.021 167.094C102.075 170.58 103.167 174.185 104.327 177.976C104.344 178.036 104.368 178.111 104.394 178.195L104.417 178.27C104.91 179.879 105.036 180.593 105.041 180.904C104.897 181.045 104.651 181.186 104.479 181.285L104.478 181.285L104.478 181.285L104.45 181.301C102.891 182.189 101.144 182.475 99.2937 182.779L99.2761 182.782ZM92.1991 138.65C92.1299 138.436 92.1209 138.217 92.1629 138.011L91.3884 130.947C88.7724 131.348 86.1379 131.556 83.4933 131.569C83.8922 144.822 84.9138 158.2 86.5311 171.353C86.5731 171.698 86.4723 172.044 86.2497 172.313C86.0271 172.58 85.7058 172.744 85.3593 172.765C83.967 172.851 82.9107 173.195 82.2219 173.788C81.5352 174.378 81.2475 175.367 81.5793 175.993C81.8639 176.529 82.5466 176.881 83.3367 177.289L83.3454 177.293L83.3545 177.298C84.2259 177.748 85.2127 178.259 85.9116 179.184C86.583 180.073 86.8016 181.093 86.9946 181.993L86.9952 181.996L87.0071 182.051L87.0072 182.051C87.0845 182.409 87.1577 182.747 87.2556 183.057C87.5202 183.882 88.0116 184.62 88.6731 185.187C89.3346 185.752 90.141 186.121 90.9999 186.254C91.8609 186.386 92.7387 186.277 93.5409 185.939C94.3431 185.598 95.0319 185.044 95.5359 184.334C96.8988 182.412 96.7329 179.692 96.42 176.838L92.2503 138.809L92.1991 138.65ZM37.0364 125.778C35.6868 134.45 34.67 143.154 33.6729 151.691L33.6657 151.752L31.1205 173.704L31.1118 173.779C30.8388 176.138 30.5578 178.568 30.4133 181.004C29.5113 180.749 28.7024 180.362 28.296 179.7C27.7857 178.869 27.9453 177.726 28.1301 176.403L28.1301 176.403L28.1317 176.391C28.3183 175.05 28.5296 173.529 27.9831 172.076C27.7038 171.332 27.2691 170.685 26.847 170.059C26.1876 169.081 25.7991 168.451 25.9881 167.972C26.1539 167.55 26.7724 167.262 27.4898 166.929L27.4917 166.928C28.1007 166.644 28.7895 166.323 29.367 165.821C30.8454 164.535 31.1205 162.624 31.2759 160.776L34.2992 124.776C35.2067 125.118 36.1204 125.454 37.0364 125.778ZM50.2326 88.5024C50.2074 88.4099 50.1948 88.3175 50.199 88.223C50.2431 88.1117 50.3124 88.0088 50.4006 87.9227L50.4007 87.9226C50.4196 87.9037 50.4364 87.8869 50.4531 87.868C51.4989 86.7212 52.6329 85.65 53.8383 84.6691C53.5653 85.3265 53.3931 86.0407 53.4582 86.8199C53.5968 88.4751 54.8316 89.3005 55.8648 89.7437C55.5981 90.4978 54.9639 91.2602 54.3171 91.9912L52.2717 94.3016C51.3666 92.4848 50.6883 90.5629 50.2515 88.578L50.2326 88.5024ZM55.636 101.115C56.2738 101.115 56.791 100.598 56.791 99.9602C56.791 99.3222 56.2738 98.8049 55.636 98.8049C54.9981 98.8049 54.481 99.3222 54.481 99.9602C54.481 100.598 54.9981 101.115 55.636 101.115ZM55.9509 107.942C55.9509 108.58 55.4338 109.097 54.7959 109.097C54.158 109.097 53.6409 108.58 53.6409 107.942C53.6409 107.304 54.158 106.787 54.7959 106.787C55.4338 106.787 55.9509 107.304 55.9509 107.942Z" fill="#2B2B2B"/>
</g>
<path d="M74.2757 60.9424C75.731 59.2284 75.2795 56.2605 73.3811 55.0612C72.7007 54.6285 71.8397 54.3597 71.468 53.6455C71.048 52.8579 71.4281 51.9148 71.6486 51.0536C71.6486 51.0263 71.6633 50.9969 71.6717 50.9696C72.3017 48.3735 69.3344 46.4474 67.1735 48.0185C64.475 49.9803 61.409 51.3792 58.1582 52.1332C56.4782 52.5197 54.4139 52.5953 53.3765 51.2216C52.7633 50.4067 52.6163 49.1758 51.0665 49.2914C50.615 49.3292 50.1803 49.4867 49.8065 49.745C47.0324 51.6165 43.8593 52.8075 40.5392 53.2254C39.611 53.341 38.6492 53.3935 37.7525 53.1267C35.1779 52.3601 34.0082 49.0813 34.7852 46.5104C35.5622 43.9395 37.7567 42.0386 40.0751 40.6775C41.5115 39.8374 43.1117 39.0644 43.9769 37.6382C44.4851 36.7981 44.6846 35.7983 45.1949 34.9602C45.7052 34.1221 46.5032 33.4899 47.3159 32.9186C51.6944 29.8877 56.9297 28.346 62.2511 28.5161C65.4011 28.6253 69.1034 29.8919 69.7838 32.9627L74.6138 34.998C78.3308 35.5693 82.1108 36.8212 84.7421 39.5097C87.3734 42.1982 88.5221 46.5902 86.6321 49.8438C86.3843 50.2638 86.0777 50.7091 86.0903 51.2048C86.1071 51.835 86.6342 52.3307 87.071 52.797C87.8354 53.6245 88.4171 54.6033 88.7762 55.6703C89.1353 56.7373 89.2655 57.8674 89.1584 58.989C89.0597 59.9636 88.7384 60.9718 88.0076 61.6166C87.2768 62.2614 86.0315 62.3938 85.3406 61.7006L74.8616 63.3074L74.2757 60.9424Z" fill="#2B2B2B"/>
<path d="M40.161 53.3346C38.8065 56.8192 37.9917 59.9657 37.7859 61.8707C37.2672 66.6681 38.2353 71.999 41.904 75.4163C43.8591 77.2353 46.2804 78.1301 48.8697 78.5859C51.5703 79.0627 54.4683 79.4974 57.0891 78.4262C56.9505 80.6128 56.9295 82.1734 57.0303 84.362L71.8353 82.7195C71.5959 79.844 72.1293 77.3781 73.3809 74.7778C73.6644 74.1897 74.2734 74.196 74.8761 74.0049C75.4116 73.8368 75.9366 73.6436 76.4553 73.4251C77.5074 72.9883 78.5007 72.4232 79.4163 71.7448C81.2265 70.3774 82.6377 68.4577 83.1669 66.2312C83.6478 64.2127 83.3097 61.8098 81.0669 60.6735C79.4856 59.8753 78.0681 60.1589 75.6594 62.2761L74.2944 60.9487C75.7497 59.2347 75.2982 56.2668 73.3998 55.0675C72.7194 54.6348 71.8584 54.366 71.4867 53.6518C71.0667 52.8642 71.4468 51.9211 71.6673 51.0599C71.6673 51.0326 71.682 51.0032 71.6904 50.9759C72.3204 48.3798 69.3531 46.4537 67.1922 48.0248C64.4937 49.9866 61.4277 51.3855 58.1769 52.1395C56.4969 52.526 54.4326 52.6016 53.3952 51.2279C52.782 50.413 52.635 49.1821 51.0852 49.2976C50.6337 49.3355 50.199 49.493 49.8252 49.7513C47.0448 51.6228 43.8633 52.8116 40.539 53.2254" fill="white"/>
<path d="M86.5522 63.4292C85.7647 63.4292 85.0003 63.1498 84.4417 62.5911C83.9503 62.0975 83.9524 61.2994 84.4438 60.8079C84.9373 60.3164 85.7353 60.3185 86.2267 60.81C86.3842 60.9675 86.8777 60.9276 87.1675 60.6714C87.556 60.329 87.8143 59.6863 87.8983 58.8608C87.9886 57.9156 87.8815 56.9767 87.5749 56.0714C87.2704 55.1662 86.7874 54.3533 86.1385 53.6518L86.0314 53.5383C85.5337 53.0132 84.8512 52.2949 84.8239 51.2384C84.8029 50.4297 85.183 49.7975 85.4602 49.3354L85.54 49.2031C87.2116 46.3234 85.9117 42.5111 83.8348 40.3918C81.7705 38.283 78.6016 36.8883 74.4163 36.2435C73.7275 36.1385 73.2571 35.4936 73.3621 34.8068C73.4671 34.12 74.1118 33.6474 74.7985 33.7524C79.5361 34.4812 83.1817 36.1217 85.6366 38.6275C87.1255 40.1482 88.1818 42.131 88.6102 44.2104C89.0743 46.4599 88.7572 48.6843 87.7156 50.478L87.6211 50.6356C87.5245 50.7952 87.3649 51.0598 87.346 51.1691C87.3901 51.3098 87.6841 51.6186 87.8605 51.8055L87.9844 51.9357C88.8811 52.9061 89.5447 54.0235 89.9647 55.267C90.3847 56.5104 90.5317 57.8022 90.4078 59.1086C90.2566 60.5957 89.7148 61.7867 88.837 62.5617C88.1797 63.1393 87.3544 63.4292 86.5522 63.4292Z" fill="#2B2B2B"/>
<path d="M74.2756 62.2027C73.9879 62.2027 73.6981 62.104 73.4608 61.9024C72.9295 61.4508 72.8665 60.6568 73.3159 60.1254C73.7674 59.594 73.9627 58.798 73.8409 57.9956C73.7191 57.1953 73.2949 56.4959 72.709 56.1262C72.5641 56.0338 72.394 55.9435 72.2134 55.8469C71.5855 55.5129 70.8022 55.0949 70.3507 54.2275C69.7627 53.1247 70.0882 51.9632 70.3276 51.1125C70.357 51.0075 70.3864 50.9025 70.4137 50.7996C70.4263 50.7324 70.4431 50.6715 70.4599 50.621C70.6657 49.6633 70.0084 49.136 69.7984 48.9953C69.3385 48.6866 68.6035 48.5374 67.9168 49.0352C65.065 51.1083 61.8793 52.5618 58.4458 53.3579C55.6423 54.0027 53.5423 53.5259 52.3747 51.9779C52.1668 51.7028 52.0135 51.4213 51.8791 51.1735C51.5221 50.5181 51.5095 50.5181 51.163 50.5454C50.9425 50.5643 50.7199 50.6441 50.5288 50.7765C47.5909 52.7572 44.1973 54.0321 40.7008 54.4711C39.7138 54.595 38.5504 54.6728 37.3975 54.3304C36.0346 53.925 34.8775 52.9462 34.1383 51.5767C33.2563 49.9384 33.0484 47.9073 33.5818 46.1409C34.342 43.6267 36.3118 41.4212 39.4408 39.5854C39.634 39.472 39.8272 39.3628 40.0225 39.2515C41.2048 38.5773 42.3199 37.9408 42.9037 36.9788C43.099 36.6575 43.2502 36.2626 43.4119 35.8446C43.6072 35.3384 43.8088 34.8154 44.1238 34.2987C44.758 33.2548 45.6883 32.5196 46.5955 31.8811C51.1714 28.7137 56.7427 27.0733 62.2951 27.2497C65.7916 27.3715 70.1722 28.867 71.0185 32.6835C71.1697 33.364 70.7413 34.0361 70.0609 34.1874C69.3826 34.3365 68.7085 33.9101 68.5573 33.2296C68.0575 30.9737 65.0104 29.8668 62.2111 29.7702C57.1984 29.6064 52.1626 31.0935 48.0361 33.95C47.3578 34.4268 46.669 34.9624 46.2742 35.6115C46.0768 35.9349 45.9235 36.3319 45.7618 36.752C45.5686 37.254 45.3691 37.7728 45.0583 38.2853C44.1364 39.806 42.6139 40.6756 41.2699 41.4401C41.083 41.5472 40.8982 41.6523 40.7134 41.7594C38.1514 43.2633 36.5638 44.9835 35.9926 46.8697C35.6545 47.9913 35.7931 49.3356 36.3559 50.3795C36.652 50.9277 37.1959 51.6397 38.1136 51.9128C38.8213 52.1228 39.6592 52.0598 40.3858 51.9695C43.4917 51.5788 46.5073 50.4467 49.105 48.695C49.6447 48.3211 50.2915 48.0879 50.9635 48.0312C52.9564 47.88 53.6956 49.239 54.0925 49.9678C54.1954 50.1569 54.292 50.3354 54.3865 50.4593C55.1089 51.4171 57.0703 51.0873 57.8788 50.9004C60.9805 50.1821 63.8596 48.8672 66.4363 46.9936C67.8664 45.9539 69.7375 45.9161 71.2033 46.897C72.6439 47.8611 73.3096 49.575 72.9001 51.2596C72.8938 51.2848 72.8875 51.3079 72.8791 51.3331C72.8791 51.3352 72.8791 51.3373 72.877 51.3373C72.8749 51.3436 72.8728 51.352 72.8728 51.3583C72.8371 51.499 72.7972 51.6418 72.7573 51.7868C72.6271 52.2489 72.4675 52.8244 72.5851 53.0449C72.6817 53.2319 73.0492 53.4272 73.4041 53.6162C73.6183 53.7297 73.8388 53.8473 74.0635 53.9901C75.2731 54.7547 76.1026 56.0737 76.3378 57.607C76.573 59.1445 76.174 60.6547 75.2437 61.7491C74.9875 62.0515 74.6326 62.2027 74.2756 62.2027ZM72.9085 51.0558C72.9085 51.0579 72.9085 51.0579 72.9085 51.0558C72.9085 51.0579 72.9085 51.0579 72.9085 51.0558ZM72.9085 51.0537V51.0558V51.0537Z" fill="#2B2B2B"/>
<path d="M46.3814 59.1278C47.1932 59.1278 47.8514 58.3285 47.8514 57.3425C47.8514 56.3565 47.1932 55.5571 46.3814 55.5571C45.5695 55.5571 44.9114 56.3565 44.9114 57.3425C44.9114 58.3285 45.5695 59.1278 46.3814 59.1278Z" fill="#2B2B2B"/>
<path d="M53.5213 59.6215C54.3331 59.6215 54.9913 58.8222 54.9913 57.8361C54.9913 56.8501 54.3331 56.0508 53.5213 56.0508C52.7094 56.0508 52.0513 56.8501 52.0513 57.8361C52.0513 58.8222 52.7094 59.6215 53.5213 59.6215Z" fill="#2B2B2B"/>
<path d="M71.8249 82.7134C71.1781 82.7134 70.6258 82.2177 70.5712 81.5582C70.3045 78.395 70.9198 76.9478 72.226 74.2256C72.7048 73.2321 73.6099 73.0137 74.1517 72.8835C74.2693 72.8541 74.3806 72.8288 74.4772 72.7973C74.977 72.6398 75.4705 72.4592 75.9472 72.2575C76.9111 71.8585 77.8162 71.3439 78.6478 70.7263C80.3236 69.4598 81.4912 67.7563 81.9238 65.9332C82.1464 65.0153 82.4488 62.7847 80.4811 61.7912C79.6222 61.3564 78.7801 61.1862 76.4722 63.2152C75.9493 63.6752 75.1534 63.6227 74.6935 63.0997C74.2336 62.5767 74.2861 61.7807 74.809 61.3207C78.1228 58.4074 80.038 58.7435 81.6151 59.5395C84.0595 60.7746 85.1158 63.4484 84.3724 66.5192C83.8054 68.9053 82.3081 71.117 80.1577 72.7406C79.1539 73.4863 78.0661 74.1038 76.9195 74.5785C76.3756 74.8074 75.8065 75.0175 75.2332 75.196C75.0589 75.2506 74.8909 75.2926 74.7439 75.3283C74.6515 75.3515 74.5318 75.3788 74.4541 75.404C73.2466 77.9245 72.8728 78.8717 73.0828 81.3418C73.1416 82.035 72.6271 82.6441 71.9341 82.7029C71.8963 82.7113 71.8606 82.7134 71.8249 82.7134Z" fill="#2B2B2B"/>
<path d="M57.0306 84.572C56.3607 84.572 55.8042 84.0448 55.7727 83.3684C55.7055 81.8897 55.6908 81.1462 55.7328 80.1317C53.2086 80.619 50.6382 80.1716 48.6558 79.825C45.4533 79.26 42.9648 78.1195 41.0475 76.3362C37.5237 73.0533 35.8794 67.7308 36.5346 61.7299C36.7803 59.5056 37.6959 56.1953 38.9874 52.8746C39.2394 52.2255 39.9702 51.9042 40.6191 52.1562C41.268 52.4083 41.5893 53.1392 41.3373 53.7882C39.9051 57.4724 39.2121 60.4487 39.0399 62.0051C38.4708 67.2036 39.8274 71.7552 42.7653 74.49C44.3361 75.9518 46.3458 76.8571 49.0905 77.3402C51.8961 77.8296 54.4014 78.1594 56.6148 77.2541C57.0159 77.0903 57.4737 77.1449 57.8265 77.3969C58.1793 77.6511 58.3767 78.067 58.3494 78.4996C58.215 80.6127 58.1919 81.079 58.2927 83.2466C58.3242 83.9418 57.7866 84.5321 57.0915 84.5636C57.0684 84.572 57.0495 84.572 57.0306 84.572Z" fill="#2B2B2B"/>
<defs>
<clipPath id="clip0_2677_602">
<rect width="126" height="126.025" fill="white" transform="translate(0.510986 79.6909)"/>
</clipPath>
</defs>
</svg>
