<svg width="127" height="294" viewBox="0 0 127 294" fill="none" xmlns="http://www.w3.org/2000/svg">
<path fill-rule="evenodd" clip-rule="evenodd" d="M47.1277 257.669C47.1288 257.63 47.1298 257.592 47.131 257.555L59.5483 257.275C59.4891 258.048 59.4443 258.841 59.399 259.645C59.0904 265.117 58.7526 271.108 53.6263 274.638C52.7384 275.208 51.7462 275.578 50.7231 275.959C50.2945 276.118 49.8604 276.28 49.4263 276.459C47.8303 277.117 40.0498 278.405 35.1463 276.257C32.6263 274.03 34.5163 270.589 36.6163 268.767C37.6943 267.858 38.7939 267.032 39.8805 266.216C42.1806 264.488 44.4222 262.805 46.2763 260.468C46.3813 260.265 46.4863 260.012 46.5913 259.759C46.6963 259.506 46.8013 259.253 46.9063 259.051C47.1 258.677 47.115 258.131 47.1277 257.669ZM66.2221 269.765C67.3015 266.447 67.6921 264.502 67.4086 261.466L82.6861 261.383C82.9549 264.123 82.579 267.978 82.1296 271.178C81.5353 275.573 79.261 279.595 75.7519 282.459C75.1597 282.969 74.4961 283.399 73.7821 283.733C73.276 283.899 72.7846 284.101 72.3121 284.34C65.7916 286.212 62.0221 283.328 61.8121 283.125C58.4759 279.837 60.8952 276.992 63.3051 274.157C64.5359 272.709 65.7642 271.265 66.2221 269.765Z" fill="#2B2B2B"/>
<path d="M64.0108 256.251C64.1221 257.83 64.3321 259.247 64.3321 260.866C71.2621 261.271 78.4021 261.474 85.3321 261.069C88.3162 260.83 91.2331 260.077 93.9421 258.842C97.0921 238.802 97.3021 218.357 95.4121 197.911C95.4121 197.304 95.6221 196.494 95.4121 195.887C95.2021 194.875 95.2021 194.065 94.9921 193.053V191.029C92.8921 172.203 89.9521 153.985 86.1721 135.766C71.4721 136.171 56.9821 136.981 42.2821 137.386C35.7847 165.879 33.4516 195.11 35.3521 224.227C35.3164 225.176 35.3878 226.126 35.5621 227.061C35.9569 232.727 36.8725 238.35 38.2921 243.863C38.7121 245.28 39.1321 246.899 39.7621 248.316C40.8121 250.947 42.2821 253.579 43.3321 256.211C47.3221 257.223 51.5221 257.425 55.7221 257.223C58.0321 257.02 60.5521 257.02 62.9629 256.451L64.0108 256.251Z" fill="#316AFE"/>
<path fill-rule="evenodd" clip-rule="evenodd" d="M85.0129 135.981C92.7025 175.15 98.9651 217.031 92.8616 258.012C88.6651 259.815 83.7464 260.024 79.4458 260.073C74.8426 260.121 70.1869 260.008 65.59 259.737C65.1742 255.095 64.7332 250.415 64.3048 245.879C62.4001 225.697 60.4324 204.828 60.5248 184.369C60.5605 177.173 59.794 170.065 54.0085 166.806C53.4079 166.468 52.6351 166.663 52.2844 167.242C51.9316 167.82 52.1353 168.565 52.7359 168.903C57.4189 171.541 58.0363 177.889 58.0048 184.357C57.9124 204.93 59.886 225.855 61.7948 246.092L61.7953 246.097L61.9407 247.645C62.177 250.159 62.4168 252.711 62.6527 255.268C56.5826 256.215 50.4345 256.234 44.3632 255.324C37.7608 242.747 36.715 230.207 36.2572 219.415C35.1001 192.007 37.5067 164.501 43.4098 137.665C43.5547 137.009 43.12 136.365 42.4396 136.226C41.7592 136.086 41.0914 136.505 40.9465 137.161C34.9993 164.195 32.5759 191.903 33.7393 219.514C34.2139 230.723 35.3164 243.784 42.4144 256.986C42.5971 257.326 42.9352 257.563 43.3258 257.626C44.1668 257.76 45.0092 257.877 45.8526 257.978C45.8414 258.193 45.8202 258.415 45.7765 258.506C45.658 258.736 45.5503 258.994 45.4451 259.246L45.4195 259.308C45.3439 259.492 45.2641 259.68 45.1948 259.828C43.454 261.99 41.3415 263.577 39.1052 265.257L39.1048 265.257L39.0549 265.295C37.9825 266.101 36.8722 266.935 35.7721 267.864C34.2832 269.156 32.6893 271.352 32.6788 273.644C32.6725 275 33.2311 276.212 34.2937 277.152C34.3903 277.239 34.5016 277.31 34.6234 277.362C36.8557 278.34 39.5605 278.672 42.091 278.672C45.6421 278.672 48.8488 278.018 49.9219 277.579C50.3335 277.409 50.7619 277.249 51.1756 277.095L51.1887 277.09C52.2388 276.699 53.3238 276.295 54.3235 275.652C54.3287 275.648 54.3345 275.644 54.3403 275.641C54.3461 275.637 54.3518 275.633 54.3571 275.629C59.9738 271.763 60.3354 265.367 60.6545 259.723L60.655 259.715L60.6664 259.512C60.696 258.987 60.7246 258.481 60.7579 257.982C61.4645 257.898 62.1703 257.802 62.875 257.693C62.975 258.792 63.0737 259.889 63.1708 260.984C63.2254 261.583 63.721 262.053 64.3426 262.093C64.9622 262.133 65.5829 262.171 66.2046 262.205C66.3652 264.751 65.9673 266.493 65.0209 269.401L65.019 269.407L65.0177 269.411C65.0167 269.414 65.0156 269.418 65.0146 269.421C64.6282 270.684 63.4606 272.059 62.3308 273.387L62.3186 273.401C61.0624 274.88 59.7649 276.408 59.2039 278.101C58.5109 280.196 59.0842 282.174 60.9217 283.984C60.9511 284.014 63.4648 286.186 68.0596 286.186C69.4183 286.186 70.9597 285.996 72.6733 285.502C72.751 285.48 72.8266 285.449 72.898 285.413C73.3117 285.204 73.7443 285.024 74.1874 284.88C74.2357 284.864 74.2861 284.846 74.3323 284.824C75.1471 284.443 75.9031 283.955 76.5793 283.374C80.3299 280.31 82.7449 276.034 83.3791 271.34C83.8993 267.643 84.1124 264.625 84.0159 262.345C87.4747 262.112 91.0667 261.532 94.3369 260.032C94.4641 259.974 94.5765 259.897 94.6724 259.807C94.9837 259.626 95.2112 259.317 95.2672 258.943C101.571 217.421 95.2546 175.09 87.4888 135.529C87.3607 134.869 86.7013 134.438 86.0167 134.562C85.3321 134.687 84.8827 135.321 85.0129 135.981ZM58.2156 258.233C56.5869 258.36 54.9554 258.423 53.3239 258.423C51.6683 258.423 50.0132 258.357 48.3609 258.227C48.3304 258.674 48.254 259.157 48.0277 259.593C47.9517 259.74 47.863 259.951 47.7751 260.16L47.7547 260.208L47.729 260.27C47.6238 260.522 47.5161 260.78 47.3977 261.01C47.362 261.079 47.32 261.144 47.2717 261.204C45.3187 263.666 42.9457 265.449 40.6504 267.174L40.5837 267.224C39.5439 268.006 38.4696 268.814 37.4416 269.682C36.3349 270.642 35.203 272.251 35.1967 273.656C35.1946 274.269 35.4109 274.787 35.8582 275.235C40.39 277.095 47.6392 275.874 48.9286 275.344C49.3529 275.168 49.7735 275.011 50.1819 274.859L50.2663 274.828C51.2281 274.47 52.1395 274.129 52.9081 273.64C57.526 270.447 57.8368 264.923 58.1371 259.581C58.1618 259.136 58.1873 258.683 58.2156 258.233ZM68.7345 262.329C68.87 265.086 68.3983 267.134 67.4275 270.119C66.897 271.847 65.569 273.41 64.2856 274.92L64.2796 274.927C61.432 278.277 60.4156 279.988 62.6836 282.247C62.9125 282.421 66.1822 284.789 71.8417 283.208C72.3121 282.978 72.8014 282.777 73.2991 282.609C73.8829 282.33 74.4268 281.974 74.9119 281.555C74.916 281.551 74.9202 281.547 74.9244 281.543C74.9286 281.54 74.9328 281.536 74.9371 281.532C78.2131 278.858 80.3236 275.125 80.8801 271.02C81.3734 267.512 81.5822 264.585 81.497 262.463C80.8116 262.483 80.1364 262.494 79.4752 262.502C78.7633 262.508 78.0493 262.512 77.3353 262.512C74.4729 262.512 71.5977 262.451 68.7345 262.329Z" fill="#2B2B2B"/>
<g clip-path="url(#clip0_2677_1182)">
<path d="M71.7787 79.6909C71.9677 81.8123 72.835 86.6055 76.0627 85.8871L76.4092 86.4123C76.2517 89.7036 74.5843 92.0246 71.9719 94.4295C69.3175 96.8345 65.9323 98.2796 62.3602 98.5338C59.2102 98.7648 55.8607 98.0108 53.5045 95.8977C51.1483 93.7847 49.9093 90.8567 51.4696 88.3467H51.6964C52.4062 88.3677 53.0593 87.996 53.6599 87.6179C54.4243 87.1348 56.0014 85.1541 56.4739 84.5849C57.1039 83.7678 57.3601 80.6697 57.6835 79.6909H71.7787V79.6909Z" fill="white"/>
<path d="M31.467 182.538C30.438 182.504 29.4405 182.183 28.5837 181.611C27.7269 181.04 27.0486 180.242 26.6223 179.305C26.8323 175.945 27.4623 171.954 24.7323 169.223C24.3123 167.543 25.5723 166.283 27.0423 165.734L32.9391 166.499L31.467 182.538Z" fill="white"/>
<path fill-rule="evenodd" clip-rule="evenodd" d="M30.8094 161.038C31.7663 161.135 32.7181 161.232 33.7057 161.42L33.8065 161.433L32.368 173.838L32.3668 173.848C32.0522 176.556 31.7378 179.262 31.6183 181.99C31.5889 182.676 31.5868 183.418 31.9816 183.981C32.4583 184.668 33.3529 184.876 34.1677 185.031L43.1977 186.76L45.8374 187.068C59.8297 189.429 73.8472 188.816 87.8143 186.31L97.573 184.367C98.4639 184.091 99.439 183.969 100.422 183.846C102.485 183.589 104.582 183.327 106.004 181.62C106.177 181.223 106.248 180.79 106.214 180.36C105.607 177.443 103.734 172.207 102.013 167.394C100.759 163.888 99.5861 160.607 99.0409 158.612L98.8309 158.27C98.5936 142.378 97.9489 126.44 94.36 110.987L93.6922 108.969C91.9282 103.276 89.6182 97.8153 86.3674 92.8814L85.9474 88.8486C85.9558 88.1912 85.7899 87.5401 85.4665 86.9667C85.1431 86.3932 84.6748 85.9144 84.1078 85.5783C83.5408 85.2422 82.8961 85.0637 82.2367 85.0574C81.5773 85.0511 80.9284 85.2191 80.3551 85.5447C81.1195 84.5365 80.7394 82.957 79.7419 82.184C78.7444 81.4111 77.3353 81.3459 76.132 81.724C74.9287 82.1021 73.8913 82.8687 72.9043 83.6543C72.1895 84.225 71.4822 84.8177 70.7733 85.4116C67.7957 87.9064 64.7899 90.4247 61.0855 91.4427L58.6033 90.6655C57.2194 90.3546 56.2912 89.0545 55.7494 87.7459C55.5616 87.2924 55.4051 86.8248 55.2488 86.3577C54.954 85.4769 54.6598 84.5977 54.1576 83.8181C53.389 82.6251 51.9358 81.6946 50.5876 82.1273C48.9349 82.6566 48.4834 84.7276 48.1768 86.4374C48.1495 86.6978 48.0592 86.9499 47.9122 87.1662C47.6771 87.4586 47.2805 87.5429 46.9092 87.6217C46.8857 87.6267 46.8623 87.6317 46.8391 87.6367C45.9991 87.8173 45.1444 88.1408 44.5291 88.752C43.9138 89.3632 43.5736 90.3063 43.855 91.1276L42.7924 92.8835C42.2044 93.5452 40.6924 95.7086 40.6924 95.7086C36.8085 102.251 35.3124 108.993 33.6861 116.321C33.6416 116.521 33.5971 116.722 33.5524 116.923C30.6401 130.71 29.3433 143.78 28.0025 157.293C27.8931 158.396 27.7833 159.502 27.6724 160.611C28.7574 160.829 29.7864 160.933 30.8094 161.038ZM32.9413 166.499C31.0744 166.486 29.218 166.203 27.4309 165.659C27.5569 164.094 27.6934 162.487 28.3675 161.069L33.5608 161.649L32.9413 166.499Z" fill="#F15F30"/>
<path d="M83.4021 171.269C81.3777 171.922 79.011 174.355 80.7225 176.598C81.6633 177.835 83.085 178.501 84.3891 179.278C85.3929 179.874 85.6596 181.891 86.0481 182.958C87.0309 185.648 88.9398 187.862 92.0709 187.652C95.2545 187.442 97.2348 184.731 97.8396 181.807C98.4948 178.635 97.3776 174.472 96.8505 171.336L83.4021 171.269Z" fill="white"/>
<path fill-rule="evenodd" clip-rule="evenodd" d="M65.4178 99.0023C65.4619 99.6702 66.0163 100.181 66.6736 100.181C66.703 100.181 66.7303 100.181 66.7555 100.174C72.373 99.8067 77.8729 98.0466 82.663 95.0892C83.6522 94.4795 84.4815 93.8419 85.1492 93.1785C85.1828 93.3129 85.2392 93.4441 85.3195 93.5664C88.2259 97.9773 90.5716 103.136 92.4931 109.334C92.6611 109.876 93.1588 110.223 93.6964 110.223C93.8203 110.223 93.9463 110.204 94.0681 110.166C94.7338 109.96 95.1055 109.254 94.8997 108.589C92.9068 102.159 90.4624 96.7926 87.4237 92.1801C87.1869 91.8196 86.7968 91.6212 86.396 91.6134C86.9209 90.736 87.191 89.8208 87.2032 88.872C87.2137 87.9919 86.9911 87.1223 86.5606 86.3557C86.1301 85.589 85.5022 84.9463 84.7441 84.4989C83.9881 84.0515 83.1229 83.812 82.243 83.8036C82.159 83.8036 82.0771 83.8036 81.9931 83.8078C81.8713 82.8206 81.361 81.8545 80.5084 81.1949C79.2673 80.2329 77.4865 79.983 75.7498 80.5291C74.3197 80.9786 73.1248 81.8713 72.1147 82.6757C71.0069 83.5597 70.0794 84.4273 69.1824 85.2663L69.1495 85.297L69.1474 85.2991C67.0232 87.2872 65.3454 88.8575 62.3959 89.668C61.7239 89.8528 61.3291 90.546 61.5139 91.2181C61.6987 91.8903 62.3938 92.2851 63.0637 92.1003C66.6148 91.1257 68.6833 89.1891 70.8715 87.1391L70.9057 87.1072C71.7666 86.3021 72.6576 85.4689 73.6855 84.648C74.5549 83.957 75.4873 83.2533 76.5058 82.9341C77.4424 82.64 78.3853 82.7366 78.967 83.1882C79.4647 83.5747 79.6558 84.3834 79.3471 84.7908C78.9859 85.2676 79.009 85.9335 79.4038 86.383C79.7986 86.8324 80.4538 86.9438 80.9746 86.6497C81.3484 86.4376 81.7726 86.3262 82.201 86.3262H82.222C82.6588 86.3283 83.0893 86.4481 83.4652 86.6707C83.8411 86.8934 84.1519 87.2105 84.3661 87.5928C84.5803 87.9751 84.6916 88.4057 84.6853 88.8425C84.6685 90.2099 83.5429 91.5899 81.3421 92.9468C76.9006 95.6899 71.7997 97.3198 66.5917 97.6622C65.8987 97.7084 65.3716 98.307 65.4178 99.0023ZM41.5744 187.72C41.4967 187.72 41.4169 187.711 41.3371 187.697L33.9367 186.279C33.1093 186.113 31.7464 185.838 30.9568 184.716C30.7292 184.392 30.5838 184.049 30.4928 183.702C29.5643 183.541 28.6769 183.188 27.8866 182.66C26.8345 181.958 26.0008 180.979 25.4779 179.828C25.3918 179.639 25.354 179.434 25.3666 179.228C25.3865 178.898 25.412 178.56 25.4379 178.218L25.4422 178.161C25.6606 175.21 25.8853 172.158 23.8441 170.114C23.6824 169.952 23.569 169.751 23.5123 169.528C23.0163 167.544 24.1094 165.642 26.2485 164.697C26.3438 163.673 26.488 162.593 26.8291 161.542C26.5438 161.282 26.3836 160.895 26.425 160.486C26.5162 159.577 26.606 158.669 26.6956 157.764L26.7547 157.167L26.7605 157.109C28.1191 143.425 29.4027 130.497 32.326 116.66L32.4625 116.045C34.09 108.708 35.6293 101.779 39.6151 95.0619C39.6319 95.0346 39.6487 95.0093 39.6655 94.9841L39.6885 94.9514C39.9296 94.6083 41.2615 92.7128 41.8579 92.0436C42.0817 91.7912 42.3844 91.6503 42.696 91.6248C42.6851 91.5959 42.6745 91.5668 42.6644 91.5374C42.2423 90.3086 42.6266 88.8656 43.643 87.8574C44.3549 87.1517 45.3125 86.677 46.5767 86.4039L46.6502 86.3871C46.7321 86.3703 46.8412 86.3472 46.9232 86.3241C46.9232 86.3223 46.9233 86.3207 46.9236 86.3191C46.9237 86.318 46.924 86.3168 46.9242 86.3157C46.9247 86.3131 46.9253 86.3105 46.9253 86.3073C46.9295 86.2737 46.9337 86.2422 46.94 86.2107L46.941 86.205C47.2477 84.5219 47.7596 81.7128 50.2055 80.9261C51.6629 80.4598 53.8531 80.9576 55.2286 83.1462C55.3772 83.3826 55.5092 83.6226 55.6287 83.8649C55.8772 83.3236 56.485 83.0187 57.0829 83.1714C57.757 83.3416 58.1665 84.0284 57.9943 84.7027C57.8044 85.457 57.5004 85.9614 56.7132 86.7324C56.7787 86.9122 56.8459 87.0882 56.917 87.2609C57.2132 87.973 57.862 89.2038 58.8826 89.4348C59.5609 89.5882 59.9872 90.2624 59.836 90.9408C59.6828 91.6193 59.0086 92.0457 58.3303 91.8944C56.7511 91.5395 55.4219 90.2372 54.5882 88.2292C54.3824 87.7335 54.2122 87.2357 54.0506 86.7526L54.0427 86.7294C53.7642 85.9104 53.5007 85.1355 53.093 84.4884C52.6205 83.7364 51.6986 83.0958 50.9741 83.3268C50.0543 83.623 49.691 85.1752 49.4263 86.6203C49.3717 87.0677 49.2101 87.4983 48.958 87.8721C48.9391 87.8994 48.9182 87.9267 48.8972 87.954C48.3822 88.5947 47.6607 88.7491 47.1798 88.852L47.1752 88.853L47.108 88.8677C46.3415 89.0337 45.7745 89.2941 45.4196 89.6449C45.1067 89.9557 44.9471 90.4178 45.05 90.7182C45.1466 90.9997 45.4658 91.3021 45.764 91.5584C48.4688 93.9276 51.7595 95.5135 55.2874 96.1478C55.972 96.2717 56.4277 96.927 56.3038 97.6118C56.1904 98.2209 55.6591 98.6494 55.0627 98.6494C54.9892 98.6494 54.9137 98.6431 54.8381 98.6284C50.8607 97.9121 47.15 96.1247 44.1092 93.4613C44.064 93.4224 44.0184 93.3826 43.9727 93.3418C43.9196 93.477 43.842 93.6051 43.7395 93.7197C43.3069 94.2049 42.1876 95.776 41.7571 96.3893C37.9939 102.747 36.5008 109.471 34.9216 116.591L34.7872 117.194C31.892 130.898 30.6151 143.772 29.2631 157.404L29.2621 157.415C29.1907 158.129 29.1193 158.845 29.0479 159.564C29.6758 159.652 30.2974 159.717 30.9421 159.782L30.9759 159.785C31.5428 159.843 32.1205 159.902 32.7116 159.982L33.6658 151.752L33.673 151.691C35.4012 136.896 37.1881 121.597 40.6651 106.837C40.8247 106.161 41.503 105.738 42.1813 105.9C42.8575 106.06 43.2775 106.738 43.1179 107.417C39.6735 122.04 37.895 137.27 36.1748 151.999L36.169 152.048L36.1081 152.573L33.6238 173.998L33.6225 174.009C33.3163 176.65 33 179.379 32.8804 182.059C32.8657 182.393 32.8384 183.019 33.0169 183.271C33.2269 183.569 33.9745 183.721 34.4197 183.809L41.8075 185.222C42.49 185.353 42.9394 186.014 42.8071 186.697C42.6958 187.3 42.1687 187.72 41.5744 187.72ZM25.9168 168.637C25.8789 167.678 26.9553 167.134 27.375 166.959C28.8241 167.375 30.3114 167.632 31.814 167.724L31.1206 173.704L31.1119 173.779C30.8356 176.168 30.5509 178.628 30.408 181.095C30.0126 180.974 29.6351 180.795 29.2873 180.564C28.7098 180.177 28.2352 179.658 27.9055 179.049C27.9148 178.901 27.9259 178.753 27.937 178.604C27.9434 178.518 27.9498 178.432 27.9559 178.346L27.9562 178.342C28.1829 175.268 28.4632 171.468 25.9168 168.637ZM32.4212 162.487L32.1047 165.216C30.9827 165.156 29.8685 164.991 28.777 164.724C28.8663 163.828 29.0005 162.941 29.2887 162.138C29.7635 162.196 30.2284 162.244 30.6859 162.29L30.7828 162.3L30.7831 162.3L30.7837 162.3C31.3407 162.358 31.8808 162.414 32.4212 162.487ZM45.6274 188.308C51.5746 189.312 57.6478 189.814 63.9247 189.814C71.5297 189.814 79.4326 189.074 87.7531 187.597C88.8821 188.466 90.2107 188.925 91.6741 188.925C91.8316 188.925 91.9933 188.921 92.155 188.909C94.3816 188.762 96.3172 187.552 97.6143 185.623C97.7242 185.619 97.8355 185.6 97.9468 185.569C98.7301 185.325 99.6289 185.212 100.578 185.094C102.76 184.823 105.232 184.514 106.973 182.425C107.05 182.332 107.113 182.229 107.162 182.118C107.411 181.536 107.519 180.893 107.47 180.261C107.466 180.207 107.458 180.154 107.447 180.102C106.821 177.098 104.98 171.949 103.2 166.97L103.199 166.968C101.958 163.502 100.788 160.227 100.255 158.278C100.219 158.146 100.163 158.025 100.092 157.916C99.8847 142.729 99.3279 128.114 95.7544 112.707C95.5969 112.029 94.9207 111.607 94.2424 111.764C93.5641 111.922 93.142 112.598 93.2995 113.277C97.287 130.473 97.4596 146.788 97.6423 164.06L97.6423 164.065L97.6465 164.384L81.7474 164.124C79.3849 145.661 78.5701 126.881 79.324 108.286C79.3534 107.591 78.8116 107.003 78.1165 106.975C77.4214 106.95 76.8334 107.488 76.8061 108.183C76.0312 127.282 76.9006 146.577 79.3891 165.529C79.4536 166.016 79.791 166.409 80.2358 166.559C80.0582 167.849 80.012 169.156 80.0989 170.458C80.0989 170.694 80.1388 170.925 80.2207 171.145C80.3152 171.397 80.4559 171.624 80.6407 171.817C80.6582 171.836 80.6764 171.854 80.695 171.871C79.9338 172.447 79.3034 173.183 79.0258 174.069C78.7864 174.836 78.7129 176.029 79.7209 177.352C80.6533 178.579 81.9406 179.316 83.0767 179.965C83.3014 180.093 83.524 180.221 83.7466 180.354C84.0574 180.537 84.3971 181.775 84.5458 182.317L84.5488 182.328C84.6517 182.706 84.7504 183.063 84.8659 183.382C85.1324 184.114 85.4487 184.78 85.8099 185.376C71.5036 187.775 58.4782 187.921 46.0453 185.823C45.3586 185.705 44.7097 186.17 44.5942 186.856C44.4787 187.541 44.9407 188.192 45.6274 188.308ZM84.5905 172.295C84.465 172.656 84.178 172.955 83.7865 173.08C82.6189 173.458 81.6277 174.191 81.4303 174.823C81.3925 174.943 81.2938 175.26 81.7243 175.825C82.3477 176.644 83.3088 177.194 84.3246 177.775L84.3262 177.776L84.4981 177.875C84.6779 177.978 84.8571 178.081 85.0339 178.186C86.2185 178.888 86.6391 180.422 86.9769 181.654L86.9785 181.66C87.0667 181.986 87.1528 182.294 87.2326 182.517C87.913 184.384 89.2864 186.567 91.987 186.392C93.7615 186.275 95.9035 184.941 96.607 181.549C97.1461 178.941 96.6585 176.134 96.1865 173.417L96.1865 173.417L96.1849 173.407L96.1601 173.264C96.1117 172.985 96.0636 172.707 96.0169 172.429C96.0076 172.373 96.002 172.318 96.0001 172.263L84.5905 172.295ZM98.1872 171.367C98.3466 171.54 98.4592 171.761 98.5012 172.011L98.5021 172.016C98.5564 172.335 98.6107 172.655 98.6671 172.977L98.669 172.987C99.1808 175.935 99.7101 178.984 99.0745 182.061C99.024 182.305 98.9663 182.544 98.9015 182.778C99.3571 182.705 99.8136 182.648 100.263 182.593C102.153 182.357 103.797 182.152 104.902 180.961C104.944 180.82 104.963 180.671 104.959 180.524C104.349 177.676 102.482 172.456 100.832 167.838L100.824 167.816L100.769 167.662L100.769 167.662L100.768 167.661L100.768 167.66C100.559 167.076 100.353 166.498 100.151 165.931C100.1 166.167 99.9815 166.385 99.8074 166.558C99.5743 166.793 99.253 166.926 98.9212 166.926H98.9002L98.477 166.919L98.581 169.58C98.5918 169.908 98.6162 170.713 98.1872 171.367ZM95.9537 166.877L82.7672 166.66C82.6095 167.694 82.5496 168.741 82.5874 169.786L96.0652 169.748L96.065 169.719C96.0648 169.704 96.0643 169.689 96.0631 169.673L95.9537 166.877Z" fill="#2B2B2B"/>
</g>
<path d="M74.2757 60.9424C75.731 59.2284 75.2795 56.2605 73.3811 55.0612C72.7007 54.6285 71.8397 54.3597 71.468 53.6455C71.048 52.8579 71.4281 51.9148 71.6486 51.0536C71.6486 51.0263 71.6633 50.9969 71.6717 50.9696C72.3017 48.3735 69.3344 46.4474 67.1735 48.0185C64.475 49.9803 61.409 51.3792 58.1582 52.1332C56.4782 52.5197 54.4139 52.5953 53.3765 51.2216C52.7633 50.4067 52.6163 49.1758 51.0665 49.2914C50.615 49.3292 50.1803 49.4867 49.8065 49.745C47.0324 51.6165 43.8593 52.8075 40.5392 53.2254C39.611 53.341 38.6492 53.3935 37.7525 53.1267C35.1779 52.3601 34.0082 49.0813 34.7852 46.5104C35.5622 43.9395 37.7567 42.0386 40.0751 40.6775C41.5115 39.8374 43.1117 39.0644 43.9769 37.6382C44.4851 36.7981 44.6846 35.7983 45.1949 34.9602C45.7052 34.1221 46.5032 33.4899 47.3159 32.9186C51.6944 29.8877 56.9297 28.346 62.2511 28.5161C65.4011 28.6253 69.1034 29.8919 69.7838 32.9627L74.6138 34.998C78.3308 35.5693 82.1108 36.8212 84.7421 39.5097C87.3734 42.1982 88.5221 46.5902 86.6321 49.8438C86.3843 50.2638 86.0777 50.7091 86.0903 51.2048C86.1071 51.835 86.6342 52.3307 87.071 52.797C87.8354 53.6245 88.4171 54.6033 88.7762 55.6703C89.1353 56.7373 89.2655 57.8674 89.1584 58.989C89.0597 59.9636 88.7384 60.9718 88.0076 61.6166C87.2768 62.2614 86.0315 62.3938 85.3406 61.7006L74.8616 63.3074L74.2757 60.9424Z" fill="#2B2B2B"/>
<path d="M40.161 53.3346C38.8065 56.8192 37.9917 59.9657 37.7859 61.8707C37.2672 66.6681 38.2353 71.999 41.904 75.4163C43.8591 77.2353 46.2804 78.1301 48.8697 78.5859C51.5703 79.0627 54.4683 79.4974 57.0891 78.4262C56.9505 80.6128 56.9295 82.1734 57.0303 84.362L71.8353 82.7195C71.5959 79.844 72.1293 77.3781 73.3809 74.7778C73.6644 74.1897 74.2734 74.196 74.8761 74.0049C75.4116 73.8368 75.9366 73.6436 76.4553 73.4251C77.5074 72.9883 78.5007 72.4232 79.4163 71.7448C81.2265 70.3774 82.6377 68.4577 83.1669 66.2312C83.6478 64.2127 83.3097 61.8098 81.0669 60.6735C79.4856 59.8753 78.0681 60.1589 75.6594 62.2761L74.2944 60.9487C75.7497 59.2347 75.2982 56.2668 73.3998 55.0675C72.7194 54.6348 71.8584 54.366 71.4867 53.6518C71.0667 52.8642 71.4468 51.9211 71.6673 51.0599C71.6673 51.0326 71.682 51.0032 71.6904 50.9759C72.3204 48.3798 69.3531 46.4537 67.1922 48.0248C64.4937 49.9866 61.4277 51.3855 58.1769 52.1395C56.4969 52.526 54.4326 52.6016 53.3952 51.2279C52.782 50.413 52.635 49.1821 51.0852 49.2976C50.6337 49.3355 50.199 49.493 49.8252 49.7513C47.0448 51.6228 43.8633 52.8116 40.539 53.2254" fill="white"/>
<path d="M86.5522 63.4292C85.7647 63.4292 85.0003 63.1498 84.4417 62.5911C83.9503 62.0975 83.9524 61.2994 84.4438 60.8079C84.9373 60.3164 85.7353 60.3185 86.2267 60.81C86.3842 60.9675 86.8777 60.9276 87.1675 60.6714C87.556 60.329 87.8143 59.6863 87.8983 58.8608C87.9886 57.9156 87.8815 56.9767 87.5749 56.0714C87.2704 55.1662 86.7874 54.3533 86.1385 53.6518L86.0314 53.5383C85.5337 53.0132 84.8512 52.2949 84.8239 51.2384C84.8029 50.4297 85.183 49.7975 85.4602 49.3354L85.54 49.2031C87.2116 46.3234 85.9117 42.5111 83.8348 40.3918C81.7705 38.283 78.6016 36.8883 74.4163 36.2435C73.7275 36.1385 73.2571 35.4936 73.3621 34.8068C73.4671 34.12 74.1118 33.6474 74.7985 33.7524C79.5361 34.4812 83.1817 36.1217 85.6366 38.6275C87.1255 40.1482 88.1818 42.131 88.6102 44.2104C89.0743 46.4599 88.7572 48.6843 87.7156 50.478L87.6211 50.6356C87.5245 50.7952 87.3649 51.0598 87.346 51.1691C87.3901 51.3098 87.6841 51.6186 87.8605 51.8055L87.9844 51.9357C88.8811 52.9061 89.5447 54.0235 89.9647 55.267C90.3847 56.5104 90.5317 57.8022 90.4078 59.1086C90.2566 60.5957 89.7148 61.7867 88.837 62.5617C88.1797 63.1393 87.3544 63.4292 86.5522 63.4292Z" fill="#2B2B2B"/>
<path d="M74.2756 62.2027C73.9879 62.2027 73.6981 62.104 73.4608 61.9024C72.9295 61.4508 72.8665 60.6568 73.3159 60.1254C73.7674 59.594 73.9627 58.798 73.8409 57.9956C73.7191 57.1953 73.2949 56.4959 72.709 56.1262C72.5641 56.0338 72.394 55.9435 72.2134 55.8469C71.5855 55.5129 70.8022 55.0949 70.3507 54.2275C69.7627 53.1247 70.0882 51.9632 70.3276 51.1125C70.357 51.0075 70.3864 50.9025 70.4137 50.7996C70.4263 50.7324 70.4431 50.6715 70.4599 50.621C70.6657 49.6633 70.0084 49.136 69.7984 48.9953C69.3385 48.6866 68.6035 48.5374 67.9168 49.0352C65.065 51.1083 61.8793 52.5618 58.4458 53.3579C55.6423 54.0027 53.5423 53.5259 52.3747 51.9779C52.1668 51.7028 52.0135 51.4213 51.8791 51.1735C51.5221 50.5181 51.5095 50.5181 51.163 50.5454C50.9425 50.5643 50.7199 50.6441 50.5288 50.7765C47.5909 52.7572 44.1973 54.0321 40.7008 54.4711C39.7138 54.595 38.5504 54.6728 37.3975 54.3304C36.0346 53.925 34.8775 52.9462 34.1383 51.5767C33.2563 49.9384 33.0484 47.9073 33.5818 46.1409C34.342 43.6267 36.3118 41.4212 39.4408 39.5854C39.634 39.472 39.8272 39.3628 40.0225 39.2515C41.2048 38.5773 42.3199 37.9408 42.9037 36.9788C43.099 36.6575 43.2502 36.2626 43.4119 35.8446C43.6072 35.3384 43.8088 34.8154 44.1238 34.2987C44.758 33.2548 45.6883 32.5196 46.5955 31.8811C51.1714 28.7137 56.7427 27.0733 62.2951 27.2497C65.7916 27.3715 70.1722 28.867 71.0185 32.6835C71.1697 33.364 70.7413 34.0361 70.0609 34.1874C69.3826 34.3365 68.7085 33.9101 68.5573 33.2296C68.0575 30.9737 65.0104 29.8668 62.2111 29.7702C57.1984 29.6064 52.1626 31.0935 48.0361 33.95C47.3578 34.4268 46.669 34.9624 46.2742 35.6115C46.0768 35.9349 45.9235 36.3319 45.7618 36.752C45.5686 37.254 45.3691 37.7728 45.0583 38.2853C44.1364 39.806 42.6139 40.6756 41.2699 41.4401C41.083 41.5472 40.8982 41.6523 40.7134 41.7594C38.1514 43.2633 36.5638 44.9835 35.9926 46.8697C35.6545 47.9913 35.7931 49.3356 36.3559 50.3795C36.652 50.9277 37.1959 51.6397 38.1136 51.9128C38.8213 52.1228 39.6592 52.0598 40.3858 51.9695C43.4917 51.5788 46.5073 50.4467 49.105 48.695C49.6447 48.3211 50.2915 48.0879 50.9635 48.0312C52.9564 47.88 53.6956 49.239 54.0925 49.9678C54.1954 50.1569 54.292 50.3354 54.3865 50.4593C55.1089 51.4171 57.0703 51.0873 57.8788 50.9004C60.9805 50.1821 63.8596 48.8672 66.4363 46.9936C67.8664 45.9539 69.7375 45.9161 71.2033 46.897C72.6439 47.8611 73.3096 49.575 72.9001 51.2596C72.8938 51.2848 72.8875 51.3079 72.8791 51.3331C72.8791 51.3352 72.8791 51.3373 72.877 51.3373C72.8749 51.3436 72.8728 51.352 72.8728 51.3583C72.8371 51.499 72.7972 51.6418 72.7573 51.7868C72.6271 52.2489 72.4675 52.8244 72.5851 53.0449C72.6817 53.2319 73.0492 53.4272 73.4041 53.6162C73.6183 53.7297 73.8388 53.8473 74.0635 53.9901C75.2731 54.7547 76.1026 56.0737 76.3378 57.607C76.573 59.1445 76.174 60.6547 75.2437 61.7491C74.9875 62.0515 74.6326 62.2027 74.2756 62.2027ZM72.9085 51.0558C72.9085 51.0579 72.9085 51.0579 72.9085 51.0558C72.9085 51.0579 72.9085 51.0579 72.9085 51.0558ZM72.9085 51.0537V51.0558V51.0537Z" fill="#2B2B2B"/>
<path d="M46.3814 59.1278C47.1932 59.1278 47.8514 58.3285 47.8514 57.3425C47.8514 56.3565 47.1932 55.5571 46.3814 55.5571C45.5695 55.5571 44.9114 56.3565 44.9114 57.3425C44.9114 58.3285 45.5695 59.1278 46.3814 59.1278Z" fill="#2B2B2B"/>
<path d="M53.5213 59.6215C54.3331 59.6215 54.9913 58.8222 54.9913 57.8361C54.9913 56.8501 54.3331 56.0508 53.5213 56.0508C52.7094 56.0508 52.0513 56.8501 52.0513 57.8361C52.0513 58.8222 52.7094 59.6215 53.5213 59.6215Z" fill="#2B2B2B"/>
<path d="M71.8249 82.7134C71.1781 82.7134 70.6258 82.2177 70.5712 81.5582C70.3045 78.395 70.9198 76.9478 72.226 74.2256C72.7048 73.2321 73.6099 73.0137 74.1517 72.8835C74.2693 72.8541 74.3806 72.8288 74.4772 72.7973C74.977 72.6398 75.4705 72.4592 75.9472 72.2575C76.9111 71.8585 77.8162 71.3439 78.6478 70.7263C80.3236 69.4598 81.4912 67.7563 81.9238 65.9332C82.1464 65.0153 82.4488 62.7847 80.4811 61.7912C79.6222 61.3564 78.7801 61.1862 76.4722 63.2152C75.9493 63.6752 75.1534 63.6227 74.6935 63.0997C74.2336 62.5767 74.2861 61.7807 74.809 61.3207C78.1228 58.4074 80.038 58.7435 81.6151 59.5395C84.0595 60.7746 85.1158 63.4484 84.3724 66.5192C83.8054 68.9053 82.3081 71.117 80.1577 72.7406C79.1539 73.4863 78.0661 74.1038 76.9195 74.5785C76.3756 74.8074 75.8065 75.0175 75.2332 75.196C75.0589 75.2506 74.8909 75.2926 74.7439 75.3284C74.6515 75.3515 74.5318 75.3788 74.4541 75.404C73.2466 77.9245 72.8728 78.8717 73.0828 81.3418C73.1416 82.035 72.6271 82.6441 71.9341 82.7029C71.8963 82.7113 71.8606 82.7134 71.8249 82.7134Z" fill="#2B2B2B"/>
<path d="M57.0306 84.572C56.3607 84.572 55.8042 84.0448 55.7727 83.3684C55.7055 81.8897 55.6908 81.1462 55.7328 80.1317C53.2086 80.619 50.6382 80.1716 48.6558 79.825C45.4533 79.26 42.9648 78.1195 41.0475 76.3362C37.5237 73.0533 35.8794 67.7308 36.5346 61.7299C36.7803 59.5056 37.6959 56.1953 38.9874 52.8746C39.2394 52.2255 39.9702 51.9042 40.6191 52.1562C41.268 52.4083 41.5893 53.1392 41.3373 53.7882C39.9051 57.4724 39.2121 60.4487 39.0399 62.0051C38.4708 67.2036 39.8274 71.7552 42.7653 74.49C44.3361 75.9518 46.3458 76.8571 49.0905 77.3402C51.8961 77.8296 54.4014 78.1594 56.6148 77.2541C57.0159 77.0903 57.4737 77.1449 57.8265 77.3969C58.1793 77.6511 58.3767 78.067 58.3494 78.4996C58.215 80.6127 58.1919 81.079 58.2927 83.2466C58.3242 83.9418 57.7866 84.5321 57.0915 84.5636C57.0684 84.572 57.0495 84.572 57.0306 84.572Z" fill="#2B2B2B"/>
<defs>
<clipPath id="clip0_2677_1182">
<rect width="126" height="126.025" fill="white" transform="translate(0.510986 79.6909)"/>
</clipPath>
</defs>
</svg>
