<svg width="127" height="294" viewBox="0 0 127 294" fill="none" xmlns="http://www.w3.org/2000/svg">
<path fill-rule="evenodd" clip-rule="evenodd" d="M43.1304 266.874C44.3505 265.997 46.1229 264.188 46.9209 262.158L59.2962 261.565C59.1534 263.099 58.9917 264.63 58.8111 266.156C58.5276 268.564 57.9879 270.96 56.9379 273.145C55.0542 277.071 49.821 278.678 46.4904 279.281C43.3656 279.847 40.5558 280.306 37.6704 279.702C35.4864 279.244 34.6233 277.229 34.5393 275.496C34.3497 271.563 37.6434 269.858 40.5386 268.359C41.4919 267.866 42.4021 267.394 43.1304 266.874ZM74.0424 268.449C71.7219 269.101 69.1326 269.124 67.0053 267.992L66.2094 267.49C66.2157 268.085 66.2199 268.68 66.2199 269.277C66.2199 269.491 66.226 269.706 66.2322 269.924C66.2754 271.452 66.3235 273.152 64.3299 275.912C64.2098 276.078 64.0552 276.279 63.8773 276.51C62.9883 277.665 61.5204 279.571 60.9027 281.607C60.5604 282.747 60.6717 283.975 61.2135 285.033C61.7532 286.091 62.6835 286.899 63.807 287.286C66.7344 288.308 70.0314 288.083 72.9315 286.93C73.7841 286.571 74.5947 286.118 75.3465 285.58C81.5856 281.328 81.7998 274.144 81.7599 271.29C81.7284 269.08 81.6906 266.873 81.6486 264.672L80.5524 265.361C78.4713 266.575 76.3629 267.797 74.0424 268.449Z" fill="#2B2B2B"/>
<path fill-rule="evenodd" clip-rule="evenodd" d="M47.0372 231.627C46.8551 226.687 46.6663 221.566 46.5662 217.244L61.7786 216.695C61.3817 222.203 60.8756 232.846 60.6446 238.369L60.275 238.648C58.658 239.91 56.5559 240.421 54.5063 240.455C52.1892 240.494 51.3361 240.307 49.7835 239.967C49.3858 239.88 48.9422 239.783 48.4163 239.677L47.3075 239.197C47.2288 236.823 47.1339 234.251 47.0372 231.627ZM64.9039 227.544C64.8042 225.278 64.7063 223.053 64.6157 220.951L81.0734 220.356C81.0188 226.274 81.0587 232.762 81.1427 238.632L80.2124 239.473C79.4984 240.543 78.5723 241.452 77.4887 242.142C76.4072 242.834 75.1913 243.29 73.9229 243.483C72.6545 243.677 71.3588 243.603 70.1198 243.269C68.8808 242.934 67.7258 242.344 66.7262 241.536L65.4767 240.89C65.3076 236.718 65.1022 232.051 64.9039 227.544Z" fill="white"/>
<path fill-rule="evenodd" clip-rule="evenodd" d="M91.6637 173.843L84.4733 133.309L41.0264 133.599C36.2342 160.123 33.542 186.987 32.9771 213.936C32.9624 214.562 32.9771 215.256 33.3971 215.717C33.7142 216.064 34.1993 216.196 34.6571 216.308C41.5703 217.98 48.7355 218.331 55.7789 217.338L56.4908 220.154C69.5633 222.583 83.0432 221.563 95.6033 217.195C95.6033 217.195 94.1837 188.043 91.6637 173.843ZM59.0738 261.664C54.3467 263.757 51.4004 263.49 46.8938 262.186L46.9043 262.158C47.1374 261.584 47.276 260.974 47.3138 260.354C47.6477 253.397 47.5343 246.282 47.2991 239.197L48.4079 239.677L48.4193 239.679L48.4194 239.679C50.4274 240.082 52.4522 240.489 54.4979 240.455C56.5475 240.421 58.6496 239.91 60.2666 238.648L60.6362 238.369L60.5912 239.443C60.2817 246.846 59.9726 254.237 59.2796 261.565L59.0738 261.664ZM67.0055 267.992C69.1328 269.124 71.7221 269.1 74.0426 268.449C76.3631 267.797 78.4715 266.575 80.5526 265.361L81.6488 264.671C81.5887 261.483 81.5211 258.3 81.4534 255.118C81.3366 249.62 81.2198 244.127 81.1427 238.621L80.2124 239.462C79.5005 240.531 78.5723 241.439 77.4887 242.131C76.4051 242.821 75.1913 243.279 73.9229 243.473C72.6545 243.666 71.3588 243.595 70.1198 243.258C68.8808 242.924 67.7237 242.333 66.7262 241.525L65.4767 240.88C65.8358 249.752 66.1277 258.619 66.2033 267.487L67.0055 267.992Z" fill="#F15F30"/>
<path fill-rule="evenodd" clip-rule="evenodd" d="M65.9488 222.571C67.4483 222.658 68.9492 222.701 70.4495 222.701C73.5758 222.701 76.7003 222.513 79.8037 222.138C79.7657 227.516 79.802 232.904 79.8756 238.255C79.5954 238.334 79.3409 238.509 79.1666 238.771C78.5471 239.7 77.7554 240.476 76.8146 241.076C75.8738 241.675 74.8364 242.066 73.7339 242.234C72.6314 242.403 71.5268 242.34 70.4495 242.049C69.3722 241.757 68.3873 241.254 67.5179 240.552C67.2815 240.361 66.9972 240.27 66.7155 240.272C66.5526 236.274 66.3771 232.299 66.2033 228.363C66.1173 226.433 66.033 224.501 65.9488 222.571ZM63.4181 222.383C63.1919 222.363 62.9658 222.341 62.7397 222.319C62.3481 227.857 62.1114 233.5 61.8821 238.967L61.8752 239.132L61.8751 239.135L61.8751 239.135C61.5013 248.072 61.1149 257.312 60.0545 266.302C59.7143 269.198 59.0633 271.614 58.0658 273.69C55.8839 278.239 50.0123 279.921 46.7069 280.52C44.4725 280.922 42.4796 281.242 40.5287 281.242C39.485 281.242 38.4539 281.149 37.4039 280.93C35.5118 280.533 33.4349 278.912 33.2711 275.551C33.0422 270.809 37.0343 268.741 39.9512 267.231L39.9547 267.229L39.955 267.229L39.9551 267.229L39.9553 267.229C40.8714 266.755 41.735 266.307 42.3893 265.839C43.7522 264.861 45.9572 262.489 46.0622 260.285C46.519 250.785 46.1289 240.884 45.7517 231.309L45.7493 231.248L45.7432 231.092C45.5874 227.13 45.4266 223.039 45.3328 219.094C41.6478 218.93 37.9801 218.408 34.3568 217.53L34.3517 217.529C33.8639 217.409 33.0569 217.21 32.4668 216.567C31.6772 215.7 31.7003 214.533 31.7129 213.904C32.2778 186.971 34.9931 159.875 39.7811 133.368C39.905 132.683 40.5602 132.226 41.2448 132.35C41.9294 132.475 42.3851 133.131 42.2612 133.816C37.4963 160.193 34.7957 187.154 34.2308 213.955C34.2182 214.605 34.2728 214.807 34.3211 214.859C34.398 214.938 34.7849 215.035 34.9332 215.072L34.949 215.076C41.7177 216.714 48.6473 217.055 55.546 216.09C56.5561 202.339 56.8505 188.425 56.4194 174.668C56.3648 172.851 56.2724 171.364 55.6508 170.096C55.1258 169.023 53.9876 168.022 52.8305 168.18C52.1396 168.275 51.5054 167.791 51.4109 167.101C51.3164 166.411 51.7994 165.774 52.4882 165.68C54.9347 165.345 57.0158 167.158 57.9125 168.983C58.8239 170.842 58.8869 172.92 58.9373 174.59C59.4014 189.381 59.0318 204.354 57.839 219.114C70.0148 221.185 82.5749 220.22 94.295 216.308C94.0241 211.179 92.6444 186.588 90.4226 174.064L83.2322 133.53C83.1104 132.845 83.5682 132.189 84.2528 132.067C84.9374 131.943 85.5926 132.403 85.7144 133.089L92.9048 173.623C95.4101 187.738 96.8486 216.842 96.8612 217.135C96.8885 217.694 96.5441 218.205 96.017 218.388C91.5557 219.94 86.9706 221.076 82.3264 221.791C82.2408 232.876 82.4763 244.024 82.7043 254.817L82.7093 255.05C82.8227 260.361 82.9382 265.852 83.018 271.28C83.0852 276.068 81.9323 282.617 76.0649 286.623C75.2417 287.21 74.3513 287.709 73.4189 288.102C73.4154 288.104 73.4119 288.105 73.4085 288.106L73.4025 288.109L73.3985 288.111L73.3958 288.112C71.5457 288.84 69.6347 289.21 67.7699 289.21C66.26 289.21 64.7795 288.968 63.3872 288.482C61.955 287.988 60.779 286.968 60.086 285.614C59.393 284.257 59.2523 282.708 59.6912 281.25C60.3779 278.989 61.9403 276.96 62.8748 275.746C63.0449 275.528 63.1919 275.336 63.3053 275.179C65.063 272.762 65.0189 271.397 64.9706 269.95L64.9664 269.81C64.9611 269.635 64.9559 269.463 64.9559 269.292C64.8867 255.723 64.2777 241.909 63.6886 228.546L63.6854 228.472C63.595 226.444 63.5065 224.414 63.4181 222.383ZM55.3483 218.665C52.865 218.989 50.3753 219.151 47.8892 219.151L47.8555 219.151C47.949 223.091 48.1111 227.186 48.2693 231.147C48.3645 233.553 48.4604 235.978 48.5436 238.414C48.5836 238.418 48.6238 238.424 48.6641 238.432L48.6767 238.434L48.6949 238.438C50.6937 238.838 52.5822 239.217 54.4853 239.185C55.8766 239.162 57.8485 238.886 59.4122 237.713C59.629 232.551 59.8629 227.25 60.2337 222.028C58.9052 221.852 57.5801 221.641 56.2598 221.395C55.6235 221.278 55.1804 220.695 55.235 220.049C55.2736 219.588 55.3114 219.127 55.3483 218.665ZM48.6264 240.999C48.8191 247.489 48.8883 254.024 48.5822 260.407C48.5675 260.711 48.5297 261.011 48.4718 261.308C51.9325 262.202 54.4157 262.252 58.101 260.711C58.7015 254.059 59.0089 247.308 59.287 240.701C57.6058 241.473 55.8524 241.687 54.5273 241.709C54.4412 241.711 54.353 241.711 54.2669 241.711C52.3348 241.711 50.453 241.362 48.6264 240.999ZM57.8286 263.52C57.7423 264.35 57.6507 265.179 57.5534 266.005C57.2447 268.617 56.6714 270.773 55.7957 272.594C55.2098 273.816 53.1056 276.794 46.2596 278.035C43.0025 278.623 40.4972 279 37.9226 278.462C36.062 278.07 35.8205 276.041 35.7911 275.429C35.6504 272.522 37.8071 271.183 41.1104 269.473L41.1687 269.443L41.1691 269.443C42.1469 268.934 43.0707 268.454 43.8572 267.892C44.8836 267.156 46.5273 265.609 47.5822 263.684C49.4055 264.166 51.0394 264.455 52.6898 264.455C54.3197 264.455 55.967 264.174 57.8286 263.52ZM80.1908 255.075C80.0977 250.698 80.0033 246.263 79.9294 241.795C79.3976 242.324 78.8088 242.795 78.167 243.204C76.928 243.993 75.5651 244.506 74.114 244.729C73.5827 244.807 73.0514 244.849 72.5222 244.849C71.6045 244.849 70.691 244.727 69.7922 244.485C68.7334 244.199 67.7413 243.757 66.8309 243.167C67.1369 251.024 67.3814 258.95 67.4576 266.816C67.505 266.834 67.5518 266.855 67.5977 266.88C69.2399 267.755 71.4092 267.881 73.7024 267.235C75.8948 266.619 77.9402 265.427 79.9184 264.272C80.0635 264.187 80.2187 264.135 80.3756 264.113C80.324 261.415 80.2675 258.727 80.2119 256.08L80.2119 256.079L80.2119 256.079L80.2119 256.078L80.1914 255.103L80.1908 255.075ZM67.4902 269.858C67.4873 269.766 67.4844 269.674 67.4819 269.583C68.5354 269.969 69.6925 270.163 70.9073 270.163C72.0266 270.163 73.1984 269.997 74.3807 269.664C76.5734 269.049 78.6016 267.948 80.4269 266.894C80.4529 268.369 80.4769 269.843 80.498 271.313C80.582 277.383 78.6101 281.835 74.6348 284.543L74.6215 284.553L74.6117 284.56C73.9418 285.042 73.2152 285.448 72.4529 285.77C69.7187 286.853 66.7178 286.975 64.2146 286.1C63.3935 285.818 62.7257 285.237 62.3309 284.466C61.9361 283.692 61.8542 282.811 62.1041 281.982C62.6564 280.167 64.0424 278.365 64.8719 277.288C65.0588 277.046 65.2205 276.836 65.3444 276.663C67.6085 273.551 67.5432 271.512 67.4907 269.874L67.4906 269.871L67.4903 269.86L67.4902 269.858Z" fill="#2B2B2B"/>
<g clip-path="url(#clip0_2677_2860)">
<path d="M71.7787 79.6909C71.9677 81.8123 72.835 86.6055 76.0627 85.8871L76.4092 86.4123C76.2517 89.7036 74.5843 92.0246 71.9719 94.4295C69.3175 96.8345 65.9323 98.2796 62.3602 98.5338C59.2102 98.7648 55.8607 98.0108 53.5045 95.8977C51.1483 93.7847 49.9093 90.8567 51.4696 88.3467H51.6964C52.4062 88.3677 53.0593 87.996 53.6599 87.6179C54.4243 87.1348 56.0014 85.1541 56.4739 84.5849C57.1039 83.7678 57.3601 80.6697 57.6835 79.6909H71.7787V79.6909Z" fill="white"/>
<path d="M76.5079 84.7131C79.723 85.5722 82.3606 87.8826 84.5257 90.4031C87.262 93.6021 89.4313 97.2463 90.9433 101.176C94.2886 109.878 94.2907 119.687 98.3248 128.093C96.1345 128.742 93.9064 129.246 91.651 129.605L93.4696 138.232C98.1211 152.636 101.357 163.685 105.608 177.587C105.818 178.297 106.658 180.807 106.269 181.435C106.009 181.855 105.572 182.124 105.146 182.366C102.815 183.691 100.269 183.802 97.6402 184.332L87.8815 186.275C73.9144 188.78 59.8969 189.394 45.9046 187.033L43.2649 186.724L34.2349 184.995C33.4201 184.84 32.5255 184.632 32.0488 183.945C31.654 183.382 31.6561 182.641 31.6855 181.954C31.8052 179.224 32.1202 176.514 32.4352 173.802L34.9195 152.378C36.001 143.227 37.051 134.037 38.521 124.917L38.4202 124.875C35.9779 124.035 33.5734 123.102 31.1668 122.168C30.835 122.073 30.5368 121.888 30.3016 121.636C29.8291 121.027 30.2344 120.153 30.6397 119.496C34.216 113.678 37.2736 107.557 39.781 101.203C41.6962 96.3515 43.6954 90.8925 48.37 88.58L53.6683 86.3619C53.2189 87.1286 53.788 89.3151 54.3949 89.9642C55.0018 90.6132 55.8649 90.9535 56.7049 91.2244C59.5231 92.1024 62.5849 92.3355 65.4451 91.6445C68.3053 90.9535 70.9786 89.2752 72.6586 86.845C73.0786 86.2485 73.4293 85.6016 73.9501 85.0954C74.4709 84.5892 75.2101 84.2321 75.9178 84.3896L76.5079 84.7131Z" fill="#FEC426"/>
<path fill-rule="evenodd" clip-rule="evenodd" d="M30.0222 160.673L33.1491 123.439L38.7078 123.319C37.1223 132.966 35.9925 142.697 34.8648 152.412L32.3805 173.836L32.3794 173.846C32.0648 176.554 31.7504 179.261 31.6308 181.988L31.4733 182.532C29.8584 182.242 28.0818 181.763 27.225 180.364C26.4756 179.146 26.6783 177.697 26.8835 176.231C27.0612 174.961 27.2407 173.678 26.805 172.521C26.578 171.916 26.1877 171.337 25.803 170.766C25.0778 169.69 24.3725 168.643 24.8184 167.51C25.1705 166.622 26.0612 166.208 26.9622 165.788C27.5283 165.525 28.0985 165.259 28.5417 164.874C29.6904 163.874 29.8941 162.193 30.0222 160.673ZM85.2795 171.507C83.6037 157.875 82.5768 144.197 82.2009 130.475L92.5665 130.16L97.6695 176.701C97.9824 179.562 98.226 182.714 96.5607 185.063C95.9223 185.962 95.0445 186.667 94.0281 187.098C93.0117 187.529 91.8966 187.667 90.8046 187.499C89.7147 187.331 88.692 186.861 87.852 186.144C87.012 185.428 86.3904 184.491 86.0523 183.439C85.9307 183.056 85.8453 182.658 85.7603 182.261C85.5826 181.433 85.4064 180.612 84.9036 179.944C84.3753 179.244 83.5672 178.828 82.7652 178.414C81.8457 177.941 80.9344 177.471 80.4621 176.583C79.8111 175.353 80.3445 173.737 81.3987 172.832C82.4529 171.927 83.8914 171.593 85.2795 171.507Z" fill="white"/>
<path fill-rule="evenodd" clip-rule="evenodd" d="M72.0328 84.8329C72.0926 84.9395 72.153 85.0471 72.2153 85.1548C72.0935 85.3288 71.9807 85.5006 71.8732 85.6646C71.7682 85.8242 71.6632 85.9839 71.5477 86.1498C70.1071 88.2334 67.7488 89.7982 65.0755 90.4409C62.5681 91.0438 59.7793 90.9072 57.0177 90.0461C56.3373 89.8255 55.6507 89.563 55.2411 89.124C55.001 88.8671 54.8748 88.4914 54.9369 88.2601C55.4242 87.9143 55.8047 87.5703 56.0852 87.3167L56.0959 87.3071L56.1694 87.2399C57.2047 86.3052 57.5176 85.7528 57.7927 85.1773C57.8242 85.1101 57.8557 85.045 57.8914 84.9757C58.2148 84.3602 57.9796 83.5978 57.3643 83.2722C56.749 82.9488 55.9867 83.184 55.6612 83.7994C55.6087 83.9003 55.5625 83.9948 55.5163 84.0914C55.3717 84.3957 55.253 84.6432 54.6752 85.1894C54.3085 84.766 53.6894 84.6254 53.1642 84.8854L49.7643 86.5657C49.351 86.7704 49.099 87.1715 49.066 87.6004C48.6967 87.3161 48.1835 87.2483 47.7378 87.4689C42.8049 89.9075 40.6524 95.377 38.754 100.204L38.5356 100.76C36.0597 107.028 33.0147 113.117 29.4867 118.855C28.5963 120.303 28.5081 121.504 29.2263 122.43C29.2494 122.46 29.2725 122.487 29.2977 122.514C29.6736 122.92 30.1503 123.218 30.6774 123.382L30.6816 123.384C31.0686 123.534 31.4578 123.686 31.8488 123.837L28.7643 160.566C28.6467 161.954 28.4787 163.254 27.7122 163.922C27.4035 164.191 26.931 164.411 26.4291 164.645L26.4233 164.647C25.4247 165.113 24.1811 165.693 23.6445 167.047C22.9578 168.797 23.9553 170.278 24.7575 171.469L24.7575 171.469L24.7885 171.515C25.132 172.027 25.4556 172.51 25.6248 172.964C25.9482 173.821 25.797 174.907 25.6353 176.056C25.4148 177.631 25.1649 179.419 26.1498 181.021C27.1124 182.593 28.8054 183.248 30.4735 183.617C30.5625 183.993 30.7126 184.365 30.9588 184.716C31.7484 185.838 33.1113 186.113 33.9387 186.279L41.6184 187.749C41.6982 187.764 41.778 187.772 41.8557 187.772C42.4479 187.772 42.9771 187.352 43.0905 186.751C43.2228 186.069 42.7734 185.407 42.0909 185.277L34.4217 183.809C33.9765 183.721 33.2289 183.569 33.0189 183.271C32.8404 183.019 32.8677 182.393 32.8824 182.059C33.002 179.379 33.3183 176.65 33.6245 174.009L33.6258 173.998L36.1101 152.573L36.171 152.048L36.1768 151.999C37.897 137.27 39.6756 122.04 43.1199 107.417C43.2795 106.738 42.8595 106.06 42.1833 105.9C41.5029 105.738 40.8267 106.161 40.6671 106.837C39.3921 112.25 38.3443 117.735 37.4434 123.241C35.4874 122.54 33.5319 121.781 31.6289 121.042L31.6288 121.042L31.5951 121.029L31.5447 121.01C31.509 120.998 31.4733 120.985 31.4355 120.975C31.3809 120.96 31.3305 120.937 31.2843 120.91C31.3116 120.792 31.3935 120.563 31.6329 120.174C35.2386 114.31 38.3508 108.089 40.8792 101.685L41.0997 101.126C42.9162 96.5091 44.7957 91.7348 48.855 89.7289C49.2684 89.5243 49.5203 89.1232 49.5534 88.6943C49.6986 88.8059 49.8661 88.8841 50.043 88.9244C49.671 89.224 49.4873 89.7235 49.6131 90.2163C50.1885 92.4826 52.2066 93.8185 54.0525 94.8918C55.8564 95.942 57.9312 96.1478 59.7351 96.2592C60.5982 96.3138 61.5474 96.3558 62.547 96.3558C64.6239 96.3558 66.9234 96.173 69.1305 95.5198C72.942 94.3961 75.378 90.8464 76.491 88.8321C76.827 88.223 76.6065 87.4563 75.9975 87.1202C75.3885 86.7842 74.622 87.0047 74.286 87.6138C73.3599 89.29 71.367 92.2327 68.4186 93.1022C65.5374 93.9529 62.4882 93.9046 59.8884 93.745C58.3743 93.6504 56.646 93.4866 55.3188 92.7137C53.916 91.8987 52.3914 90.9157 52.0554 89.5966C51.9399 89.1374 51.5863 88.8021 51.1601 88.6881L52.4202 88.0653C52.3187 89.0227 52.6619 90.055 53.4016 90.8463C54.2038 91.7033 55.2432 92.1213 56.2575 92.4489C58.1392 93.0371 60.0376 93.3311 61.8814 93.3311C63.1791 93.3311 64.4476 93.1862 65.6677 92.8921C68.9353 92.1045 71.8333 90.17 73.6162 87.5928C73.7421 87.4143 73.8618 87.2317 73.9814 87.049L73.9816 87.0488L73.9885 87.0382C74.2421 86.6514 74.4817 86.286 74.7544 86.0217C75.0222 85.76 75.3599 85.6009 75.5624 85.6401C75.7117 85.7858 75.8993 85.8965 76.1151 85.9545C78.6036 86.6203 81.0207 88.3552 83.5008 91.2538C86.151 94.3519 88.2363 97.8533 89.7 101.659C91.1763 105.497 92.0079 109.672 92.8122 113.714L92.8131 113.718C93.7179 118.26 94.6503 122.94 96.5061 127.305C90.1347 129 83.6016 129.463 77.0517 128.681L77.5935 109.693C77.6124 108.998 77.0643 108.416 76.3692 108.397C75.6741 108.372 75.0924 108.927 75.0735 109.622L74.5002 129.748C74.4813 130.389 74.9475 130.941 75.5838 131.032C77.381 131.285 79.1771 131.448 80.9699 131.522C81.3568 144.471 82.3335 157.542 83.8767 170.408C82.5348 170.654 81.4281 171.145 80.5776 171.876C78.9963 173.233 78.4692 175.51 79.3491 177.176C80.0056 178.409 81.1629 179.006 82.1847 179.533L82.1883 179.534C82.8855 179.894 83.5428 180.234 83.8977 180.702C84.2316 181.147 84.3702 181.786 84.5277 182.525C84.6159 182.945 84.7104 183.378 84.8511 183.823C85.0312 184.384 85.278 184.918 85.5845 185.413C71.3668 187.777 58.4128 187.91 46.0452 185.823C45.3585 185.705 44.7096 186.17 44.5941 186.856C44.4786 187.541 44.9406 188.192 45.6273 188.308C51.5745 189.312 57.6477 189.814 63.9246 189.814C71.5128 189.814 79.3974 189.078 87.6975 187.607C88.5711 188.195 89.5643 188.583 90.6114 188.745C90.9789 188.801 91.3464 188.829 91.7139 188.829C92.6757 188.829 93.6291 188.638 94.5237 188.259C95.7564 187.736 96.8169 186.884 97.5918 185.792C97.6332 185.733 97.6735 185.675 97.7128 185.615C97.7297 185.614 97.7467 185.612 97.7636 185.609C97.7755 185.607 97.7874 185.606 97.7994 185.604L97.8186 185.6C98.4141 185.479 99.0212 185.379 99.6119 185.282L99.6126 185.282L99.6835 185.271L99.6875 185.27C101.681 184.942 103.742 184.604 105.696 183.494C106.24 183.185 106.855 182.8 107.271 182.128C107.815 181.246 107.535 179.831 106.828 177.528C106.794 177.423 106.767 177.333 106.742 177.249C105.58 173.449 104.488 169.847 103.434 166.363L103.346 166.071L103.345 166.07C100.609 157.037 98.0134 148.47 94.7281 138.282L93.8756 130.507C95.4644 130.188 97.0454 129.798 98.6166 129.336C98.9694 129.231 99.2592 128.977 99.4104 128.639C99.5616 128.301 99.5553 127.917 99.3957 127.583C97.2605 123.133 96.3045 118.336 95.2926 113.259L95.2926 113.259L95.286 113.226C94.4607 109.082 93.606 104.797 92.0541 100.758C90.4875 96.6834 88.2552 92.9342 85.4181 89.6176C82.5957 86.3178 79.7649 84.3224 76.7682 83.5201C76.7528 83.5159 76.7373 83.5121 76.7219 83.5085C76.5601 83.3508 76.3539 83.2347 76.1173 83.1819C75.4701 83.0382 74.779 83.1291 74.1321 83.426C73.9837 83.1619 73.816 82.8726 73.612 82.5707C73.2235 81.9952 72.4402 81.8419 71.8627 82.2305C71.2873 82.619 71.134 83.4025 71.5225 83.9801C71.7041 84.2497 71.8592 84.5249 72.0094 84.7914L72.0328 84.8329ZM98.867 182.848C99.0043 182.826 99.1406 182.804 99.2761 182.782L99.2938 182.779C101.144 182.475 102.891 182.189 104.45 181.301L104.478 181.285L104.478 181.285C104.65 181.186 104.897 181.045 105.041 180.904C105.036 180.593 104.91 179.879 104.417 178.27L104.379 178.147C104.359 178.082 104.341 178.024 104.327 177.976C103.167 174.185 102.075 170.58 101.021 167.094L100.931 166.797L100.931 166.797C99.338 161.536 97.7927 156.433 96.131 151.077L98.9253 176.562L98.9257 176.566C99.115 178.297 99.3702 180.631 98.867 182.848ZM92.1629 138.011C92.1209 138.217 92.1299 138.436 92.1991 138.65L92.2503 138.809L96.42 176.837C96.7329 179.692 96.8988 182.412 95.5359 184.334C95.0319 185.044 94.3431 185.598 93.5409 185.939C92.7387 186.277 91.8609 186.386 90.9999 186.254C90.141 186.121 89.3346 185.752 88.6731 185.187C88.0116 184.619 87.5202 183.882 87.2556 183.057C87.1577 182.747 87.0846 182.409 87.0072 182.051L87.0072 182.051L86.9952 181.996L86.9946 181.993C86.8016 181.093 86.583 180.073 85.9116 179.184C85.2127 178.258 84.2259 177.748 83.3545 177.298L83.3454 177.293L83.3366 177.289C82.5465 176.881 81.8639 176.529 81.5793 175.993C81.2475 175.367 81.5352 174.378 82.2219 173.788C82.9107 173.195 83.967 172.851 85.3593 172.765C85.7058 172.744 86.0271 172.58 86.2497 172.313C86.4723 172.044 86.5731 171.698 86.5311 171.353C84.9138 158.2 83.8922 144.822 83.4933 131.569C86.1379 131.555 88.7724 131.348 91.3884 130.947L92.1629 138.011ZM33.675 151.691C34.6721 143.154 35.6888 134.45 37.0384 125.778C36.1217 125.454 35.2074 125.118 34.2992 124.776L31.2759 160.776C31.1205 162.624 30.8454 164.535 29.367 165.821C28.7895 166.323 28.1007 166.644 27.4917 166.928L27.4898 166.929C26.7724 167.262 26.1539 167.55 25.9881 167.972C25.7991 168.45 26.1876 169.081 26.847 170.059C27.2691 170.685 27.7038 171.332 27.9831 172.076C28.5296 173.529 28.3183 175.05 28.1317 176.391L28.1301 176.403L28.1301 176.403C27.9453 177.726 27.7857 178.869 28.296 179.7C28.7027 180.363 29.5125 180.749 30.4153 181.004C30.5598 178.568 30.8409 176.138 31.1139 173.779L31.1226 173.704L33.6678 151.752L33.675 151.691Z" fill="#2B2B2B"/>
</g>
<path d="M74.2757 60.9424C75.731 59.2284 75.2795 56.2605 73.3811 55.0612C72.7007 54.6285 71.8397 54.3597 71.468 53.6455C71.048 52.8579 71.4281 51.9148 71.6486 51.0536C71.6486 51.0263 71.6633 50.9969 71.6717 50.9696C72.3017 48.3735 69.3344 46.4474 67.1735 48.0185C64.475 49.9803 61.409 51.3792 58.1582 52.1332C56.4782 52.5197 54.4139 52.5953 53.3765 51.2216C52.7633 50.4067 52.6163 49.1758 51.0665 49.2914C50.615 49.3292 50.1803 49.4867 49.8065 49.745C47.0324 51.6165 43.8593 52.8075 40.5392 53.2254C39.611 53.341 38.6492 53.3935 37.7525 53.1267C35.1779 52.3601 34.0082 49.0813 34.7852 46.5104C35.5622 43.9395 37.7567 42.0386 40.0751 40.6775C41.5115 39.8374 43.1117 39.0644 43.9769 37.6382C44.4851 36.7981 44.6846 35.7983 45.1949 34.9602C45.7052 34.1221 46.5032 33.4899 47.3159 32.9186C51.6944 29.8877 56.9297 28.346 62.2511 28.5161C65.4011 28.6253 69.1034 29.8919 69.7838 32.9627L74.6138 34.998C78.3308 35.5693 82.1108 36.8212 84.7421 39.5097C87.3734 42.1982 88.5221 46.5902 86.6321 49.8438C86.3843 50.2638 86.0777 50.7091 86.0903 51.2048C86.1071 51.835 86.6342 52.3307 87.071 52.797C87.8354 53.6245 88.4171 54.6033 88.7762 55.6703C89.1353 56.7373 89.2655 57.8674 89.1584 58.989C89.0597 59.9636 88.7384 60.9718 88.0076 61.6166C87.2768 62.2614 86.0315 62.3938 85.3406 61.7006L74.8616 63.3074L74.2757 60.9424Z" fill="#2B2B2B"/>
<path d="M40.161 53.3346C38.8065 56.8192 37.9917 59.9657 37.7859 61.8707C37.2672 66.6681 38.2353 71.999 41.904 75.4163C43.8591 77.2353 46.2804 78.1301 48.8697 78.5859C51.5703 79.0627 54.4683 79.4974 57.0891 78.4262C56.9505 80.6128 56.9295 82.1734 57.0303 84.362L71.8353 82.7195C71.5959 79.844 72.1293 77.3781 73.3809 74.7778C73.6644 74.1897 74.2734 74.196 74.8761 74.0049C75.4116 73.8368 75.9366 73.6436 76.4553 73.4251C77.5074 72.9883 78.5007 72.4232 79.4163 71.7448C81.2265 70.3774 82.6377 68.4577 83.1669 66.2312C83.6478 64.2127 83.3097 61.8098 81.0669 60.6735C79.4856 59.8753 78.0681 60.1589 75.6594 62.2761L74.2944 60.9487C75.7497 59.2347 75.2982 56.2668 73.3998 55.0675C72.7194 54.6348 71.8584 54.366 71.4867 53.6518C71.0667 52.8642 71.4468 51.9211 71.6673 51.0599C71.6673 51.0326 71.682 51.0032 71.6904 50.9759C72.3204 48.3798 69.3531 46.4537 67.1922 48.0248C64.4937 49.9866 61.4277 51.3855 58.1769 52.1395C56.4969 52.526 54.4326 52.6016 53.3952 51.2279C52.782 50.413 52.635 49.1821 51.0852 49.2976C50.6337 49.3355 50.199 49.493 49.8252 49.7513C47.0448 51.6228 43.8633 52.8116 40.539 53.2254" fill="white"/>
<path d="M86.5522 63.4292C85.7647 63.4292 85.0003 63.1498 84.4417 62.5911C83.9503 62.0975 83.9524 61.2994 84.4438 60.8079C84.9373 60.3164 85.7353 60.3185 86.2267 60.81C86.3842 60.9675 86.8777 60.9276 87.1675 60.6714C87.556 60.329 87.8143 59.6863 87.8983 58.8608C87.9886 57.9156 87.8815 56.9767 87.5749 56.0714C87.2704 55.1662 86.7874 54.3533 86.1385 53.6518L86.0314 53.5383C85.5337 53.0132 84.8512 52.2949 84.8239 51.2384C84.8029 50.4297 85.183 49.7975 85.4602 49.3354L85.54 49.2031C87.2116 46.3234 85.9117 42.5111 83.8348 40.3918C81.7705 38.283 78.6016 36.8883 74.4163 36.2435C73.7275 36.1385 73.2571 35.4936 73.3621 34.8068C73.4671 34.12 74.1118 33.6474 74.7985 33.7524C79.5361 34.4812 83.1817 36.1217 85.6366 38.6275C87.1255 40.1482 88.1818 42.131 88.6102 44.2104C89.0743 46.4599 88.7572 48.6843 87.7156 50.478L87.6211 50.6356C87.5245 50.7952 87.3649 51.0598 87.346 51.1691C87.3901 51.3098 87.6841 51.6186 87.8605 51.8055L87.9844 51.9357C88.8811 52.9061 89.5447 54.0235 89.9647 55.267C90.3847 56.5104 90.5317 57.8022 90.4078 59.1086C90.2566 60.5957 89.7148 61.7867 88.837 62.5617C88.1797 63.1393 87.3544 63.4292 86.5522 63.4292Z" fill="#2B2B2B"/>
<path d="M74.2756 62.2027C73.9879 62.2027 73.6981 62.104 73.4608 61.9024C72.9295 61.4508 72.8665 60.6568 73.3159 60.1254C73.7674 59.594 73.9627 58.798 73.8409 57.9956C73.7191 57.1953 73.2949 56.4959 72.709 56.1262C72.5641 56.0338 72.394 55.9435 72.2134 55.8469C71.5855 55.5129 70.8022 55.0949 70.3507 54.2275C69.7627 53.1247 70.0882 51.9632 70.3276 51.1125C70.357 51.0075 70.3864 50.9025 70.4137 50.7996C70.4263 50.7324 70.4431 50.6715 70.4599 50.621C70.6657 49.6633 70.0084 49.136 69.7984 48.9953C69.3385 48.6866 68.6035 48.5374 67.9168 49.0352C65.065 51.1083 61.8793 52.5618 58.4458 53.3579C55.6423 54.0027 53.5423 53.5259 52.3747 51.9779C52.1668 51.7028 52.0135 51.4213 51.8791 51.1735C51.5221 50.5181 51.5095 50.5181 51.163 50.5454C50.9425 50.5643 50.7199 50.6441 50.5288 50.7765C47.5909 52.7572 44.1973 54.0321 40.7008 54.4711C39.7138 54.595 38.5504 54.6728 37.3975 54.3304C36.0346 53.925 34.8775 52.9462 34.1383 51.5767C33.2563 49.9384 33.0484 47.9073 33.5818 46.1409C34.342 43.6267 36.3118 41.4212 39.4408 39.5854C39.634 39.472 39.8272 39.3628 40.0225 39.2515C41.2048 38.5773 42.3199 37.9408 42.9037 36.9788C43.099 36.6575 43.2502 36.2626 43.4119 35.8446C43.6072 35.3384 43.8088 34.8154 44.1238 34.2987C44.758 33.2548 45.6883 32.5196 46.5955 31.8811C51.1714 28.7137 56.7427 27.0733 62.2951 27.2497C65.7916 27.3715 70.1722 28.867 71.0185 32.6835C71.1697 33.364 70.7413 34.0361 70.0609 34.1874C69.3826 34.3365 68.7085 33.9101 68.5573 33.2296C68.0575 30.9737 65.0104 29.8668 62.2111 29.7702C57.1984 29.6064 52.1626 31.0935 48.0361 33.95C47.3578 34.4268 46.669 34.9624 46.2742 35.6115C46.0768 35.9349 45.9235 36.3319 45.7618 36.752C45.5686 37.254 45.3691 37.7728 45.0583 38.2853C44.1364 39.806 42.6139 40.6756 41.2699 41.4401C41.083 41.5472 40.8982 41.6523 40.7134 41.7594C38.1514 43.2633 36.5638 44.9835 35.9926 46.8697C35.6545 47.9913 35.7931 49.3356 36.3559 50.3795C36.652 50.9277 37.1959 51.6397 38.1136 51.9128C38.8213 52.1228 39.6592 52.0598 40.3858 51.9695C43.4917 51.5788 46.5073 50.4467 49.105 48.695C49.6447 48.3211 50.2915 48.0879 50.9635 48.0312C52.9564 47.88 53.6956 49.239 54.0925 49.9678C54.1954 50.1569 54.292 50.3354 54.3865 50.4593C55.1089 51.4171 57.0703 51.0873 57.8788 50.9004C60.9805 50.1821 63.8596 48.8672 66.4363 46.9936C67.8664 45.9539 69.7375 45.9161 71.2033 46.897C72.6439 47.8611 73.3096 49.575 72.9001 51.2596C72.8938 51.2848 72.8875 51.3079 72.8791 51.3331C72.8791 51.3352 72.8791 51.3373 72.877 51.3373C72.8749 51.3436 72.8728 51.352 72.8728 51.3583C72.8371 51.499 72.7972 51.6418 72.7573 51.7868C72.6271 52.2489 72.4675 52.8244 72.5851 53.0449C72.6817 53.2319 73.0492 53.4272 73.4041 53.6162C73.6183 53.7297 73.8388 53.8473 74.0635 53.9901C75.2731 54.7547 76.1026 56.0737 76.3378 57.607C76.573 59.1445 76.174 60.6547 75.2437 61.7491C74.9875 62.0515 74.6326 62.2027 74.2756 62.2027ZM72.9085 51.0558C72.9085 51.0579 72.9085 51.0579 72.9085 51.0558C72.9085 51.0579 72.9085 51.0579 72.9085 51.0558ZM72.9085 51.0537V51.0558V51.0537Z" fill="#2B2B2B"/>
<path d="M46.3814 59.1278C47.1932 59.1278 47.8514 58.3285 47.8514 57.3425C47.8514 56.3565 47.1932 55.5571 46.3814 55.5571C45.5695 55.5571 44.9114 56.3565 44.9114 57.3425C44.9114 58.3285 45.5695 59.1278 46.3814 59.1278Z" fill="#2B2B2B"/>
<path d="M53.5213 59.6215C54.3331 59.6215 54.9913 58.8222 54.9913 57.8361C54.9913 56.8501 54.3331 56.0508 53.5213 56.0508C52.7094 56.0508 52.0513 56.8501 52.0513 57.8361C52.0513 58.8222 52.7094 59.6215 53.5213 59.6215Z" fill="#2B2B2B"/>
<path d="M71.8249 82.7134C71.1781 82.7134 70.6258 82.2177 70.5712 81.5582C70.3045 78.395 70.9198 76.9478 72.226 74.2256C72.7048 73.2321 73.6099 73.0137 74.1517 72.8835C74.2693 72.8541 74.3806 72.8288 74.4772 72.7973C74.977 72.6398 75.4705 72.4592 75.9472 72.2575C76.9111 71.8585 77.8162 71.3439 78.6478 70.7263C80.3236 69.4598 81.4912 67.7563 81.9238 65.9332C82.1464 65.0153 82.4488 62.7847 80.4811 61.7912C79.6222 61.3564 78.7801 61.1862 76.4722 63.2152C75.9493 63.6752 75.1534 63.6227 74.6935 63.0997C74.2336 62.5767 74.2861 61.7807 74.809 61.3207C78.1228 58.4074 80.038 58.7435 81.6151 59.5395C84.0595 60.7746 85.1158 63.4484 84.3724 66.5192C83.8054 68.9053 82.3081 71.117 80.1577 72.7406C79.1539 73.4863 78.0661 74.1038 76.9195 74.5785C76.3756 74.8074 75.8065 75.0175 75.2332 75.196C75.0589 75.2506 74.8909 75.2926 74.7439 75.3284C74.6515 75.3515 74.5318 75.3788 74.4541 75.404C73.2466 77.9245 72.8728 78.8717 73.0828 81.3418C73.1416 82.035 72.6271 82.6441 71.9341 82.7029C71.8963 82.7113 71.8606 82.7134 71.8249 82.7134Z" fill="#2B2B2B"/>
<path d="M57.0306 84.572C56.3607 84.572 55.8042 84.0448 55.7727 83.3684C55.7055 81.8897 55.6908 81.1462 55.7328 80.1317C53.2086 80.619 50.6382 80.1716 48.6558 79.825C45.4533 79.26 42.9648 78.1195 41.0475 76.3362C37.5237 73.0533 35.8794 67.7308 36.5346 61.7299C36.7803 59.5056 37.6959 56.1953 38.9874 52.8746C39.2394 52.2255 39.9702 51.9042 40.6191 52.1562C41.268 52.4083 41.5893 53.1392 41.3373 53.7882C39.9051 57.4724 39.2121 60.4487 39.0399 62.0051C38.4708 67.2036 39.8274 71.7552 42.7653 74.49C44.3361 75.9518 46.3458 76.8571 49.0905 77.3402C51.8961 77.8296 54.4014 78.1594 56.6148 77.2541C57.0159 77.0903 57.4737 77.1449 57.8265 77.3969C58.1793 77.6511 58.3767 78.067 58.3494 78.4996C58.215 80.6127 58.1919 81.079 58.2927 83.2466C58.3242 83.9418 57.7866 84.5321 57.0915 84.5636C57.0684 84.572 57.0495 84.572 57.0306 84.572Z" fill="#2B2B2B"/>
<defs>
<clipPath id="clip0_2677_2860">
<rect width="126" height="126.025" fill="white" transform="translate(0.510986 79.6909)"/>
</clipPath>
</defs>
</svg>
