<svg width="135" height="136" viewBox="0 0 135 136" fill="none" xmlns="http://www.w3.org/2000/svg">
<g clip-path="url(#clip0_3718_3563)">
<path d="M109.742 73.457H69.1195V118.859H52.3926V125.43H126.469V118.859H109.742V73.457Z" fill="#626262"/>
<path d="M109.742 73.457H69.1195V118.859H52.3926V125.43H126.469V118.859H109.742V73.457Z" fill="url(#paint0_linear_3718_3563)" fill-opacity="0.4"/>
<path d="M14.9238 31.1347L18.9955 62.8595L98.441 80.9969L131.475 43.5191L116.715 41.4833L133.278 5.96394L82.692 20.4696L80.2261 2.18408L51.8184 31.1347L36.809 12.4727L27.6478 37.4116L14.9238 31.1347Z" fill="#FF553E"/>
<path d="M22.5578 40.9744L29.6831 69.476L86.3728 75.4233L128.93 31.8131L102.268 36.9027L107.068 25.2065L75.4894 40.9744L75.4894 18.0713L48.5147 40.9744L39.6395 29.6875L32.7369 43.5192L22.5578 40.9744Z" stroke="#0F52FF" stroke-width="2"/>
<path d="M33.7549 45.5544C33.7549 46.3976 33.0713 47.0812 32.228 47.0812C31.3848 47.0812 30.7012 46.3976 30.7012 45.5544C30.7012 44.7111 31.3848 44.0275 32.228 44.0275C33.0713 44.0275 33.7549 44.7111 33.7549 45.5544Z" fill="#0F52FF"/>
<path d="M66.3282 33.3394C66.3282 34.1826 65.6446 34.8662 64.8014 34.8662C63.9581 34.8662 63.2745 34.1826 63.2745 33.3394C63.2745 32.4961 63.9581 31.8125 64.8014 31.8125C65.6446 31.8125 66.3282 32.4961 66.3282 33.3394Z" fill="#0F52FF"/>
<path d="M63.2745 39.4469C63.2745 40.2901 62.5909 40.9737 61.7476 40.9737C60.9044 40.9737 60.2207 40.2901 60.2207 39.4469C60.2207 38.6036 60.9044 37.92 61.7476 37.92C62.5909 37.92 63.2745 38.6036 63.2745 39.4469Z" fill="#0F52FF"/>
<path d="M41.8983 45.5544C41.8983 46.3976 41.2146 47.0812 40.3714 47.0812C39.5281 47.0812 38.8445 46.3976 38.8445 45.5544C38.8445 44.7111 39.5281 44.0275 40.3714 44.0275C41.2146 44.0275 41.8983 44.7111 41.8983 45.5544Z" fill="#0F52FF"/>
<path d="M70.3999 43.5185C70.3999 44.3618 69.7163 45.0454 68.873 45.0454C68.0298 45.0454 67.3462 44.3618 67.3462 43.5185C67.3462 42.6753 68.0298 41.9917 68.873 41.9917C69.7163 41.9917 70.3999 42.6753 70.3999 43.5185Z" fill="#0F52FF"/>
<path d="M98.9016 33.3394C98.9016 34.1826 98.218 34.8662 97.3747 34.8662C96.5314 34.8662 95.8478 34.1826 95.8478 33.3394C95.8478 32.4961 96.5314 31.8125 97.3747 31.8125C98.218 31.8125 98.9016 32.4961 98.9016 33.3394Z" fill="#0F52FF"/>
<path d="M87.7045 39.4469C87.7045 40.2901 87.0209 40.9737 86.1776 40.9737C85.3343 40.9737 84.6507 40.2901 84.6507 39.4469C84.6507 38.6036 85.3343 37.92 86.1776 37.92C87.0209 37.92 87.7045 38.6036 87.7045 39.4469Z" fill="#0F52FF"/>
<path d="M82.6149 44.5365C82.6149 45.3797 81.9313 46.0633 81.088 46.0633C80.2448 46.0633 79.5612 45.3797 79.5612 44.5365C79.5612 43.6932 80.2448 43.0096 81.088 43.0096C81.9313 43.0096 82.6149 43.6932 82.6149 44.5365Z" fill="#0F52FF"/>
<path d="M90.7582 44.5365C90.7582 45.3797 90.0746 46.0633 89.2314 46.0633C88.3881 46.0633 87.7045 45.3797 87.7045 44.5365C87.7045 43.6932 88.3881 43.0096 89.2314 43.0096C90.0746 43.0096 90.7582 43.6932 90.7582 44.5365Z" fill="#0F52FF"/>
<path d="M112.134 39.4469C112.134 40.2901 111.451 40.9737 110.608 40.9737C109.764 40.9737 109.081 40.2901 109.081 39.4469C109.081 38.6036 109.764 37.92 110.608 37.92C111.451 37.92 112.134 38.6036 112.134 39.4469Z" fill="#0F52FF"/>
<path d="M103.991 43.5185C103.991 44.3618 103.308 45.0454 102.464 45.0454C101.621 45.0454 100.937 44.3618 100.937 43.5185C100.937 42.6753 101.621 41.9917 102.464 41.9917C103.308 41.9917 103.991 42.6753 103.991 43.5185Z" fill="#0F52FF"/>
<rect x="16.4512" y="48.0996" width="80.4154" height="59.0392" fill="#E9EAEC"/>
<mask id="mask0_3718_3563" style="mask-type:alpha" maskUnits="userSpaceOnUse" x="21" y="57" width="62" height="43">
<rect x="21.7256" y="57.3457" width="61.1792" height="41.8041" rx="9" fill="#82868F"/>
</mask>
<g mask="url(#mask0_3718_3563)">
<rect x="21.7256" y="57.3457" width="61.1792" height="41.8041" rx="9" fill="#383838"/>
<path d="M5.22697 70.2281L77.0197 121.408L75.8032 123.115L4.01045 71.9346L5.22697 70.2281Z" fill="black"/>
<path d="M1.5774 75.3475L73.3702 126.528L72.1536 128.234L0.36088 77.054L1.5774 75.3475Z" fill="black"/>
<path d="M12.5261 59.9893L84.3189 111.17L83.1023 112.876L11.3096 61.6957L12.5261 59.9893Z" fill="black"/>
<path d="M8.87654 65.1087L80.6693 116.289L79.4528 117.995L7.66002 66.8152L8.87654 65.1087Z" fill="black"/>
<path d="M19.8253 49.7505L91.618 100.931L90.4015 102.637L18.6087 51.4569L19.8253 49.7505Z" fill="black"/>
<path d="M16.1757 54.8699L87.9684 106.05L86.7519 107.757L14.9592 56.5763L16.1757 54.8699Z" fill="black"/>
<path d="M27.1244 39.5116L98.9171 90.6919L97.7006 92.3984L25.9079 41.2181L27.1244 39.5116Z" fill="black"/>
<path d="M23.4748 44.6311L95.2676 95.8113L94.0511 97.5178L22.2583 46.3375L23.4748 44.6311Z" fill="black"/>
<path d="M29.8691 34.0784L101.662 85.2586L100.445 86.9651L28.6526 35.7848L29.8691 34.0784Z" fill="black"/>
<path d="M32.6016 28.7715L104.394 79.9517L103.178 81.6582L31.385 30.478L32.6016 28.7715Z" fill="black"/>
</g>
<path d="M49.024 64.3857H37.6836C34.8833 64.3857 33.4832 64.3857 32.4136 64.9307C31.4728 65.4101 30.7079 66.175 30.2286 67.1158C29.6836 68.1853 29.6836 69.5855 29.6836 72.3857V78.6366" stroke="white" stroke-width="2"/>
<path d="M110.273 49.1172H92.7939V107.138H131.475V75.0296H122.93L110.273 49.1172Z" fill="#F4F5F6"/>
<rect x="13.3965" y="49.1172" width="78.3795" height="58.0212" stroke="#0F52FF" stroke-width="2"/>
<path d="M107.153 87.7979L98.9023 102.049M111.867 87.7979L103.617 102.049M116.582 87.7979L108.331 102.049M121.296 87.7979L113.046 102.049" stroke="#0F52FF" stroke-width="2"/>
<path d="M94.8301 49.1172H110.107L122.688 75.1001H130.457V106.121H118.651" stroke="#0F52FF" stroke-width="2"/>
<path d="M16.748 127.859L116.504 111.5V125.072L100.5 131.858H16.748V127.859Z" fill="#C2C5CB"/>
<path d="M32.4763 111.735H114.378L98.7277 127.865H16.7588L32.4763 111.735Z" fill="#F4F5F6"/>
<path d="M63.373 121.294H98.5639L100.637 119.502H65.1651L63.373 121.294Z" fill="#CDCFD5"/>
<path d="M62.6306 119.502H27.4395L25.3662 121.294H60.8385L62.6306 119.502Z" fill="#CDCFD5"/>
<path d="M44.2564 117.113H80.5523L82.3444 115.32H46.0485L44.2564 117.113Z" fill="#CDCFD5"/>
<path d="M43.514 115.32H31.6211L29.5479 117.113H41.7218L43.514 115.32Z" fill="#CDCFD5"/>
<path d="M102.746 117.113H83.0868L84.879 115.32H104.819L102.746 117.113Z" fill="#CDCFD5"/>
<path d="M39.387 123.684H70.1701L68.6942 125.476H37.9111L39.387 123.684Z" fill="#CDCFD5"/>
<path d="M30.1456 111.735H116.767V124.878L99.144 132.047H12.8213V127.865L30.1456 111.735Z" stroke="#0F52FF" stroke-width="2"/>
<path d="M81.175 26.0642L85.5604 26.087L85.7188 30.6893L81.336 30.1109L81.175 26.0642Z" fill="#0F52FF"/>
<path d="M16.7751 17.0597L20.1082 21.1519L16.7027 23.9551L13.6917 19.3346L16.7751 17.0597Z" fill="#FF553E"/>
<rect width="3.05303" height="6.27934" transform="matrix(0.248164 0.968718 -0.964049 0.265726 7.7334 42.9424)" fill="#FF553E"/>
<rect width="4.7051" height="5.60559" transform="matrix(0.579391 0.81505 -0.808244 0.588847 129.577 59.6387)" fill="#FF553E"/>
<ellipse cx="50.3911" cy="12.8634" rx="2.5989" ry="2.5047" transform="rotate(-116.54 50.3911 12.8634)" fill="#FF553E"/>
</g>
<defs>
<linearGradient id="paint0_linear_3718_3563" x1="111.441" y1="118.522" x2="89.4307" y2="125.43" gradientUnits="userSpaceOnUse">
<stop stop-color="#565F6F"/>
<stop offset="1" stop-color="#565F6F" stop-opacity="0"/>
</linearGradient>
<clipPath id="clip0_3718_3563">
<rect width="135" height="135" fill="white" transform="translate(0 0.422852)"/>
</clipPath>
</defs>
</svg>
