<svg width="72" height="73" viewBox="0 0 72 73" fill="none" xmlns="http://www.w3.org/2000/svg">
<path d="M15.3333 5.97207H56.6667C62.5945 5.97207 67.4 10.7778 67.4 16.706V56.4415C67.4 62.3697 62.5945 67.1754 56.6667 67.1754H15.3333C9.40551 67.1754 4.6 62.3697 4.6 56.4415V16.706C4.6 10.7778 9.40551 5.97207 15.3333 5.97207Z" fill="black" stroke="#2A2A2A" stroke-width="1.2"/>
<path fill-rule="evenodd" clip-rule="evenodd" d="M35.9781 56.5737L50.4215 52.5695L53.6347 16.5737H18.3647L21.5745 52.5752L35.9781 56.5737ZM24.928 23.9331H47.045L46.2479 32.8701L46.1401 34.0557L45.0362 46.4261L35.9999 48.9305V48.9313L35.9796 48.937L26.9349 46.4261L26.3163 39.4933H30.7487L31.0631 43.0148L35.9806 44.3426L35.9843 44.3411L40.9089 43.0119L41.4214 37.2854L26.1187 37.2852L25.7229 32.8698L41.8043 32.8701L42.2061 28.3486L25.3294 28.3486L24.928 23.9331Z" fill="white"/>
</svg>
