<svg width="33" height="33" viewBox="0 0 33 33" fill="none" xmlns="http://www.w3.org/2000/svg">
<path d="M27.6243 0.5H5.62427C2.86284 0.5 0.624268 2.73858 0.624268 5.5V27.5C0.624268 30.2614 2.86284 32.5 5.62427 32.5H27.6243C30.3857 32.5 32.6243 30.2614 32.6243 27.5V5.5C32.6243 2.73858 30.3857 0.5 27.6243 0.5Z" fill="#07377E"/>
<path d="M16.6243 8.5C12.2083 8.5 8.62427 12.084 8.62427 16.5C8.62427 20.916 12.2083 24.5 16.6243 24.5C21.0243 24.5 24.6243 20.916 24.6243 16.5C24.6243 12.084 21.0243 8.5 16.6243 8.5ZM21.9043 12.18C22.8643 13.348 23.4243 14.82 23.4563 16.436C23.2323 16.388 20.9763 15.94 18.7043 16.212C18.6563 16.1 18.6083 15.972 18.5603 15.86C18.4163 15.524 18.2723 15.188 18.1123 14.868C20.6083 13.86 21.7603 12.372 21.9043 12.18ZM16.6243 9.684C18.3523 9.684 19.9523 10.34 21.1523 11.396C21.0243 11.572 20.0003 12.948 17.5683 13.86C16.4483 11.796 15.2003 10.116 15.0243 9.86C15.5363 9.748 16.0643 9.684 16.6243 9.684ZM13.7123 10.324C13.8883 10.564 15.1043 12.26 16.2403 14.276C13.0403 15.124 10.2243 15.108 9.92027 15.108C10.3843 12.98 11.8083 11.22 13.7123 10.324ZM9.79227 16.516C9.79227 16.452 9.79227 16.372 9.79227 16.308C10.0803 16.324 13.4083 16.356 16.8163 15.332C17.0083 15.716 17.2003 16.1 17.3763 16.5C17.2963 16.532 17.2003 16.548 17.1043 16.58C13.5843 17.716 11.7123 20.82 11.5523 21.076C10.4483 19.86 9.79227 18.26 9.79227 16.516ZM16.6243 23.332C15.0403 23.332 13.5843 22.788 12.4323 21.892C12.5603 21.636 13.9363 18.964 17.7923 17.62C17.8083 17.604 17.8243 17.604 17.8403 17.604C18.8003 20.1 19.2003 22.18 19.2963 22.788C18.4803 23.14 17.5683 23.332 16.6243 23.332ZM20.4323 22.164C20.3683 21.748 20.0003 19.748 19.1043 17.3C21.2483 16.964 23.1203 17.524 23.3603 17.588C23.0563 19.492 21.9683 21.14 20.4323 22.164Z" fill="white"/>
</svg>
