<svg width="91" height="91" viewBox="0 0 91 91" fill="none" xmlns="http://www.w3.org/2000/svg">
<g id="Figma Logomark" clip-path="url(#clip0_1345_3504)">
<g id="Figma Logomark_2">
<path id="Element" d="M44.9501 45.5468C46.2923 39.6041 52.2514 35.8865 58.2602 37.2436C64.2689 38.6007 68.0519 44.5186 66.7097 50.4613C65.3675 56.4041 59.4083 60.1215 53.3996 58.7644C47.3908 57.4073 43.6079 51.4896 44.9501 45.5468Z" fill="#1ABCFE"/>
<path id="Element_2" d="M18.327 62.1527C19.6692 56.21 25.6284 52.4924 31.6371 53.8495L42.517 56.3068L40.0867 67.0672C38.7445 73.01 32.7854 76.7274 26.7766 75.3703C20.7678 74.0132 16.9848 68.0955 18.327 62.1527Z" fill="#0ACF83"/>
<path id="Element_3" d="M52.2408 13.2658L47.3803 34.7865L58.2601 37.2437C64.2689 38.6008 70.228 34.8834 71.5702 28.9407C72.9124 22.9979 69.1295 17.0801 63.1207 15.723L52.2408 13.2658Z" fill="#FF7262"/>
<path id="Element_4" d="M28.0482 19.111C26.706 25.0538 30.489 30.9715 36.4978 32.3286L47.3776 34.7859L52.2382 13.2652L41.3583 10.8079C35.3496 9.45078 29.3904 13.1682 28.0482 19.111Z" fill="#F24E1E"/>
<path id="Element_5" d="M23.1876 40.6316C21.8454 46.5745 25.6284 52.4922 31.6372 53.8493L42.517 56.3065L47.3776 34.7858L36.4977 32.3285C30.489 30.9714 24.5298 34.6889 23.1876 40.6316Z" fill="#A259FF"/>
</g>
</g>
<defs>
<clipPath id="clip0_1345_3504">
<rect width="75.2895" height="74.4622" fill="white" transform="translate(16.7019 0.998138) rotate(12.727)"/>
</clipPath>
</defs>
</svg>
