<svg width="72" height="73" viewBox="0 0 72 73" fill="none" xmlns="http://www.w3.org/2000/svg">
<path d="M15.3333 5.97207H56.6667C62.5945 5.97207 67.4 10.7778 67.4 16.706V56.4415C67.4 62.3697 62.5945 67.1754 56.6667 67.1754H15.3333C9.40551 67.1754 4.6 62.3697 4.6 56.4415V16.706C4.6 10.7778 9.40551 5.97207 15.3333 5.97207Z" fill="black" stroke="#2A2A2A" stroke-width="1.2"/>
<path fill-rule="evenodd" clip-rule="evenodd" d="M25.734 30.0498C23.7268 28.7419 22.3999 26.4775 22.3999 23.9032C22.3999 19.8544 25.6821 16.5723 29.7308 16.5723H42.2911C46.3399 16.5723 49.6221 19.8544 49.6221 23.9032C49.6221 26.4775 48.2952 28.7419 46.288 30.0498C48.2952 31.3576 49.6221 33.6221 49.6221 36.1963C49.6221 40.2451 46.3399 43.5273 42.2911 43.5273H42.1575C40.2436 43.5273 38.501 42.7939 37.1954 41.5927V48.4225C37.1954 52.5165 33.8414 55.8203 29.7641 55.8203C25.7236 55.8203 22.3999 52.5464 22.3999 48.4893C22.3999 45.9151 23.7267 43.6507 25.7338 42.3428C23.7267 41.035 22.3999 38.7706 22.3999 36.1963C22.3999 33.6221 23.7268 31.3576 25.734 30.0498ZM37.1954 36.1963C37.1954 38.9368 39.417 41.1584 42.1575 41.1584H42.2911C45.0316 41.1584 47.2532 38.9368 47.2532 36.1963C47.2532 33.4558 45.0316 31.2343 42.2911 31.2343H42.1575C39.417 31.2343 37.1954 33.4558 37.1954 36.1963ZM34.8265 31.2343H29.7308C26.9903 31.2343 24.7688 33.4558 24.7688 36.1963C24.7688 38.9313 26.9814 41.1494 29.7142 41.1584H29.7219H34.8265V31.2343ZM29.7308 43.5273C29.7253 43.5273 29.7197 43.5273 29.7142 43.5273C26.9814 43.5362 24.7688 45.7544 24.7688 48.4893C24.7688 51.2215 27.0153 53.4514 29.7641 53.4514C32.5498 53.4514 34.8265 51.1916 34.8265 48.4225V43.5273H29.7308ZM34.8265 28.8653H29.7308C26.9903 28.8653 24.7688 26.6437 24.7688 23.9032C24.7688 21.1627 26.9903 18.9411 29.7308 18.9411H34.8265V28.8653ZM42.2911 28.8653H37.1954V18.9411H42.2911C45.0316 18.9411 47.2532 21.1627 47.2532 23.9032C47.2532 26.6437 45.0316 28.8653 42.2911 28.8653Z" fill="white"/>
</svg>
