<svg width="161" height="61" viewBox="0 0 161 61" fill="none" xmlns="http://www.w3.org/2000/svg">
<rect y="0.0410156" width="160.981" height="60" rx="10" fill="#090909"/>
<g filter="url(#filter0_ii_1547_4802)">
<path d="M16.0671 15.2341C15.7193 15.6037 15.5137 16.1773 15.5137 16.9201V43.4593C15.5137 44.2033 15.7193 44.7757 16.0671 45.1453L16.1556 45.2317L30.9646 30.3649V30.1897V30.0145L16.1556 15.1465L16.0671 15.2341Z" fill="url(#paint0_linear_1547_4802)"/>
<path d="M35.8999 35.3222L30.9644 30.365V30.1898V30.0146L35.9011 25.0586L36.0123 25.1222L41.861 28.4582C43.5309 29.411 43.5309 30.9698 41.861 31.9238L36.0123 35.2598L35.8999 35.3222Z" fill="url(#paint1_linear_1547_4802)"/>
<g filter="url(#filter1_i_1547_4802)">
<path d="M36.0122 35.2583L30.9632 30.1895L16.0669 45.1451C16.6167 45.7307 17.5264 45.8027 18.5508 45.2195L36.0122 35.2583Z" fill="url(#paint2_linear_1547_4802)"/>
</g>
<path d="M36.0122 25.1211L18.5508 15.1611C17.5264 14.5767 16.6167 14.6499 16.0669 15.2355L30.9643 30.1911L36.0122 25.1211Z" fill="url(#paint3_linear_1547_4802)"/>
</g>
<path d="M80.6733 31.6419C78.018 31.6419 75.8538 33.6606 75.8538 36.4409C75.8538 39.2043 78.018 41.2399 80.6733 41.2399C83.3298 41.2399 85.494 39.2043 85.494 36.4409C85.4928 33.6606 83.3286 31.6419 80.6733 31.6419ZM80.6733 39.351C79.2181 39.351 77.9638 38.1515 77.9638 36.442C77.9638 34.7145 79.2192 33.5331 80.6733 33.5331C82.1286 33.5331 83.3828 34.7145 83.3828 36.442C83.3828 38.1504 82.1286 39.351 80.6733 39.351ZM70.1583 31.6419C67.503 31.6419 65.3387 33.6606 65.3387 36.4409C65.3387 39.2043 67.503 41.2399 70.1583 41.2399C72.8147 41.2399 74.9789 39.2043 74.9789 36.4409C74.9789 33.6606 72.8147 31.6419 70.1583 31.6419ZM70.1583 39.351C68.703 39.351 67.4488 38.1515 67.4488 36.442C67.4488 34.7145 68.7042 33.5331 70.1583 33.5331C71.6135 33.5331 72.8677 34.7145 72.8677 36.442C72.8689 38.1504 71.6135 39.351 70.1583 39.351ZM57.6517 33.1156V35.1512H62.5265C62.3809 36.2965 61.9993 37.1326 61.4168 37.7137C60.7078 38.4223 59.598 39.2043 57.6517 39.2043C54.6509 39.2043 52.305 36.7862 52.305 33.787C52.305 30.7877 54.6509 28.3696 57.6517 28.3696C59.2706 28.3696 60.4526 29.006 61.3253 29.8241L62.7625 28.3876C61.5432 27.2243 59.9254 26.334 57.6517 26.334C53.5412 26.334 50.0854 29.6785 50.0854 33.787C50.0854 37.8954 53.5412 41.2399 57.6517 41.2399C59.8701 41.2399 61.5443 40.5121 62.8528 39.149C64.1985 37.804 64.6173 35.9128 64.6173 34.3861C64.6173 33.9145 64.5812 33.4778 64.5078 33.1144L57.6517 33.1156ZM108.802 34.6964C108.403 33.6245 107.183 31.6419 104.692 31.6419C102.218 31.6419 100.162 33.5872 100.162 36.4409C100.162 39.131 102.2 41.2399 104.928 41.2399C107.128 41.2399 108.402 39.8949 108.93 39.1129L107.293 38.0218C106.748 38.8218 106.001 39.3488 104.928 39.3488C103.855 39.3488 103.091 38.8579 102.6 37.8943L109.02 35.2403L108.802 34.6964ZM102.254 36.2965C102.2 34.4414 103.692 33.497 104.765 33.497C105.602 33.497 106.311 33.9156 106.548 34.5148L102.254 36.2965ZM97.0353 40.9499H99.1441V26.844H97.0353V40.9499ZM93.5784 32.715H93.5061C93.0331 32.1508 92.1232 31.6419 90.9784 31.6419C88.5771 31.6419 86.3768 33.7508 86.3768 36.4601C86.3768 39.1502 88.5771 41.241 90.9784 41.241C92.1243 41.241 93.0331 40.7321 93.5061 40.151H93.5784V40.8416C93.5784 42.6775 92.5962 43.6592 91.0145 43.6592C89.723 43.6592 88.9226 42.7328 88.5952 41.9508L86.7584 42.7147C87.2856 43.9864 88.6855 45.5503 91.0145 45.5503C93.4881 45.5503 95.58 44.0959 95.58 40.5505V31.9341H93.5795L93.5784 32.715ZM91.1602 39.351C89.705 39.351 88.4868 38.1324 88.4868 36.4601C88.4868 34.7686 89.705 33.5331 91.1602 33.5331C92.5962 33.5331 93.724 34.7686 93.724 36.4601C93.724 38.1324 92.5962 39.351 91.1602 39.351ZM118.685 26.844H113.638V40.9499H115.743V35.6059H118.684C121.019 35.6059 123.315 33.9167 123.315 31.2255C123.315 28.5343 121.02 26.844 118.685 26.844ZM118.739 33.6425H115.743V28.8074H118.739C120.314 28.8074 121.208 30.1107 121.208 31.2255C121.208 32.3178 120.314 33.6425 118.739 33.6425ZM131.759 31.6171C130.233 31.6171 128.654 32.2885 128 33.7768L129.87 34.5565C130.269 33.7768 131.015 33.5218 131.795 33.5218C132.884 33.5218 133.992 34.1751 134.01 35.3362V35.4818C133.628 35.264 132.811 34.9379 131.813 34.9379C129.798 34.9379 127.745 36.0448 127.745 38.1132C127.745 40.001 129.398 41.2162 131.249 41.2162C132.665 41.2162 133.446 40.5809 133.936 39.8362H134.009V40.9251H136.043V35.5168C136.044 33.014 134.172 31.6171 131.759 31.6171ZM131.503 39.3476C130.815 39.3476 129.852 39.0023 129.852 38.1493C129.852 37.0604 131.051 36.6429 132.086 36.6429C133.011 36.6429 133.447 36.8426 134.01 37.1146C133.846 38.4223 132.72 39.3476 131.503 39.3476ZM143.451 31.9251L141.036 38.041H140.964L138.458 31.9251H136.189L139.947 40.4726L137.804 45.2276H140.001L145.794 31.9251H143.451ZM124.478 40.9499H126.583V26.844H124.478V40.9499Z" fill="white"/>
<path d="M57.3885 18.5004C57.3885 19.4288 57.1088 20.1678 56.5482 20.7196C55.912 21.3755 55.0818 21.7034 54.0622 21.7034C53.0854 21.7034 52.2541 21.371 51.5717 20.7063C50.8882 20.0404 50.5464 19.2161 50.5464 18.2323C50.5464 17.2473 50.8882 16.423 51.5717 15.7582C52.2541 15.0924 53.0854 14.76 54.0622 14.76C54.5472 14.76 55.0108 14.853 55.4507 15.0381C55.8917 15.2242 56.2448 15.4713 56.5087 15.7804L55.9143 16.3654C55.4665 15.8391 54.8495 15.5765 54.0611 15.5765C53.3482 15.5765 52.7323 15.8225 52.2124 16.3144C51.6924 16.8063 51.4329 17.4456 51.4329 18.2311C51.4329 19.0167 51.6924 19.656 52.2124 20.1479C52.7323 20.6398 53.3482 20.8858 54.0611 20.8858C54.8168 20.8858 55.4473 20.6387 55.9515 20.1435C56.2786 19.821 56.4681 19.3723 56.5188 18.7973H54.0611V17.9985H57.34C57.3738 18.1724 57.3885 18.3397 57.3885 18.5004Z" fill="white"/>
<path d="M62.5884 15.7239H59.5069V17.8312H62.2861V18.6301H59.5069V20.7374H62.5884V21.555H58.6372V14.9074H62.5884V15.7239Z" fill="white"/>
<path d="M66.2552 21.555H65.3856V15.7239H63.4952V14.9074H68.1457V15.7239H66.2552V21.555Z" fill="white"/>
<path d="M71.5103 21.555V14.9074H72.3799V21.555H71.5103Z" fill="white"/>
<path d="M76.2365 21.555H75.3669V15.7239H73.4765V14.9074H78.127V15.7239H76.2365V21.555Z" fill="white"/>
<path d="M86.9303 20.6964C86.2648 21.3678 85.438 21.7035 84.4488 21.7035C83.4596 21.7035 82.6328 21.3678 81.9685 20.6964C81.303 20.025 80.9714 19.2029 80.9714 18.2312C80.9714 17.2595 81.303 16.4374 81.9685 15.766C82.6328 15.0946 83.4596 14.7578 84.4488 14.7578C85.4324 14.7578 86.2581 15.0957 86.9258 15.7705C87.5935 16.4452 87.9274 17.2651 87.9274 18.2312C87.9274 19.2029 87.5947 20.025 86.9303 20.6964ZM82.6103 20.1391C83.1111 20.6376 83.7236 20.8858 84.4488 20.8858C85.1741 20.8858 85.7877 20.6365 86.2874 20.1391C86.7882 19.6405 87.0397 19.0045 87.0397 18.2312C87.0397 17.4579 86.7882 16.8219 86.2874 16.3233C85.7877 15.8248 85.1741 15.5766 84.4488 15.5766C83.7236 15.5766 83.1111 15.8259 82.6103 16.3233C82.1106 16.8219 81.8591 17.4579 81.8591 18.2312C81.8591 19.0045 82.1106 19.6405 82.6103 20.1391Z" fill="white"/>
<path d="M89.1479 21.555V14.9074H90.2059L93.495 20.0781H93.5322L93.495 18.7974V14.9074H94.3646V21.555H93.4566L90.0153 16.1328H89.978L90.0153 17.4136V21.555H89.1479Z" fill="white"/>
<path d="M57.3885 18.5004C57.3885 19.4288 57.1088 20.1678 56.5482 20.7196C55.912 21.3755 55.0818 21.7034 54.0622 21.7034C53.0854 21.7034 52.2541 21.371 51.5717 20.7063C50.8882 20.0404 50.5464 19.2161 50.5464 18.2323C50.5464 17.2473 50.8882 16.423 51.5717 15.7582C52.2541 15.0924 53.0854 14.76 54.0622 14.76C54.5472 14.76 55.0108 14.853 55.4507 15.0381C55.8917 15.2242 56.2448 15.4713 56.5087 15.7804L55.9143 16.3654C55.4665 15.8391 54.8495 15.5765 54.0611 15.5765C53.3482 15.5765 52.7323 15.8225 52.2124 16.3144C51.6924 16.8063 51.4329 17.4456 51.4329 18.2311C51.4329 19.0167 51.6924 19.656 52.2124 20.1479C52.7323 20.6398 53.3482 20.8858 54.0611 20.8858C54.8168 20.8858 55.4473 20.6387 55.9515 20.1435C56.2786 19.821 56.4681 19.3723 56.5188 18.7973H54.0611V17.9985H57.34C57.3738 18.1724 57.3885 18.3397 57.3885 18.5004Z" stroke="white" stroke-width="0.204511" stroke-miterlimit="10"/>
<path d="M62.5884 15.7239H59.5069V17.8312H62.2861V18.6301H59.5069V20.7374H62.5884V21.555H58.6372V14.9074H62.5884V15.7239Z" stroke="white" stroke-width="0.204511" stroke-miterlimit="10"/>
<path d="M66.2552 21.555H65.3856V15.7239H63.4952V14.9074H68.1457V15.7239H66.2552V21.555Z" stroke="white" stroke-width="0.204511" stroke-miterlimit="10"/>
<path d="M71.5103 21.555V14.9074H72.3799V21.555H71.5103Z" stroke="white" stroke-width="0.204511" stroke-miterlimit="10"/>
<path d="M76.2365 21.555H75.3669V15.7239H73.4765V14.9074H78.127V15.7239H76.2365V21.555Z" stroke="white" stroke-width="0.204511" stroke-miterlimit="10"/>
<path d="M86.9303 20.6964C86.2648 21.3678 85.438 21.7035 84.4488 21.7035C83.4596 21.7035 82.6328 21.3678 81.9685 20.6964C81.303 20.025 80.9714 19.2029 80.9714 18.2312C80.9714 17.2595 81.303 16.4374 81.9685 15.766C82.6328 15.0946 83.4596 14.7578 84.4488 14.7578C85.4324 14.7578 86.2581 15.0957 86.9258 15.7705C87.5935 16.4452 87.9274 17.2651 87.9274 18.2312C87.9274 19.2029 87.5947 20.025 86.9303 20.6964ZM82.6103 20.1391C83.1111 20.6376 83.7236 20.8858 84.4488 20.8858C85.1741 20.8858 85.7877 20.6365 86.2874 20.1391C86.7882 19.6405 87.0397 19.0045 87.0397 18.2312C87.0397 17.4579 86.7882 16.8219 86.2874 16.3233C85.7877 15.8248 85.1741 15.5766 84.4488 15.5766C83.7236 15.5766 83.1111 15.8259 82.6103 16.3233C82.1106 16.8219 81.8591 17.4579 81.8591 18.2312C81.8591 19.0045 82.1106 19.6405 82.6103 20.1391Z" stroke="white" stroke-width="0.204511" stroke-miterlimit="10"/>
<path d="M89.1479 21.555V14.9074H90.2059L93.495 20.0781H93.5322L93.495 18.7974V14.9074H94.3646V21.555H93.4566L90.0153 16.1328H89.978L90.0153 17.4136V21.555H89.1479Z" stroke="white" stroke-width="0.204511" stroke-miterlimit="10"/>
<defs>
<filter id="filter0_ii_1547_4802" x="15.5137" y="14.7578" width="27.5996" height="30.8643" filterUnits="userSpaceOnUse" color-interpolation-filters="sRGB">
<feFlood flood-opacity="0" result="BackgroundImageFix"/>
<feBlend mode="normal" in="SourceGraphic" in2="BackgroundImageFix" result="shape"/>
<feColorMatrix in="SourceAlpha" type="matrix" values="0 0 0 0 0 0 0 0 0 0 0 0 0 0 0 0 0 0 127 0" result="hardAlpha"/>
<feOffset dy="-0.795"/>
<feComposite in2="hardAlpha" operator="arithmetic" k2="-1" k3="1"/>
<feColorMatrix type="matrix" values="0 0 0 0 0 0 0 0 0 0 0 0 0 0 0 0 0 0 0.12 0"/>
<feBlend mode="normal" in2="shape" result="effect1_innerShadow_1547_4802"/>
<feColorMatrix in="SourceAlpha" type="matrix" values="0 0 0 0 0 0 0 0 0 0 0 0 0 0 0 0 0 0 127 0" result="hardAlpha"/>
<feOffset dy="0.795"/>
<feComposite in2="hardAlpha" operator="arithmetic" k2="-1" k3="1"/>
<feColorMatrix type="matrix" values="0 0 0 0 1 0 0 0 0 1 0 0 0 0 1 0 0 0 0.25 0"/>
<feBlend mode="normal" in2="effect1_innerShadow_1547_4802" result="effect2_innerShadow_1547_4802"/>
</filter>
<filter id="filter1_i_1547_4802" x="16.0669" y="30.1895" width="19.9453" height="15.4326" filterUnits="userSpaceOnUse" color-interpolation-filters="sRGB">
<feFlood flood-opacity="0" result="BackgroundImageFix"/>
<feBlend mode="normal" in="SourceGraphic" in2="BackgroundImageFix" result="shape"/>
<feColorMatrix in="SourceAlpha" type="matrix" values="0 0 0 0 0 0 0 0 0 0 0 0 0 0 0 0 0 0 127 0" result="hardAlpha"/>
<feOffset dy="-0.795"/>
<feComposite in2="hardAlpha" operator="arithmetic" k2="-1" k3="1"/>
<feColorMatrix type="matrix" values="0 0 0 0 0 0 0 0 0 0 0 0 0 0 0 0 0 0 0.08 0"/>
<feBlend mode="normal" in2="shape" result="effect1_innerShadow_1547_4802"/>
</filter>
<linearGradient id="paint0_linear_1547_4802" x1="29.6518" y1="16.6393" x2="9.5136" y2="36.6992" gradientUnits="userSpaceOnUse">
<stop stop-color="#00A0FF"/>
<stop offset="0.0066" stop-color="#00A1FF"/>
<stop offset="0.2601" stop-color="#00BEFF"/>
<stop offset="0.5122" stop-color="#00D2FF"/>
<stop offset="0.7604" stop-color="#00DFFF"/>
<stop offset="1" stop-color="#00E3FF"/>
</linearGradient>
<linearGradient id="paint1_linear_1547_4802" x1="44.0347" y1="30.1898" x2="15.1125" y2="30.1898" gradientUnits="userSpaceOnUse">
<stop stop-color="#FFE000"/>
<stop offset="0.4087" stop-color="#FFBD00"/>
<stop offset="0.7754" stop-color="#FFA500"/>
<stop offset="1" stop-color="#FF9C00"/>
</linearGradient>
<linearGradient id="paint2_linear_1547_4802" x1="33.2703" y1="32.9421" x2="5.96028" y2="60.1459" gradientUnits="userSpaceOnUse">
<stop stop-color="#FF3A44"/>
<stop offset="1" stop-color="#C31162"/>
</linearGradient>
<linearGradient id="paint3_linear_1547_4802" x1="12.3152" y1="6.40086" x2="24.5099" y2="18.5481" gradientUnits="userSpaceOnUse">
<stop stop-color="#32A071"/>
<stop offset="0.0685" stop-color="#2DA771"/>
<stop offset="0.4762" stop-color="#15CF74"/>
<stop offset="0.8009" stop-color="#06E775"/>
<stop offset="1" stop-color="#00F076"/>
</linearGradient>
</defs>
</svg>
