<svg width="1281" height="377" viewBox="0 0 1281 377" fill="none" xmlns="http://www.w3.org/2000/svg">
<path opacity="0.6" d="M1309.9 15.0428L-27.0284 15.0427M1309.9 37.7733L-27.0284 37.7732M1309.9 74.2799L-27.0284 74.2798M1352.05 124.563C829.946 124.563 453.296 124.563 -68.8079 124.563M1352.05 198.264C813.63 198.264 469.611 198.264 -68.8079 198.264M1352.05 269.9H-71.0273M1351.68 375.975H-68.8074M641.783 0.877966V375.587M500.082 0.877957L410.954 375.587M360.123 0.877948L170.725 375.587M204.148 0.87793L-68.8074 375.587M782.785 0.877984L871.918 375.587M922.743 0.877992L1112.14 375.587M1078.72 0.878001L1351.68 375.588" stroke="url(#paint0_linear_2682_3580)" stroke-width="2"/>
<defs>
<linearGradient id="paint0_linear_2682_3580" x1="640.511" y1="89.9684" x2="641.434" y2="375.781" gradientUnits="userSpaceOnUse">
<stop stop-color="#FF553E" stop-opacity="0"/>
<stop offset="1" stop-color="#FF553E"/>
</linearGradient>
</defs>
</svg>
