<svg width="72" height="73" viewBox="0 0 72 73" fill="none" xmlns="http://www.w3.org/2000/svg">
<path d="M15.3333 5.97207H56.6667C62.5945 5.97207 67.4 10.7778 67.4 16.706V56.4415C67.4 62.3697 62.5945 67.1754 56.6667 67.1754H15.3333C9.40551 67.1754 4.6 62.3697 4.6 56.4415V16.706C4.6 10.7778 9.40551 5.97207 15.3333 5.97207Z" fill="black" stroke="#2A2A2A" stroke-width="1.2"/>
<path fill-rule="evenodd" clip-rule="evenodd" d="M53.635 16.5737H18.3652L21.5759 52.5748L35.9795 56.5737L50.4221 52.5693L53.635 16.5737ZM46.1421 34.0553L46.2502 32.8691H35.9871V32.8722L30.16 32.8711L29.7564 28.3494L46.6627 28.3496L47.0585 23.9237H35.9971V23.9347H24.9426L26.1332 37.287H36.0128V37.2838H41.4241L40.9113 43.0107L35.9871 44.3396V44.3459L35.9827 44.3472L31.0775 43.0094L30.7631 39.4865H28.374L26.3183 39.4954L26.937 46.4297L35.9816 48.9402L36.0017 48.9347V48.9286L45.0395 46.4243L46.1421 34.0553Z" fill="white"/>
</svg>
