<svg width="72" height="73" viewBox="0 0 72 73" fill="none" xmlns="http://www.w3.org/2000/svg">
<path d="M15.3333 5.97207H56.6667C62.5945 5.97207 67.4 10.7778 67.4 16.706V56.4415C67.4 62.3697 62.5945 67.1754 56.6667 67.1754H15.3333C9.40551 67.1754 4.6 62.3697 4.6 56.4415V16.706C4.6 10.7778 9.40551 5.97207 15.3333 5.97207Z" fill="black" stroke="#2A2A2A" stroke-width="1.2"/>
<path d="M35.0122 42.8235H25.0946L23.0768 49.0922C23.0493 49.2065 22.9828 49.3076 22.8887 49.3781C22.7947 49.4487 22.679 49.4842 22.5616 49.4786H17.5384C17.2519 49.4786 17.1518 49.3212 17.2379 49.0063L25.8245 24.2753C25.9104 24.0178 25.9963 23.7244 26.0821 23.3952C26.1944 22.8223 26.252 22.2401 26.2539 21.6563C26.248 21.6155 26.2518 21.5739 26.2648 21.5347C26.2779 21.4956 26.2999 21.4601 26.329 21.4309C26.3582 21.4017 26.3937 21.3798 26.4328 21.3667C26.472 21.3537 26.5136 21.3499 26.5544 21.3557H33.3807C33.5807 21.3557 33.6952 21.4273 33.7242 21.5704L43.4702 49.0492C43.556 49.3357 43.4701 49.4788 43.2125 49.4786H37.6311C37.5352 49.4892 37.4388 49.4646 37.3598 49.4092C37.2808 49.3539 37.2246 49.2718 37.2018 49.178L35.0122 42.8235ZM26.6402 37.4137H33.4237C33.2519 36.8414 33.0516 36.1974 32.8226 35.4815C32.5932 34.7664 32.3499 34.0007 32.0928 33.1845C31.8351 32.3687 31.5775 31.553 31.3199 30.7371C31.0624 29.9214 30.8262 29.1343 30.6116 28.3757C30.3969 27.6176 30.2037 26.9235 30.032 26.2933H29.989C29.7474 27.4529 29.4464 28.5994 29.0875 29.7282C28.6863 31.0163 28.2784 32.333 27.8638 33.6782C27.4486 35.024 27.0407 36.2692 26.6402 37.4137Z" fill="white"/>
<path d="M49.2731 25.9071C48.8352 25.9246 48.3986 25.8496 47.9917 25.6868C47.5847 25.5241 47.2168 25.2772 46.9118 24.9625C46.6077 24.6341 46.3714 24.2488 46.2167 23.8288C46.062 23.4088 45.9918 22.9624 46.0101 22.5151C45.9945 22.0723 46.0725 21.6312 46.2389 21.2206C46.4054 20.81 46.6566 20.4391 46.9761 20.1322C47.2926 19.8285 47.6661 19.5905 48.0751 19.432C48.4841 19.2736 48.9205 19.1978 49.3589 19.2091C50.3894 19.2091 51.198 19.5168 51.7847 20.1322C52.0809 20.452 52.3111 20.8271 52.4621 21.236C52.6131 21.6449 52.682 22.0796 52.6648 22.5151C52.6828 22.9641 52.6103 23.4121 52.4517 23.8325C52.2932 24.2529 52.0517 24.6372 51.7418 24.9625C51.4178 25.2818 51.0312 25.5306 50.6063 25.6932C50.1815 25.8558 49.7275 25.9286 49.2731 25.9071ZM46.3106 49.0493V28.5261C46.3106 28.2685 46.4247 28.1397 46.6541 28.1397H51.935C52.1638 28.1397 52.2783 28.2685 52.2785 28.5261V49.0493C52.2785 49.3358 52.164 49.4789 51.935 49.4787H46.6971C46.4395 49.4787 46.3107 49.3356 46.3106 49.0493Z" fill="white"/>
</svg>
