<svg width="72" height="72" viewBox="0 0 72 72" fill="none" xmlns="http://www.w3.org/2000/svg">
<path d="M15.3333 5.3998H56.6667C62.5945 5.3998 67.4 10.2055 67.4 16.1337V55.8692C67.4 61.7974 62.5945 66.6032 56.6667 66.6032H15.3333C9.40551 66.6032 4.6 61.7974 4.6 55.8692V16.1337C4.6 10.2055 9.40551 5.3998 15.3333 5.3998Z" fill="black" stroke="#2A2A2A" stroke-width="1.2"/>
<path d="M46.3382 52.8964C47.6273 54.9487 49.3045 56.4572 52.2709 56.4572C54.7628 56.4572 56.3547 55.2429 56.3547 53.565C56.3547 51.5543 54.7192 50.8422 51.9763 49.6724L50.4728 49.0435C46.133 47.2408 43.2499 44.9825 43.2499 40.2084C43.2499 35.8107 46.6866 32.4629 52.0576 32.4629C55.8813 32.4629 58.6303 33.7604 60.6112 37.1577L55.928 40.0896C54.8969 38.2869 53.7845 37.5767 52.0576 37.5767C50.296 37.5767 49.1796 38.6662 49.1796 40.0896C49.1796 41.8486 50.2971 42.5608 52.8774 43.6503L54.3809 44.2783C59.4907 46.4147 62.3758 48.5928 62.3758 53.4897C62.3758 58.7689 58.1223 61.6611 52.4101 61.6611C46.8248 61.6611 43.2164 59.0661 41.4508 55.6648L46.3382 52.8964ZM25.0932 53.4045C26.038 55.0388 26.8974 56.4205 28.9637 56.4205C30.9396 56.4205 32.1861 55.6668 32.1861 52.736V32.7977H38.2V52.8152C38.2 58.8868 34.549 61.6502 29.2197 61.6502C24.4045 61.6502 21.6159 59.2206 20.1978 56.2942L25.0932 53.4045Z" fill="white"/>
</svg>
