<svg width="173" height="173" viewBox="0 0 173 173" fill="none" xmlns="http://www.w3.org/2000/svg">
<g clip-path="url(#clip0_2895_6392)">
<path d="M86.5 173C134.273 173 173 134.273 173 86.5C173 38.7274 134.273 0 86.5 0C38.7274 0 0 38.7274 0 86.5C0 134.273 38.7274 173 86.5 173Z" fill="#FEC426"/>
<path d="M86.5 173C134.273 173 173 134.273 173 86.5C173 38.7274 134.273 0 86.5 0C38.7274 0 0 38.7274 0 86.5C0 134.273 38.7274 173 86.5 173Z" fill="#FF553E"/>
<mask id="mask0_2895_6392" style="mask-type:alpha" maskUnits="userSpaceOnUse" x="0" y="0" width="173" height="173">
<path d="M86.5 173C134.273 173 173 134.273 173 86.5C173 38.7274 134.273 0 86.5 0C38.7274 0 0 38.7274 0 86.5C0 134.273 38.7274 173 86.5 173Z" fill="#FEC426"/>
</mask>
<g mask="url(#mask0_2895_6392)">
<path d="M87.4031 310.176C87.5035 312.183 87.8045 313.889 87.8045 315.996C96.4344 316.498 105.365 316.799 114.096 316.297C117.809 315.996 121.521 315.093 124.833 313.487C128.747 288.4 129.048 262.711 126.639 237.122C126.639 236.319 126.94 235.316 126.639 234.614C126.338 233.309 126.338 232.306 126.137 231.101V228.593C123.528 205.011 119.816 182.132 115.099 159.353C96.7355 159.854 78.5725 160.858 60.2088 161.359C52.0806 197.083 49.1705 233.71 51.5789 270.237C51.5789 271.441 51.5789 272.645 51.8799 273.749C52.3816 280.874 53.4855 287.898 55.2917 294.822C55.7935 296.629 56.2952 298.636 57.098 300.442C58.4025 303.753 60.2088 307.065 61.5133 310.376C66.5307 311.681 71.7488 311.882 76.9669 311.681C79.877 311.38 82.9878 311.38 85.9982 310.677L87.4031 310.176Z" fill="#26BCD3"/>
<path fill-rule="evenodd" clip-rule="evenodd" d="M113.594 159.453C123.227 208.523 131.055 261.005 123.428 312.383C118.21 314.691 111.988 314.892 106.67 314.993C100.95 315.093 95.1299 314.892 89.3098 314.591C88.808 308.771 88.2059 302.951 87.7042 297.231C85.2958 271.943 82.8875 245.752 82.9878 220.164C82.9878 211.132 82.0847 202.201 74.8596 198.187C74.1572 197.786 73.1537 197.987 72.7523 198.689C72.3509 199.392 72.5516 200.395 73.3544 200.796C79.1746 204.108 79.9774 212.035 79.9774 220.164C79.877 245.953 82.2854 272.144 84.6938 297.532L84.8944 299.439C85.1955 302.549 85.4965 305.761 85.7976 308.972C78.1711 310.176 70.5447 310.176 62.9182 309.072C54.6897 293.317 53.3852 277.563 52.7831 264.016C51.1775 229.697 54.1879 195.177 61.6137 161.56C61.8144 160.758 61.2123 159.955 60.4095 159.754C59.6067 159.553 58.7036 160.055 58.5029 160.958C51.0772 194.876 48.0667 229.596 49.4716 264.216C50.0737 278.265 51.4785 294.622 60.3092 311.179C60.5099 311.581 60.9113 311.882 61.413 311.982C62.4165 312.183 63.5203 312.283 64.5238 312.383C64.5238 312.685 64.5238 312.885 64.4234 313.086C64.3231 313.387 64.1224 313.688 64.0221 313.989V314.089C63.9217 314.29 63.8214 314.591 63.721 314.691C61.5134 317.401 58.9043 319.408 56.0946 321.515H55.9942C54.6897 322.519 53.2848 323.522 51.8799 324.726C49.9733 326.332 48.0667 329.142 47.9664 331.951C47.9664 333.657 48.6688 335.163 49.9733 336.367C50.0737 336.467 50.2744 336.567 50.3747 336.668C53.1845 337.872 56.5963 338.273 59.7071 338.273C64.1224 338.273 68.1363 337.471 69.5412 336.868C70.0429 336.668 70.5447 336.467 71.1468 336.266C72.4513 335.765 73.8562 335.263 75.0603 334.46C82.0847 329.643 82.4861 321.615 82.8875 314.491V314.19C82.8875 313.487 82.9878 312.885 82.9878 312.283C83.891 312.183 84.7941 312.082 85.5969 311.882C85.6972 313.287 85.7976 314.591 85.9983 315.996C86.0986 316.698 86.7007 317.301 87.5035 317.401C88.3063 317.401 89.0087 317.501 89.8115 317.501C90.0122 320.712 89.5105 322.92 88.3063 326.533C87.8045 328.138 86.3997 329.844 84.9948 331.55C83.3892 333.356 81.7837 335.363 81.0812 337.47C80.1781 340.08 80.9809 342.588 83.1885 344.796C83.1885 344.796 86.3997 347.606 92.1195 347.606C93.8254 347.606 95.732 347.405 97.8393 346.703C97.9397 346.703 98.04 346.602 98.1404 346.602C98.6421 346.301 99.2442 346.1 99.746 345.9C99.8463 345.9 99.8463 345.9 99.9466 345.799C100.95 345.298 101.954 344.696 102.756 343.993C107.473 340.18 110.483 334.761 111.286 328.941C111.888 324.325 112.189 320.512 112.089 317.702C116.404 317.401 120.919 316.698 125.034 314.792C125.234 314.692 125.335 314.591 125.435 314.491C125.836 314.29 126.137 313.889 126.137 313.387C134.065 261.306 126.137 208.323 116.404 158.65C116.203 157.848 115.4 157.245 114.597 157.446C113.995 157.848 113.494 158.65 113.594 159.453ZM80.0777 312.685C78.0708 312.885 75.9635 312.885 73.9565 312.885C71.8492 312.885 69.8422 312.785 67.7349 312.685C67.7349 313.287 67.6346 313.889 67.3335 314.39C67.2332 314.591 67.1328 314.792 67.0325 315.093V315.193V315.294C66.9322 315.595 66.7315 315.896 66.6311 316.197C66.6311 316.297 66.5308 316.397 66.4304 316.397C64.0221 319.508 61.0116 321.716 58.1015 323.923L58.0012 324.024C56.6966 325.027 55.3921 326.031 54.0876 327.135C52.6827 328.339 51.2779 330.346 51.2779 332.152C51.2779 332.955 51.5789 333.557 52.0806 334.159C57.7001 336.467 66.8318 334.962 68.4374 334.259C68.9391 334.059 69.5412 333.858 70.0429 333.657H70.1433C71.3475 333.256 72.4513 332.754 73.4548 332.152C79.275 328.138 79.576 321.214 79.9774 314.491C80.0777 313.788 80.0777 313.287 80.0777 312.685ZM93.2233 317.802C93.424 321.214 92.8219 323.823 91.6178 327.536C90.9153 329.744 89.3098 331.65 87.7042 333.557C84.192 337.772 82.8875 339.879 85.6972 342.689C85.9983 342.889 90.1125 345.9 97.1369 343.893C97.739 343.592 98.3411 343.391 98.9432 343.19C99.6456 342.889 100.348 342.388 100.95 341.886C105.064 338.574 107.673 333.858 108.376 328.74C108.978 324.325 109.279 320.712 109.179 318.003C108.276 318.003 107.473 318.003 106.67 318.003C105.767 318.003 104.864 318.003 103.961 318.003C100.448 318.003 96.8359 318.003 93.2233 317.802Z" fill="#2B2B2B"/>
<mask id="mask1_2895_6392" style="mask-type:luminance" maskUnits="userSpaceOnUse" x="7" y="88" width="159" height="159">
<path d="M165.474 88.9092H7.92749V246.857H165.474V88.9092Z" fill="white"/>
</mask>
<g mask="url(#mask1_2895_6392)">
<path d="M97.0366 88.9092C97.2373 91.5182 98.3411 97.5391 102.355 96.636L102.756 97.3384C102.556 101.453 100.448 104.363 97.2373 107.373C93.9258 110.384 89.7112 112.19 85.1955 112.491C81.2819 112.792 77.0673 111.789 74.1572 109.179C71.2471 106.57 69.6416 102.858 71.6485 99.7468H71.9496C72.8527 99.7468 73.6555 99.3454 74.3579 98.8436C75.3614 98.2415 77.268 95.7328 77.8701 95.0304C78.6729 94.0269 78.9739 90.1134 79.3753 88.9092H97.0366Z" fill="white"/>
<path fill-rule="evenodd" clip-rule="evenodd" d="M45.859 190.864C47.0632 190.964 48.2674 191.064 49.4716 191.365H49.5719L47.7656 206.919C47.3643 210.331 46.9629 213.743 46.8625 217.155C46.8625 218.058 46.8625 218.961 47.3643 219.664C47.9663 220.567 49.0702 220.767 50.0737 220.968L61.413 223.176L64.7245 223.577C82.185 226.487 99.7459 225.785 117.206 222.674L129.449 220.266C130.553 219.965 131.757 219.764 132.961 219.563C135.57 219.262 138.179 218.961 139.985 216.753C140.186 216.252 140.287 215.75 140.287 215.148C139.484 211.535 137.176 204.912 135.068 198.891C133.463 194.476 132.058 190.362 131.356 187.853L131.055 187.452C130.753 167.483 129.951 147.513 125.435 128.146L124.632 125.637C122.425 118.513 119.514 111.689 115.501 105.467L114.999 100.45C114.999 99.6473 114.798 98.8445 114.397 98.0417C113.995 97.3393 113.393 96.7372 112.691 96.3358C111.988 95.9344 111.186 95.7337 110.383 95.6334C109.58 95.6334 108.777 95.8341 108.075 96.2354C109.078 94.9309 108.577 93.0243 107.272 92.0208C106.068 91.0173 104.262 91.0173 102.756 91.4187C101.251 91.9205 99.9466 92.8236 98.7424 93.8271C97.8393 94.5295 96.9362 95.3323 96.033 96.0347C92.3202 99.1455 88.5069 102.357 83.8909 103.561L80.7801 102.557C79.0742 102.156 77.8701 100.55 77.1676 98.9448C76.9669 98.3428 76.7662 97.7407 76.5655 97.2389C76.1641 96.1351 75.8631 95.0313 75.1607 94.0278C74.1572 92.5226 72.3509 91.3184 70.7453 91.9205C68.638 92.6229 68.1363 95.1316 67.7349 97.3393C67.7349 97.6403 67.6346 97.9414 67.4339 98.2424C67.1328 98.6438 66.6311 98.7441 66.2297 98.8445H66.1293C65.1259 99.0452 64.022 99.4466 63.2192 100.249C62.4165 101.052 62.0151 102.156 62.4165 103.26L61.1119 105.467C60.4095 106.27 58.5029 108.98 58.5029 108.98C53.6862 117.208 51.7796 125.637 49.7726 134.769C49.6723 134.97 49.6723 135.271 49.5719 135.572C45.9594 152.832 44.3538 169.188 42.6479 186.147C42.5475 187.552 42.3468 188.957 42.2465 190.262C43.25 190.563 44.5545 190.763 45.859 190.864ZM48.4681 197.687C46.1601 197.687 43.8521 197.286 41.5441 196.684C41.7448 194.677 41.8451 192.67 42.7482 190.964L49.2709 191.666L48.4681 197.687Z" fill="#316AFE"/>
<path fill-rule="evenodd" clip-rule="evenodd" d="M89.1091 113.093C89.2094 113.895 89.8115 114.598 90.7146 114.598H90.815C97.8393 114.096 104.763 111.888 110.684 108.176C111.888 107.373 112.992 106.57 113.795 105.767C113.795 105.968 113.895 106.068 113.995 106.269C117.608 111.788 120.518 118.311 122.926 126.038C123.127 126.74 123.729 127.141 124.432 127.141C124.632 127.141 124.733 127.141 124.933 127.041C125.736 126.74 126.238 125.937 125.937 125.034C123.428 117.006 120.418 110.283 116.604 104.463C116.303 103.961 115.802 103.76 115.3 103.76C116.002 102.656 116.303 101.553 116.303 100.348C116.303 99.2446 116.002 98.1408 115.501 97.2377C114.999 96.2342 114.196 95.4314 113.193 94.9297C112.289 94.3276 111.186 94.0265 110.082 94.0265C109.981 94.0265 109.881 94.0265 109.781 94.0265C109.58 92.8224 108.978 91.6182 107.974 90.715C106.469 89.5109 104.161 89.2098 102.054 89.9123C100.248 90.5143 98.7425 91.6182 97.5383 92.6217C96.1334 93.7255 95.0296 94.8293 93.8254 95.8328C91.2164 98.3415 89.1091 100.248 85.3962 101.352C84.5934 101.553 84.0917 102.456 84.2924 103.259C84.4931 104.061 85.3962 104.563 86.199 104.362C90.6143 103.158 93.2233 100.75 95.9327 98.1408C97.0366 97.1373 98.1404 96.1338 99.4449 95.03C100.549 94.1269 101.653 93.3241 102.957 92.9227C104.161 92.5213 105.265 92.722 106.068 93.2237C106.67 93.7255 106.971 94.729 106.57 95.2307C106.068 95.8328 106.168 96.6356 106.67 97.2377C107.172 97.8398 107.975 97.9401 108.677 97.5387C109.179 97.2377 109.68 97.1373 110.182 97.1373C110.684 97.1373 111.286 97.338 111.687 97.5387C112.189 97.8398 112.591 98.2411 112.791 98.7429C113.092 99.2446 113.193 99.7464 113.193 100.348C113.193 102.054 111.788 103.76 108.978 105.466C103.459 108.878 97.0366 110.985 90.5139 111.387C89.7112 111.487 89.1091 112.19 89.1091 113.093ZM59.3057 224.278C59.2054 224.278 59.105 224.278 59.0047 224.278L49.7726 222.472C48.7692 222.271 47.0632 221.87 46.0598 220.465C45.7587 220.064 45.558 219.662 45.4577 219.161C44.2535 218.96 43.1497 218.558 42.2465 217.856C40.942 216.953 39.9385 215.749 39.2361 214.344C39.1357 214.143 39.0354 213.842 39.1357 213.541C39.1357 213.14 39.2361 212.738 39.2361 212.236V212.136C39.5371 208.423 39.8382 204.61 37.2291 202.001C37.0284 201.8 36.9281 201.499 36.8277 201.299C36.2257 198.79 37.5302 196.382 40.2396 195.278C40.3399 193.973 40.5406 192.669 40.942 191.364C40.5406 191.063 40.3399 190.561 40.4403 190.06C40.5406 188.956 40.641 187.752 40.7413 186.648L40.8417 185.945V185.845C42.5476 168.685 44.1531 152.529 47.7657 135.169L47.9664 134.366C49.9733 125.134 51.88 116.504 56.8974 108.075C56.8974 108.075 56.8974 107.975 56.9977 107.975C57.2987 107.574 59.0047 105.165 59.7071 104.362C60.0081 104.061 60.4095 103.861 60.7106 103.861V103.76C60.2088 102.255 60.7106 100.449 61.9148 99.1443C62.8179 98.2412 64.0221 97.6391 65.6276 97.338H65.728C65.8283 97.338 65.9287 97.338 66.029 97.2377V97.1373C66.4304 95.03 67.0325 91.5178 70.1433 90.5143C71.9496 89.9123 74.6589 90.5143 76.4652 93.3241C76.6659 93.6251 76.7663 93.9262 76.967 94.2272C77.268 93.5248 78.0708 93.1234 78.7732 93.3241C79.576 93.5248 80.1781 94.4279 79.877 95.2307C79.6764 96.1338 79.275 96.8363 78.2715 97.7394C78.3718 97.9401 78.4722 98.1408 78.5725 98.4418C78.9739 99.345 79.7767 100.85 80.9809 101.151C81.7837 101.352 82.3858 102.155 82.1851 103.058C81.9844 103.861 81.1816 104.463 80.2784 104.262C78.2715 103.861 76.6659 102.155 75.5621 99.646C75.261 99.0439 75.0603 98.4418 74.8596 97.8398C74.5586 96.8363 74.1572 95.8328 73.6555 95.03C73.0534 94.1269 71.9496 93.3241 71.0464 93.5248C69.9426 93.9262 69.4409 95.8328 69.1398 97.6391C69.0395 98.2412 68.8388 98.7429 68.5377 99.2446C68.5377 99.2446 68.5377 99.345 68.4374 99.345C67.8353 100.148 66.9322 100.348 66.3301 100.449H66.2297C65.2262 100.649 64.5238 100.951 64.1224 101.452C63.721 101.854 63.5203 102.456 63.6207 102.757C63.721 103.158 64.1224 103.459 64.5238 103.861C67.9356 106.871 72.0499 108.778 76.4652 109.58C77.3683 109.781 77.8701 110.584 77.7697 111.387C77.6694 112.19 76.967 112.691 76.2645 112.691C76.1642 112.691 76.0638 112.691 75.9635 112.691C70.9461 111.788 66.3301 109.58 62.5168 106.169C62.4165 106.169 62.4165 106.068 62.3161 105.968C62.2158 106.169 62.1154 106.269 62.0151 106.47C61.5134 107.072 60.1085 109.079 59.5064 109.781C54.79 117.709 52.9838 126.138 50.9768 135.069L50.7761 135.872C47.1636 153.031 45.558 169.187 43.8521 186.246C43.7518 187.149 43.6514 188.053 43.5511 188.956C44.3538 189.056 45.1566 189.156 45.9594 189.257C46.6619 189.357 47.3643 189.357 48.1671 189.457L49.3712 179.122V179.021C51.5789 160.457 53.7866 141.29 58.1015 122.826C58.3022 122.024 59.105 121.422 60.0081 121.622C60.8109 121.823 61.413 122.626 61.2123 123.529C56.8974 141.893 54.6897 160.959 52.482 179.423V179.523L52.3817 180.225L49.2709 207.119C48.8695 210.43 48.4681 213.842 48.3678 217.254C48.3678 217.655 48.2674 218.458 48.5685 218.759C48.8695 219.161 49.7726 219.361 50.2744 219.462L59.5064 221.268C60.4095 221.469 60.9113 222.271 60.7106 223.074C60.7106 223.777 60.0081 224.278 59.3057 224.278ZM39.7378 200.395C39.7378 199.191 41.0424 198.489 41.5441 198.288C43.3504 198.79 45.257 199.091 47.0632 199.292L46.1601 206.818V206.918C45.8591 209.928 45.4577 213.039 45.257 216.05C44.7552 215.849 44.2535 215.648 43.8521 215.347C43.1497 214.846 42.5476 214.243 42.1462 213.441C42.1462 213.24 42.1462 213.039 42.1462 212.839C42.1462 212.738 42.1462 212.638 42.1462 212.538C42.5476 208.724 42.949 203.908 39.7378 200.395ZM47.866 192.669L47.4646 196.08C46.0598 195.98 44.6549 195.779 43.3504 195.478C43.4507 194.375 43.6514 193.271 43.9525 192.267C44.5545 192.368 45.1566 192.368 45.6584 192.468H45.7587C46.4612 192.468 47.1636 192.568 47.866 192.669ZM64.3231 224.981C71.7489 226.285 79.3753 226.887 87.2025 226.887C96.7355 226.887 106.57 225.984 117.006 224.078C118.411 225.181 120.117 225.783 121.923 225.783C122.124 225.783 122.324 225.783 122.525 225.783C125.335 225.583 127.743 224.078 129.349 221.669C129.449 221.669 129.65 221.669 129.75 221.569C130.754 221.268 131.857 221.167 133.062 220.967C135.771 220.666 138.882 220.264 141.089 217.655C141.19 217.555 141.29 217.455 141.29 217.254C141.591 216.551 141.691 215.749 141.691 214.946C141.691 214.846 141.691 214.846 141.691 214.745C140.889 210.932 138.581 204.51 136.373 198.288C134.868 193.973 133.363 189.859 132.66 187.35C132.66 187.149 132.56 187.049 132.459 186.848C132.158 167.782 131.456 149.519 127.041 130.152C126.84 129.349 126.037 128.747 125.134 128.948C124.331 129.148 123.729 129.951 123.93 130.854C128.947 152.429 129.148 172.9 129.349 194.475V194.876L109.48 194.575C106.57 171.395 105.466 147.913 106.469 124.633C106.469 123.73 105.867 123.027 104.964 123.027C104.061 123.027 103.358 123.629 103.358 124.532C102.355 148.516 103.459 172.699 106.57 196.382C106.67 196.984 107.071 197.485 107.673 197.686C107.473 199.292 107.372 200.897 107.473 202.603C107.473 202.904 107.573 203.205 107.673 203.506C107.774 203.807 107.975 204.108 108.175 204.309C108.175 204.309 108.175 204.309 108.276 204.409C107.372 205.112 106.57 206.015 106.168 207.119C105.867 208.122 105.767 209.527 107.071 211.233C108.276 212.738 109.881 213.742 111.286 214.545C111.587 214.745 111.888 214.846 112.089 215.046C112.49 215.247 112.892 216.853 113.092 217.555C113.193 218.057 113.393 218.458 113.494 218.859C113.795 219.763 114.196 220.565 114.698 221.368C96.8359 224.379 80.4791 224.579 65.0255 221.97C64.1224 221.87 63.3196 222.372 63.2193 223.275C62.9182 224.078 63.5203 224.88 64.3231 224.981ZM113.092 204.911C112.892 205.312 112.591 205.714 112.089 205.915C110.584 206.416 109.379 207.319 109.179 208.122C109.179 208.223 108.978 208.624 109.58 209.427C110.383 210.43 111.587 211.133 112.791 211.835L112.992 211.935C113.193 212.036 113.393 212.237 113.694 212.337C115.2 213.24 115.701 215.147 116.103 216.652C116.203 217.053 116.303 217.455 116.404 217.756C117.207 220.064 119.013 222.873 122.324 222.572C124.532 222.472 127.241 220.766 128.144 216.551C128.847 213.24 128.245 209.728 127.643 206.316V206.115C127.542 205.814 127.542 205.413 127.442 205.112C127.442 205.011 127.442 205.011 127.442 204.911H113.092ZM130.051 203.807C130.252 204.008 130.352 204.309 130.452 204.61C130.553 205.011 130.553 205.413 130.653 205.814C131.255 209.527 131.958 213.34 131.155 217.154C131.055 217.455 131.055 217.756 130.954 218.057C131.556 217.956 132.058 217.856 132.66 217.856C135.068 217.555 137.075 217.254 138.48 215.849C138.581 215.648 138.581 215.448 138.581 215.347C137.778 211.735 135.47 205.212 133.463 199.492L133.363 199.292C133.062 198.589 132.861 197.786 132.56 197.084C132.459 197.385 132.359 197.686 132.158 197.887C131.857 198.188 131.456 198.388 131.055 198.388H130.553L130.653 201.7C130.553 202.001 130.653 203.004 130.051 203.807ZM127.342 198.188L110.885 197.887C110.684 199.191 110.584 200.496 110.684 201.8H127.542C127.542 201.8 127.542 201.8 127.542 201.7L127.342 198.188Z" fill="#2B2B2B"/>
</g>
<path d="M100.147 65.3262C101.954 63.2189 101.452 59.506 99.0435 58.0008C98.2407 57.4991 97.1369 57.0977 96.6351 56.1945C96.1334 55.1911 96.6351 53.9869 96.8358 52.9834V52.883C97.6386 49.6719 93.9257 47.2636 91.2163 49.1702C87.8045 51.6789 83.9913 53.3848 79.9773 54.2879C77.87 54.7897 75.261 54.89 73.9565 53.1841C73.1537 52.1806 73.0533 50.575 71.0464 50.7757C70.4443 50.7757 69.9425 50.9764 69.4408 51.3778C65.9286 53.6858 62.015 55.1911 57.9008 55.6928C56.6966 55.7931 55.4924 55.8935 54.3886 55.5924C51.1775 54.589 49.6722 50.4747 50.6757 47.2636C51.6792 44.0524 54.3886 41.6441 57.2987 39.9382C59.1049 38.9347 61.1119 37.9312 62.2157 36.1249C62.8178 35.1214 63.1189 33.8169 63.721 32.8134C64.323 31.81 65.3265 31.0072 66.33 30.2044C71.8492 26.3912 78.3718 24.4846 84.9947 24.6853C88.9083 24.7856 93.5243 26.3912 94.4275 30.3047L100.448 32.8134C105.064 33.5159 109.781 35.1214 113.092 38.4329C116.404 41.8448 117.809 47.2636 115.501 51.3778C115.2 51.8796 114.798 52.4817 114.798 53.0837C114.798 53.8865 115.501 54.4886 116.002 55.0907C117.006 56.0942 117.708 57.3987 118.11 58.7032C118.511 60.0078 118.712 61.4126 118.611 62.8175C118.511 64.0217 118.11 65.3262 117.206 66.129C116.303 66.9318 114.698 67.1325 113.895 66.2293L100.749 68.2363L100.147 65.3262Z" fill="#2B2B2B"/>
<path d="M57.4994 55.7931C55.7935 60.2084 54.79 64.122 54.489 66.5303C53.8869 72.5512 55.0911 79.2745 59.6067 83.4892C62.0151 85.7972 65.1259 86.901 68.337 87.5031C71.7488 88.1052 75.3614 88.6069 78.5725 87.3024C78.3718 90.0118 78.3718 92.0187 78.4722 94.7281L96.9362 92.6208C96.6352 89.0083 97.3376 85.8975 98.8428 82.6864C99.2442 81.9839 99.9466 81.9839 100.749 81.6829C101.452 81.4822 102.054 81.1812 102.756 80.9805C104.061 80.4787 105.265 79.6759 106.469 78.8732C108.777 77.1672 110.483 74.7589 111.186 71.9491C111.788 69.4404 111.386 66.43 108.577 65.0251C106.57 64.0216 104.864 64.423 101.853 67.0321L100.147 65.3262C101.954 63.2189 101.452 59.506 99.0435 58.0008C98.2407 57.499 97.1369 57.0976 96.6352 56.1945C96.1334 55.191 96.6352 53.9868 96.8359 52.9834V52.883C97.6386 49.6719 93.9258 47.2635 91.2164 49.1701C87.8045 51.6788 83.9913 53.3848 79.9774 54.2879C77.8701 54.7896 75.261 54.89 73.9565 53.1841C73.1537 52.1806 73.0534 50.575 71.0464 50.7757C70.4443 50.7757 69.9426 50.9764 69.4408 51.3778C65.9287 53.6858 62.0151 55.191 57.8005 55.6928" fill="white"/>
<path d="M115.501 68.5377C114.497 68.5377 113.594 68.2366 112.892 67.5342C112.289 66.9321 112.289 65.9286 112.892 65.3265C113.494 64.7245 114.497 64.7245 115.099 65.3265C115.3 65.5272 115.902 65.4269 116.303 65.1258C116.805 64.7245 117.106 63.9217 117.207 62.8178C117.307 61.6137 117.207 60.4095 116.805 59.3057C116.404 58.2018 115.802 57.1984 114.999 56.2952L114.899 56.1949C114.296 55.4924 113.393 54.5893 113.393 53.2848C113.393 52.2813 113.795 51.4785 114.196 50.8764L114.296 50.6757C116.404 47.0632 114.798 42.2465 112.189 39.6374C109.58 37.0284 105.667 35.2221 100.448 34.4193C99.5453 34.319 99.0435 33.5162 99.1439 32.6131C99.2442 31.71 100.047 31.2082 100.95 31.3086C106.871 32.2117 111.386 34.319 114.497 37.4298C116.404 39.3364 117.708 41.8451 118.21 44.4542C118.812 47.2639 118.411 50.0736 117.106 52.2813L117.006 52.482C116.905 52.6827 116.705 52.9837 116.705 53.1844C116.805 53.3851 117.106 53.7865 117.307 53.9872L117.508 54.1879C118.611 55.3921 119.414 56.797 120.016 58.4025C120.518 60.0081 120.719 61.6137 120.618 63.2192C120.418 65.1258 119.715 66.5307 118.611 67.5342C117.608 68.1363 116.504 68.5377 115.501 68.5377Z" fill="#2B2B2B"/>
<path d="M100.147 66.9317C99.746 66.9317 99.4449 66.8314 99.1439 66.5303C98.4415 65.9282 98.4415 64.9247 98.9432 64.3226C99.5453 63.6202 99.746 62.6167 99.6456 61.6133C99.4449 60.6098 98.9432 59.7066 98.2408 59.3052C98.0401 59.2049 97.8394 59.1046 97.6387 59.0042C96.8359 58.6028 95.8324 58.1011 95.3307 56.9972C94.6282 55.5924 95.0296 54.1875 95.3307 53.0837C95.3307 52.9833 95.431 52.7826 95.431 52.6823C95.431 52.5819 95.431 52.4816 95.5314 52.4816C95.8324 51.2774 94.9293 50.575 94.7286 50.4746C94.1265 50.0732 93.2234 49.8725 92.4206 50.4746C88.808 53.0837 84.8945 54.8899 80.5795 55.8934C77.0673 56.6962 74.4583 56.0941 72.9531 54.1875C72.652 53.8865 72.4513 53.4851 72.351 53.184C71.9496 52.3812 71.8492 52.3812 71.4478 52.3812C71.1468 52.3812 70.8458 52.4816 70.6451 52.6823C66.9322 55.191 62.7176 56.7965 58.4026 57.2983C57.1984 57.499 55.6932 57.5993 54.2883 57.0976C52.5824 56.5959 51.1775 55.3917 50.1741 53.6858C49.0702 51.6788 48.7692 49.0697 49.4716 46.8621C50.3748 43.7513 52.8835 40.9416 56.797 38.6336C56.9977 38.5332 57.2988 38.3325 57.4995 38.2322C59.0047 37.4294 60.4096 36.6266 61.112 35.4224C61.3127 35.021 61.5134 34.5193 61.7141 34.0175C61.9148 33.4155 62.2158 32.713 62.6172 32.1109C63.42 30.8064 64.5238 29.9033 65.728 29.1005C71.4478 25.0866 78.3719 23.0796 85.3962 23.2803C89.8115 23.481 95.2303 25.2873 96.3342 30.104C96.5348 31.0071 96.0331 31.8099 95.13 32.0106C94.3272 32.2113 93.4241 31.7095 93.2234 30.8064C92.6213 27.9967 88.808 26.5918 85.2959 26.4914C79.0743 26.2907 72.7524 28.1974 67.5343 31.7095C66.7315 32.3116 65.8283 33.0141 65.3266 33.8168C65.1259 34.2182 64.9252 34.72 64.7245 35.2217C64.5238 35.8238 64.2228 36.5262 63.8214 37.1283C62.7176 39.0349 60.8109 40.1388 59.105 41.0419C58.9043 41.1423 58.6033 41.3429 58.4026 41.4433C55.1915 43.3499 53.1845 45.4572 52.4821 47.8656C52.0807 49.2704 52.2814 50.9764 52.9838 52.2809C53.3852 52.9833 53.9873 53.8865 55.1915 54.1875C56.0946 54.4885 57.0981 54.3882 58.0012 54.2878C61.9148 53.7861 65.6277 52.3812 68.9391 50.1736C69.6416 49.6718 70.4444 49.3708 71.2471 49.3708C73.7558 49.1701 74.659 50.876 75.1607 51.7791C75.2611 51.9798 75.3614 52.2809 75.5621 52.3812C76.4652 53.5854 78.8736 53.184 79.9774 52.9833C83.891 52.0802 87.5035 50.4746 90.7147 48.0663C92.5209 46.7617 94.8289 46.7617 96.6352 47.9659C98.4415 49.1701 99.2442 51.2774 98.7425 53.3847V53.4851C98.7425 53.6858 98.6422 53.8865 98.6422 53.9868C98.4415 54.5889 98.2408 55.2913 98.4415 55.5924C98.5418 55.7931 99.0435 56.0941 99.4449 56.2948C99.746 56.3952 99.9467 56.5958 100.248 56.7965C101.753 57.8 102.756 59.4056 103.057 61.3122C103.359 63.2188 102.857 65.1254 101.653 66.5303C101.051 66.731 100.649 66.9317 100.147 66.9317Z" fill="#2B2B2B"/>
<path d="M65.3266 63.1184C66.3301 63.1184 67.1329 62.115 67.1329 60.9108C67.1329 59.7066 66.3301 58.7031 65.3266 58.7031C64.3231 58.7031 63.5203 59.7066 63.5203 60.9108C63.5203 62.115 64.3231 63.1184 65.3266 63.1184Z" fill="#2B2B2B"/>
<path d="M74.2576 63.7198C75.261 63.7198 76.0638 62.7163 76.0638 61.5121C76.0638 60.3079 75.261 59.2041 74.2576 59.2041C73.2541 59.2041 72.4513 60.2076 72.4513 61.4118C72.4513 62.6159 73.2541 63.7198 74.2576 63.7198Z" fill="#2B2B2B"/>
<path d="M97.1369 92.6215C96.3341 92.6215 95.6316 92.0194 95.5313 91.2166C95.2303 87.2027 95.9327 85.3964 97.6386 81.9846C98.2407 80.7804 99.3445 80.4793 100.047 80.2786C100.147 80.2786 100.348 80.1783 100.448 80.1783C101.05 79.9776 101.653 79.7769 102.255 79.4759C103.459 78.9741 104.563 78.372 105.666 77.5692C107.774 75.9637 109.179 73.8564 109.781 71.5484C110.082 70.4445 110.483 67.6348 107.974 66.3303C106.871 65.8285 105.867 65.5275 102.957 68.1365C102.255 68.7386 101.351 68.6383 100.749 68.0362C100.147 67.3337 100.248 66.4306 100.85 65.8285C104.964 62.216 107.372 62.6174 109.379 63.6209C112.39 65.1261 113.795 68.5379 112.791 72.3511C112.089 75.3616 110.182 78.071 107.473 80.1783C106.168 81.0814 104.864 81.8842 103.459 82.4863C102.756 82.7873 102.054 82.988 101.351 83.2891C101.151 83.3894 100.95 83.3894 100.749 83.4898C100.649 83.4898 100.448 83.5901 100.348 83.5901C98.8428 86.7009 98.341 87.9051 98.6421 91.0159C98.7424 91.919 98.04 92.6215 97.2372 92.7218C97.2372 92.6215 97.1369 92.6215 97.1369 92.6215Z" fill="#2B2B2B"/>
<path d="M78.6729 95.029C77.8701 95.029 77.1676 94.3266 77.0673 93.5238C76.9669 91.7175 76.9669 90.714 77.0673 89.5098C73.9565 90.1119 70.7454 89.5099 68.2367 89.1085C64.2227 88.406 61.1119 87.0011 58.7036 84.6931C54.2883 80.5789 52.2813 73.9559 53.0841 66.4298C53.3851 63.6201 54.489 59.5058 56.1949 55.2912C56.4959 54.4884 57.3991 54.087 58.2019 54.388C59.0046 54.6891 59.406 55.5922 59.105 56.395C57.2987 61.011 56.4959 64.7239 56.1949 66.7308C55.4925 73.2535 57.1984 78.9733 60.8109 82.3851C62.8179 84.1914 65.3266 85.3956 68.7384 85.9977C72.2506 86.5998 75.3614 87.0011 78.1711 85.8973C78.6729 85.6966 79.2749 85.797 79.6763 86.098C80.0777 86.3991 80.3788 86.9008 80.3788 87.5029C80.1781 90.1119 80.1781 90.714 80.2784 93.4234C80.2784 94.2262 79.576 94.9286 78.6729 95.029Z" fill="#2B2B2B"/>
<path d="M66.7314 133.764V135.369H65.0255V129.047C65.8283 128.947 66.8318 128.847 67.6346 128.847C70.7453 128.746 71.7488 129.951 71.7488 131.255C71.7488 132.66 70.5446 133.663 67.9356 133.663C67.4339 133.764 67.0325 133.764 66.7314 133.764ZM69.8422 131.355C69.8422 130.954 69.3405 130.653 67.7349 130.653C67.3335 130.653 66.9321 130.653 66.6311 130.653V132.058C66.9321 132.058 67.3335 132.058 67.7349 132.058C69.4408 132.158 69.8422 131.757 69.8422 131.355Z" fill="white"/>
<path d="M72.8527 129.047H74.6589V135.569H72.8527V129.047Z" fill="white"/>
<path d="M76.1641 128.947H78.0707V131.857L82.7871 128.646L83.8909 130.351L81.1815 132.158L83.9913 134.365L82.7871 135.971L79.4756 133.262L78.1711 134.165V135.67H76.2645V128.947H76.1641Z" fill="white"/>
<path d="M88.1056 135.77V133.262L84.493 130.05L85.7976 128.445L89.2094 131.556L92.7216 128.244L94.1265 129.85L90.2129 133.161V135.77H88.1056Z" fill="white"/>
<path d="M95.2302 128.646H97.5382V136.071H95.2302V128.646Z" fill="white"/>
</g>
</g>
<defs>
<clipPath id="clip0_2895_6392">
<rect width="173" height="173" fill="white"/>
</clipPath>
</defs>
</svg>
