<svg width="173" height="174" viewBox="0 0 173 174" fill="none" xmlns="http://www.w3.org/2000/svg">
<circle cx="86.1957" cy="86.923" r="86.1957" fill="#FEC426"/>
<mask id="mask0_1647_4416" style="mask-type:alpha" maskUnits="userSpaceOnUse" x="0" y="0" width="173" height="174">
<circle cx="86.1957" cy="86.923" r="86.1957" fill="#D9D9D9"/>
</mask>
<g mask="url(#mask0_1647_4416)">
<path d="M87.056 309.846C87.1947 311.818 87.4564 313.588 87.4564 315.611C96.0914 316.117 104.988 316.369 113.623 315.864C117.341 315.565 120.976 314.625 124.351 313.082C128.276 288.049 128.538 262.51 126.183 236.971C126.183 236.212 126.445 235.201 126.183 234.442C125.921 233.178 125.921 232.166 125.66 230.902V228.373C123.043 204.857 119.38 182.1 114.67 159.342C96.353 159.848 78.298 160.859 59.9814 161.365C51.8854 196.958 48.9783 233.471 51.3464 269.843C51.3019 271.029 51.3908 272.215 51.608 273.383C52.1 280.461 53.2408 287.485 55.0097 294.37C55.533 296.141 56.0564 298.163 56.8414 299.933C58.1497 303.221 59.9814 306.508 61.2897 309.795C66.2614 311.059 71.4947 311.312 76.728 311.059C79.6064 310.806 82.7464 310.806 85.7503 310.096L87.056 309.846Z" fill="#26BCD3"/>
<path fill-rule="evenodd" clip-rule="evenodd" d="M113.225 159.61C122.807 208.539 130.61 260.854 123.005 312.045C117.776 314.297 111.647 314.558 106.289 314.62C100.553 314.68 94.7516 314.539 89.0238 314.2C88.5057 308.402 87.9562 302.556 87.4224 296.889C85.049 271.679 82.5972 245.611 82.7124 220.054C82.7568 211.065 81.8018 202.187 74.5928 198.116C73.8445 197.694 72.8815 197.936 72.4446 198.66C72.005 199.383 72.2588 200.313 73.0071 200.736C78.8423 204.03 79.6116 211.96 79.5724 220.039C79.4572 245.738 81.9165 271.876 84.2948 297.155L84.2954 297.162L84.4766 299.094L84.4776 299.105C84.7718 302.243 85.0702 305.426 85.3639 308.617C77.8003 309.8 70.1395 309.824 62.5745 308.687C54.3477 292.977 53.0446 277.312 52.4742 263.832C51.0324 229.595 54.0311 195.236 61.3865 161.714C61.5671 160.895 61.0254 160.091 60.1776 159.916C59.3298 159.742 58.4977 160.265 58.3172 161.084C50.9068 194.854 47.8871 229.466 49.3368 263.956C49.9281 277.957 51.3019 294.272 60.1462 310.763C60.3739 311.188 60.7952 311.484 61.2819 311.562C62.3298 311.73 63.3794 311.877 64.4304 312.003C64.4164 312.272 64.39 312.549 64.3355 312.662C64.1879 312.95 64.0538 313.272 63.9227 313.587L63.8907 313.664C63.7965 313.894 63.697 314.129 63.6107 314.314C61.4416 317.014 58.8094 318.996 56.0227 321.095L56.0224 321.095L55.9592 321.143C54.6233 322.15 53.2402 323.192 51.8697 324.352C50.0145 325.965 48.0284 328.709 48.0154 331.571C48.0075 333.266 48.7035 334.78 50.0276 335.954C50.1479 336.062 50.2866 336.151 50.4384 336.217C53.2199 337.438 56.5902 337.853 59.7433 337.853C64.168 337.853 68.1637 337.036 69.5008 336.487C70.0137 336.275 70.5475 336.075 71.063 335.883L71.0796 335.877C72.388 335.388 73.7399 334.883 74.9853 334.08C74.9939 334.073 75.0036 334.068 75.013 334.062C75.0179 334.059 75.0227 334.055 75.0272 334.052C82.0258 329.222 82.4764 321.233 82.874 314.183L82.8746 314.172L82.8889 313.919C82.9258 313.263 82.9614 312.631 83.0029 312.008C83.8833 311.903 84.7627 311.783 85.6409 311.647C85.7654 313.019 85.8884 314.39 86.0094 315.757C86.0774 316.506 86.6949 317.093 87.4695 317.143C88.2415 317.193 89.015 317.24 89.7896 317.283C89.9897 320.463 89.4939 322.64 88.3146 326.272C88.312 326.279 88.3094 326.289 88.3068 326.297C87.8253 327.875 86.3705 329.592 84.9627 331.25L84.9475 331.268C83.3822 333.116 81.7655 335.025 81.0665 337.14C80.203 339.757 80.9173 342.227 83.2069 344.488C83.2435 344.526 86.3757 347.239 92.101 347.239C93.7939 347.239 95.7146 347.001 97.8498 346.384C97.9466 346.356 98.0408 346.318 98.1298 346.273C98.6452 346.012 99.1843 345.787 99.7364 345.608C99.7966 345.588 99.8594 345.565 99.9169 345.537C100.932 345.062 101.874 344.452 102.717 343.727C107.39 339.898 110.399 334.558 111.19 328.694C111.838 324.075 112.103 320.306 111.983 317.458C116.293 317.167 120.769 316.443 124.843 314.569C125.002 314.496 125.142 314.4 125.261 314.288C125.649 314.062 125.933 313.675 126.002 313.209C133.858 261.342 125.987 208.463 116.31 159.046C116.151 158.222 115.329 157.683 114.476 157.838C113.623 157.994 113.063 158.786 113.225 159.61ZM79.8351 312.321C77.8057 312.48 75.7727 312.559 73.7398 312.559C71.6769 312.559 69.6146 312.477 67.5558 312.314C67.5178 312.872 67.4226 313.475 67.1406 314.02C67.0459 314.203 66.9354 314.467 66.8259 314.728L66.8004 314.789L66.7684 314.866C66.6373 315.181 66.5032 315.503 66.3556 315.79C66.3111 315.876 66.2588 315.957 66.1986 316.033C63.7651 319.108 60.8082 321.336 57.9482 323.49L57.8649 323.553C56.5693 324.53 55.2308 325.539 53.95 326.623C52.571 327.822 51.1606 329.832 51.1527 331.587C51.1501 332.353 51.4196 333 51.977 333.559C57.6238 335.883 66.6565 334.358 68.2631 333.695C68.7915 333.476 69.3154 333.28 69.8239 333.09L69.9299 333.051C71.1284 332.603 72.264 332.178 73.2217 331.566C78.9758 327.579 79.363 320.678 79.7372 314.005C79.7681 313.45 79.7998 312.884 79.8351 312.321ZM92.9419 317.438C93.1107 320.882 92.5231 323.44 91.3133 327.169C90.6524 329.328 88.9975 331.28 87.3985 333.166L87.391 333.175C83.8428 337.36 82.5763 339.496 85.4023 342.318C85.6875 342.536 89.7617 345.494 96.8136 343.519C97.3997 343.231 98.0094 342.981 98.6295 342.771C99.357 342.422 100.035 341.977 100.639 341.453C100.65 341.443 100.66 341.436 100.671 341.426C104.753 338.085 107.382 333.422 108.076 328.294C108.69 323.912 108.951 320.256 108.844 317.605C107.99 317.63 107.149 317.644 106.325 317.654C105.438 317.661 104.548 317.667 103.659 317.667C100.092 317.667 96.5096 317.59 92.9419 317.438Z" fill="#07377E"/>
<g clip-path="url(#clip0_1647_4416)">
<path d="M96.7351 89.2957C96.9706 91.9456 98.0512 97.933 102.073 97.0357L102.505 97.6916C102.309 101.803 100.231 104.702 96.9758 107.706C93.6683 110.711 89.4503 112.516 84.9993 112.833C81.0743 113.122 76.9007 112.18 73.9648 109.54C71.0289 106.901 69.4851 103.243 71.4293 100.108H71.7119C72.5963 100.134 73.4101 99.6699 74.1585 99.1976C75.1109 98.5942 77.076 96.12 77.6648 95.4089C78.4498 94.3883 78.769 90.5183 79.172 89.2957H96.7351V89.2957Z" fill="white"/>
<path fill-rule="evenodd" clip-rule="evenodd" d="M45.6859 190.91C46.8783 191.032 48.0643 191.153 49.2949 191.388L49.4205 191.403L47.628 206.899L47.6266 206.912C47.2346 210.295 46.8429 213.675 46.6939 217.082C46.6573 217.94 46.6546 218.866 47.1466 219.569C47.7406 220.427 48.8553 220.687 49.8705 220.881L61.1222 223.04L64.4113 223.426C81.8462 226.375 99.3124 225.609 116.716 222.479L128.876 220.052C129.986 219.706 131.201 219.554 132.425 219.401C134.996 219.08 137.609 218.753 139.381 216.62C139.596 216.124 139.685 215.584 139.643 215.046C138.886 211.403 136.553 204.862 134.408 198.85C132.846 194.471 131.384 190.372 130.705 187.88L130.443 187.452C130.147 167.601 129.344 147.692 124.872 128.389L124.04 125.868C121.842 118.758 118.964 111.936 114.913 105.773L114.39 100.735C114.4 99.9139 114.193 99.1005 113.79 98.3843C113.387 97.668 112.804 97.0698 112.097 96.65C111.391 96.2302 110.588 96.0072 109.766 95.9993C108.944 95.9914 108.136 96.2013 107.421 96.608C108.374 95.3486 107.9 93.3756 106.657 92.41C105.415 91.4445 103.659 91.3632 102.159 91.8354C100.66 92.3077 99.3674 93.2654 98.1376 94.2466C97.2469 94.9596 96.3656 95.6999 95.4822 96.4418C91.772 99.5581 88.0268 102.704 83.411 103.975L80.3181 103.005C78.5937 102.616 77.4371 100.992 76.762 99.3577C76.5281 98.7912 76.3331 98.2071 76.1383 97.6236C75.771 96.5233 75.4044 95.4251 74.7786 94.4513C73.8209 92.961 72.0101 91.7987 70.3302 92.3392C68.2709 93.0004 67.7083 95.5874 67.3263 97.7231C67.2923 98.0484 67.1798 98.3633 66.9966 98.6335C66.7037 98.9987 66.2095 99.104 65.7468 99.2026C65.7176 99.2088 65.6884 99.215 65.6595 99.2212C64.6128 99.4469 63.5478 99.8509 62.7812 100.614C62.0145 101.378 61.5906 102.556 61.9412 103.582L60.6172 105.775C59.8845 106.602 58.0005 109.304 58.0005 109.304C53.1611 117.477 51.2969 125.898 49.2704 135.052C49.2151 135.302 49.1595 135.553 49.1038 135.804C45.4751 153.026 43.8592 169.352 42.1885 186.232C42.0522 187.61 41.9154 188.991 41.7772 190.377C43.1291 190.649 44.4112 190.78 45.6859 190.91ZM48.3424 197.732C46.0162 197.716 43.7031 197.362 41.4763 196.682C41.6333 194.728 41.8034 192.721 42.6433 190.95L49.1143 191.674L48.3424 197.732Z" fill="#F15F30"/>
<path fill-rule="evenodd" clip-rule="evenodd" d="M88.8092 113.418C88.8642 114.253 89.555 114.89 90.374 114.89C90.4106 114.89 90.4446 114.89 90.476 114.882C97.4756 114.423 104.329 112.224 110.297 108.53C111.53 107.769 112.563 106.972 113.395 106.143C113.437 106.311 113.507 106.475 113.607 106.628C117.229 112.138 120.152 118.582 122.546 126.324C122.755 127.001 123.375 127.434 124.045 127.434C124.2 127.434 124.357 127.411 124.508 127.363C125.338 127.106 125.801 126.225 125.545 125.393C123.061 117.362 120.016 110.658 116.229 104.896C115.934 104.446 115.448 104.198 114.949 104.188C115.603 103.092 115.939 101.949 115.955 100.764C115.968 99.6646 115.69 98.5784 115.154 97.6207C114.617 96.6631 113.835 95.8602 112.89 95.3014C111.948 94.7425 110.87 94.4434 109.774 94.4329C109.669 94.4329 109.567 94.4329 109.463 94.4382C109.311 93.205 108.675 91.9981 107.613 91.1742C106.066 89.9726 103.847 89.6604 101.683 90.3425C99.9013 90.904 98.4124 92.0191 97.1538 93.024C95.7733 94.1282 94.6177 95.2119 93.5 96.26L93.459 96.2984L93.4563 96.3009C90.8095 98.7844 88.719 100.746 85.0438 101.758C84.2065 101.989 83.7146 102.855 83.9448 103.695C84.1751 104.534 85.0412 105.028 85.8759 104.797C90.3007 103.579 92.8781 101.16 95.6047 98.5994L95.6473 98.5595C96.72 97.5538 97.8301 96.5131 99.111 95.4877C100.194 94.6244 101.356 93.7455 102.625 93.3467C103.792 92.9794 104.967 93.1001 105.692 93.6642C106.312 94.1469 106.55 95.1571 106.166 95.6661C105.715 96.2617 105.744 97.0934 106.236 97.6549C106.728 98.2163 107.545 98.3554 108.193 97.9881C108.659 97.7231 109.188 97.584 109.722 97.584H109.748C110.292 97.5866 110.828 97.7362 111.297 98.0143C111.765 98.2924 112.153 98.6886 112.419 99.1661C112.686 99.6436 112.825 100.182 112.817 100.727C112.796 102.435 111.394 104.159 108.651 105.854C103.117 109.281 96.7613 111.317 90.2719 111.744C89.4084 111.802 88.7516 112.55 88.8092 113.418ZM59.0996 224.239C59.0028 224.239 58.9033 224.229 58.8039 224.211L49.5828 222.44C48.5518 222.232 46.8536 221.889 45.8697 220.487C45.5861 220.082 45.4049 219.654 45.2916 219.221C44.1346 219.02 43.0288 218.579 42.0441 217.919C40.7332 217.042 39.6943 215.82 39.0428 214.382C38.9355 214.146 38.8884 213.889 38.9041 213.632C38.9289 213.219 38.9607 212.797 38.9929 212.371L38.9983 212.299C39.2704 208.612 39.5504 204.8 37.007 202.247C36.8055 202.045 36.6642 201.793 36.5936 201.515C35.9756 199.036 37.3376 196.661 40.0029 195.481C40.1217 194.202 40.3014 192.852 40.7264 191.54C40.3709 191.214 40.1714 190.731 40.2229 190.22C40.3365 189.085 40.4483 187.952 40.5599 186.822L40.5601 186.82L40.5602 186.819L40.6337 186.075L40.6409 186.002C42.3338 168.909 43.9332 152.76 47.5757 135.476L47.7458 134.707C49.7737 125.542 51.6917 116.887 56.6582 108.496C56.6791 108.462 56.7 108.43 56.721 108.399L56.7497 108.358L56.7498 108.358L56.7499 108.358C57.051 107.928 58.7099 105.562 59.4528 104.726C59.7316 104.411 60.1088 104.234 60.497 104.203C60.4835 104.167 60.4703 104.13 60.4576 104.093C59.9317 102.559 60.4105 100.756 61.677 99.4967C62.5641 98.6151 63.7573 98.0222 65.3325 97.6811L65.4241 97.6601C65.5261 97.6391 65.6622 97.6102 65.7642 97.5814C65.7642 97.5774 65.7649 97.5742 65.7655 97.5709L65.7656 97.5709C65.7662 97.5676 65.7669 97.5643 65.7669 97.5604C65.7721 97.5184 65.7773 97.479 65.7852 97.4397L65.7865 97.4326C66.1686 95.3301 66.8065 91.8212 69.8541 90.8384C71.6701 90.2559 74.3992 90.8777 76.1132 93.6117C76.2983 93.9069 76.4628 94.2068 76.6117 94.5095C76.9213 93.8333 77.6786 93.4524 78.4236 93.6432C79.2636 93.8557 79.7738 94.7137 79.5592 95.5559C79.3227 96.4982 78.9439 97.1283 77.9629 98.0914C78.0445 98.316 78.1283 98.5358 78.217 98.7515C78.5859 99.641 79.3945 101.178 80.6662 101.467C81.5113 101.659 82.0425 102.501 81.8541 103.348C81.6631 104.196 80.8232 104.728 79.978 104.539C78.0102 104.096 76.3539 102.469 75.3151 99.9611C75.0586 99.3419 74.8467 98.7201 74.6452 98.1166L74.6354 98.0877C74.2884 97.0646 73.9601 96.0966 73.452 95.2882C72.8633 94.3489 71.7145 93.5487 70.8118 93.8373C69.6657 94.2072 69.213 96.1462 68.8833 97.9513C68.8153 98.5102 68.6138 99.048 68.2998 99.5151C68.2762 99.5492 68.2501 99.5833 68.2239 99.6174C67.5823 100.418 66.6833 100.611 66.084 100.739L66.0782 100.74L65.9945 100.759C65.0394 100.966 64.3329 101.291 63.8907 101.729C63.5008 102.118 63.302 102.695 63.4302 103.07C63.5505 103.422 63.9483 103.8 64.3198 104.12C67.6901 107.079 71.7904 109.06 76.1864 109.853C77.0395 110.007 77.6073 110.826 77.4529 111.681C77.3116 112.442 76.6496 112.977 75.9064 112.977C75.8149 112.977 75.7207 112.97 75.6265 112.951C70.6705 112.056 66.0468 109.824 62.2579 106.497C62.2016 106.448 62.1449 106.398 62.0878 106.347C62.0217 106.516 61.925 106.676 61.7973 106.82C61.2583 107.426 59.8636 109.388 59.3272 110.154C54.6381 118.096 52.7776 126.495 50.8099 135.389L50.6424 136.142C47.035 153.26 45.4439 169.343 43.7593 186.371L43.758 186.384C43.669 187.276 43.5801 188.171 43.4911 189.068C44.2735 189.178 45.048 189.26 45.8513 189.341L45.8937 189.345C46.5999 189.418 47.3197 189.491 48.0562 189.591L49.2452 179.311L49.2541 179.234C51.4075 160.753 53.6341 141.643 57.9666 123.205C58.1654 122.36 59.0106 121.833 59.8558 122.035C60.6984 122.234 61.2217 123.081 61.0228 123.929C56.731 142.196 54.5148 161.22 52.3714 179.619L52.3643 179.681L52.2884 180.337L49.1929 207.099L49.1913 207.113L49.1912 207.113C48.8097 210.412 48.4155 213.82 48.2666 217.168C48.2483 217.586 48.2142 218.367 48.4367 218.682C48.6983 219.055 49.6299 219.244 50.1846 219.354L59.39 221.12C60.2404 221.282 60.8004 222.109 60.6356 222.962C60.4969 223.715 59.8401 224.239 59.0996 224.239ZM39.5897 200.403C39.5424 199.204 40.8836 198.525 41.4066 198.306C43.2123 198.826 45.0655 199.147 46.9377 199.262L46.0738 206.731L46.0629 206.826C45.7186 209.809 45.3639 212.883 45.1859 215.964C44.6931 215.813 44.2228 215.59 43.7894 215.3C43.0698 214.817 42.4785 214.169 42.0677 213.409C42.0793 213.224 42.093 213.039 42.1069 212.852L42.1069 212.852C42.1148 212.745 42.1228 212.638 42.1305 212.53L42.1308 212.525C42.4133 208.685 42.7625 203.938 39.5897 200.403ZM47.6943 192.72L47.3 196.129C45.9019 196.054 44.5136 195.848 43.1536 195.515C43.2649 194.395 43.4321 193.287 43.7912 192.284C44.3827 192.357 44.962 192.416 45.5321 192.474L45.6525 192.486L45.653 192.486C46.3475 192.558 47.0207 192.628 47.6943 192.72ZM64.1497 224.974C71.5601 226.228 79.1275 226.855 86.9487 226.855C96.4249 226.855 106.272 225.931 116.64 224.087C118.046 225.172 119.702 225.745 121.525 225.745C121.722 225.745 121.923 225.74 122.125 225.724C124.899 225.542 127.311 224.03 128.927 221.62C129.064 221.615 129.203 221.592 129.341 221.553C130.317 221.248 131.437 221.107 132.62 220.96C135.339 220.621 138.419 220.236 140.588 217.625C140.685 217.51 140.763 217.381 140.823 217.242C141.135 216.515 141.268 215.712 141.208 214.923C141.203 214.854 141.192 214.789 141.179 214.723C140.399 210.972 138.105 204.54 135.887 198.32L135.887 198.32L135.886 198.317C134.339 193.988 132.882 189.897 132.217 187.463C132.172 187.297 132.103 187.146 132.014 187.01C131.756 168.04 131.062 149.783 126.61 130.538C126.413 129.691 125.571 129.163 124.726 129.36C123.88 129.557 123.354 130.402 123.551 131.249C128.519 152.73 128.734 173.109 128.962 194.685V194.685L128.962 194.691L128.967 195.09L109.156 194.764C106.213 171.702 105.197 148.243 106.137 125.015C106.173 124.147 105.498 123.412 104.632 123.378C103.766 123.346 103.033 124.018 102.999 124.887C102.034 148.744 103.117 172.846 106.218 196.52C106.298 197.129 106.719 197.619 107.273 197.807C107.052 199.418 106.994 201.051 107.102 202.677C107.102 202.971 107.152 203.26 107.254 203.535C107.372 203.85 107.547 204.134 107.777 204.375C107.799 204.398 107.822 204.421 107.845 204.442C106.897 205.161 106.111 206.081 105.765 207.188C105.467 208.145 105.375 209.636 106.631 211.289C107.793 212.821 109.397 213.742 110.813 214.553C111.093 214.713 111.37 214.873 111.647 215.038C112.035 215.267 112.458 216.813 112.643 217.49L112.643 217.49L112.643 217.49L112.647 217.504C112.775 217.977 112.898 218.423 113.042 218.821C113.374 219.736 113.768 220.567 114.218 221.311C96.3923 224.309 80.1621 224.491 64.6704 221.87C63.8147 221.723 63.0062 222.303 62.8623 223.161C62.7184 224.016 63.294 224.83 64.1497 224.974ZM112.699 204.972C112.543 205.422 112.185 205.796 111.697 205.952C110.242 206.424 109.007 207.34 108.761 208.13C108.714 208.279 108.591 208.675 109.128 209.381C109.904 210.404 111.102 211.091 112.368 211.818L112.37 211.819L112.584 211.942L112.585 211.943C112.809 212.071 113.032 212.199 113.251 212.33C114.727 213.208 115.252 215.124 115.672 216.662L115.675 216.67C115.784 217.077 115.892 217.462 115.991 217.74C116.839 220.073 118.55 222.799 121.915 222.581C124.126 222.434 126.795 220.768 127.672 216.531C128.344 213.273 127.736 209.767 127.148 206.373L127.146 206.361L127.115 206.184C127.055 205.835 126.995 205.487 126.937 205.139C126.925 205.069 126.918 205 126.916 204.932L112.699 204.972ZM129.641 203.812C129.839 204.029 129.98 204.304 130.032 204.617L130.033 204.62C130.101 205.02 130.168 205.421 130.239 205.823L130.241 205.836L130.241 205.837C130.879 209.519 131.538 213.327 130.747 217.171C130.684 217.476 130.612 217.774 130.531 218.067C131.099 217.976 131.667 217.904 132.228 217.835C134.583 217.541 136.631 217.284 138.008 215.796C138.06 215.62 138.084 215.434 138.078 215.25C137.318 211.693 134.993 205.173 132.936 199.406L132.936 199.405L132.936 199.405L132.936 199.405L132.926 199.377L132.858 199.185L132.856 199.181C132.596 198.452 132.339 197.73 132.088 197.022C132.024 197.317 131.877 197.59 131.66 197.805C131.369 198.099 130.969 198.264 130.556 198.264H130.529L130.002 198.256L130.132 201.581C130.145 201.99 130.175 202.995 129.641 203.812ZM126.858 198.204L110.427 197.933C110.231 199.225 110.156 200.532 110.203 201.838L126.997 201.791C126.997 201.777 126.997 201.762 126.996 201.747C126.996 201.731 126.996 201.714 126.994 201.696L126.858 198.204Z" fill="#07377E"/>
</g>
<path d="M99.8463 65.8762C101.66 63.7353 101.097 60.0279 98.7316 58.5298C97.8838 57.9893 96.811 57.6535 96.3478 56.7614C95.8245 55.7775 96.2981 54.5995 96.5728 53.5237C96.5728 53.4896 96.5912 53.4529 96.6016 53.4188C97.3866 50.1758 93.6893 47.7699 90.9967 49.7324C87.6343 52.183 83.814 53.9304 79.7634 54.8723C77.67 55.3551 75.0979 55.4495 73.8052 53.7336C73.0412 52.7156 72.858 51.1781 70.9269 51.3224C70.3643 51.3696 69.8227 51.5664 69.3569 51.8891C65.9003 54.2269 61.9465 55.7145 57.8095 56.2367C56.653 56.381 55.4545 56.4466 54.3372 56.1133C51.1292 55.1557 49.6717 51.06 50.6399 47.8486C51.608 44.6371 54.3425 42.2627 57.2313 40.5625C59.0211 39.513 61.015 38.5475 62.093 36.766C62.7263 35.7165 62.9748 34.4676 63.6107 33.4207C64.2465 32.3738 65.2409 31.5841 66.2535 30.8704C71.7093 27.0844 78.2326 25.1586 84.8633 25.3711C88.7883 25.5075 93.4014 27.0896 94.2492 30.9255L100.268 33.4679C104.899 34.1816 109.609 35.7453 112.888 39.1037C116.166 42.4621 117.598 47.9483 115.243 52.0124C114.934 52.5372 114.552 53.0934 114.568 53.7126C114.589 54.4997 115.245 55.1189 115.79 55.7014C116.742 56.7352 117.467 57.9578 117.914 59.2907C118.362 60.6235 118.524 62.0351 118.391 63.4362C118.268 64.6536 117.867 65.913 116.957 66.7185C116.046 67.5239 114.494 67.6892 113.634 66.8234L100.576 68.8306L99.8463 65.8762Z" fill="#07377E"/>
<path d="M57.3385 56.3731C55.6508 60.7258 54.6355 64.6562 54.3791 67.0359C53.7328 73.0285 54.9391 79.6875 59.5104 83.9563C61.9465 86.2285 64.9635 87.3462 68.1899 87.9155C71.5549 88.5111 75.1659 89.0542 78.4315 87.7161C78.2588 90.4474 78.2326 92.3969 78.3582 95.1308L96.8057 93.079C96.5074 89.4872 97.1721 86.4069 98.7316 83.1587C99.0848 82.4241 99.8437 82.4319 100.595 82.1932C101.262 81.9833 101.916 81.7419 102.562 81.469C103.873 80.9233 105.111 80.2175 106.252 79.3701C108.507 77.662 110.266 75.2639 110.925 72.4828C111.524 69.9614 111.103 66.9598 108.309 65.5404C106.338 64.5434 104.572 64.8976 101.571 67.5423L99.8698 65.8841C101.683 63.7431 101.121 60.0358 98.7551 58.5376C97.9073 57.9972 96.8345 57.6613 96.3714 56.7693C95.848 55.7854 96.3216 54.6073 96.5964 53.5316C96.5964 53.4975 96.6147 53.4607 96.6252 53.4266C97.4102 50.1837 93.7128 47.7777 91.0203 49.7403C87.6579 52.1908 83.8375 53.9383 79.7869 54.8802C77.6936 55.3629 75.1214 55.4574 73.8288 53.7415C73.0647 52.7235 72.8815 51.186 70.9504 51.3303C70.3879 51.3775 69.8462 51.5743 69.3804 51.897C65.916 54.2347 61.9517 55.7198 57.8095 56.2366" fill="white"/>
<path d="M115.143 68.9827C114.162 68.9827 113.21 68.6338 112.514 67.9359C111.901 67.3193 111.904 66.3223 112.516 65.7083C113.131 65.0944 114.125 65.097 114.738 65.7109C114.934 65.9077 115.549 65.8579 115.91 65.5378C116.394 65.1101 116.716 64.3072 116.821 63.2761C116.933 62.0954 116.8 60.9226 116.418 59.7918C116.038 58.661 115.436 57.6456 114.628 56.7693L114.494 56.6276C113.874 55.9716 113.024 55.0743 112.99 53.7546C112.964 52.7445 113.437 51.9547 113.783 51.3775L113.882 51.2122C115.965 47.6151 114.345 42.853 111.757 40.2057C109.185 37.5714 105.237 35.8293 100.022 35.0238C99.1633 34.8926 98.5772 34.0871 98.708 33.2292C98.8389 32.3712 99.6422 31.7809 100.498 31.912C106.401 32.8225 110.944 34.8716 114.002 38.0017C115.858 39.9013 117.174 42.3781 117.708 44.9756C118.286 47.7856 117.891 50.5641 116.593 52.8048L116.475 53.0016C116.355 53.201 116.156 53.5316 116.132 53.668C116.187 53.8438 116.554 54.2295 116.774 54.463L116.928 54.6257C118.045 55.8378 118.872 57.2337 119.395 58.7869C119.919 60.3402 120.102 61.9538 119.948 63.5857C119.759 65.4433 119.084 66.931 117.99 67.8991C117.171 68.6207 116.143 68.9827 115.143 68.9827Z" fill="#07377E"/>
<path d="M99.8463 67.4505C99.4878 67.4505 99.1267 67.3271 98.831 67.0753C98.169 66.5112 98.0905 65.5194 98.6505 64.8556C99.213 64.1918 99.4564 63.1974 99.3046 62.1951C99.1529 61.1955 98.6243 60.3218 97.8942 59.86C97.7137 59.7446 97.5017 59.6318 97.2767 59.5111C96.4943 59.0939 95.5183 58.5718 94.9557 57.4882C94.2231 56.1107 94.6286 54.6598 94.9269 53.5972C94.9636 53.466 95.0002 53.3348 95.0342 53.2062C95.0499 53.1223 95.0709 53.0462 95.0918 52.9832C95.3482 51.7868 94.5292 51.1282 94.2675 50.9525C93.6945 50.5668 92.7787 50.3805 91.923 51.0023C88.3696 53.5919 84.4001 55.4075 80.1218 56.4019C76.6286 57.2074 74.0119 56.6118 72.5571 54.6781C72.298 54.3344 72.107 53.9829 71.9395 53.6733C71.4947 52.8547 71.479 52.8547 71.0472 52.8888C70.7725 52.9124 70.4951 53.0121 70.257 53.1774C66.5963 55.6516 62.3678 57.2442 58.011 57.7925C56.7812 57.9473 55.3315 58.0444 53.895 57.6167C52.1968 57.1103 50.755 55.8877 49.8339 54.177C48.7349 52.1305 48.4759 49.5934 49.1405 47.3868C50.0877 44.2462 52.5422 41.4913 56.441 39.1981C56.6817 39.0565 56.9225 38.92 57.1658 38.781C58.639 37.9388 60.0285 37.1438 60.7559 35.9421C60.9992 35.5407 61.1876 35.0474 61.3891 34.5253C61.6325 33.893 61.8837 33.2397 62.2762 32.5942C63.0664 31.2902 64.2256 30.3719 65.356 29.5743C71.0577 25.6177 77.9997 23.5686 84.9182 23.789C89.2749 23.9412 94.7333 25.8093 95.7878 30.5766C95.9762 31.4267 95.4424 32.2663 94.5946 32.4552C93.7494 32.6414 92.9095 32.1088 92.7211 31.2587C92.0983 28.4409 88.3015 27.0581 84.8135 26.9375C78.5675 26.7328 72.2928 28.5904 67.151 32.1587C66.3058 32.7543 65.4476 33.4233 64.9556 34.234C64.7097 34.6381 64.5187 35.134 64.3172 35.6587C64.0764 36.2858 63.8279 36.9339 63.4406 37.5741C62.2919 39.4736 60.3948 40.5599 58.7201 41.5149C58.4872 41.6487 58.257 41.7799 58.0267 41.9137C54.8344 43.7923 52.8562 45.9411 52.1444 48.2972C51.7232 49.6983 51.8959 51.3775 52.5971 52.6815C52.9661 53.3663 53.6438 54.2557 54.7873 54.5968C55.6691 54.8592 56.7131 54.7805 57.6185 54.6677C61.4886 54.1796 65.2461 52.7654 68.4829 50.5773C69.1554 50.1102 69.9613 49.819 70.7987 49.7482C73.2819 49.5593 74.2029 51.2568 74.6975 52.1672C74.8257 52.4034 74.9461 52.6264 75.0638 52.7812C75.964 53.9776 78.4079 53.5657 79.4153 53.3322C83.2802 52.4349 86.8676 50.7924 90.0783 48.452C91.8602 47.1533 94.1917 47.1061 96.0181 48.3313C97.8131 49.5356 98.6426 51.6766 98.1324 53.7808C98.1245 53.8123 98.1167 53.8412 98.1062 53.8727C98.1062 53.8753 98.1062 53.8779 98.1036 53.8779C98.101 53.8858 98.0983 53.8963 98.0983 53.9041C98.0539 54.0799 98.0041 54.2584 97.9544 54.4394C97.7922 55.0166 97.5933 55.7355 97.7399 56.011C97.8602 56.2445 98.3181 56.4885 98.7604 56.7247C99.0273 56.8663 99.302 57.0133 99.582 57.1917C101.089 58.1467 102.123 59.7944 102.416 61.7097C102.709 63.6303 102.212 65.5168 101.053 66.8837C100.733 67.2616 100.291 67.4505 99.8463 67.4505ZM98.1428 53.5263C98.1428 53.529 98.1428 53.529 98.1428 53.5263C98.1428 53.529 98.1428 53.529 98.1428 53.5263ZM98.1428 53.5237V53.5263V53.5237Z" fill="#07377E"/>
<path d="M65.0891 63.6093C66.1007 63.6093 66.9208 62.6109 66.9208 61.3792C66.9208 60.1475 66.1007 59.149 65.0891 59.149C64.0775 59.149 63.2574 60.1475 63.2574 61.3792C63.2574 62.6109 64.0775 63.6093 65.0891 63.6093Z" fill="#07377E"/>
<path d="M73.9858 64.2259C74.9974 64.2259 75.8174 63.2274 75.8174 61.9957C75.8174 60.764 74.9974 59.7656 73.9858 59.7656C72.9742 59.7656 72.1541 60.764 72.1541 61.9957C72.1541 63.2274 72.9742 64.2259 73.9858 64.2259Z" fill="#07377E"/>
<path d="M96.7927 93.0712C95.9867 93.0712 95.2986 92.452 95.2305 91.6281C94.8982 87.6768 95.6649 85.869 97.2925 82.4687C97.8891 81.2277 99.0168 80.9548 99.6919 80.7921C99.8385 80.7554 99.9772 80.7239 100.098 80.6845C100.72 80.4878 101.335 80.2621 101.929 80.0102C103.13 79.5117 104.258 78.8689 105.294 78.0975C107.382 76.5154 108.837 74.3876 109.376 72.1102C109.654 70.9636 110.03 68.1772 107.579 66.9362C106.508 66.3931 105.459 66.1806 102.583 68.7151C101.932 69.2897 100.94 69.2241 100.367 68.5708C99.794 67.9175 99.8594 66.9231 100.511 66.3485C104.64 62.7094 107.026 63.1292 108.992 64.1236C112.037 65.6663 113.354 69.0063 112.427 72.8422C111.721 75.8228 109.855 78.5856 107.176 80.6137C105.925 81.5451 104.569 82.3165 103.141 82.9095C102.463 83.1954 101.754 83.4578 101.04 83.6808C100.822 83.7491 100.613 83.8015 100.43 83.8461C100.315 83.875 100.166 83.9091 100.069 83.9406C98.5642 87.0891 98.0984 88.2724 98.3601 91.3579C98.4333 92.2237 97.7922 92.9846 96.9287 93.058C96.8816 93.0685 96.8372 93.0712 96.7927 93.0712Z" fill="#07377E"/>
<path d="M78.3582 95.3932C77.5235 95.3932 76.8301 94.7346 76.7908 93.8898C76.7071 92.0427 76.6888 91.1138 76.7411 89.8466C73.5959 90.4553 70.3931 89.8964 67.923 89.4635C63.9325 88.7577 60.8318 87.3331 58.4428 85.1055C54.052 81.0046 52.0032 74.3561 52.8196 66.8601C53.1257 64.0816 54.2666 59.9466 55.8758 55.7984C56.1898 54.9877 57.1004 54.5863 57.909 54.9011C58.7175 55.216 59.1179 56.129 58.8039 56.9398C57.0193 61.5418 56.1558 65.2596 55.9412 67.2038C55.2321 73.6975 56.9225 79.3832 60.5832 82.7992C62.5405 84.6254 65.0446 85.7562 68.4646 86.3596C71.9605 86.971 75.0822 87.3829 77.8401 86.2521C78.3399 86.0474 78.9103 86.1156 79.3499 86.4305C79.7895 86.748 80.0355 87.2675 80.0015 87.8079C79.834 90.4474 79.8052 91.0299 79.9308 93.7376C79.9701 94.606 79.3002 95.3433 78.4341 95.3827C78.4053 95.3932 78.3818 95.3932 78.3582 95.3932Z" fill="#07377E"/>
</g>
<defs>
<clipPath id="clip0_1647_4416">
<rect width="157" height="157.424" fill="white" transform="translate(7.93326 89.2957)"/>
</clipPath>
</defs>
</svg>
