<svg width="172" height="172" viewBox="0 0 172 172" fill="none" xmlns="http://www.w3.org/2000/svg">
<g clip-path="url(#clip0_3436_8248)">
<path d="M86.2 172.4C133.807 172.4 172.4 133.807 172.4 86.2C172.4 38.5931 133.807 0 86.2 0C38.5931 0 0 38.5931 0 86.2C0 133.807 38.5931 172.4 86.2 172.4Z" fill="#0F52FF"/>
<mask id="mask0_3436_8248" style="mask-type:alpha" maskUnits="userSpaceOnUse" x="0" y="0" width="173" height="173">
<path d="M86.2 172.4C133.807 172.4 172.4 133.807 172.4 86.2C172.4 38.5931 133.807 0 86.2 0C38.5931 0 0 38.5931 0 86.2C0 133.807 38.5931 172.4 86.2 172.4Z" fill="#FEC426"/>
</mask>
<g mask="url(#mask0_3436_8248)">
<path d="M86.993 301.678C87.129 303.597 87.3854 305.318 87.3854 307.286C95.8485 307.778 104.568 308.024 113.031 307.532C116.675 307.242 120.238 306.327 123.546 304.826C127.393 280.479 127.649 255.64 125.341 230.8C125.341 230.062 125.598 229.079 125.341 228.341C125.085 227.111 125.085 226.127 124.828 224.898V222.438C122.264 199.567 118.673 177.432 114.057 155.298C96.105 155.79 78.4094 156.774 60.4574 157.266C52.5226 191.884 49.6734 227.396 51.9943 262.772C51.9507 263.925 52.0379 265.079 52.2507 266.215C52.7329 273.098 53.851 279.93 55.5847 286.627C56.0976 288.349 56.6105 290.316 57.3799 292.038C58.6622 295.235 60.4574 298.432 61.7397 301.629C66.6124 302.859 71.7415 303.105 76.8707 302.859C79.6917 302.613 82.7692 302.613 85.7133 301.922L86.993 301.678Z" fill="#0F52FF"/>
<path fill-rule="evenodd" clip-rule="evenodd" d="M112.641 155.559C122.032 203.147 129.68 254.029 122.226 303.818C117.102 306.008 111.095 306.262 105.843 306.322C100.221 306.381 94.5354 306.243 88.9216 305.913C88.4138 300.274 87.8752 294.588 87.3521 289.077C85.026 264.557 82.623 239.204 82.7358 214.347C82.7794 205.604 81.8433 196.969 74.7779 193.01C74.0445 192.599 73.1007 192.835 72.6724 193.539C72.2416 194.242 72.4903 195.147 73.2238 195.558C78.9428 198.762 79.6968 206.475 79.6583 214.332C79.5455 239.327 81.9558 264.749 84.2868 289.336L84.2874 289.342L84.4651 291.223L84.4653 291.226L84.4662 291.235C84.7544 294.286 85.0469 297.381 85.3346 300.484C77.9215 301.634 70.4133 301.657 62.9989 300.552C54.9358 285.272 53.6587 270.036 53.0996 256.926C51.6865 223.626 54.6255 190.209 61.8345 157.605C62.0115 156.808 61.4806 156.026 60.6497 155.856C59.8188 155.687 59.0032 156.196 58.8263 156.993C51.5634 189.837 48.6039 223.501 50.0247 257.046C50.6043 270.664 51.9507 286.531 60.6189 302.571C60.842 302.984 61.2549 303.272 61.732 303.348C62.759 303.512 63.7878 303.654 64.8178 303.777C64.8041 304.038 64.7782 304.308 64.7248 304.418C64.5801 304.698 64.4486 305.011 64.32 305.318L64.2888 305.392C64.1965 305.616 64.0991 305.844 64.0144 306.024C61.8885 308.651 59.3086 310.579 56.5774 312.62L56.5772 312.62L56.5155 312.666C55.2061 313.645 53.8504 314.659 52.5072 315.788C50.6889 317.357 48.7424 320.025 48.7296 322.809C48.7219 324.457 49.404 325.93 50.7017 327.071C50.8197 327.177 50.9556 327.263 51.1044 327.327C53.8305 328.515 57.1337 328.918 60.224 328.918C64.5607 328.918 68.4768 328.124 69.7873 327.59C70.2899 327.383 70.8131 327.189 71.3183 327.002L71.3344 326.996C72.6168 326.521 73.9419 326.03 75.1626 325.249C75.1754 325.239 75.1908 325.231 75.2037 325.222C82.0629 320.524 82.5045 312.753 82.8942 305.897L82.8948 305.886L82.9088 305.64C82.945 305.002 82.9799 304.387 83.0206 303.782C83.8835 303.679 84.7454 303.562 85.606 303.431C85.7281 304.765 85.8487 306.099 85.9672 307.428C86.0339 308.156 86.6391 308.727 87.3982 308.776C88.1549 308.825 88.9129 308.87 89.6721 308.912C89.8683 312.005 89.3824 314.122 88.2266 317.654C88.224 317.662 88.2214 317.672 88.2189 317.679C87.747 319.214 86.3211 320.883 84.9413 322.497L84.9264 322.514C83.3923 324.311 81.8078 326.168 81.1227 328.225C80.2764 330.77 80.9765 333.173 83.2205 335.371C83.2564 335.408 86.3262 338.047 91.9375 338.047C93.5968 338.047 95.4792 337.816 97.5719 337.216C97.6668 337.189 97.7591 337.152 97.8463 337.108C98.3515 336.854 98.8798 336.636 99.4209 336.461C99.4799 336.441 99.5415 336.419 99.5979 336.392C100.593 335.93 101.516 335.337 102.342 334.631C106.922 330.908 109.872 325.714 110.646 320.01C111.281 315.518 111.542 311.852 111.424 309.083C115.648 308.799 120.034 308.095 124.028 306.272C124.183 306.201 124.321 306.108 124.438 305.999C124.818 305.779 125.096 305.403 125.164 304.949C132.863 254.503 125.149 203.073 115.665 155.011C115.509 154.209 114.703 153.685 113.867 153.835C113.031 153.987 112.482 154.757 112.641 155.559ZM79.9158 304.086C77.9268 304.24 75.9344 304.317 73.9419 304.317C71.92 304.317 69.8988 304.238 67.881 304.079C67.8437 304.622 67.7504 305.209 67.474 305.739C67.3812 305.917 67.273 306.173 67.1656 306.427L67.1406 306.486L67.1093 306.561C66.9808 306.867 66.8493 307.181 66.7047 307.46C66.6611 307.544 66.6098 307.623 66.5508 307.696C64.1657 310.687 61.2678 312.854 58.4647 314.949L58.3834 315.01C57.1136 315.96 55.8015 316.941 54.546 317.996C53.1945 319.162 51.8122 321.117 51.8045 322.824C51.8019 323.569 52.0661 324.199 52.6123 324.742C58.1467 327.002 66.9996 325.519 68.5742 324.875C69.0924 324.661 69.6061 324.471 70.1048 324.286L70.2079 324.248C71.3824 323.812 72.4955 323.399 73.4341 322.804C79.0736 318.926 79.4532 312.214 79.8199 305.724C79.8502 305.184 79.8812 304.633 79.9158 304.086ZM92.7617 309.063C92.9272 312.412 92.3512 314.9 91.1656 318.527C90.5177 320.627 88.8959 322.525 87.3286 324.36L87.3213 324.368C83.8437 328.439 82.6025 330.517 85.3722 333.261C85.6517 333.473 89.6448 336.35 96.5563 334.429C97.1308 334.149 97.7283 333.906 98.3361 333.702C99.0491 333.362 99.7133 332.929 100.306 332.42C100.316 332.41 100.326 332.403 100.336 332.393C104.337 329.144 106.915 324.609 107.594 319.622C108.197 315.359 108.452 311.803 108.348 309.226C107.511 309.25 106.686 309.263 105.879 309.273C105.009 309.28 104.137 309.285 103.265 309.285C99.7696 309.285 96.2584 309.211 92.7617 309.063Z" fill="black"/>
<g clip-path="url(#clip1_3436_8248)">
<path d="M96.4794 87.1709C96.7102 89.7483 97.7694 95.5716 101.711 94.6989L102.134 95.3368C101.942 99.3356 99.9057 102.155 96.7153 105.077C93.4737 107.999 89.3396 109.755 84.9773 110.064C81.1304 110.344 77.0399 109.428 74.1625 106.861C71.285 104.294 69.7719 100.737 71.6774 97.6871H71.9544C72.8212 97.7126 73.6188 97.2609 74.3522 96.8016C75.2857 96.2146 77.2117 93.8083 77.7888 93.1167C78.5581 92.124 78.871 88.3601 79.266 87.1709H96.4794V87.1709Z" fill="white"/>
<path fill-rule="evenodd" clip-rule="evenodd" d="M46.4466 186.001C47.6153 186.12 48.7777 186.238 49.9837 186.466L50.1068 186.481L48.3501 201.552L48.3487 201.565C47.9645 204.855 47.5805 208.143 47.4345 211.456C47.3986 212.291 47.3961 213.191 47.8782 213.875C48.4604 214.71 49.5529 214.962 50.5479 215.151L61.5756 217.251L64.7993 217.627C81.887 220.495 99.0056 219.75 116.063 216.705L127.98 214.345C129.068 214.009 130.259 213.861 131.459 213.712C133.979 213.399 136.54 213.081 138.277 211.007C138.487 210.525 138.574 209.999 138.533 209.476C137.792 205.933 135.505 199.571 133.403 193.724C131.872 189.465 130.439 185.478 129.773 183.054L129.516 182.638C129.227 163.331 128.439 143.967 124.056 125.194L123.241 122.741C121.087 115.826 118.266 109.191 114.296 103.197L113.783 98.297C113.793 97.4983 113.59 96.7072 113.195 96.0106C112.8 95.3139 112.229 94.7321 111.536 94.3238C110.844 93.9155 110.056 93.6986 109.251 93.6909C108.446 93.6833 107.653 93.8874 106.953 94.283C107.887 93.0581 107.423 91.1391 106.204 90.2C104.986 89.2609 103.265 89.1818 101.796 89.6412C100.326 90.1005 99.0594 91.0319 97.8541 91.9863C96.9812 92.6797 96.1174 93.3997 95.2516 94.1213C91.6153 97.1523 87.9446 100.212 83.4207 101.449L80.3893 100.504C78.6993 100.127 77.5657 98.5471 76.9041 96.9573C76.6748 96.4064 76.4837 95.8383 76.2928 95.2707C75.9328 94.2006 75.5735 93.1325 74.9601 92.1854C74.0215 90.7359 72.2468 89.6054 70.6003 90.1311C68.582 90.7742 68.0306 93.2903 67.6562 95.3675C67.6229 95.6839 67.5126 95.9902 67.3331 96.253C67.046 96.6082 66.5616 96.7106 66.1082 96.8065C66.0795 96.8125 66.0509 96.8186 66.0226 96.8246C64.9967 97.0441 63.953 97.4371 63.2015 98.1797C62.4501 98.9222 62.0347 100.068 62.3783 101.066L61.0806 103.199C60.3626 104.003 58.5161 106.631 58.5161 106.631C53.773 114.58 51.9459 122.77 49.9598 131.673C49.9055 131.917 49.8511 132.161 49.7965 132.405C46.24 149.156 44.6563 165.034 43.0189 181.451C42.8852 182.792 42.7512 184.135 42.6157 185.483C43.9407 185.747 45.1973 185.875 46.4466 186.001ZM49.0502 192.636C46.7703 192.621 44.5033 192.277 42.3208 191.616C42.4747 189.714 42.6414 187.762 43.4646 186.04L49.8068 186.744L49.0502 192.636Z" fill="#FF553E"/>
<path fill-rule="evenodd" clip-rule="evenodd" d="M88.7112 110.633C88.765 111.444 89.4421 112.064 90.2448 112.064C90.2807 112.064 90.314 112.064 90.3448 112.057C97.2051 111.61 103.922 109.472 109.771 105.879C110.979 105.138 111.992 104.363 112.808 103.557C112.849 103.72 112.918 103.88 113.016 104.028C116.565 109.387 119.43 115.655 121.776 123.185C121.981 123.844 122.589 124.265 123.246 124.265C123.397 124.265 123.551 124.242 123.7 124.196C124.513 123.946 124.967 123.088 124.715 122.279C122.281 114.468 119.296 107.948 115.585 102.344C115.296 101.906 114.82 101.665 114.33 101.656C114.971 100.59 115.301 99.4778 115.316 98.325C115.329 97.2558 115.057 96.1994 114.531 95.2679C114.006 94.3365 113.239 93.5556 112.313 93.0121C111.39 92.4686 110.333 92.1776 109.259 92.1674C109.156 92.1674 109.056 92.1674 108.953 92.1725C108.805 90.9732 108.181 89.7993 107.14 88.998C105.625 87.8293 103.45 87.5256 101.329 88.1891C99.5824 88.7352 98.1232 89.8197 96.8896 90.7971C95.5367 91.871 94.4041 92.925 93.3087 93.9443L93.3087 93.9444L93.2684 93.9818L93.2658 93.9843C90.6717 96.3997 88.6227 98.3075 85.0208 99.2922C84.2001 99.5168 83.718 100.359 83.9436 101.175C84.1693 101.992 85.0182 102.472 85.8363 102.247C90.173 101.063 92.6991 98.7104 95.3714 96.2198L95.413 96.181C96.4644 95.2029 97.5525 94.1906 98.8079 93.1933C99.8696 92.3537 101.008 91.4989 102.252 91.111C103.396 90.7537 104.547 90.8711 105.258 91.4197C105.866 91.8893 106.099 92.8718 105.722 93.3668C105.281 93.9461 105.309 94.755 105.791 95.3011C106.273 95.8472 107.074 95.9825 107.71 95.6252C108.166 95.3675 108.684 95.2322 109.207 95.2322H109.233C109.766 95.2348 110.292 95.3802 110.751 95.6507C111.21 95.9212 111.59 96.3065 111.851 96.771C112.113 97.2354 112.249 97.7585 112.241 98.2893C112.221 99.9506 110.846 101.627 108.158 103.276C102.734 106.608 96.5049 108.589 90.1448 109.005C89.2985 109.061 88.6548 109.788 88.7112 110.633ZM59.593 218.418C59.4981 218.418 59.4007 218.407 59.3032 218.39L50.2656 216.667C49.2552 216.465 47.5908 216.131 46.6265 214.768C46.3486 214.374 46.171 213.958 46.0599 213.537C44.9259 213.341 43.8422 212.912 42.8771 212.27C41.5922 211.418 40.5741 210.229 39.9355 208.83C39.8303 208.601 39.7842 208.351 39.7996 208.1C39.8239 207.699 39.855 207.289 39.8866 206.874L39.8919 206.804C40.1586 203.219 40.433 199.511 37.9403 197.028C37.7428 196.831 37.6043 196.586 37.5351 196.316C36.9293 193.905 38.2642 191.595 40.8765 190.447C40.9929 189.203 41.169 187.89 41.5856 186.614C41.2372 186.297 41.0416 185.828 41.0921 185.33C41.2035 184.226 41.3132 183.123 41.4226 182.023L41.4947 181.298L41.5018 181.228C43.161 164.603 44.7286 148.897 48.2985 132.086L48.4652 131.338C50.4528 122.425 52.3326 114.006 57.2002 105.845C57.2207 105.812 57.2412 105.782 57.2617 105.751L57.2899 105.711L57.29 105.711C57.5846 105.294 59.2109 102.991 59.9391 102.178C60.2125 101.872 60.5821 101.7 60.9626 101.67C60.9493 101.634 60.9365 101.599 60.924 101.563C60.4085 100.07 60.8779 98.3174 62.1191 97.0925C62.9885 96.2351 64.158 95.6583 65.7018 95.3266L65.7916 95.3062C65.8916 95.2858 66.025 95.2577 66.125 95.2296C66.125 95.2275 66.1252 95.2257 66.1255 95.2239C66.1257 95.2223 66.126 95.2209 66.1263 95.2194C66.1269 95.2162 66.1276 95.213 66.1276 95.2092C66.1327 95.1684 66.1378 95.1301 66.1455 95.0918L66.1468 95.0849C66.5213 93.0401 67.1465 89.6272 70.1334 88.6714C71.9132 88.1049 74.5881 88.7097 76.2679 91.3687C76.4493 91.6558 76.6105 91.9475 76.7565 92.2419C77.0599 91.5842 77.8022 91.2138 78.5323 91.3994C79.3556 91.6061 79.8556 92.4405 79.6454 93.2597C79.4135 94.1762 79.0422 94.789 78.0808 95.7257C78.1608 95.9441 78.2429 96.1579 78.3298 96.3678C78.6914 97.2328 79.4838 98.7282 80.7302 99.0089C81.5586 99.1952 82.0792 100.014 81.8946 100.839C81.7073 101.663 80.8841 102.181 80.0557 101.997C78.1272 101.566 76.5038 99.9837 75.4857 97.5442C75.2344 96.9419 75.0266 96.3371 74.8291 95.7502L74.8195 95.7221C74.4795 94.727 74.1577 93.7855 73.6597 92.9993C73.0827 92.0858 71.9568 91.3074 71.072 91.5881C69.9488 91.948 69.5051 93.8338 69.182 95.5894C69.1153 96.133 68.9178 96.6561 68.6101 97.1103C68.587 97.1435 68.5613 97.1767 68.5357 97.2099C67.9068 97.9882 67.0257 98.1758 66.4384 98.3008L66.4327 98.3021L66.3507 98.3199C65.4146 98.5215 64.7222 98.8379 64.2888 99.2641C63.9066 99.6418 63.7117 100.203 63.8374 100.568C63.9554 100.91 64.3452 101.278 64.7093 101.589C68.0125 104.467 72.0312 106.394 76.3397 107.165C77.1757 107.315 77.7322 108.111 77.5809 108.943C77.4424 109.683 76.7936 110.204 76.0653 110.204C75.9755 110.204 75.8832 110.196 75.7909 110.178C70.9336 109.308 66.402 107.137 62.6885 103.901C62.6333 103.854 62.5776 103.805 62.5218 103.756C62.4569 103.92 62.3621 104.076 62.237 104.215C61.7087 104.804 60.3418 106.713 59.816 107.458C55.2203 115.183 53.3969 123.351 51.4684 132.002L51.3042 132.734C47.7686 149.383 46.2092 165.025 44.5581 181.587L44.5568 181.599C44.4696 182.467 44.3824 183.337 44.2952 184.21C45.062 184.317 45.8212 184.396 46.6085 184.475L46.6499 184.48L46.6506 184.48C47.3426 184.55 48.0478 184.622 48.7695 184.718L49.9348 174.72L49.9435 174.645C52.054 156.67 54.2363 138.084 58.4825 120.151C58.6774 119.329 59.5058 118.816 60.3342 119.013C61.1599 119.207 61.6729 120.031 61.478 120.855C57.2716 138.622 55.0995 157.125 52.9988 175.02L52.9918 175.08L52.9174 175.718L49.8835 201.746L49.8819 201.76L49.8819 201.76C49.508 204.969 49.1216 208.284 48.9757 211.54C48.9577 211.946 48.9244 212.707 49.1424 213.013C49.3988 213.375 50.3118 213.559 50.8555 213.666L59.8777 215.383C60.7111 215.542 61.26 216.346 61.0984 217.175C60.9625 217.907 60.3188 218.418 59.593 218.418ZM40.4715 195.234C40.4252 194.068 41.7397 193.408 42.2523 193.195C44.022 193.701 45.8383 194.013 47.6733 194.124L46.8265 201.389L46.8159 201.481C46.4784 204.383 46.1307 207.372 45.9563 210.369C45.4734 210.222 45.0124 210.005 44.5876 209.723C43.8824 209.254 43.3028 208.624 42.9001 207.884C42.9115 207.704 42.925 207.524 42.9386 207.343C42.9464 207.238 42.9542 207.134 42.9617 207.029L42.962 207.025C43.2389 203.289 43.5812 198.673 40.4715 195.234ZM48.4148 187.762L48.0284 191.077C46.6581 191.005 45.2973 190.804 43.9645 190.48C44.0735 189.391 44.2374 188.314 44.5894 187.338C45.1691 187.408 45.7369 187.466 46.2956 187.522L46.414 187.535C47.0947 187.605 47.7545 187.672 48.4148 187.762ZM64.5426 219.132C71.8054 220.352 79.2222 220.962 86.8877 220.962C96.1752 220.962 105.826 220.063 115.988 218.269C117.366 219.325 118.989 219.882 120.776 219.882C120.968 219.882 121.166 219.877 121.363 219.862C124.082 219.684 126.446 218.214 128.03 215.87C128.165 215.865 128.3 215.843 128.436 215.805C129.393 215.508 130.491 215.371 131.65 215.228C134.314 214.899 137.333 214.523 139.459 211.984C139.554 211.872 139.631 211.747 139.69 211.612C139.995 210.905 140.126 210.124 140.067 209.356C140.062 209.29 140.051 209.226 140.039 209.162C139.274 205.514 137.026 199.258 134.852 193.209L134.851 193.208L134.85 193.205C133.335 188.995 131.906 185.016 131.255 182.648C131.211 182.488 131.143 182.34 131.056 182.208C130.803 163.758 130.123 146.001 125.759 127.283C125.567 126.459 124.741 125.946 123.913 126.138C123.084 126.329 122.569 127.151 122.761 127.975C127.631 148.867 127.841 168.688 128.064 189.672V189.672L128.065 189.679L128.07 190.066L108.653 189.75C105.768 167.319 104.773 144.503 105.694 121.912C105.73 121.067 105.068 120.353 104.219 120.319C103.37 120.289 102.652 120.942 102.619 121.787C101.673 144.991 102.734 168.432 105.773 191.457C105.852 192.05 106.264 192.527 106.807 192.709C106.59 194.277 106.534 195.864 106.64 197.446C106.64 197.732 106.689 198.013 106.789 198.281C106.904 198.587 107.076 198.863 107.302 199.097C107.323 199.12 107.345 199.142 107.368 199.163C106.439 199.862 105.669 200.757 105.33 201.833C105.037 202.765 104.947 204.214 106.178 205.822C107.317 207.312 108.889 208.208 110.277 208.996C110.551 209.152 110.823 209.308 111.095 209.468C111.474 209.691 111.889 211.195 112.071 211.853L112.071 211.853L112.071 211.853L112.074 211.867C112.2 212.326 112.321 212.76 112.462 213.148C112.787 214.037 113.173 214.846 113.614 215.57C96.1433 218.485 80.2363 218.662 65.0529 216.113C64.2143 215.97 63.4218 216.534 63.2808 217.369C63.1397 218.201 63.7039 218.992 64.5426 219.132ZM112.125 199.678C111.972 200.116 111.622 200.479 111.143 200.631C109.718 201.091 108.507 201.981 108.266 202.749C108.22 202.895 108.099 203.28 108.625 203.966C109.386 204.961 110.56 205.63 111.8 206.336L111.801 206.336L111.803 206.337L112.013 206.457C112.232 206.582 112.451 206.707 112.667 206.835C114.113 207.688 114.627 209.552 115.04 211.048L115.042 211.056C115.149 211.451 115.255 211.826 115.352 212.097C116.183 214.365 117.86 217.017 121.158 216.805C123.325 216.662 125.941 215.042 126.8 210.92C127.459 207.752 126.863 204.342 126.287 201.04L126.285 201.029L126.254 200.855L126.253 200.849C126.195 200.512 126.136 200.176 126.08 199.84C126.068 199.773 126.061 199.706 126.059 199.639L112.125 199.678ZM128.73 198.55C128.925 198.761 129.062 199.029 129.113 199.332C129.18 199.723 129.247 200.113 129.316 200.506L129.318 200.519L129.318 200.519C129.943 204.1 130.59 207.804 129.814 211.543C129.752 211.839 129.681 212.13 129.602 212.414C130.159 212.325 130.716 212.256 131.265 212.189C133.573 211.903 135.581 211.653 136.93 210.206C136.982 210.035 137.005 209.854 136.999 209.675C136.254 206.215 133.975 199.873 131.959 194.263L131.95 194.236L131.883 194.049L131.883 194.049C131.627 193.339 131.375 192.636 131.128 191.946C131.066 192.233 130.921 192.498 130.709 192.708C130.424 192.993 130.032 193.154 129.626 193.154H129.601L129.084 193.146L129.211 196.38C129.224 196.777 129.254 197.756 128.73 198.55ZM126.002 193.095L109.899 192.832C109.706 194.088 109.633 195.36 109.679 196.63L126.139 196.584V196.584C126.139 196.556 126.139 196.525 126.136 196.492L126.002 193.095Z" fill="black"/>
</g>
<path d="M99.5286 64.3933C101.306 62.311 100.754 58.7052 98.4361 57.2481C97.6051 56.7224 96.5537 56.3958 96.0997 55.5282C95.5868 54.5712 96.051 53.4254 96.3203 52.3792C96.3203 52.346 96.3382 52.3103 96.3485 52.2771C97.1179 49.123 93.4941 46.783 90.8552 48.6918C87.5597 51.0752 83.8154 52.7747 79.8455 53.6908C77.7938 54.1604 75.2728 54.2522 74.0059 52.5833C73.2571 51.5932 73.0776 50.0978 71.1849 50.2382C70.6335 50.2841 70.1026 50.4755 69.6462 50.7894C66.2584 53.0631 62.3833 54.51 58.3287 55.0178C57.1951 55.1581 56.0206 55.2219 54.9255 54.8979C51.7813 53.9664 50.3529 49.983 51.3018 46.8595C52.2506 43.7361 54.9306 41.4267 57.7619 39.7731C59.5161 38.7523 61.4703 37.8132 62.5269 36.0805C63.1475 35.0598 63.3912 33.8451 64.0143 32.8269C64.6375 31.8087 65.6121 31.0406 66.6046 30.3465C71.9517 26.6642 78.3452 24.7912 84.8438 24.9979C88.6907 25.1306 93.212 26.6693 94.0429 30.4001L99.9415 32.8729C104.481 33.567 109.097 35.0879 112.31 38.3542C115.524 41.6206 116.927 46.9565 114.619 50.9093C114.316 51.4197 113.941 51.9607 113.957 52.5629C113.977 53.3285 114.621 53.9307 115.155 54.4972C116.088 55.5026 116.798 56.6918 117.237 57.9881C117.675 59.2845 117.835 60.6574 117.704 62.0201C117.583 63.2041 117.191 64.429 116.298 65.2124C115.406 65.9958 113.885 66.1566 113.041 65.3145L100.244 67.2667L99.5286 64.3933Z" fill="black"/>
<path d="M57.8673 55.1504C56.2131 59.3839 55.218 63.2066 54.9667 65.5211C54.3333 71.3495 55.5155 77.8261 59.9958 81.978C62.3835 84.1879 65.3404 85.275 68.5025 85.8287C71.8006 86.408 75.3397 86.9362 78.5403 85.6348C78.371 88.2913 78.3454 90.1873 78.4685 92.8463L96.5487 90.8508C96.2564 87.3573 96.9078 84.3614 98.4363 81.2022C98.7825 80.4877 99.5262 80.4954 100.262 80.2631C100.916 80.059 101.557 79.8242 102.191 79.5588C103.476 79.0281 104.689 78.3416 105.807 77.5174C108.018 75.8561 109.741 73.5237 110.387 70.8188C110.974 68.3664 110.562 65.4471 107.823 64.0666C105.891 63.0969 104.16 63.4414 101.219 66.0136L99.5518 64.4009C101.329 62.3185 100.778 58.7128 98.4593 57.2557C97.6284 56.73 96.5769 56.4034 96.123 55.5357C95.6101 54.5788 96.0743 53.433 96.3436 52.3868C96.3436 52.3536 96.3615 52.3179 96.3718 52.2847C97.1412 49.1306 93.5174 46.7906 90.8785 48.6993C87.583 51.0828 83.8387 52.7823 79.8687 53.6984C77.8171 54.168 75.2961 54.2598 74.0292 52.5909C73.2803 51.6008 73.1008 50.1054 71.2082 50.2458C70.6568 50.2917 70.1259 50.4831 69.6694 50.797C66.2739 53.0707 62.3886 54.515 58.3289 55.0177" fill="white"/>
<path d="M114.521 67.4146C113.559 67.4146 112.626 67.0752 111.944 66.3964C111.344 65.7967 111.346 64.827 111.946 64.2299C112.549 63.6328 113.523 63.6353 114.123 64.2324C114.316 64.4238 114.919 64.3754 115.272 64.064C115.747 63.6481 116.062 62.8672 116.165 61.8643C116.275 60.716 116.144 59.5753 115.77 58.4755C115.398 57.3756 114.808 56.3881 114.016 55.5357L113.885 55.398C113.277 54.76 112.444 53.8873 112.41 52.6037C112.385 51.6212 112.849 50.8531 113.187 50.2917L113.285 50.1309C115.326 46.6324 113.739 42.0007 111.202 39.4259C108.681 36.8639 104.812 35.1695 99.7003 34.386C98.8591 34.2584 98.2847 33.475 98.4129 32.6406C98.5411 31.8061 99.3285 31.232 100.167 31.3595C105.953 32.245 110.405 34.238 113.403 37.2824C115.221 39.1299 116.511 41.5389 117.034 44.0652C117.601 46.7982 117.214 49.5006 115.942 51.6799L115.826 51.8713C115.708 52.0652 115.513 52.3868 115.49 52.5195C115.544 52.6904 115.903 53.0656 116.119 53.2927L116.27 53.4509C117.365 54.6298 118.176 55.9874 118.688 57.4981C119.201 59.0088 119.381 60.5782 119.23 62.1655C119.045 63.9722 118.383 65.4191 117.311 66.3607C116.509 67.0624 115.501 67.4146 114.521 67.4146Z" fill="black"/>
<path d="M99.5283 65.9243C99.177 65.9243 98.8231 65.8044 98.5333 65.5594C97.8845 65.0107 97.8075 64.0462 98.3563 63.4005C98.9077 62.7549 99.1462 61.7878 98.9975 60.813C98.8487 59.8407 98.3307 58.9909 97.6152 58.5418C97.4382 58.4295 97.2305 58.3198 97.0099 58.2024C96.2431 57.7967 95.2865 57.2889 94.7352 56.2349C94.0171 54.8952 94.4146 53.4841 94.7069 52.4506C94.7428 52.323 94.7787 52.1954 94.8121 52.0703C94.8275 51.9887 94.848 51.9147 94.8685 51.8534C95.1198 50.6898 94.3171 50.0493 94.0607 49.8783C93.499 49.5032 92.6014 49.322 91.7628 49.9268C88.2801 52.4454 84.3897 54.2113 80.1966 55.1785C76.7729 55.9619 74.2083 55.3826 72.7824 53.5019C72.5285 53.1676 72.3413 52.8257 72.1772 52.5246C71.7412 51.7284 71.7258 51.7284 71.3026 51.7616C71.0334 51.7845 70.7615 51.8815 70.5281 52.0423C66.9403 54.4487 62.7959 55.9976 58.5259 56.531C57.3206 56.6815 55.8998 56.7759 54.4918 56.36C52.8274 55.8675 51.4144 54.6783 50.5116 53.0145C49.4345 51.0241 49.1806 48.5564 49.832 46.4103C50.7604 43.3558 53.166 40.6763 56.9872 38.446C57.2231 38.3082 57.4591 38.1755 57.6976 38.0403C59.1414 37.2211 60.5032 36.4479 61.2162 35.2792C61.4547 34.8887 61.6393 34.409 61.8368 33.9012C62.0753 33.2862 62.3215 32.6508 62.7062 32.023C63.4807 30.7547 64.6168 29.8616 65.7247 29.0858C71.3129 25.2377 78.1167 23.2447 84.8974 23.459C89.1675 23.607 94.5172 25.4239 95.5507 30.0606C95.7353 30.8874 95.2122 31.704 94.3812 31.8878C93.5529 32.0689 92.7297 31.5509 92.545 30.7241C91.9346 27.9834 88.2134 26.6386 84.7949 26.5212C78.6732 26.3222 72.5234 28.1289 67.484 31.5994C66.6556 32.1787 65.8144 32.8294 65.3323 33.6179C65.0912 34.0109 64.904 34.4932 64.7065 35.0036C64.4706 35.6135 64.227 36.2438 63.8474 36.8664C62.7216 38.714 60.8623 39.7704 59.2209 40.6993C58.9927 40.8294 58.767 40.957 58.5413 41.0872C55.4125 42.9143 53.4737 45.0043 52.7761 47.2958C52.3633 48.6585 52.5325 50.2917 53.2198 51.56C53.5814 52.226 54.2456 53.0911 55.3664 53.4228C56.2306 53.678 57.2539 53.6014 58.1412 53.4917C61.9342 53.0171 65.617 51.6416 68.7893 49.5134C69.4484 49.0591 70.2383 48.7759 71.059 48.707C73.4928 48.5233 74.3955 50.1743 74.8802 51.0598C75.0059 51.2895 75.1238 51.5064 75.2393 51.6569C76.1215 52.8206 78.5168 52.4199 79.5041 52.1928C83.292 51.3201 86.8081 49.7226 89.9548 47.4464C91.7013 46.1832 93.9863 46.1373 95.7764 47.329C97.5357 48.5003 98.3486 50.5826 97.8485 52.6292C97.8409 52.6598 97.8332 52.6879 97.8229 52.7185C97.8229 52.7211 97.8229 52.7236 97.8203 52.7236C97.8178 52.7313 97.8152 52.7415 97.8152 52.7491C97.7716 52.9201 97.7229 53.0936 97.6742 53.2697C97.5152 53.8311 97.3202 54.5303 97.4639 54.7983C97.5818 55.0254 98.0306 55.2627 98.464 55.4924C98.7256 55.6302 98.9949 55.7731 99.2693 55.9466C100.747 56.8755 101.76 58.478 102.047 60.3409C102.334 62.2088 101.847 64.0436 100.711 65.3731C100.398 65.7406 99.9643 65.9243 99.5283 65.9243ZM97.8588 52.3817C97.8588 52.3842 97.8588 52.3842 97.8588 52.3817C97.8588 52.3842 97.8588 52.3842 97.8588 52.3817ZM97.8588 52.3791V52.3817V52.3791Z" fill="black"/>
<path d="M65.4632 62.1885C66.4546 62.1885 67.2584 61.2174 67.2584 60.0194C67.2584 58.8215 66.4546 57.8503 65.4632 57.8503C64.4717 57.8503 63.668 58.8215 63.668 60.0194C63.668 61.2174 64.4717 62.1885 65.4632 62.1885Z" fill="black"/>
<path d="M74.1829 62.7881C75.1744 62.7881 75.9781 61.817 75.9781 60.619C75.9781 59.4211 75.1744 58.45 74.1829 58.45C73.1914 58.45 72.3877 59.4211 72.3877 60.619C72.3877 61.817 73.1914 62.7881 74.1829 62.7881Z" fill="black"/>
<path d="M96.5354 90.8431C95.7455 90.8431 95.0711 90.2409 95.0044 89.4396C94.6787 85.5965 95.4301 83.8383 97.0253 80.5311C97.61 79.3241 98.7153 79.0587 99.377 78.9005C99.5206 78.8647 99.6565 78.8341 99.7745 78.7958C100.385 78.6044 100.988 78.385 101.57 78.14C102.747 77.6552 103.852 77.03 104.868 76.2797C106.914 74.741 108.34 72.6714 108.868 70.4564C109.14 69.3412 109.51 66.6312 107.107 65.4242C106.058 64.8959 105.029 64.6892 102.211 67.1543C101.572 67.7132 100.6 67.6494 100.039 67.014C99.477 66.3786 99.5411 65.4114 100.18 64.8525C104.227 61.3131 106.565 61.7214 108.491 62.6886C111.477 64.1891 112.767 67.4376 111.859 71.1684C111.166 74.0673 109.338 76.7544 106.712 78.7269C105.486 79.6328 104.157 80.3831 102.757 80.9598C102.093 81.238 101.398 81.4931 100.698 81.71C100.485 81.7764 100.28 81.8274 100.1 81.8708C99.9873 81.8989 99.8412 81.9321 99.7463 81.9627C98.2716 85.0249 97.8152 86.1758 98.0716 89.1768C98.1434 90.0189 97.5151 90.7589 96.6688 90.8304C96.6226 90.8406 96.579 90.8431 96.5354 90.8431Z" fill="black"/>
<path d="M78.4679 93.1015C77.6498 93.1015 76.9702 92.461 76.9317 91.6393C76.8496 89.8428 76.8317 88.9395 76.883 87.7069C73.8004 88.299 70.6613 87.7554 68.2404 87.3344C64.3294 86.6479 61.2904 85.2623 58.9489 83.0957C54.6456 79.1072 52.6375 72.6408 53.4376 65.3502C53.7377 62.6478 54.8559 58.6261 56.4331 54.5916C56.7408 53.8031 57.6333 53.4126 58.4257 53.7189C59.2182 54.0251 59.6106 54.9131 59.3028 55.7017C57.5538 60.1776 56.7075 63.7936 56.4972 65.6845C55.8022 72.0003 57.4589 77.5302 61.0467 80.8527C62.965 82.6288 65.4193 83.7286 68.7712 84.3155C72.1975 84.9101 75.257 85.3107 77.9601 84.2109C78.4499 84.0119 79.009 84.0782 79.4399 84.3844C79.8707 84.6932 80.1118 85.1985 80.0784 85.7241C79.9143 88.2913 79.8861 88.8578 80.0092 91.4913C80.0477 92.336 79.3911 93.0531 78.5423 93.0913C78.5141 93.1015 78.491 93.1015 78.4679 93.1015Z" fill="black"/>
<path d="M59.3609 69.5271C64.4245 69.5271 68.5294 65.406 68.5294 60.3223C68.5294 55.2386 64.4245 51.1174 59.3609 51.1174C54.2973 51.1174 50.1924 55.2386 50.1924 60.3223C50.1924 65.406 54.2973 69.5271 59.3609 69.5271Z" fill="#0F52FF" fill-opacity="0.2"/>
<path d="M79.5673 69.5271C84.6309 69.5271 88.7358 65.406 88.7358 60.3223C88.7358 55.2386 84.6309 51.1174 79.5673 51.1174C74.5036 51.1174 70.3987 55.2386 70.3987 60.3223C70.3987 65.406 74.5036 69.5271 79.5673 69.5271Z" fill="#0F52FF" fill-opacity="0.2"/>
<path fill-rule="evenodd" clip-rule="evenodd" d="M69.7463 55.0392C70.0703 54.4043 70.4649 53.807 70.9361 53.2541L70.9361 53.2467C71.1525 52.9956 71.3859 52.753 71.6349 52.5202C73.0063 51.2181 74.6836 50.4115 76.5354 50.0039C77.5297 49.7845 78.5773 49.6804 79.6626 49.6776L79.7089 49.6775C82.8555 49.6775 85.6917 50.5154 87.8193 52.5535C87.9281 52.6569 88.0337 52.7621 88.1361 52.8691C88.2551 52.9928 88.3697 53.1192 88.4803 53.2482V53.2494C89.0543 53.9203 89.5147 54.6548 89.8724 55.4434C91.5493 55.5339 93.8424 55.7277 96.0582 56.0578C97.3482 56.25 98.6356 56.4918 99.771 56.7936C100.878 57.0879 101.956 57.4682 102.748 57.9848L101.211 60.3408C100.801 60.0738 100.074 59.7848 99.0474 59.5119C98.049 59.2465 96.8731 59.0231 95.6431 58.8398C93.9349 58.5853 92.168 58.4149 90.7066 58.3132C90.8176 59.0329 90.8704 59.7804 90.8704 60.5507C90.8704 63.716 89.9707 66.5621 87.773 68.6211L87.7656 68.627L87.7581 68.633C85.6731 70.5578 82.9507 71.3835 79.9285 71.4211C79.856 71.422 79.7833 71.4225 79.7104 71.4225L79.709 71.4225L79.674 71.4225L79.5848 71.4221C76.5251 71.4005 73.7664 70.5792 71.6613 68.633L71.6538 68.627L71.6463 68.6211C70.8484 67.8735 70.2214 67.017 69.7465 66.0792C69.2711 67.0159 68.6426 67.8708 67.8418 68.6211L67.8343 68.627L67.8269 68.633C65.7419 70.5578 63.0195 71.3835 59.9973 71.4211C59.9247 71.4221 59.852 71.4225 59.7792 71.4225L59.7776 71.4225C56.6684 71.4225 53.8635 70.6055 51.7299 68.633L51.7225 68.627L51.715 68.6211C49.5188 66.5636 48.6177 63.6802 48.6177 60.5508C48.6177 57.7637 49.3242 55.2261 51.0049 53.254L51.0049 53.2467C51.2202 52.9969 51.4522 52.7555 51.6998 52.5239C53.0741 51.2175 54.7561 50.4092 56.6133 50.0019C57.619 49.7808 58.6791 49.6775 59.7777 49.6775C62.9242 49.6775 65.7605 50.5154 67.888 52.5535C68.0014 52.6612 68.1112 52.7708 68.2176 52.8825C68.332 53.0019 68.4424 53.1239 68.549 53.2482V53.2494C69.0237 53.8042 69.4208 54.4026 69.7463 55.0392ZM85.8708 66.5979C86.1443 66.3406 86.3923 66.0626 86.6155 65.7631C87.5991 64.4351 88.0908 62.6779 88.0908 60.5522C88.0908 57.9446 87.3598 55.9468 85.8976 54.5602C84.4355 53.1543 82.3721 52.4521 79.7074 52.4521C77.199 52.4521 75.2127 53.084 73.75 54.3479C73.6719 54.4164 73.5953 54.4866 73.5203 54.5588C72.0581 55.9468 71.3271 57.9059 71.3271 60.5507C71.3271 62.3656 71.6755 63.8842 72.3724 65.1066C72.6911 65.6657 73.0826 66.1628 73.5471 66.5979C75.0272 67.9666 77.0816 68.6509 79.709 68.6509C82.3363 68.6509 84.3908 67.9666 85.8708 66.5979ZM51.3957 60.5522C51.3957 60.6064 51.3961 60.6603 51.3967 60.714C51.4177 62.5301 51.7954 64.0434 52.5283 65.2552C52.8304 65.7541 53.1929 66.2017 53.6158 66.5979C55.0958 67.9666 57.1503 68.6509 59.7776 68.6509C62.405 68.6509 64.4595 67.9666 65.9395 66.5979C66.2172 66.3366 66.4688 66.054 66.6946 65.7491C67.6713 64.4227 68.1596 62.6705 68.1596 60.5522C68.1596 57.9446 67.4285 55.9468 65.9664 54.5602C64.5042 53.1543 62.4408 52.4521 59.7762 52.4521C57.265 52.4521 55.2773 53.0854 53.8141 54.352C53.7375 54.4191 53.6625 54.488 53.5889 54.5588C52.1268 55.9468 51.3957 57.9059 51.3957 60.5508V60.5522L51.3957 60.5522Z" fill="black"/>
</g>
</g>
<defs>
<clipPath id="clip0_3436_8248">
<rect width="172" height="172" fill="white"/>
</clipPath>
<clipPath id="clip1_3436_8248">
<rect width="153.874" height="153.111" fill="white" transform="translate(9.44531 87.1709)"/>
</clipPath>
</defs>
</svg>
