<svg width="172" height="172" viewBox="0 0 172 172" fill="none" xmlns="http://www.w3.org/2000/svg">
<g clip-path="url(#clip0_1963_6559)">
<path d="M86.2 172.4C133.807 172.4 172.4 133.807 172.4 86.2C172.4 38.5931 133.807 0 86.2 0C38.5931 0 0 38.5931 0 86.2C0 133.807 38.5931 172.4 86.2 172.4Z" fill="#FEC426"/>
<mask id="mask0_1963_6559" style="mask-type:alpha" maskUnits="userSpaceOnUse" x="0" y="0" width="173" height="173">
<path d="M86.2 172.4C133.807 172.4 172.4 133.807 172.4 86.2C172.4 38.5931 133.807 0 86.2 0C38.5931 0 0 38.5931 0 86.2C0 133.807 38.5931 172.4 86.2 172.4Z" fill="#FEC426"/>
</mask>
<g mask="url(#mask0_1963_6559)">
<path d="M87.1 309.1C87.2 311.1 87.5 312.8 87.5 314.9C96.1 315.4 105 315.7 113.7 315.2C117.4 314.9 121.1 314 124.4 312.4C128.3 287.4 128.6 261.8 126.2 236.3C126.2 235.5 126.5 234.5 126.2 233.8C125.9 232.5 125.9 231.5 125.7 230.3V227.8C123.1 204.3 119.4 181.5 114.7 158.8C96.4 159.3 78.3 160.3 60 160.8C51.9 196.4 49 232.9 51.4 269.3C51.4 270.5 51.4 271.7 51.7 272.8C52.2 279.9 53.3 286.9 55.1 293.8C55.6 295.6 56.1 297.6 56.9 299.4C58.2 302.7 60 306 61.3 309.3C66.3 310.6 71.5 310.8 76.7 310.6C79.6 310.3 82.7 310.3 85.7 309.6L87.1 309.1Z" fill="#26BCD3"/>
<path fill-rule="evenodd" clip-rule="evenodd" d="M113.2 158.9C122.8 207.8 130.6 260.1 123 311.3C117.8 313.6 111.6 313.8 106.3 313.9C100.6 314 94.8 313.8 89 313.5C88.5 307.7 87.9 301.9 87.4 296.2C85 271 82.6 244.9 82.7 219.4C82.7 210.4 81.8 201.5 74.6 197.5C73.9 197.1 72.9 197.3 72.5 198C72.1 198.7 72.3 199.7 73.1 200.1C78.9 203.4 79.7 211.3 79.7 219.4C79.6 245.1 82 271.2 84.4 296.5L84.6 298.4C84.9 301.5 85.2 304.7 85.5 307.9C77.9 309.1 70.3 309.1 62.7 308C54.5 292.3 53.2 276.6 52.6 263.1C51 228.9 54 194.5 61.4 161C61.6 160.2 61 159.4 60.2 159.2C59.4 159 58.5 159.5 58.3 160.4C50.9 194.2 47.9 228.8 49.3 263.3C49.9 277.3 51.3 293.6 60.1 310.1C60.3 310.5 60.7 310.8 61.2 310.9C62.2 311.1 63.3 311.2 64.3 311.3C64.3 311.6 64.3 311.8 64.2 312C64.1 312.3 63.9 312.6 63.8 312.9V313C63.7 313.2 63.6 313.5 63.5 313.6C61.3 316.3 58.7 318.3 55.9 320.4H55.8C54.5 321.4 53.1 322.4 51.7 323.6C49.8 325.2 47.9 328 47.8 330.8C47.8 332.5 48.5 334 49.8 335.2C49.9 335.3 50.1 335.4 50.2 335.5C53 336.7 56.4 337.1 59.5 337.1C63.9 337.1 67.9 336.3 69.3 335.7C69.8 335.5 70.3 335.3 70.9 335.1C72.2 334.6 73.6 334.1 74.8 333.3C81.8 328.5 82.2 320.5 82.6 313.4V313.1C82.6 312.4 82.7 311.8 82.7 311.2C83.6 311.1 84.5 311 85.3 310.8C85.4 312.2 85.5 313.5 85.7 314.9C85.8 315.6 86.4 316.2 87.2 316.3C88 316.3 88.7 316.4 89.5 316.4C89.7 319.6 89.2 321.8 88 325.4C87.5 327 86.1 328.7 84.7 330.4C83.1 332.2 81.5 334.2 80.8 336.3C79.9 338.9 80.7 341.4 82.9 343.6C82.9 343.6 86.1 346.4 91.8 346.4C93.5 346.4 95.4 346.2 97.5 345.5C97.6 345.5 97.7 345.4 97.8 345.4C98.3 345.1 98.9 344.9 99.4 344.7C99.5 344.7 99.5 344.7 99.6 344.6C100.6 344.1 101.6 343.5 102.4 342.8C107.1 339 110.1 333.6 110.9 327.8C111.5 323.2 111.8 319.4 111.7 316.6C116 316.3 120.5 315.6 124.6 313.7C124.8 313.6 124.9 313.5 125 313.4C125.4 313.2 125.7 312.8 125.7 312.3C133.6 260.4 125.7 207.6 116 158.1C115.8 157.3 115 156.7 114.2 156.9C113.6 157.3 113.1 158.1 113.2 158.9ZM79.8 311.6C77.8 311.8 75.7 311.8 73.7 311.8C71.6 311.8 69.6 311.7 67.5 311.6C67.5 312.2 67.4 312.8 67.1 313.3C67 313.5 66.9 313.7 66.8 314V314.1V314.2C66.7 314.5 66.5 314.8 66.4 315.1C66.4 315.2 66.3 315.3 66.2 315.3C63.8 318.4 60.8 320.6 57.9 322.8L57.8 322.9C56.5 323.9 55.2 324.9 53.9 326C52.5 327.2 51.1 329.2 51.1 331C51.1 331.8 51.4 332.4 51.9 333C57.5 335.3 66.6 333.8 68.2 333.1C68.7 332.9 69.3 332.7 69.8 332.5H69.9C71.1 332.1 72.2 331.6 73.2 331C79 327 79.3 320.1 79.7 313.4C79.8 312.7 79.8 312.2 79.8 311.6ZM92.9 316.7C93.1 320.1 92.5 322.7 91.3 326.4C90.6 328.6 89 330.5 87.4 332.4C83.9 336.6 82.6 338.7 85.4 341.5C85.7 341.7 89.8 344.7 96.8 342.7C97.4 342.4 98 342.2 98.6 342C99.3 341.7 100 341.2 100.6 340.7C104.7 337.4 107.3 332.7 108 327.6C108.6 323.2 108.9 319.6 108.8 316.9C107.9 316.9 107.1 316.9 106.3 316.9C105.4 316.9 104.5 316.9 103.6 316.9C100.1 316.9 96.5 316.9 92.9 316.7Z" fill="#07377E"/>
<mask id="mask1_1963_6559" style="mask-type:luminance" maskUnits="userSpaceOnUse" x="7" y="88" width="158" height="158">
<path d="M164.9 88.6H7.89999V246H164.9V88.6Z" fill="white"/>
</mask>
<g mask="url(#mask1_1963_6559)">
<path d="M96.7 88.6C96.9 91.2 98 97.2 102 96.3L102.4 97C102.2 101.1 100.1 104 96.9 107C93.6 110 89.4 111.8 84.9 112.1C81 112.4 76.8 111.4 73.9 108.8C71 106.2 69.4 102.5 71.4 99.4H71.7C72.6 99.4 73.4 99 74.1 98.5C75.1 97.9 77 95.4 77.6 94.7C78.4 93.7 78.7 89.8 79.1 88.6H96.7Z" fill="white"/>
<path fill-rule="evenodd" clip-rule="evenodd" d="M45.7 190.2C46.9 190.3 48.1 190.4 49.3 190.7H49.4L47.6 206.2C47.2 209.6 46.8 213 46.7 216.4C46.7 217.3 46.7 218.2 47.2 218.9C47.8 219.8 48.9 220 49.9 220.2L61.2 222.4L64.5 222.8C81.9 225.7 99.4 225 116.8 221.9L129 219.5C130.1 219.2 131.3 219 132.5 218.8C135.1 218.5 137.7 218.2 139.5 216C139.7 215.5 139.8 215 139.8 214.4C139 210.8 136.7 204.2 134.6 198.2C133 193.8 131.6 189.7 130.9 187.2L130.6 186.8C130.3 166.9 129.5 147 125 127.7L124.2 125.2C122 118.1 119.1 111.3 115.1 105.1L114.6 100.1C114.6 99.3 114.4 98.5 114 97.7C113.6 97 113 96.4 112.3 96C111.6 95.6 110.8 95.4 110 95.3C109.2 95.3 108.4 95.5 107.7 95.9C108.7 94.6 108.2 92.7 106.9 91.7C105.7 90.7 103.9 90.7 102.4 91.1C100.9 91.6 99.6 92.5 98.4 93.5C97.5 94.2 96.6 95 95.7 95.7C92 98.8 88.2 102 83.6 103.2L80.5 102.2C78.8 101.8 77.6 100.2 76.9 98.6C76.7 98 76.5 97.4 76.3 96.9C75.9 95.8 75.6 94.7 74.9 93.7C73.9 92.2 72.1 91 70.5 91.6C68.4 92.3 67.9 94.8 67.5 97C67.5 97.3 67.4 97.6 67.2 97.9C66.9 98.3 66.4 98.4 66 98.5H65.9C64.9 98.7 63.8 99.1 63 99.9C62.2 100.7 61.8 101.8 62.2 102.9L60.9 105.1C60.2 105.9 58.3 108.6 58.3 108.6C53.5 116.8 51.6 125.2 49.6 134.3C49.5 134.5 49.5 134.8 49.4 135.1C45.8 152.3 44.2 168.6 42.5 185.5C42.4 186.9 42.2 188.3 42.1 189.6C43.1 189.9 44.4 190.1 45.7 190.2ZM48.3 197C46 197 43.7 196.6 41.4 196C41.6 194 41.7 192 42.6 190.3L49.1 191L48.3 197Z" fill="#F15F30"/>
<path fill-rule="evenodd" clip-rule="evenodd" d="M88.8 112.7C88.9 113.5 89.5 114.2 90.4 114.2H90.5C97.5 113.7 104.4 111.5 110.3 107.8C111.5 107 112.6 106.2 113.4 105.4C113.4 105.6 113.5 105.7 113.6 105.9C117.2 111.4 120.1 117.9 122.5 125.6C122.7 126.3 123.3 126.7 124 126.7C124.2 126.7 124.3 126.7 124.5 126.6C125.3 126.3 125.8 125.5 125.5 124.6C123 116.6 120 109.9 116.2 104.1C115.9 103.6 115.4 103.4 114.9 103.4C115.6 102.3 115.9 101.2 115.9 100C115.9 98.9 115.6 97.8 115.1 96.9C114.6 95.9 113.8 95.1 112.8 94.6C111.9 94 110.8 93.7 109.7 93.7C109.6 93.7 109.5 93.7 109.4 93.7C109.2 92.5 108.6 91.3 107.6 90.4C106.1 89.2 103.8 88.9 101.7 89.6C99.9 90.2 98.4 91.3 97.2 92.3C95.8 93.4 94.7 94.5 93.5 95.5C90.9 98 88.8 99.9 85.1 101C84.3 101.2 83.8 102.1 84 102.9C84.2 103.7 85.1 104.2 85.9 104C90.3 102.8 92.9 100.4 95.6 97.8C96.7 96.8 97.8 95.8 99.1 94.7C100.2 93.8 101.3 93 102.6 92.6C103.8 92.2 104.9 92.4 105.7 92.9C106.3 93.4 106.6 94.4 106.2 94.9C105.7 95.5 105.8 96.3 106.3 96.9C106.8 97.5 107.6 97.6 108.3 97.2C108.8 96.9 109.3 96.8 109.8 96.8C110.3 96.8 110.9 97 111.3 97.2C111.8 97.5 112.2 97.9 112.4 98.4C112.7 98.9 112.8 99.4 112.8 100C112.8 101.7 111.4 103.4 108.6 105.1C103.1 108.5 96.7 110.6 90.2 111C89.4 111.1 88.8 111.8 88.8 112.7ZM59.1 223.5C59 223.5 58.9 223.5 58.8 223.5L49.6 221.7C48.6 221.5 46.9 221.1 45.9 219.7C45.6 219.3 45.4 218.9 45.3 218.4C44.1 218.2 43 217.8 42.1 217.1C40.8 216.2 39.8 215 39.1 213.6C39 213.4 38.9 213.1 39 212.8C39 212.4 39.1 212 39.1 211.5V211.4C39.4 207.7 39.7 203.9 37.1 201.3C36.9 201.1 36.8 200.8 36.7 200.6C36.1 198.1 37.4 195.7 40.1 194.6C40.2 193.3 40.4 192 40.8 190.7C40.4 190.4 40.2 189.9 40.3 189.4C40.4 188.3 40.5 187.1 40.6 186L40.7 185.3V185.2C42.4 168.1 44 152 47.6 134.7L47.8 133.9C49.8 124.7 51.7 116.1 56.7 107.7C56.7 107.7 56.7 107.6 56.8 107.6C57.1 107.2 58.8 104.8 59.5 104C59.8 103.7 60.2 103.5 60.5 103.5V103.4C60 101.9 60.5 100.1 61.7 98.8C62.6 97.9 63.8 97.3 65.4 97H65.5C65.6 97 65.7 97 65.8 96.9V96.8C66.2 94.7 66.8 91.2 69.9 90.2C71.7 89.6 74.4 90.2 76.2 93C76.4 93.3 76.5 93.6 76.7 93.9C77 93.2 77.8 92.8 78.5 93C79.3 93.2 79.9 94.1 79.6 94.9C79.4 95.8 79 96.5 78 97.4C78.1 97.6 78.2 97.8 78.3 98.1C78.7 99 79.5 100.5 80.7 100.8C81.5 101 82.1 101.8 81.9 102.7C81.7 103.5 80.9 104.1 80 103.9C78 103.5 76.4 101.8 75.3 99.3C75 98.7 74.8 98.1 74.6 97.5C74.3 96.5 73.9 95.5 73.4 94.7C72.8 93.8 71.7 93 70.8 93.2C69.7 93.6 69.2 95.5 68.9 97.3C68.8 97.9 68.6 98.4 68.3 98.9C68.3 98.9 68.3 99 68.2 99C67.6 99.8 66.7 100 66.1 100.1H66C65 100.3 64.3 100.6 63.9 101.1C63.5 101.5 63.3 102.1 63.4 102.4C63.5 102.8 63.9 103.1 64.3 103.5C67.7 106.5 71.8 108.4 76.2 109.2C77.1 109.4 77.6 110.2 77.5 111C77.4 111.8 76.7 112.3 76 112.3C75.9 112.3 75.8 112.3 75.7 112.3C70.7 111.4 66.1 109.2 62.3 105.8C62.2 105.8 62.2 105.7 62.1 105.6C62 105.8 61.9 105.9 61.8 106.1C61.3 106.7 59.9 108.7 59.3 109.4C54.6 117.3 52.8 125.7 50.8 134.6L50.6 135.4C47 152.5 45.4 168.6 43.7 185.6C43.6 186.5 43.5 187.4 43.4 188.3C44.2 188.4 45 188.5 45.8 188.6C46.5 188.7 47.2 188.7 48 188.8L49.2 178.5V178.4C51.4 159.9 53.6 140.8 57.9 122.4C58.1 121.6 58.9 121 59.8 121.2C60.6 121.4 61.2 122.2 61 123.1C56.7 141.4 54.5 160.4 52.3 178.8V178.9L52.2 179.6L49.1 206.4C48.7 209.7 48.3 213.1 48.2 216.5C48.2 216.9 48.1 217.7 48.4 218C48.7 218.4 49.6 218.6 50.1 218.7L59.3 220.5C60.2 220.7 60.7 221.5 60.5 222.3C60.5 223 59.8 223.5 59.1 223.5ZM39.6 199.7C39.6 198.5 40.9 197.8 41.4 197.6C43.2 198.1 45.1 198.4 46.9 198.6L46 206.1V206.2C45.7 209.2 45.3 212.3 45.1 215.3C44.6 215.1 44.1 214.9 43.7 214.6C43 214.1 42.4 213.5 42 212.7C42 212.5 42 212.3 42 212.1C42 212 42 211.9 42 211.8C42.4 208 42.8 203.2 39.6 199.7ZM47.7 192L47.3 195.4C45.9 195.3 44.5 195.1 43.2 194.8C43.3 193.7 43.5 192.6 43.8 191.6C44.4 191.7 45 191.7 45.5 191.8H45.6C46.3 191.8 47 191.9 47.7 192ZM64.1 224.2C71.5 225.5 79.1 226.1 86.9 226.1C96.4 226.1 106.2 225.2 116.6 223.3C118 224.4 119.7 225 121.5 225C121.7 225 121.9 225 122.1 225C124.9 224.8 127.3 223.3 128.9 220.9C129 220.9 129.2 220.9 129.3 220.8C130.3 220.5 131.4 220.4 132.6 220.2C135.3 219.9 138.4 219.5 140.6 216.9C140.7 216.8 140.8 216.7 140.8 216.5C141.1 215.8 141.2 215 141.2 214.2C141.2 214.1 141.2 214.1 141.2 214C140.4 210.2 138.1 203.8 135.9 197.6C134.4 193.3 132.9 189.2 132.2 186.7C132.2 186.5 132.1 186.4 132 186.2C131.7 167.2 131 149 126.6 129.7C126.4 128.9 125.6 128.3 124.7 128.5C123.9 128.7 123.3 129.5 123.5 130.4C128.5 151.9 128.7 172.3 128.9 193.8V194.2L109.1 193.9C106.2 170.8 105.1 147.4 106.1 124.2C106.1 123.3 105.5 122.6 104.6 122.6C103.7 122.6 103 123.2 103 124.1C102 148 103.1 172.1 106.2 195.7C106.3 196.3 106.7 196.8 107.3 197C107.1 198.6 107 200.2 107.1 201.9C107.1 202.2 107.2 202.5 107.3 202.8C107.4 203.1 107.6 203.4 107.8 203.6C107.8 203.6 107.8 203.6 107.9 203.7C107 204.4 106.2 205.3 105.8 206.4C105.5 207.4 105.4 208.8 106.7 210.5C107.9 212 109.5 213 110.9 213.8C111.2 214 111.5 214.1 111.7 214.3C112.1 214.5 112.5 216.1 112.7 216.8C112.8 217.3 113 217.7 113.1 218.1C113.4 219 113.8 219.8 114.3 220.6C96.5 223.6 80.2 223.8 64.8 221.2C63.9 221.1 63.1 221.6 63 222.5C62.7 223.3 63.3 224.1 64.1 224.2ZM112.7 204.2C112.5 204.6 112.2 205 111.7 205.2C110.2 205.7 109 206.6 108.8 207.4C108.8 207.5 108.6 207.9 109.2 208.7C110 209.7 111.2 210.4 112.4 211.1L112.6 211.2C112.8 211.3 113 211.5 113.3 211.6C114.8 212.5 115.3 214.4 115.7 215.9C115.8 216.3 115.9 216.7 116 217C116.8 219.3 118.6 222.1 121.9 221.8C124.1 221.7 126.8 220 127.7 215.8C128.4 212.5 127.8 209 127.2 205.6V205.4C127.1 205.1 127.1 204.7 127 204.4C127 204.3 127 204.3 127 204.2H112.7ZM129.6 203.1C129.8 203.3 129.9 203.6 130 203.9C130.1 204.3 130.1 204.7 130.2 205.1C130.8 208.8 131.5 212.6 130.7 216.4C130.6 216.7 130.6 217 130.5 217.3C131.1 217.2 131.6 217.1 132.2 217.1C134.6 216.8 136.6 216.5 138 215.1C138.1 214.9 138.1 214.7 138.1 214.6C137.3 211 135 204.5 133 198.8L132.9 198.6C132.6 197.9 132.4 197.1 132.1 196.4C132 196.7 131.9 197 131.7 197.2C131.4 197.5 131 197.7 130.6 197.7H130.1L130.2 201C130.1 201.3 130.2 202.3 129.6 203.1ZM126.9 197.5L110.5 197.2C110.3 198.5 110.2 199.8 110.3 201.1H127.1C127.1 201.1 127.1 201.1 127.1 201L126.9 197.5Z" fill="#07377E"/>
</g>
<path d="M99.8 65.1C101.6 63 101.1 59.3 98.7 57.8C97.9 57.3 96.8 56.9 96.3 56C95.8 55 96.3 53.8 96.5 52.8V52.7C97.3 49.5 93.6 47.1 90.9 49C87.5 51.5 83.7 53.2 79.7 54.1C77.6 54.6 75 54.7 73.7 53C72.9 52 72.8 50.4 70.8 50.6C70.2 50.6 69.7 50.8 69.2 51.2C65.7 53.5 61.8 55 57.7 55.5C56.5 55.6 55.3 55.7 54.2 55.4C51 54.4 49.5 50.3 50.5 47.1C51.5 43.9 54.2 41.5 57.1 39.8C58.9 38.8 60.9 37.8 62 36C62.6 35 62.9 33.7 63.5 32.7C64.1 31.7 65.1 30.9 66.1 30.1C71.6 26.3 78.1 24.4 84.7 24.6C88.6 24.7 93.2 26.3 94.1 30.2L100.1 32.7C104.7 33.4 109.4 35 112.7 38.3C116 41.7 117.4 47.1 115.1 51.2C114.8 51.7 114.4 52.3 114.4 52.9C114.4 53.7 115.1 54.3 115.6 54.9C116.6 55.9 117.3 57.2 117.7 58.5C118.1 59.8 118.3 61.2 118.2 62.6C118.1 63.8 117.7 65.1 116.8 65.9C115.9 66.7 114.3 66.9 113.5 66L100.4 68L99.8 65.1Z" fill="#07377E"/>
<path d="M57.3 55.6C55.6 60 54.6 63.9 54.3 66.3C53.7 72.3 54.9 79 59.4 83.2C61.8 85.5 64.9 86.6 68.1 87.2C71.5 87.8 75.1 88.3 78.3 87C78.1 89.7 78.1 91.7 78.2 94.4L96.6 92.3C96.3 88.7 97 85.6 98.5 82.4C98.9 81.7 99.6 81.7 100.4 81.4C101.1 81.2 101.7 80.9 102.4 80.7C103.7 80.2 104.9 79.4 106.1 78.6C108.4 76.9 110.1 74.5 110.8 71.7C111.4 69.2 111 66.2 108.2 64.8C106.2 63.8 104.5 64.2 101.5 66.8L99.8 65.1C101.6 63 101.1 59.3 98.7 57.8C97.9 57.3 96.8 56.9 96.3 56C95.8 55 96.3 53.8 96.5 52.8V52.7C97.3 49.5 93.6 47.1 90.9 49C87.5 51.5 83.7 53.2 79.7 54.1C77.6 54.6 75 54.7 73.7 53C72.9 52 72.8 50.4 70.8 50.6C70.2 50.6 69.7 50.8 69.2 51.2C65.7 53.5 61.8 55 57.6 55.5" fill="white"/>
<path d="M115.1 68.3C114.1 68.3 113.2 68 112.5 67.3C111.9 66.7 111.9 65.7 112.5 65.1C113.1 64.5 114.1 64.5 114.7 65.1C114.9 65.3 115.5 65.2 115.9 64.9C116.4 64.5 116.7 63.7 116.8 62.6C116.9 61.4 116.8 60.2 116.4 59.1C116 58 115.4 57 114.6 56.1L114.5 56C113.9 55.3 113 54.4 113 53.1C113 52.1 113.4 51.3 113.8 50.7L113.9 50.5C116 46.9 114.4 42.1 111.8 39.5C109.2 36.9 105.3 35.1 100.1 34.3C99.2 34.2 98.7 33.4 98.8 32.5C98.9 31.6 99.7 31.1 100.6 31.2C106.5 32.1 111 34.2 114.1 37.3C116 39.2 117.3 41.7 117.8 44.3C118.4 47.1 118 49.9 116.7 52.1L116.6 52.3C116.5 52.5 116.3 52.8 116.3 53C116.4 53.2 116.7 53.6 116.9 53.8L117.1 54C118.2 55.2 119 56.6 119.6 58.2C120.1 59.8 120.3 61.4 120.2 63C120 64.9 119.3 66.3 118.2 67.3C117.2 67.9 116.1 68.3 115.1 68.3Z" fill="#07377E"/>
<path d="M99.8 66.7C99.4 66.7 99.1 66.6 98.8 66.3C98.1 65.7 98.1 64.7 98.6 64.1C99.2 63.4 99.4 62.4 99.3 61.4C99.1 60.4 98.6 59.5 97.9 59.1C97.7 59 97.5 58.9 97.3 58.8C96.5 58.4 95.5 57.9 95 56.8C94.3 55.4 94.7 54 95 52.9C95 52.8 95.1 52.6 95.1 52.5C95.1 52.4 95.1 52.3 95.2 52.3C95.5 51.1 94.6 50.4 94.4 50.3C93.8 49.9 92.9 49.7 92.1 50.3C88.5 52.9 84.6 54.7 80.3 55.7C76.8 56.5 74.2 55.9 72.7 54C72.4 53.7 72.2 53.3 72.1 53C71.7 52.2 71.6 52.2 71.2 52.2C70.9 52.2 70.6 52.3 70.4 52.5C66.7 55 62.5 56.6 58.2 57.1C57 57.3 55.5 57.4 54.1 56.9C52.4 56.4 51 55.2 50 53.5C48.9 51.5 48.6 48.9 49.3 46.7C50.2 43.6 52.7 40.8 56.6 38.5C56.8 38.4 57.1 38.2 57.3 38.1C58.8 37.3 60.2 36.5 60.9 35.3C61.1 34.9 61.3 34.4 61.5 33.9C61.7 33.3 62 32.6 62.4 32C63.2 30.7 64.3 29.8 65.5 29C71.2 25 78.1 23 85.1 23.2C89.5 23.4 94.9 25.2 96 30C96.2 30.9 95.7 31.7 94.8 31.9C94 32.1 93.1 31.6 92.9 30.7C92.3 27.9 88.5 26.5 85 26.4C78.8 26.2 72.5 28.1 67.3 31.6C66.5 32.2 65.6 32.9 65.1 33.7C64.9 34.1 64.7 34.6 64.5 35.1C64.3 35.7 64 36.4 63.6 37C62.5 38.9 60.6 40 58.9 40.9C58.7 41 58.4 41.2 58.2 41.3C55 43.2 53 45.3 52.3 47.7C51.9 49.1 52.1 50.8 52.8 52.1C53.2 52.8 53.8 53.7 55 54C55.9 54.3 56.9 54.2 57.8 54.1C61.7 53.6 65.4 52.2 68.7 50C69.4 49.5 70.2 49.2 71 49.2C73.5 49 74.4 50.7 74.9 51.6C75 51.8 75.1 52.1 75.3 52.2C76.2 53.4 78.6 53 79.7 52.8C83.6 51.9 87.2 50.3 90.4 47.9C92.2 46.6 94.5 46.6 96.3 47.8C98.1 49 98.9 51.1 98.4 53.2V53.3C98.4 53.5 98.3 53.7 98.3 53.8C98.1 54.4 97.9 55.1 98.1 55.4C98.2 55.6 98.7 55.9 99.1 56.1C99.4 56.2 99.6 56.4 99.9 56.6C101.4 57.6 102.4 59.2 102.7 61.1C103 63 102.5 64.9 101.3 66.3C100.7 66.5 100.3 66.7 99.8 66.7Z" fill="#07377E"/>
<path d="M65.1 62.9C66.1 62.9 66.9 61.9 66.9 60.7C66.9 59.5 66.1 58.5 65.1 58.5C64.1 58.5 63.3 59.5 63.3 60.7C63.3 61.9 64.1 62.9 65.1 62.9Z" fill="#07377E"/>
<path d="M74 63.5C75 63.5 75.8 62.5 75.8 61.3C75.8 60.1 75 59 74 59C73 59 72.2 60 72.2 61.2C72.2 62.4 73 63.5 74 63.5Z" fill="#07377E"/>
<path d="M96.8 92.3C96 92.3 95.3 91.7 95.2 90.9C94.9 86.9 95.6 85.1 97.3 81.7C97.9 80.5 99 80.2 99.7 80C99.8 80 100 79.9 100.1 79.9C100.7 79.7 101.3 79.5 101.9 79.2C103.1 78.7 104.2 78.1 105.3 77.3C107.4 75.7 108.8 73.6 109.4 71.3C109.7 70.2 110.1 67.4 107.6 66.1C106.5 65.6 105.5 65.3 102.6 67.9C101.9 68.5 101 68.4 100.4 67.8C99.8 67.1 99.9 66.2 100.5 65.6C104.6 62 107 62.4 109 63.4C112 64.9 113.4 68.3 112.4 72.1C111.7 75.1 109.8 77.8 107.1 79.9C105.8 80.8 104.5 81.6 103.1 82.2C102.4 82.5 101.7 82.7 101 83C100.8 83.1 100.6 83.1 100.4 83.2C100.3 83.2 100.1 83.3 100 83.3C98.5 86.4 98 87.6 98.3 90.7C98.4 91.6 97.7 92.3 96.9 92.4C96.9 92.3 96.8 92.3 96.8 92.3Z" fill="#07377E"/>
<path d="M78.4 94.7C77.6 94.7 76.9 94 76.8 93.2C76.7 91.4 76.7 90.4 76.8 89.2C73.7 89.8 70.5 89.2 68 88.8C64 88.1 60.9 86.7 58.5 84.4C54.1 80.3 52.1 73.7 52.9 66.2C53.2 63.4 54.3 59.3 56 55.1C56.3 54.3 57.2 53.9 58 54.2C58.8 54.5 59.2 55.4 58.9 56.2C57.1 60.8 56.3 64.5 56 66.5C55.3 73 57 78.7 60.6 82.1C62.6 83.9 65.1 85.1 68.5 85.7C72 86.3 75.1 86.7 77.9 85.6C78.4 85.4 79 85.5 79.4 85.8C79.8 86.1 80.1 86.6 80.1 87.2C79.9 89.8 79.9 90.4 80 93.1C80 93.9 79.3 94.6 78.4 94.7Z" fill="#07377E"/>
<path d="M66.5 133.3V134.9H64.8V128.6C65.6 128.5 66.6 128.4 67.4 128.4C70.5 128.3 71.5 129.5 71.5 130.8C71.5 132.2 70.3 133.2 67.7 133.2C67.2 133.3 66.8 133.3 66.5 133.3ZM69.6 130.9C69.6 130.5 69.1 130.2 67.5 130.2C67.1 130.2 66.7 130.2 66.4 130.2V131.6C66.7 131.6 67.1 131.6 67.5 131.6C69.2 131.7 69.6 131.3 69.6 130.9Z" fill="#FEC426"/>
<path d="M72.6 128.6H74.4V135.1H72.6V128.6Z" fill="#FEC426"/>
<path d="M75.9 128.5H77.8V131.4L82.5 128.2L83.6 129.9L80.9 131.7L83.7 133.9L82.5 135.5L79.2 132.8L77.9 133.7V135.2H76V128.5H75.9Z" fill="#FEC426"/>
<path d="M87.8 135.3V132.8L84.2 129.6L85.5 128L88.9 131.1L92.4 127.8L93.8 129.4L89.9 132.7V135.3H87.8Z" fill="#FEC426"/>
<path d="M94.9 128.2H97.2V135.6H94.9V128.2Z" fill="#FEC426"/>
</g>
</g>
<defs>
<clipPath id="clip0_1963_6559">
<rect width="172" height="172" fill="white"/>
</clipPath>
</defs>
</svg>
