<svg width="33" height="33" viewBox="0 0 33 33" fill="none" xmlns="http://www.w3.org/2000/svg">
<path d="M27.6243 0.975586H5.62427C2.86284 0.975586 0.624268 3.21416 0.624268 5.97559V27.9756C0.624268 30.737 2.86284 32.9756 5.62427 32.9756H27.6243C30.3857 32.9756 32.6243 30.737 32.6243 27.9756V5.97559C32.6243 3.21416 30.3857 0.975586 27.6243 0.975586Z" fill="#2B2B2B"/>
<path d="M12.2243 24.9756H8.82426V14.2756H12.2243V24.9756ZM10.5243 12.7756C9.42427 12.7756 8.62427 11.9756 8.62427 10.8756C8.62427 9.77559 9.52427 8.97559 10.5243 8.97559C11.6243 8.97559 12.4243 9.77559 12.4243 10.8756C12.4243 11.9756 11.6243 12.7756 10.5243 12.7756ZM24.6243 24.9756H21.2243V19.1756C21.2243 17.4756 20.5243 16.9756 19.5243 16.9756C18.5243 16.9756 17.5243 17.7756 17.5243 19.2756V24.9756H14.1243V14.2756H17.3243V15.7756C17.6243 15.0756 18.8243 13.9756 20.5243 13.9756C22.4243 13.9756 24.4243 15.0756 24.4243 18.3756V24.9756H24.6243Z" fill="white"/>
</svg>
