<svg width="33" height="33" viewBox="0 0 33 33" fill="none" xmlns="http://www.w3.org/2000/svg">
<path d="M27.6243 0.5H5.62427C2.86284 0.5 0.624268 2.73858 0.624268 5.5V27.5C0.624268 30.2614 2.86284 32.5 5.62427 32.5H27.6243C30.3857 32.5 32.6243 30.2614 32.6243 27.5V5.5C32.6243 2.73858 30.3857 0.5 27.6243 0.5Z" fill="#07377E"/>
<path d="M12.2243 24.5H8.82426V13.8H12.2243V24.5ZM10.5243 12.3C9.42427 12.3 8.62427 11.5 8.62427 10.4C8.62427 9.3 9.52427 8.5 10.5243 8.5C11.6243 8.5 12.4243 9.3 12.4243 10.4C12.4243 11.5 11.6243 12.3 10.5243 12.3ZM24.6243 24.5H21.2243V18.7C21.2243 17 20.5243 16.5 19.5243 16.5C18.5243 16.5 17.5243 17.3 17.5243 18.8V24.5H14.1243V13.8H17.3243V15.3C17.6243 14.6 18.8243 13.5 20.5243 13.5C22.4243 13.5 24.4243 14.6 24.4243 17.9V24.5H24.6243Z" fill="white"/>
</svg>
