<svg width="116" height="28" viewBox="0 0 116 28" fill="none" xmlns="http://www.w3.org/2000/svg">
<path d="M28.3723 18.1704V21.3426L42.0703 22.0635V18.1704H28.3723Z" fill="#FF553E"/>
<path d="M56.9218 6.92383V3.75167L43.2238 3.03073V6.92383H56.9218Z" fill="#316AFE"/>
<path d="M22.8268 21.1985L22.8009 19.9787C22.3337 20.3767 21.7541 20.6968 21.062 20.939C20.3699 21.1812 19.6604 21.3024 18.9337 21.3024C17.7918 21.3024 16.7363 20.9909 15.7673 20.368C14.7984 19.7278 14.0284 18.8713 13.4574 17.7986C12.8864 16.7258 12.601 15.5492 12.601 14.2688C12.601 12.9711 12.8951 11.7859 13.4834 10.7131C14.0717 9.64035 14.8763 8.80117 15.8971 8.19557C16.9353 7.57268 18.0773 7.26123 19.323 7.26123C19.9978 7.26123 20.6294 7.3737 21.2177 7.59863C21.8233 7.82357 22.3078 8.13501 22.6711 8.53298V7.41695H26.9795L27.5764 21.1985H22.8268ZM19.8162 17.0199C20.266 17.0199 20.6986 16.8815 21.1139 16.6047C21.5291 16.3278 21.8579 15.9645 22.1001 15.5146C22.3424 15.0474 22.4635 14.5543 22.4635 14.0352C22.4635 13.3258 22.2299 12.7375 21.7627 12.2704C21.3129 11.7859 20.7419 11.5436 20.0498 11.5436C19.2884 11.5436 18.6223 11.8118 18.0513 12.3482C17.4803 12.8846 17.1948 13.5248 17.1948 14.2688C17.1948 14.7187 17.3159 15.1599 17.5582 15.5925C17.8177 16.025 18.1465 16.3711 18.5444 16.6306C18.9597 16.8902 19.3836 17.0199 19.8162 17.0199Z" fill="white"/>
<path d="M42.2663 3.371V17.1007H37.3351V15.8289C36.9025 16.3307 36.3488 16.7287 35.674 17.0228C34.9992 17.2997 34.2725 17.4381 33.4939 17.4381C31.7117 17.4381 30.3707 16.8498 29.471 15.6732C28.5713 14.4793 28.1387 12.7404 28.1733 10.4564L28.2512 3.31909H33.0527L33.0267 10.1969C33.0267 10.9236 33.1997 11.486 33.5458 11.8839C33.9091 12.2646 34.4196 12.4549 35.0771 12.4549C35.7865 12.4549 36.3402 12.1781 36.7381 11.6244C37.1534 11.0534 37.361 10.3353 37.361 9.47019V9.49615L37.387 3.371H42.2663Z" fill="white"/>
<path d="M52.7201 7.13135C54.0005 7.13135 55.0128 7.56392 55.7568 8.42905C56.5008 9.27688 56.8555 10.4794 56.8209 12.0367L56.6652 21.1984H51.9156L51.9415 15.0992C51.9415 13.8361 51.7685 12.9364 51.4224 12.4C51.0937 11.8636 50.6006 11.5954 49.9431 11.5954C49.4067 11.5954 48.9395 11.7512 48.5415 12.0626C48.1609 12.3741 47.9273 12.9018 47.8408 13.6458L47.8667 21.1984H43.1691V7.36493L47.8148 7.28707V8.61073C48.4723 8.17816 49.2423 7.82346 50.1247 7.54661C51.0072 7.26977 51.8723 7.13135 52.7201 7.13135Z" fill="white"/>
<path d="M72.7971 7.39089L72.6413 20.316C72.624 21.1465 72.4251 22.1155 72.0444 23.2228C71.681 24.3302 70.9803 25.3251 69.9421 26.2076C68.904 27.1073 67.4765 27.5572 65.6597 27.5572C64.1198 27.5572 62.7529 27.2198 61.559 26.545C60.3824 25.8875 59.4567 24.9531 58.7819 23.7419C58.1244 22.548 57.7956 21.1725 57.7956 19.6152L62.5971 21.1984C62.6144 21.804 62.874 22.2798 63.3758 22.6259C63.8948 22.972 64.4918 23.145 65.1666 23.145C66.3951 23.145 67.2343 22.7384 67.6841 21.9251C68.1513 21.1292 68.3762 20.2381 68.3589 19.2519V18.8885C67.7706 19.2865 67.0699 19.6152 66.2567 19.8748C65.4434 20.1343 64.6908 20.2641 63.9987 20.2641C62.8394 20.2641 61.7666 20.0045 60.7804 19.4855C59.7941 18.9491 59.0155 18.2224 58.4445 17.3053C57.8735 16.371 57.588 15.3328 57.588 14.1908C57.588 13.0143 57.8822 11.8809 58.4704 10.7909C59.076 9.7008 59.8806 8.81836 60.8842 8.14356C61.8877 7.46875 62.9518 7.13135 64.0765 7.13135C64.9243 7.13135 65.7376 7.23516 66.5162 7.4428C67.3121 7.63313 67.9869 7.90132 68.5406 8.24737L68.5666 7.39089H72.7971ZM64.6216 16.345C65.331 16.345 65.9366 16.0768 66.4383 15.5405C66.9401 15.0041 67.191 14.3812 67.191 13.6718C67.191 12.945 66.9488 12.3395 66.4643 11.855C65.9798 11.3705 65.3829 11.1283 64.6735 11.1283C63.9814 11.1283 63.4104 11.3705 62.9605 11.855C62.5279 12.3395 62.3116 12.9624 62.3116 13.7237C62.3116 14.485 62.5279 15.1165 62.9605 15.6183C63.4104 16.1028 63.964 16.345 64.6216 16.345Z" fill="white"/>
<path d="M76.3036 21.3023C75.473 21.3023 74.7809 20.9995 74.2273 20.3939C73.6736 19.7884 73.3967 19.0789 73.3967 18.2657C73.3967 17.712 73.5351 17.2103 73.812 16.7604C74.1061 16.2932 74.4781 15.9299 74.928 15.6703C75.3952 15.4108 75.8883 15.281 76.4074 15.281C77.1514 15.281 77.783 15.5405 78.302 16.0596C78.8384 16.5787 79.1066 17.2795 79.1066 18.1619C79.1066 19.0443 78.8384 19.7884 78.302 20.3939C77.783 20.9995 77.1168 21.3023 76.3036 21.3023Z" fill="white"/>
<path d="M101.104 21.1984H96.0691L96.0431 13.9832C96.0431 13.0316 95.9307 12.3741 95.7057 12.0107C95.4981 11.6474 95.1088 11.4657 94.5378 11.4657C94.1052 11.4657 93.7505 11.7339 93.4737 12.2703C93.2142 12.7893 93.0844 13.4555 93.0844 14.2687L93.1103 14.7618L93.0844 14.684V21.1206L88.205 21.1725L88.1531 13.9832C88.1531 13.1873 88.006 12.5731 87.7119 12.1405C87.4178 11.6906 87.0025 11.4657 86.4661 11.4657C85.9124 11.4657 85.4885 11.6993 85.1944 12.1664C84.9002 12.6336 84.7531 13.2998 84.7531 14.1649L84.7791 14.7099L84.7531 14.658L84.9608 21.2244H80.0814V7.54663L84.5455 7.39091L84.5715 8.42907C85.0213 8.08301 85.5664 7.81482 86.2066 7.62449C86.8641 7.43416 87.5735 7.339 88.3348 7.339C89.9266 7.339 91.1292 7.74561 91.9424 8.55884C92.375 8.07436 92.946 7.72831 93.6554 7.52068C94.3648 7.31304 95.2905 7.20923 96.4325 7.20923C98.0416 7.20923 99.2095 7.84943 99.9362 9.12983C100.68 10.3929 101.061 12.4433 101.078 15.2809L101.104 21.1984Z" fill="white"/>
<path d="M108.691 7.26123C110.854 7.26123 112.533 7.89278 113.726 9.15587C114.92 10.419 115.517 12.1406 115.517 14.3207C115.517 14.6841 115.509 14.9609 115.491 15.1513L106.304 15.2551C106.511 15.8261 106.797 16.3019 107.16 16.6825C107.541 17.0459 107.982 17.2449 108.484 17.2795C109.868 17.3833 110.871 16.9767 111.494 16.0596L115.206 17.1238C114.981 17.937 114.548 18.6723 113.908 19.3298C113.268 19.97 112.498 20.4718 111.598 20.8352C110.716 21.1985 109.799 21.3802 108.847 21.3802C108.622 21.3802 108.449 21.3716 108.328 21.3543C107.134 21.2677 106.027 20.8784 105.006 20.1863C104.002 19.4942 103.198 18.5858 102.592 17.4612C102.004 16.3365 101.71 15.108 101.71 13.7757C101.71 13.5161 101.718 13.3172 101.736 13.1787C101.805 12.0368 102.151 11.0159 102.774 10.1162C103.414 9.21643 104.245 8.51567 105.265 8.0139C106.304 7.51212 107.446 7.26123 108.691 7.26123ZM108.951 10.4795C107.67 10.3757 106.797 10.9121 106.33 12.0887L110.716 12.1146C110.647 11.6129 110.439 11.2235 110.093 10.9467C109.764 10.6699 109.383 10.5141 108.951 10.4795Z" fill="white"/>
<path d="M9.28755 21.458L5.36849 15.7222L5.34254 21.1466L0.489136 21.1985V0.279559L5.39445 0.0200195L5.36849 11.881L8.48297 7.10547L13.7257 7.44287L9.72877 13.6718L14.9196 21.1985L9.28755 21.458Z" fill="white"/>
</svg>
