<svg width="116" height="28" viewBox="0 0 116 28" fill="none" xmlns="http://www.w3.org/2000/svg">
<path d="M28.7383 18.3819V21.5541L42.4362 22.275V18.3819H28.7383Z" fill="#4AB848"/>
<path d="M57.2876 7.13519V3.96304L43.5896 3.24209V7.13519H57.2876Z" fill="#F15F30"/>
<path d="M23.1927 21.4098L23.1667 20.19C22.6996 20.588 22.1199 20.9081 21.4278 21.1503C20.7357 21.3925 20.0263 21.5137 19.2996 21.5137C18.1576 21.5137 17.1021 21.2022 16.1332 20.5793C15.1642 19.9391 14.3943 19.0826 13.8233 18.0099C13.2523 16.9371 12.9668 15.7605 12.9668 14.4801C12.9668 13.1824 13.2609 11.9972 13.8492 10.9244C14.4375 9.85165 15.2421 9.01247 16.263 8.40688C17.3011 7.78398 18.4431 7.47253 19.6889 7.47253C20.3637 7.47253 20.9952 7.585 21.5835 7.80994C22.1891 8.03487 22.6736 8.34632 23.037 8.74428V7.62826H27.3453L27.9423 21.4098H23.1927ZM20.182 17.2312C20.6319 17.2312 21.0645 17.0928 21.4797 16.816C21.895 16.5391 22.2237 16.1758 22.466 15.7259C22.7082 15.2587 22.8293 14.7656 22.8293 14.2465C22.8293 13.5371 22.5957 12.9488 22.1286 12.4817C21.6787 11.9972 21.1077 11.7549 20.4156 11.7549C19.6543 11.7549 18.9881 12.0231 18.4171 12.5595C17.8462 13.0959 17.5607 13.7361 17.5607 14.4801C17.5607 14.93 17.6818 15.3712 17.924 15.8038C18.1836 16.2363 18.5123 16.5824 18.9103 16.8419C19.3255 17.1015 19.7494 17.2312 20.182 17.2312Z" fill="#26BBD3"/>
<path d="M42.6323 3.58236V17.312H37.701V16.0403C37.2685 16.5421 36.7148 16.94 36.04 17.2342C35.3652 17.511 34.6385 17.6494 33.8599 17.6494C32.0777 17.6494 30.7367 17.0611 29.837 15.8846C28.9372 14.6907 28.5047 12.9518 28.5393 10.6678L28.6171 3.53046H33.4186L33.3927 10.4083C33.3927 11.135 33.5657 11.6973 33.9118 12.0953C34.2751 12.4759 34.7855 12.6663 35.443 12.6663C36.1525 12.6663 36.7061 12.3894 37.1041 11.8357C37.5194 11.2648 37.727 10.5467 37.727 9.68156V9.70751L37.753 3.58236H42.6323Z" fill="#4AB848"/>
<path d="M53.086 7.3428C54.3664 7.3428 55.3786 7.77537 56.1226 8.64051C56.8666 9.48834 57.2213 10.6909 57.1867 12.2481L57.031 21.4099H52.2814L52.3074 15.3107C52.3074 14.0476 52.1343 13.1479 51.7883 12.6115C51.4595 12.0751 50.9664 11.8069 50.3089 11.8069C49.7725 11.8069 49.3054 11.9626 48.9074 12.2741C48.5267 12.5855 48.2931 13.1132 48.2066 13.8573L48.2326 21.4099H43.5349V7.57639L48.1807 7.49853V8.82218C48.8382 8.38962 49.6082 8.03491 50.4906 7.75807C51.373 7.48123 52.2382 7.3428 53.086 7.3428Z" fill="#F15F30"/>
<path d="M73.1629 7.60235L73.0072 20.5274C72.9899 21.358 72.7909 22.3269 72.4102 23.4343C72.0469 24.5417 71.3461 25.5366 70.308 26.419C69.2698 27.3187 67.8423 27.7686 66.0256 27.7686C64.4856 27.7686 63.1187 27.4312 61.9248 26.7564C60.7482 26.0989 59.8225 25.1646 59.1477 23.9534C58.4902 22.7595 58.1615 21.3839 58.1615 19.8267L62.963 21.4099C62.9803 22.0155 63.2398 22.4913 63.7416 22.8374C64.2607 23.1834 64.8576 23.3564 65.5324 23.3564C66.7609 23.3564 67.6001 22.9498 68.05 22.1366C68.5171 21.3407 68.7421 20.4496 68.7248 19.4633V19.1C68.1365 19.4979 67.4357 19.8267 66.6225 20.0862C65.8093 20.3458 65.0566 20.4755 64.3645 20.4755C63.2052 20.4755 62.1325 20.216 61.1462 19.6969C60.1599 19.1605 59.3813 18.4338 58.8103 17.5168C58.2394 16.5824 57.9539 15.5443 57.9539 14.4023C57.9539 13.2257 58.248 12.0924 58.8363 11.0023C59.4419 9.91225 60.2465 9.02982 61.25 8.35501C62.2536 7.68021 63.3177 7.3428 64.4424 7.3428C65.2902 7.3428 66.1034 7.44662 66.882 7.65425C67.678 7.84458 68.3528 8.11277 68.9065 8.45883L68.9324 7.60235H73.1629ZM64.9874 16.5565C65.6968 16.5565 66.3024 16.2883 66.8042 15.7519C67.306 15.2155 67.5568 14.5926 67.5568 13.8832C67.5568 13.1565 67.3146 12.5509 66.8301 12.0664C66.3457 11.582 65.7487 11.3397 65.0393 11.3397C64.3472 11.3397 63.7762 11.582 63.3263 12.0664C62.8938 12.5509 62.6775 13.1738 62.6775 13.9351C62.6775 14.6964 62.8938 15.328 63.3263 15.8298C63.7762 16.3142 64.3299 16.5565 64.9874 16.5565Z" fill="#FEC425"/>
<path d="M76.6695 21.5137C75.839 21.5137 75.1469 21.2109 74.5932 20.6053C74.0395 19.9997 73.7627 19.2903 73.7627 18.4771C73.7627 17.9234 73.9011 17.4216 74.178 16.9717C74.4721 16.5046 74.8441 16.1412 75.294 15.8817C75.7612 15.6221 76.2543 15.4924 76.7734 15.4924C77.5174 15.4924 78.1489 15.7519 78.668 16.271C79.2044 16.7901 79.4726 17.4908 79.4726 18.3733C79.4726 19.2557 79.2044 19.9997 78.668 20.6053C78.1489 21.2109 77.4828 21.5137 76.6695 21.5137Z" fill="#4AB848"/>
<path d="M101.47 21.4099H96.4349L96.409 14.1947C96.409 13.243 96.2965 12.5855 96.0716 12.2221C95.864 11.8588 95.4746 11.6771 94.9037 11.6771C94.4711 11.6771 94.1164 11.9453 93.8395 12.4817C93.58 13.0008 93.4502 13.6669 93.4502 14.4801L93.4762 14.9733L93.4502 14.8954V21.332L88.5709 21.3839L88.519 14.1947C88.519 13.3987 88.3719 12.7845 88.0777 12.3519C87.7836 11.902 87.3683 11.6771 86.832 11.6771C86.2783 11.6771 85.8544 11.9107 85.5602 12.3779C85.2661 12.845 85.119 13.5112 85.119 14.3763L85.1449 14.9214L85.119 14.8695L85.3266 21.4358H80.4473V7.75806L84.9114 7.60233L84.9373 8.64049C85.3872 8.29444 85.9322 8.02625 86.5724 7.83592C87.2299 7.64559 87.9393 7.55042 88.7006 7.55042C90.2925 7.55042 91.495 7.95704 92.3083 8.77026C92.7408 8.28579 93.3118 7.93973 94.0212 7.7321C94.7306 7.52447 95.6563 7.42065 96.7983 7.42065C98.4074 7.42065 99.5754 8.06085 100.302 9.34125C101.046 10.6043 101.427 12.6547 101.444 15.4924L101.47 21.4099Z" fill="#26BBD3"/>
<path d="M109.057 7.47253C111.22 7.47253 112.899 8.10408 114.092 9.36718C115.286 10.6303 115.883 12.3519 115.883 14.532C115.883 14.8954 115.875 15.1722 115.857 15.3626L106.67 15.4664C106.877 16.0374 107.163 16.5132 107.526 16.8938C107.907 17.2572 108.348 17.4562 108.85 17.4908C110.234 17.5946 111.237 17.188 111.86 16.2709L115.572 17.3351C115.347 18.1483 114.914 18.8836 114.274 19.5412C113.634 20.1813 112.864 20.6831 111.964 21.0465C111.082 21.4098 110.165 21.5915 109.213 21.5915C108.988 21.5915 108.815 21.5829 108.694 21.5656C107.5 21.4791 106.393 21.0897 105.372 20.3976C104.368 19.7055 103.564 18.7971 102.958 17.6725C102.37 16.5478 102.076 15.3193 102.076 13.987C102.076 13.7275 102.084 13.5285 102.102 13.39C102.171 12.2481 102.517 11.2272 103.14 10.3275C103.78 9.42774 104.611 8.72698 105.631 8.2252C106.67 7.72342 107.812 7.47253 109.057 7.47253ZM109.317 10.6908C108.036 10.587 107.163 11.1234 106.695 12.3L111.082 12.3259C111.013 11.8242 110.805 11.4348 110.459 11.158C110.13 10.8812 109.749 10.7254 109.317 10.6908Z" fill="#26BBD3"/>
<path d="M9.65339 21.6694L5.73434 15.9336L5.70838 21.358L0.85498 21.4099V0.490955L5.76029 0.231415L5.73434 12.0924L8.84882 7.31686L14.0915 7.65426L10.0946 13.8832L15.2854 21.4099L9.65339 21.6694Z" fill="#F15F30"/>
</svg>
