<svg width="116" height="28" viewBox="0 0 116 28" fill="none" xmlns="http://www.w3.org/2000/svg">
<path d="M28.3979 18.3574V21.5296L42.0959 22.2505V18.3574H28.3979Z" fill="#FF553E"/>
<path d="M56.9473 7.11035V3.93819L43.2493 3.21725V7.11035H56.9473Z" fill="#0F52FF"/>
<path d="M22.8523 21.3855L22.8264 20.1657C22.3592 20.5637 21.7796 20.8838 21.0875 21.126C20.3954 21.3682 19.686 21.4894 18.9592 21.4894C17.8173 21.4894 16.7618 21.1779 15.7929 20.555C14.8239 19.9148 14.0539 19.0583 13.4829 17.9856C12.912 16.9128 12.6265 15.7362 12.6265 14.4558C12.6265 13.1581 12.9206 11.9729 13.5089 10.9001C14.0972 9.82736 14.9018 8.98818 15.9226 8.38259C16.9608 7.75969 18.1028 7.44824 19.3486 7.44824C20.0234 7.44824 20.6549 7.56071 21.2432 7.78564C21.8488 8.01058 22.3333 8.32203 22.6966 8.71999V7.60397H27.005L27.6019 21.3855H22.8523ZM19.8417 17.207C20.2916 17.207 20.7241 17.0685 21.1394 16.7917C21.5546 16.5148 21.8834 16.1515 22.1256 15.7016C22.3679 15.2344 22.489 14.7413 22.489 14.2222C22.489 13.5128 22.2554 12.9245 21.7882 12.4574C21.3384 11.9729 20.7674 11.7307 20.0753 11.7307C19.314 11.7307 18.6478 11.9988 18.0768 12.5352C17.5058 13.0716 17.2203 13.7118 17.2203 14.4558C17.2203 14.9057 17.3414 15.3469 17.5837 15.7795C17.8432 16.212 18.172 16.5581 18.5699 16.8176C18.9852 17.0772 19.4091 17.207 19.8417 17.207Z" fill="white"/>
<path d="M42.2917 3.55777V17.2874H37.3605V16.0157C36.9279 16.5175 36.3742 16.9154 35.6994 17.2096C35.0246 17.4864 34.2979 17.6248 33.5193 17.6248C31.7371 17.6248 30.3961 17.0366 29.4964 15.86C28.5967 14.6661 28.1641 12.9272 28.1987 10.6432L28.2766 3.50586H33.0781L33.0521 10.3837C33.0521 11.1104 33.2251 11.6727 33.5712 12.0707C33.9345 12.4513 34.445 12.6417 35.1025 12.6417C35.8119 12.6417 36.3656 12.3648 36.7635 11.8111C37.1788 11.2402 37.3864 10.5221 37.3864 9.65696V9.68291L37.4124 3.55777H42.2917Z" fill="white"/>
<path d="M52.7454 7.31836C54.0258 7.31836 55.038 7.75093 55.782 8.61606C56.526 9.46389 56.8808 10.6664 56.8462 12.2237L56.6904 21.3854H51.9408L51.9668 15.2862C51.9668 14.0231 51.7938 13.1234 51.4477 12.587C51.119 12.0506 50.6258 11.7825 49.9683 11.7825C49.432 11.7825 48.9648 11.9382 48.5668 12.2496C48.1862 12.5611 47.9526 13.0888 47.8661 13.8328L47.892 21.3854H43.1943V7.55195L47.8401 7.47408V8.79774C48.4976 8.36517 49.2676 8.01047 50.15 7.73362C51.0324 7.45678 51.8976 7.31836 52.7454 7.31836Z" fill="white"/>
<path d="M72.8223 7.5779L72.6666 20.503C72.6493 21.3335 72.4503 22.3025 72.0697 23.4099C71.7063 24.5172 71.0056 25.5121 69.9674 26.3946C68.9292 27.2943 67.5018 27.7442 65.685 27.7442C64.145 27.7442 62.7781 27.4068 61.5842 26.732C60.4077 26.0745 59.482 25.1401 58.8072 23.9289C58.1497 22.735 57.8209 21.3595 57.8209 19.8022L62.6224 21.3854C62.6397 21.991 62.8992 22.4669 63.401 22.8129C63.9201 23.159 64.517 23.332 65.1919 23.332C66.4203 23.332 67.2595 22.9254 67.7094 22.1122C68.1766 21.3162 68.4015 20.4251 68.3842 19.4389V19.0755C67.7959 19.4735 67.0951 19.8022 66.2819 20.0618C65.4687 20.3213 64.716 20.4511 64.0239 20.4511C62.8646 20.4511 61.7919 20.1916 60.8056 19.6725C59.8194 19.1361 59.0408 18.4094 58.4698 17.4923C57.8988 16.558 57.6133 15.5198 57.6133 14.3779C57.6133 13.2013 57.9074 12.0679 58.4957 10.9779C59.1013 9.88781 59.9059 9.00537 60.9094 8.33057C61.913 7.65576 62.9771 7.31836 64.1018 7.31836C64.9496 7.31836 65.7628 7.42218 66.5415 7.62981C67.3374 7.82014 68.0122 8.08833 68.5659 8.43438L68.5918 7.5779H72.8223ZM64.6468 16.532C65.3562 16.532 65.9618 16.2638 66.4636 15.7275C66.9654 15.1911 67.2163 14.5682 67.2163 13.8588C67.2163 13.1321 66.974 12.5265 66.4896 12.042C66.0051 11.5575 65.4081 11.3153 64.6987 11.3153C64.0066 11.3153 63.4356 11.5575 62.9858 12.042C62.5532 12.5265 62.3369 13.1494 62.3369 13.9107C62.3369 14.672 62.5532 15.3035 62.9858 15.8053C63.4356 16.2898 63.9893 16.532 64.6468 16.532Z" fill="white"/>
<path d="M76.3292 21.4891C75.4987 21.4891 74.8066 21.1863 74.2529 20.5807C73.6992 19.9751 73.4224 19.2657 73.4224 18.4525C73.4224 17.8988 73.5608 17.397 73.8376 16.9472C74.1318 16.48 74.5038 16.1166 74.9537 15.8571C75.4208 15.5975 75.9139 15.4678 76.433 15.4678C77.177 15.4678 77.8086 15.7273 78.3277 16.2464C78.8641 16.7655 79.1322 17.4662 79.1322 18.3487C79.1322 19.2311 78.8641 19.9751 78.3277 20.5807C77.8086 21.1863 77.1424 21.4891 76.3292 21.4891Z" fill="white"/>
<path d="M101.13 21.3857H96.0946L96.0687 14.1705C96.0687 13.2188 95.9562 12.5613 95.7313 12.198C95.5236 11.8346 95.1343 11.6529 94.5633 11.6529C94.1308 11.6529 93.776 11.9211 93.4992 12.4575C93.2397 12.9766 93.1099 13.6428 93.1099 14.456L93.1358 14.9491L93.1099 14.8712V21.3078L88.2305 21.3597L88.1786 14.1705C88.1786 13.3746 88.0316 12.7603 87.7374 12.3277C87.4433 11.8779 87.028 11.6529 86.4916 11.6529C85.9379 11.6529 85.514 11.8865 85.2199 12.3537C84.9257 12.8209 84.7787 13.487 84.7787 14.3522L84.8046 14.8972L84.7787 14.8453L84.9863 21.4117H80.1069V7.73389L84.571 7.57816L84.597 8.61632C85.0468 8.27027 85.5919 8.00208 86.2321 7.81175C86.8896 7.62142 87.599 7.52625 88.3603 7.52625C89.9522 7.52625 91.1547 7.93287 91.9679 8.74609C92.4005 8.26162 92.9715 7.91556 93.6809 7.70793C94.3903 7.5003 95.316 7.39648 96.458 7.39648C98.0671 7.39648 99.235 8.03668 99.9618 9.31708C100.706 10.5802 101.086 12.6305 101.104 15.4682L101.13 21.3857Z" fill="white"/>
<path d="M108.717 7.44824C110.88 7.44824 112.558 8.07979 113.752 9.34288C114.946 10.606 115.543 12.3276 115.543 14.5077C115.543 14.8711 115.534 15.1479 115.517 15.3383L106.329 15.4421C106.537 16.0131 106.822 16.4889 107.186 16.8695C107.566 17.2329 108.008 17.4319 108.509 17.4665C109.894 17.5703 110.897 17.1637 111.52 16.2467L115.231 17.3108C115.007 18.124 114.574 18.8594 113.934 19.5169C113.294 20.1571 112.524 20.6588 111.624 21.0222C110.741 21.3855 109.824 21.5672 108.873 21.5672C108.648 21.5672 108.475 21.5586 108.354 21.5413C107.16 21.4548 106.052 21.0654 105.032 20.3733C104.028 19.6812 103.223 18.7728 102.618 17.6482C102.029 16.5235 101.735 15.295 101.735 13.9627C101.735 13.7032 101.744 13.5042 101.761 13.3658C101.831 12.2238 102.177 11.2029 102.799 10.3032C103.44 9.40344 104.27 8.70269 105.291 8.20091C106.329 7.69913 107.471 7.44824 108.717 7.44824ZM108.977 10.6665C107.696 10.5627 106.822 11.0991 106.355 12.2757L110.741 12.3016C110.672 11.7999 110.465 11.4106 110.118 11.1337C109.79 10.8569 109.409 10.7011 108.977 10.6665Z" fill="white"/>
<path d="M9.31306 21.6451L5.394 15.9092L5.36805 21.3336L0.514648 21.3855V0.466571L5.41996 0.207031L5.394 12.068L8.50849 7.29248L13.7512 7.62988L9.75428 13.8588L14.9451 21.3855L9.31306 21.6451Z" fill="white"/>
</svg>
