<svg width="116" height="29" viewBox="0 0 116 29" fill="none" xmlns="http://www.w3.org/2000/svg">
<path d="M28.3723 18.9626V22.1348L42.0703 22.8557V18.9626H28.3723Z" fill="#FF553E"/>
<path d="M56.9218 7.71606V4.54391L43.2238 3.82296V7.71606H56.9218Z" fill="#316AFE"/>
<path d="M22.8268 21.9908L22.8009 20.7709C22.3337 21.1689 21.7541 21.489 21.062 21.7312C20.3699 21.9735 19.6604 22.0946 18.9337 22.0946C17.7918 22.0946 16.7363 21.7831 15.7673 21.1602C14.7984 20.52 14.0284 19.6636 13.4574 18.5908C12.8864 17.518 12.601 16.3414 12.601 15.0611C12.601 13.7633 12.8951 12.5781 13.4834 11.5054C14.0717 10.4326 14.8763 9.5934 15.8971 8.98781C16.9353 8.36491 18.0773 8.05347 19.323 8.05347C19.9978 8.05347 20.6294 8.16593 21.2177 8.39087C21.8233 8.6158 22.3078 8.92725 22.6711 9.32521V8.20919H26.9795L27.5764 21.9908H22.8268ZM19.8162 17.8122C20.266 17.8122 20.6986 17.6738 21.1139 17.3969C21.5291 17.1201 21.8579 16.7567 22.1001 16.3068C22.3424 15.8397 22.4635 15.3465 22.4635 14.8275C22.4635 14.1181 22.2299 13.5298 21.7627 13.0626C21.3129 12.5781 20.7419 12.3359 20.0498 12.3359C19.2884 12.3359 18.6223 12.6041 18.0513 13.1405C17.4803 13.6768 17.1948 14.317 17.1948 15.0611C17.1948 15.5109 17.3159 15.9521 17.5582 16.3847C17.8177 16.8173 18.1465 17.1633 18.5444 17.4229C18.9597 17.6824 19.3836 17.8122 19.8162 17.8122Z" fill="#2B2B2B"/>
<path d="M42.2663 4.16324V17.8929H37.3351V16.6212C36.9025 17.1229 36.3488 17.5209 35.674 17.815C34.9992 18.0919 34.2725 18.2303 33.4939 18.2303C31.7117 18.2303 30.3707 17.642 29.471 16.4654C28.5713 15.2716 28.1387 13.5326 28.1733 11.2487L28.2512 4.11133H33.0527L33.0267 10.9891C33.0267 11.7159 33.1997 12.2782 33.5458 12.6762C33.9091 13.0568 34.4196 13.2471 35.0771 13.2471C35.7865 13.2471 36.3402 12.9703 36.7381 12.4166C37.1534 11.8456 37.361 11.1276 37.361 10.2624V10.2884L37.387 4.16324H42.2663Z" fill="#2B2B2B"/>
<path d="M52.7201 7.92358C54.0005 7.92358 55.0128 8.35615 55.7568 9.22129C56.5008 10.0691 56.8555 11.2717 56.8209 12.8289L56.6652 21.9907H51.9156L51.9415 15.8915C51.9415 14.6284 51.7685 13.7286 51.4224 13.1923C51.0937 12.6559 50.6006 12.3877 49.9431 12.3877C49.4067 12.3877 48.9395 12.5434 48.5415 12.8548C48.1609 13.1663 47.9273 13.694 47.8408 14.438L47.8667 21.9907H43.1691V8.15717L47.8148 8.07931V9.40296C48.4723 8.9704 49.2423 8.61569 50.1247 8.33885C51.0072 8.06201 51.8723 7.92358 52.7201 7.92358Z" fill="#2B2B2B"/>
<path d="M72.7971 8.18313L72.6413 21.1082C72.624 21.9388 72.4251 22.9077 72.0444 24.0151C71.681 25.1224 70.9803 26.1173 69.9421 26.9998C68.904 27.8995 67.4765 28.3494 65.6597 28.3494C64.1198 28.3494 62.7529 28.012 61.559 27.3372C60.3824 26.6797 59.4567 25.7453 58.7819 24.5342C58.1244 23.3403 57.7956 21.9647 57.7956 20.4075L62.5971 21.9907C62.6144 22.5963 62.874 23.0721 63.3758 23.4181C63.8948 23.7642 64.4918 23.9372 65.1666 23.9372C66.3951 23.9372 67.2343 23.5306 67.6841 22.7174C68.1513 21.9215 68.3762 21.0304 68.3589 20.0441V19.6808C67.7706 20.0787 67.0699 20.4075 66.2567 20.667C65.4434 20.9265 64.6908 21.0563 63.9987 21.0563C62.8394 21.0563 61.7666 20.7968 60.7804 20.2777C59.7941 19.7413 59.0155 19.0146 58.4445 18.0976C57.8735 17.1632 57.588 16.1251 57.588 14.9831C57.588 13.8065 57.8822 12.6732 58.4704 11.5831C59.076 10.493 59.8806 9.6106 60.8842 8.93579C61.8877 8.26099 62.9518 7.92358 64.0765 7.92358C64.9243 7.92358 65.7376 8.0274 66.5162 8.23503C67.3121 8.42536 67.9869 8.69355 68.5406 9.03961L68.5666 8.18313H72.7971ZM64.6216 17.1373C65.331 17.1373 65.9366 16.8691 66.4383 16.3327C66.9401 15.7963 67.191 15.1734 67.191 14.464C67.191 13.7373 66.9488 13.1317 66.4643 12.6472C65.9798 12.1627 65.3829 11.9205 64.6735 11.9205C63.9814 11.9205 63.4104 12.1627 62.9605 12.6472C62.5279 13.1317 62.3116 13.7546 62.3116 14.5159C62.3116 15.2772 62.5279 15.9088 62.9605 16.4105C63.4104 16.895 63.964 17.1373 64.6216 17.1373Z" fill="#2B2B2B"/>
<path d="M76.3036 22.0946C75.473 22.0946 74.7809 21.7918 74.2273 21.1862C73.6736 20.5806 73.3967 19.8712 73.3967 19.058C73.3967 18.5043 73.5351 18.0025 73.812 17.5526C74.1061 17.0854 74.4781 16.7221 74.928 16.4626C75.3952 16.203 75.8883 16.0732 76.4074 16.0732C77.1514 16.0732 77.783 16.3328 78.302 16.8519C78.8384 17.3709 79.1066 18.0717 79.1066 18.9541C79.1066 19.8366 78.8384 20.5806 78.302 21.1862C77.783 21.7918 77.1168 22.0946 76.3036 22.0946Z" fill="#2B2B2B"/>
<path d="M101.104 21.9907H96.0691L96.0431 14.7755C96.0431 13.8238 95.9307 13.1663 95.7057 12.803C95.4981 12.4396 95.1088 12.2579 94.5378 12.2579C94.1052 12.2579 93.7505 12.5261 93.4737 13.0625C93.2142 13.5816 93.0844 14.2477 93.0844 15.061L93.1103 15.5541L93.0844 15.4762V21.9128L88.205 21.9647L88.1531 14.7755C88.1531 13.9795 88.006 13.3653 87.7119 12.9327C87.4178 12.4829 87.0025 12.2579 86.4661 12.2579C85.9124 12.2579 85.4885 12.4915 85.1944 12.9587C84.9002 13.4259 84.7531 14.092 84.7531 14.9571L84.7791 15.5022L84.7531 15.4503L84.9608 22.0166H80.0814V8.33887L84.5455 8.18314L84.5715 9.2213C85.0213 8.87525 85.5664 8.60706 86.2066 8.41673C86.8641 8.2264 87.5735 8.13123 88.3348 8.13123C89.9266 8.13123 91.1292 8.53785 91.9424 9.35107C92.375 8.8666 92.946 8.52055 93.6554 8.31291C94.3648 8.10528 95.2905 8.00146 96.4325 8.00146C98.0416 8.00146 99.2095 8.64166 99.9362 9.92206C100.68 11.1852 101.061 13.2355 101.078 16.0732L101.104 21.9907Z" fill="#2B2B2B"/>
<path d="M108.691 8.05347C110.854 8.05347 112.533 8.68501 113.726 9.94811C114.92 11.2112 115.517 12.9328 115.517 15.113C115.517 15.4763 115.509 15.7532 115.491 15.9435L106.304 16.0473C106.511 16.6183 106.797 17.0941 107.16 17.4748C107.541 17.8381 107.982 18.0371 108.484 18.0717C109.868 18.1755 110.871 17.7689 111.494 16.8519L115.206 17.916C114.981 18.7292 114.548 19.4646 113.908 20.1221C113.268 20.7623 112.498 21.2641 111.598 21.6274C110.716 21.9908 109.799 22.1725 108.847 22.1725C108.622 22.1725 108.449 22.1638 108.328 22.1465C107.134 22.06 106.027 21.6707 105.006 20.9786C104.002 20.2865 103.198 19.3781 102.592 18.2534C102.004 17.1287 101.71 15.9002 101.71 14.5679C101.71 14.3084 101.718 14.1094 101.736 13.971C101.805 12.829 102.151 11.8081 102.774 10.9084C103.414 10.0087 104.245 9.30791 105.265 8.80613C106.304 8.30436 107.446 8.05347 108.691 8.05347ZM108.951 11.2718C107.67 11.1679 106.797 11.7043 106.33 12.8809L110.716 12.9069C110.647 12.4051 110.439 12.0158 110.093 11.7389C109.764 11.4621 109.383 11.3064 108.951 11.2718Z" fill="#2B2B2B"/>
<path d="M9.28755 22.2503L5.36849 16.5144L5.34254 21.9388L0.489136 21.9907V1.0718L5.39445 0.812256L5.36849 12.6732L8.48297 7.8977L13.7257 8.23511L9.72877 14.4641L14.9196 21.9907L9.28755 22.2503Z" fill="#2B2B2B"/>
</svg>
