<svg width="33" height="33" viewBox="0 0 33 33" fill="none" xmlns="http://www.w3.org/2000/svg">
<path d="M27.6243 0.975586H5.62427C2.86284 0.975586 0.624268 3.21416 0.624268 5.97559V27.9756C0.624268 30.737 2.86284 32.9756 5.62427 32.9756H27.6243C30.3857 32.9756 32.6243 30.737 32.6243 27.9756V5.97559C32.6243 3.21416 30.3857 0.975586 27.6243 0.975586Z" fill="#2B2B2B"/>
<path d="M13.1625 12.0962C15.6547 12.0962 17.6749 14.1921 17.6749 16.7774C17.6749 19.3627 15.6545 21.4585 13.1625 21.4585C10.6704 21.4585 8.6499 19.3627 8.6499 16.7774C8.6499 14.1921 10.6702 12.0962 13.1625 12.0962ZM20.3687 12.3704C21.6148 12.3704 22.625 14.3433 22.625 16.7774H22.6251C22.6251 19.2109 21.615 21.1844 20.3688 21.1844C19.1227 21.1844 18.1126 19.2109 18.1126 16.7774C18.1126 14.3439 19.1226 12.3704 20.3687 12.3704ZM23.8564 12.8294C24.2945 12.8294 24.6499 14.597 24.6499 16.7774C24.6499 18.9572 24.2947 20.7254 23.8564 20.7254C23.418 20.7254 23.063 18.9577 23.063 16.7774C23.063 14.5971 23.4182 12.8294 23.8564 12.8294Z" fill="white"/>
</svg>
