<svg width="72" height="73" viewBox="0 0 72 73" fill="none" xmlns="http://www.w3.org/2000/svg">
<path d="M15.3333 5.97207H56.6667C62.5945 5.97207 67.4 10.7778 67.4 16.706V56.4415C67.4 62.3697 62.5945 67.1754 56.6667 67.1754H15.3333C9.40551 67.1754 4.6 62.3697 4.6 56.4415V16.706C4.6 10.7778 9.40551 5.97207 15.3333 5.97207Z" fill="black" stroke="#2A2A2A" stroke-width="1.2"/>
<path d="M41.2962 17.0374L19.5791 18.6413C17.8275 18.7932 17.2178 19.9379 17.2178 21.3102V45.1178C17.2178 46.1867 17.5971 47.1012 18.5129 48.3231L23.6178 54.9611C24.4564 56.0299 25.219 56.2588 26.8204 56.183L52.0395 54.6563C54.1719 54.5044 54.7829 53.5116 54.7829 51.833V25.0492C54.7829 24.1819 54.4401 23.932 53.4315 23.1915L53.2576 23.0659L46.3264 18.1822C44.6491 16.9629 43.9639 16.8085 41.2962 17.0374ZM27.3907 24.6109C25.3316 24.7496 24.8645 24.781 23.695 23.8298L20.7213 21.4646C20.419 21.1585 20.5708 20.7764 21.3322 20.7005L42.2093 19.1751C43.9624 19.0221 44.8756 19.633 45.5611 20.1668L49.1417 22.7611C49.2947 22.8382 49.6755 23.2948 49.2176 23.2948L27.6577 24.5926L27.3907 24.6109ZM24.9901 51.6041V28.8667C24.9901 27.8737 25.2949 27.4158 26.208 27.3387L50.9706 25.889C51.8106 25.8132 52.19 26.3469 52.19 27.3387V49.9243C52.19 50.9173 52.0368 51.757 50.6659 51.833L26.9695 53.2067C25.5985 53.2825 24.9901 52.826 24.9901 51.6041ZM48.3817 30.0858C48.5335 30.7726 48.3817 31.4595 47.6948 31.538L46.5528 31.7643V48.5518C45.5611 49.0855 44.648 49.3904 43.8851 49.3904C42.666 49.3904 42.361 49.0083 41.4479 47.8649L33.9792 36.1142V47.483L36.3417 48.018C36.3417 48.018 36.3417 49.3918 34.4357 49.3918L29.1804 49.6965C29.0273 49.3904 29.1804 48.6277 29.713 48.476L31.0852 48.0952V33.0635L29.1805 32.9092C29.0273 32.2224 29.408 31.2306 30.4756 31.1534L36.1142 30.7741L43.8852 42.6765V32.1466L41.9045 31.9188C41.7515 31.0776 42.361 30.4667 43.1225 30.3922L48.3816 30.0859L48.3817 30.0858Z" fill="white"/>
</svg>
