<svg width="72" height="72" viewBox="0 0 72 72" fill="none" xmlns="http://www.w3.org/2000/svg">
<path d="M15.3333 5.3998H56.6667C62.5945 5.3998 67.4 10.2055 67.4 16.1337V55.8692C67.4 61.7974 62.5945 66.6032 56.6667 66.6032H15.3333C9.40551 66.6032 4.6 61.7974 4.6 55.8692V16.1337C4.6 10.2055 9.40551 5.3998 15.3333 5.3998Z" fill="black" stroke="#2A2A2A" stroke-width="1.2"/>
<path d="M18.4092 48.5596V21.1237C18.4092 20.9238 18.4951 20.8232 18.6669 20.8232C19.1243 20.8232 19.5419 20.8165 20.1719 20.8017C20.8012 20.7876 21.481 20.7733 22.2112 20.7588C22.9412 20.7447 23.714 20.7303 24.5297 20.7158C25.3453 20.7018 26.1539 20.6946 26.9554 20.6943C29.1302 20.6943 30.962 20.9663 32.4508 21.5101C33.7937 21.9644 35.0185 22.7125 36.0358 23.6998C36.8982 24.5557 37.5647 25.5884 37.9892 26.7268C38.3909 27.8347 38.5944 29.0047 38.5904 30.1831C38.5904 32.4735 38.0609 34.3627 37.0019 35.8506C35.9358 37.3448 34.4374 38.4761 32.7085 39.0923C30.9052 39.7652 28.9015 39.9934 26.6978 39.9934C26.0679 39.9934 25.6242 39.9862 25.3668 39.9719C25.1093 39.9578 24.7229 39.9506 24.2077 39.9504V48.5167C24.2152 48.5692 24.2104 48.6227 24.1936 48.673C24.1768 48.7233 24.1486 48.769 24.1111 48.8065C24.0736 48.844 24.0279 48.8722 23.9776 48.889C23.9273 48.9058 23.8738 48.9106 23.8213 48.9031H18.7097C18.5092 48.9031 18.4092 48.789 18.4092 48.5596ZM24.2077 25.9754V34.9239C24.5793 34.9527 24.9228 34.967 25.238 34.9668H26.6548C27.6973 34.9634 28.7329 34.798 29.7246 34.4767C30.5752 34.2241 31.3352 33.7323 31.9142 33.0599C32.4723 32.4018 32.7514 31.4858 32.7515 30.312C32.7741 29.4814 32.558 28.6619 32.1288 27.9505C31.6776 27.2626 31.0255 26.7304 30.2612 26.4263C29.2633 26.0383 28.1973 25.8558 27.1271 25.8896C26.4401 25.8896 25.8319 25.8968 25.3025 25.911C24.7725 25.9258 24.4076 25.9473 24.2077 25.9754Z" fill="white"/>
<path d="M55.1907 33.296C54.3838 32.8814 53.5245 32.5781 52.6361 32.3943C51.6573 32.1697 50.6566 32.0545 49.6523 32.0508C49.1091 32.0361 48.5666 32.1012 48.0423 32.2441C47.7085 32.3184 47.4119 32.5085 47.205 32.7807C47.0651 32.9985 46.9906 33.2518 46.9904 33.5107C46.9983 33.7618 47.0888 34.0033 47.248 34.1976C47.4988 34.491 47.8052 34.7318 48.1496 34.9061C48.7617 35.2357 49.3925 35.5296 50.0386 35.7862C51.4795 36.2686 52.8564 36.9246 54.1388 37.7398C55.0123 38.2912 55.7353 39.051 56.2425 39.951C56.6691 40.8032 56.8827 41.7461 56.8651 42.6989C56.8908 43.9571 56.5312 45.193 55.8347 46.2411C55.089 47.305 54.0532 48.1321 52.8507 48.624C51.548 49.1963 49.938 49.4825 48.0208 49.4827C46.8028 49.495 45.5869 49.3799 44.3929 49.1392C43.4522 48.9667 42.5364 48.6783 41.6666 48.2805C41.5728 48.2321 41.4947 48.1579 41.4414 48.0666C41.3882 47.9754 41.3621 47.8708 41.3661 47.7653V43.1282C41.3609 43.0828 41.3682 43.0369 41.3871 42.9953C41.406 42.9537 41.4359 42.918 41.4735 42.8921C41.5104 42.8712 41.5527 42.8621 41.5949 42.866C41.6371 42.8698 41.6771 42.8864 41.7096 42.9136C42.7368 43.5193 43.8521 43.9611 45.0155 44.2231C46.0408 44.4801 47.0926 44.617 48.1496 44.631C49.1511 44.631 49.8882 44.5022 50.3606 44.2446C50.574 44.1469 50.7545 43.9895 50.8802 43.7913C51.0059 43.5932 51.0716 43.3629 51.0691 43.1282C51.0691 42.7566 50.8544 42.3988 50.4251 42.0549C49.9958 41.7114 49.1228 41.2963 47.8061 40.8097C46.458 40.3405 45.1798 39.6905 44.0065 38.8776C43.1673 38.2939 42.4762 37.522 41.9886 36.6235C41.5664 35.7774 41.353 34.8425 41.3661 33.8971C41.3637 32.7611 41.6758 31.6465 42.2677 30.6769C42.9426 29.6092 43.9117 28.7593 45.0584 28.2296C46.3175 27.6003 47.8918 27.2854 49.7811 27.285C50.8876 27.2761 51.993 27.3551 53.087 27.5211C53.8792 27.6216 54.6537 27.8311 55.3885 28.1437C55.4468 28.1604 55.5004 28.1905 55.5451 28.2314C55.5897 28.2724 55.6243 28.3232 55.646 28.3798C55.6751 28.4847 55.6895 28.5931 55.689 28.7019V33.0384C55.692 33.0888 55.6816 33.1392 55.659 33.1844C55.6364 33.2296 55.6024 33.2681 55.5602 33.296C55.5028 33.3245 55.4396 33.3394 55.3755 33.3394C55.3114 33.3394 55.2481 33.3246 55.1907 33.296Z" fill="white"/>
</svg>
