<svg width="164" height="63" viewBox="0 0 164 63" fill="none" xmlns="http://www.w3.org/2000/svg">
<rect x="0.849609" y="1.43286" width="161.981" height="61" rx="10.5" fill="white" stroke="white"/>
<g filter="url(#filter0_ii_1758_1782)">
<path d="M17.4167 17.1264C17.0689 17.496 16.8633 18.0696 16.8633 18.8124V45.3516C16.8633 46.0956 17.0689 46.668 17.4167 47.0376L17.5052 47.124L32.3142 32.2572V32.082V31.9068L17.5052 17.0388L17.4167 17.1264Z" fill="url(#paint0_linear_1758_1782)"/>
<path d="M37.2495 37.214L32.314 32.2568V32.0816V31.9064L37.2507 26.9504L37.3619 27.014L43.2106 30.35C44.8805 31.3028 44.8805 32.8616 43.2106 33.8156L37.3619 37.1516L37.2495 37.214Z" fill="url(#paint1_linear_1758_1782)"/>
<g filter="url(#filter1_i_1758_1782)">
<path d="M37.3621 37.1506L32.313 32.0818L17.4167 47.0374C17.9666 47.623 18.8763 47.695 19.9007 47.1118L37.3621 37.1506Z" fill="url(#paint2_linear_1758_1782)"/>
</g>
<path d="M37.3621 27.0132L19.9007 17.0532C18.8763 16.4688 17.9666 16.542 17.4167 17.1276L32.3142 32.0832L37.3621 27.0132Z" fill="url(#paint3_linear_1758_1782)"/>
</g>
<path d="M82.0227 33.534C79.3674 33.534 77.2032 35.5527 77.2032 38.333C77.2032 41.0964 79.3674 43.132 82.0227 43.132C84.6791 43.132 86.8433 41.0964 86.8433 38.333C86.8422 35.5527 84.678 33.534 82.0227 33.534ZM82.0227 41.2431C80.5675 41.2431 79.3132 40.0436 79.3132 38.3341C79.3132 36.6066 80.5686 35.4252 82.0227 35.4252C83.4779 35.4252 84.7322 36.6066 84.7322 38.3341C84.7322 40.0425 83.4779 41.2431 82.0227 41.2431ZM71.5076 33.534C68.8523 33.534 66.6881 35.5527 66.6881 38.333C66.6881 41.0964 68.8523 43.132 71.5076 43.132C74.164 43.132 76.3283 41.0964 76.3283 38.333C76.3283 35.5527 74.164 33.534 71.5076 33.534ZM71.5076 41.2431C70.0524 41.2431 68.7981 40.0436 68.7981 38.3341C68.7981 36.6066 70.0535 35.4252 71.5076 35.4252C72.9628 35.4252 74.2171 36.6066 74.2171 38.3341C74.2182 40.0425 72.9628 41.2431 71.5076 41.2431ZM59.0011 35.0077V37.0433H63.8759C63.7303 38.1886 63.3487 39.0247 62.7661 39.6058C62.0571 40.3144 60.9474 41.0964 59.0011 41.0964C56.0003 41.0964 53.6543 38.6783 53.6543 35.679C53.6543 32.6798 56.0003 30.2617 59.0011 30.2617C60.62 30.2617 61.802 30.8981 62.6747 31.7162L64.1118 30.2797C62.8926 29.1164 61.2748 28.2261 59.0011 28.2261C54.8905 28.2261 51.4348 31.5706 51.4348 35.679C51.4348 39.7875 54.8905 43.132 59.0011 43.132C61.2195 43.132 62.8937 42.4042 64.2022 41.0411C65.5479 39.6961 65.9667 37.8049 65.9667 36.2782C65.9667 35.8065 65.9306 35.3699 65.8572 35.0065L59.0011 35.0077ZM110.152 36.5885C109.752 35.5166 108.533 33.534 106.041 33.534C103.568 33.534 101.512 35.4793 101.512 38.333C101.512 41.0231 103.55 43.132 106.277 43.132C108.477 43.132 109.751 41.787 110.279 41.005L108.642 39.9139C108.097 40.7139 107.351 41.2408 106.277 41.2408C105.205 41.2408 104.44 40.75 103.949 39.7864L110.37 37.1324L110.152 36.5885ZM103.604 38.1886C103.55 36.3335 105.041 35.389 106.115 35.389C106.951 35.389 107.66 35.8077 107.897 36.4068L103.604 38.1886ZM98.3846 42.842H100.494V28.7361H98.3846V42.842ZM94.9278 34.6071H94.8555C94.3825 34.0429 93.4725 33.534 92.3278 33.534C89.9265 33.534 87.7262 35.6429 87.7262 38.3522C87.7262 41.0422 89.9265 43.1331 92.3278 43.1331C93.4737 43.1331 94.3825 42.6242 94.8555 42.0431H94.9278V42.7337C94.9278 44.5696 93.9456 45.5513 92.3639 45.5513C91.0724 45.5513 90.272 44.6249 89.9446 43.8429L88.1078 44.6068C88.635 45.8785 90.0349 47.4424 92.3639 47.4424C94.8375 47.4424 96.9294 45.9879 96.9294 42.4426V33.8262H94.9289L94.9278 34.6071ZM92.5096 41.2431C91.0543 41.2431 89.8362 40.0244 89.8362 38.3522C89.8362 36.6607 91.0543 35.4252 92.5096 35.4252C93.9456 35.4252 95.0734 36.6607 95.0734 38.3522C95.0734 40.0244 93.9456 41.2431 92.5096 41.2431ZM120.035 28.7361H114.987V42.842H117.093V37.498H120.033C122.368 37.498 124.664 35.8088 124.664 33.1176C124.664 30.4264 122.369 28.7361 120.035 28.7361ZM120.089 35.5346H117.093V30.6995H120.089C121.664 30.6995 122.558 32.0028 122.558 33.1176C122.558 34.2099 121.664 35.5346 120.089 35.5346ZM133.108 33.5092C131.583 33.5092 130.003 34.1806 129.35 35.6689L131.219 36.4486C131.619 35.6689 132.364 35.4139 133.144 35.4139C134.233 35.4139 135.341 36.0672 135.359 37.2283V37.3739C134.977 37.1561 134.16 36.83 133.162 36.83C131.147 36.83 129.094 37.9369 129.094 40.0053C129.094 41.893 130.747 43.1083 132.599 43.1083C134.014 43.1083 134.796 42.473 135.286 41.7283H135.358V42.8172H137.392V37.4089C137.393 34.9061 135.522 33.5092 133.108 33.5092ZM132.853 41.2397C132.164 41.2397 131.201 40.8944 131.201 40.0414C131.201 38.9525 132.4 38.535 133.435 38.535C134.36 38.535 134.797 38.7347 135.359 39.0066C135.195 40.3144 134.07 41.2397 132.853 41.2397ZM144.8 33.8172L142.386 39.933H142.313L139.807 33.8172H137.538L141.296 42.3647L139.153 47.1197H141.35L147.143 33.8172H144.8ZM125.827 42.842H127.933V28.7361H125.827V42.842Z" fill="#090909"/>
<path d="M58.7381 20.3925C58.7381 21.3209 58.4584 22.0599 57.8978 22.6117C57.2616 23.2676 56.4315 23.5955 55.4118 23.5955C54.435 23.5955 53.6037 23.2631 52.9213 22.5984C52.2378 21.9325 51.896 21.1082 51.896 20.1243C51.896 19.1394 52.2378 18.3151 52.9213 17.6503C53.6037 16.9844 54.435 16.6521 55.4118 16.6521C55.8968 16.6521 56.3604 16.7451 56.8003 16.9302C57.2413 17.1163 57.5944 17.3634 57.8583 17.6725L57.2639 18.2575C56.8161 17.7312 56.1991 17.4686 55.4107 17.4686C54.6978 17.4686 54.0819 17.7146 53.562 18.2065C53.042 18.6984 52.7826 19.3377 52.7826 20.1232C52.7826 20.9088 53.042 21.548 53.562 22.04C54.0819 22.5319 54.6978 22.7779 55.4107 22.7779C56.1664 22.7779 56.7969 22.5308 57.3011 22.0355C57.6282 21.7131 57.8177 21.2644 57.8685 20.6894H55.4107V19.8906H58.6896C58.7234 20.0645 58.7381 20.2318 58.7381 20.3925Z" fill="#090909"/>
<path d="M63.938 17.616H60.8565V19.7233H63.6357V20.5222H60.8565V22.6295H63.938V23.4471H59.9868V16.7995H63.938V17.616Z" fill="#090909"/>
<path d="M67.6048 23.4471H66.7352V17.616H64.8448V16.7995H69.4953V17.616H67.6048V23.4471Z" fill="#090909"/>
<path d="M72.8599 23.4471V16.7995H73.7295V23.4471H72.8599Z" fill="#090909"/>
<path d="M77.5861 23.4471H76.7165V17.616H74.8261V16.7995H79.4766V17.616H77.5861V23.4471Z" fill="#090909"/>
<path d="M88.2799 22.5885C87.6144 23.2599 86.7876 23.5956 85.7984 23.5956C84.8092 23.5956 83.9825 23.2599 83.3181 22.5885C82.6526 21.917 82.321 21.095 82.321 20.1233C82.321 19.1516 82.6526 18.3295 83.3181 17.6581C83.9825 16.9867 84.8092 16.6499 85.7984 16.6499C86.782 16.6499 87.6077 16.9878 88.2754 17.6626C88.9432 18.3373 89.277 19.1572 89.277 20.1233C89.277 21.095 88.9443 21.917 88.2799 22.5885ZM83.9599 22.0312C84.4607 22.5297 85.0732 22.7779 85.7984 22.7779C86.5237 22.7779 87.1373 22.5286 87.637 22.0312C88.1378 21.5326 88.3893 20.8966 88.3893 20.1233C88.3893 19.3499 88.1378 18.714 87.637 18.2154C87.1373 17.7168 86.5237 17.4687 85.7984 17.4687C85.0732 17.4687 84.4607 17.718 83.9599 18.2154C83.4602 18.714 83.2087 19.3499 83.2087 20.1233C83.2087 20.8966 83.4602 21.5326 83.9599 22.0312Z" fill="#090909"/>
<path d="M90.4975 23.4471V16.7995H91.5555L94.8446 21.9702H94.8818L94.8446 20.6895V16.7995H95.7142V23.4471H94.8062L91.3649 18.0249H91.3276L91.3649 19.3056V23.4471H90.4975Z" fill="#090909"/>
<path d="M58.7381 20.3925C58.7381 21.3209 58.4584 22.0599 57.8978 22.6117C57.2616 23.2676 56.4315 23.5955 55.4118 23.5955C54.435 23.5955 53.6037 23.2631 52.9213 22.5984C52.2378 21.9325 51.896 21.1082 51.896 20.1243C51.896 19.1394 52.2378 18.3151 52.9213 17.6503C53.6037 16.9844 54.435 16.6521 55.4118 16.6521C55.8968 16.6521 56.3604 16.7451 56.8003 16.9302C57.2413 17.1163 57.5944 17.3634 57.8583 17.6725L57.2639 18.2575C56.8161 17.7312 56.1991 17.4686 55.4107 17.4686C54.6978 17.4686 54.0819 17.7146 53.562 18.2065C53.042 18.6984 52.7826 19.3377 52.7826 20.1232C52.7826 20.9088 53.042 21.548 53.562 22.04C54.0819 22.5319 54.6978 22.7779 55.4107 22.7779C56.1664 22.7779 56.7969 22.5308 57.3011 22.0355C57.6282 21.7131 57.8177 21.2644 57.8685 20.6894H55.4107V19.8906H58.6896C58.7234 20.0645 58.7381 20.2318 58.7381 20.3925Z" stroke="white" stroke-width="0.204511" stroke-miterlimit="10"/>
<path d="M63.938 17.616H60.8565V19.7233H63.6357V20.5222H60.8565V22.6295H63.938V23.4471H59.9868V16.7995H63.938V17.616Z" stroke="white" stroke-width="0.204511" stroke-miterlimit="10"/>
<path d="M67.6048 23.4471H66.7352V17.616H64.8448V16.7995H69.4953V17.616H67.6048V23.4471Z" stroke="white" stroke-width="0.204511" stroke-miterlimit="10"/>
<path d="M72.8599 23.4471V16.7995H73.7295V23.4471H72.8599Z" stroke="white" stroke-width="0.204511" stroke-miterlimit="10"/>
<path d="M77.5861 23.4471H76.7165V17.616H74.8261V16.7995H79.4766V17.616H77.5861V23.4471Z" stroke="white" stroke-width="0.204511" stroke-miterlimit="10"/>
<path d="M88.2799 22.5885C87.6144 23.2599 86.7876 23.5956 85.7984 23.5956C84.8092 23.5956 83.9825 23.2599 83.3181 22.5885C82.6526 21.917 82.321 21.095 82.321 20.1233C82.321 19.1516 82.6526 18.3295 83.3181 17.6581C83.9825 16.9867 84.8092 16.6499 85.7984 16.6499C86.782 16.6499 87.6077 16.9878 88.2754 17.6626C88.9432 18.3373 89.277 19.1572 89.277 20.1233C89.277 21.095 88.9443 21.917 88.2799 22.5885ZM83.9599 22.0312C84.4607 22.5297 85.0732 22.7779 85.7984 22.7779C86.5237 22.7779 87.1373 22.5286 87.637 22.0312C88.1378 21.5326 88.3893 20.8966 88.3893 20.1233C88.3893 19.3499 88.1378 18.714 87.637 18.2154C87.1373 17.7168 86.5237 17.4687 85.7984 17.4687C85.0732 17.4687 84.4607 17.718 83.9599 18.2154C83.4602 18.714 83.2087 19.3499 83.2087 20.1233C83.2087 20.8966 83.4602 21.5326 83.9599 22.0312Z" stroke="white" stroke-width="0.204511" stroke-miterlimit="10"/>
<path d="M90.4975 23.4471V16.7995H91.5555L94.8446 21.9702H94.8818L94.8446 20.6895V16.7995H95.7142V23.4471H94.8062L91.3649 18.0249H91.3276L91.3649 19.3056V23.4471H90.4975Z" stroke="white" stroke-width="0.204511" stroke-miterlimit="10"/>
<defs>
<filter id="filter0_ii_1758_1782" x="16.8633" y="16.6499" width="27.5999" height="30.8647" filterUnits="userSpaceOnUse" color-interpolation-filters="sRGB">
<feFlood flood-opacity="0" result="BackgroundImageFix"/>
<feBlend mode="normal" in="SourceGraphic" in2="BackgroundImageFix" result="shape"/>
<feColorMatrix in="SourceAlpha" type="matrix" values="0 0 0 0 0 0 0 0 0 0 0 0 0 0 0 0 0 0 127 0" result="hardAlpha"/>
<feOffset dy="-0.795"/>
<feComposite in2="hardAlpha" operator="arithmetic" k2="-1" k3="1"/>
<feColorMatrix type="matrix" values="0 0 0 0 0 0 0 0 0 0 0 0 0 0 0 0 0 0 0.12 0"/>
<feBlend mode="normal" in2="shape" result="effect1_innerShadow_1758_1782"/>
<feColorMatrix in="SourceAlpha" type="matrix" values="0 0 0 0 0 0 0 0 0 0 0 0 0 0 0 0 0 0 127 0" result="hardAlpha"/>
<feOffset dy="0.795"/>
<feComposite in2="hardAlpha" operator="arithmetic" k2="-1" k3="1"/>
<feColorMatrix type="matrix" values="0 0 0 0 1 0 0 0 0 1 0 0 0 0 1 0 0 0 0.25 0"/>
<feBlend mode="normal" in2="effect1_innerShadow_1758_1782" result="effect2_innerShadow_1758_1782"/>
</filter>
<filter id="filter1_i_1758_1782" x="17.4167" y="32.0818" width="19.9453" height="15.4329" filterUnits="userSpaceOnUse" color-interpolation-filters="sRGB">
<feFlood flood-opacity="0" result="BackgroundImageFix"/>
<feBlend mode="normal" in="SourceGraphic" in2="BackgroundImageFix" result="shape"/>
<feColorMatrix in="SourceAlpha" type="matrix" values="0 0 0 0 0 0 0 0 0 0 0 0 0 0 0 0 0 0 127 0" result="hardAlpha"/>
<feOffset dy="-0.795"/>
<feComposite in2="hardAlpha" operator="arithmetic" k2="-1" k3="1"/>
<feColorMatrix type="matrix" values="0 0 0 0 0 0 0 0 0 0 0 0 0 0 0 0 0 0 0.08 0"/>
<feBlend mode="normal" in2="shape" result="effect1_innerShadow_1758_1782"/>
</filter>
<linearGradient id="paint0_linear_1758_1782" x1="31.0015" y1="18.5316" x2="10.8632" y2="38.5916" gradientUnits="userSpaceOnUse">
<stop stop-color="#00A0FF"/>
<stop offset="0.0066" stop-color="#00A1FF"/>
<stop offset="0.2601" stop-color="#00BEFF"/>
<stop offset="0.5122" stop-color="#00D2FF"/>
<stop offset="0.7604" stop-color="#00DFFF"/>
<stop offset="1" stop-color="#00E3FF"/>
</linearGradient>
<linearGradient id="paint1_linear_1758_1782" x1="45.3843" y1="32.0816" x2="16.4622" y2="32.0816" gradientUnits="userSpaceOnUse">
<stop stop-color="#FFE000"/>
<stop offset="0.4087" stop-color="#FFBD00"/>
<stop offset="0.7754" stop-color="#FFA500"/>
<stop offset="1" stop-color="#FF9C00"/>
</linearGradient>
<linearGradient id="paint2_linear_1758_1782" x1="34.6201" y1="34.8345" x2="7.31013" y2="62.0383" gradientUnits="userSpaceOnUse">
<stop stop-color="#FF3A44"/>
<stop offset="1" stop-color="#C31162"/>
</linearGradient>
<linearGradient id="paint3_linear_1758_1782" x1="13.6651" y1="8.29295" x2="25.8597" y2="20.4402" gradientUnits="userSpaceOnUse">
<stop stop-color="#32A071"/>
<stop offset="0.0685" stop-color="#2DA771"/>
<stop offset="0.4762" stop-color="#15CF74"/>
<stop offset="0.8009" stop-color="#06E775"/>
<stop offset="1" stop-color="#00F076"/>
</linearGradient>
</defs>
</svg>
