<svg width="41" height="43" viewBox="0 0 41 43" fill="none" xmlns="http://www.w3.org/2000/svg">
<g filter="url(#filter0_d_2940_8658)">
<path d="M15.95 1.00179C15.95 1.00179 15.936 1.00179 15.9308 1.00179L15.866 1.00537C15.7855 1.01074 15.7033 1.01611 15.6246 1.02327L15.5493 1.03043C15.4584 1.04117 15.3656 1.05369 15.2764 1.06801C15.1924 1.08054 15.1067 1.09665 15.0262 1.11276C14.9492 1.12708 14.8722 1.14497 14.7935 1.16466C14.7375 1.17719 14.6815 1.19151 14.6255 1.20762C14.5783 1.22015 14.531 1.23447 14.4856 1.24878L14.3981 1.27563C14.3158 1.30248 14.2354 1.33111 14.1549 1.35975C14.1461 1.36333 14.1374 1.36512 14.1286 1.3687C13.8329 1.45103 13.4323 1.59959 13.0106 1.87701C12.7201 2.06852 12.4944 2.27256 12.323 2.44796C12.162 2.59293 12.0413 2.70927 11.9765 2.77549C11.945 2.80592 11.9153 2.83813 11.8873 2.86856C11.8488 2.90794 11.8173 2.94374 11.7946 2.96879C11.7473 3.0207 11.7036 3.0726 11.6564 3.1263C11.5829 3.21221 11.5199 3.29275 11.4621 3.37329L11.2574 3.63997L11.2207 3.71335C11.2154 3.7223 11.1542 3.81895 11.1542 3.81895C11.0335 4.01046 10.9232 4.20913 10.827 4.41138C10.8095 4.44897 10.764 4.54562 10.764 4.54562C10.7203 4.64048 10.6783 4.73713 10.6381 4.84452C10.6118 4.90895 10.5873 4.97338 10.5628 5.04139C10.5628 5.04139 10.5348 5.12552 10.5243 5.15773C10.5033 5.21501 10.4858 5.27228 10.4701 5.33134C10.4543 5.38325 10.4403 5.43336 10.4263 5.48706L10.4211 5.51033C10.4054 5.56939 10.3914 5.62487 10.3774 5.68215L10.3546 5.78238L10.2934 6.01505L10.2934 6.10991L10.2864 6.15824C10.2759 6.22804 10.2654 6.29784 10.2566 6.36586C10.2251 6.62001 10.2094 6.87416 10.2094 7.12474L10.2094 14.7064C7.82111 14.0585 5.18437 14.8424 3.52045 16.9043C2.54064 18.1178 2 19.657 2 21.2374C2 23.1167 2.76285 24.928 4.09259 26.2095L13.4463 35.2069C13.476 35.2355 13.5075 35.2642 13.539 35.2928C16.097 38.2871 19.78 40 23.6713 40L25.5381 40C32.9619 40 39 33.8216 39 26.2292L39 18.5742C38.9965 17.7276 38.8198 16.8935 38.4873 16.1275L38.4873 16.0523L38.1794 15.5136C37.6563 14.5954 36.9022 13.8294 36.0116 13.305C35.107 12.7662 34.073 12.4816 33.0004 12.4816C32.367 12.4816 31.7389 12.5855 31.1423 12.7841C30.9096 12.5944 30.6629 12.4226 30.4057 12.2687C29.4994 11.7317 28.4653 11.4471 27.4155 11.4471L27.3945 11.4471C26.8434 11.4471 26.2957 11.5259 25.7708 11.678C25.4734 11.4095 25.1497 11.1715 24.8033 10.9675C24.0107 10.4967 23.1201 10.2193 22.1928 10.1585C22.205 8.70335 22.2173 7.24823 22.2295 5.79132C22.1858 5.28123 22.0423 4.4955 21.5629 3.69366C20.87 2.53566 19.8797 2.01661 19.4546 1.80005C18.9524 1.5441 18.5028 1.41345 18.1896 1.34364C18.1686 1.33648 18.1371 1.32574 18.0986 1.31143C17.9831 1.27205 17.8659 1.23625 17.7557 1.20583C17.6909 1.18793 17.6227 1.17182 17.5527 1.15571C17.362 1.11097 17.173 1.07517 16.9666 1.04832C16.8948 1.03937 16.8231 1.03043 16.7496 1.02327C16.7286 1.02148 16.6709 1.01611 16.6044 1.01253C16.4137 0.999999 16.251 1.00179 15.9483 1.00358L15.95 1.00179Z" fill="#F2F2F2"/>
</g>
<path d="M23.6711 16.1255C23.6764 16.1738 23.6782 16.2221 23.6782 16.2723L23.6782 16.6768L23.6711 16.6768L23.6711 16.1255Z" fill="#2C2C2C"/>
<path d="M12.5296 6.42825C12.5225 6.46047 12.519 6.49269 12.5137 6.5249C12.5225 6.47121 12.5331 6.41751 12.5419 6.36561C12.5384 6.38709 12.5331 6.40677 12.5296 6.42825Z" fill="#2C2C2C"/>
<path d="M12.5419 6.36561C12.5313 6.4193 12.5225 6.473 12.5137 6.5249C12.519 6.49269 12.5243 6.45868 12.5296 6.42825C12.5331 6.40677 12.5384 6.38709 12.5419 6.36561Z" fill="#2C2C2C"/>
<path d="M19.9374 16.1398L19.9374 16.6768L19.9321 16.6768L19.9321 16.2723C19.9321 16.2275 19.9321 16.1846 19.9374 16.1398Z" fill="#2C2C2C"/>
<path d="M16.0234 3.30879C16.0234 3.30879 16.0042 3.30879 15.9954 3.30879C15.9342 3.31237 15.873 3.31774 15.8117 3.32311C15.7505 3.33027 15.6893 3.33743 15.6298 3.34817C15.5703 3.35712 15.5108 3.36785 15.4548 3.38038C15.3936 3.39112 15.3376 3.40544 15.2816 3.42155C15.2693 3.42155 15.2588 3.42513 15.2501 3.42871C15.1941 3.44303 15.1399 3.46093 15.0856 3.47703C15.0261 3.49672 14.9702 3.51641 14.9124 3.53789C14.8529 3.55937 14.7969 3.58263 14.7409 3.6059C14.685 3.62917 14.6325 3.65602 14.5765 3.68107C14.5205 3.70613 14.4697 3.73656 14.4155 3.7634C14.3858 3.77951 14.356 3.79741 14.3298 3.81352C14.3053 3.82784 14.2825 3.84216 14.2598 3.85647C14.2143 3.88511 14.1688 3.91554 14.1251 3.94418C14.1181 3.94955 14.1128 3.95312 14.1076 3.9567C14.0638 3.98713 14.0201 4.02114 13.9746 4.05335C13.9588 4.06409 13.9431 4.07662 13.9256 4.09094C13.8014 4.18759 13.6824 4.29319 13.5722 4.40774C13.5459 4.43458 13.5197 4.45964 13.4987 4.4847C13.4812 4.50081 13.4654 4.51871 13.4497 4.5366C13.4165 4.5724 13.3867 4.60641 13.357 4.64399C13.322 4.68516 13.2905 4.72453 13.259 4.76928C13.2275 4.81045 13.1977 4.84803 13.168 4.8892C13.1645 4.89636 13.161 4.90172 13.1575 4.90709C13.133 4.94289 13.1085 4.9769 13.0875 5.01269C13.0735 5.03417 13.0613 5.05565 13.0473 5.07713C12.9755 5.19168 12.9091 5.3098 12.8513 5.4333C12.8321 5.47267 12.8146 5.51026 12.7953 5.55143C12.7726 5.59975 12.7516 5.64987 12.7323 5.70177C12.7148 5.74473 12.6991 5.7841 12.6833 5.82885C12.6711 5.86464 12.6589 5.90223 12.6484 5.93982C12.6414 5.95055 12.6379 5.96308 12.6361 5.97561C12.6221 6.01499 12.6116 6.05257 12.6011 6.09195C12.5889 6.13849 12.5766 6.18144 12.5661 6.22619C12.5626 6.25124 12.5556 6.27451 12.5504 6.29599C12.5504 6.30852 12.5434 6.31926 12.5434 6.33178C12.5399 6.34431 12.5381 6.35505 12.5346 6.36758C12.5346 6.38011 12.5311 6.39085 12.5294 6.40338C12.5206 6.44454 12.5136 6.48571 12.5066 6.52687C12.4996 6.57162 12.4926 6.61458 12.4874 6.65753C12.4681 6.81146 12.4576 6.96896 12.4576 7.12646L12.4576 18.7083L11.0509 17.6452C9.22603 16.2652 6.69427 16.5892 5.25081 18.3772C3.77759 20.201 3.94731 22.9108 5.63048 24.5306L14.9771 33.5208C15.0296 33.5709 15.0821 33.6193 15.1364 33.6658C17.187 36.1268 20.2471 37.6929 23.6624 37.6929L25.5293 37.6929C31.7196 37.6929 36.7359 32.5615 36.7359 26.2291L36.7359 18.5866C36.7324 17.8886 36.5469 17.2389 36.2232 16.6787C35.8978 16.1059 35.4289 15.6316 34.869 15.3023C34.3231 14.9784 33.688 14.7922 33.0126 14.7922L32.9934 14.7922C32.3145 14.7922 31.6794 14.9784 31.1352 15.3023C30.955 15.4061 30.7888 15.526 30.6296 15.6585C30.3024 15.0822 29.83 14.6007 29.2666 14.2678C28.719 13.9439 28.0838 13.7577 27.4102 13.7577L27.3892 13.7577C26.7121 13.7577 26.077 13.9439 25.5311 14.2696C25.3911 14.3501 25.2564 14.445 25.1287 14.5452C24.7997 13.883 24.2888 13.3317 23.6642 12.9648C23.1166 12.6409 22.4832 12.4547 21.8078 12.4547L21.7886 12.4547C21.1114 12.4547 20.4763 12.6409 19.9304 12.9648L19.9304 7.10498C19.9304 6.80251 19.8919 6.51077 19.8254 6.22977C19.7415 5.86643 19.605 5.52458 19.4265 5.20957C19.0993 4.63325 18.6269 4.15 18.0635 3.8171L18.0635 3.82068C17.9288 3.74014 17.7888 3.66676 17.6419 3.6059C17.5946 3.58442 17.5456 3.56474 17.4949 3.54505C17.4564 3.53252 17.4214 3.5182 17.3829 3.50567C17.3077 3.47883 17.2307 3.45556 17.1537 3.43587C17.1152 3.42513 17.0767 3.41618 17.0382 3.40723C16.9193 3.3786 16.802 3.35712 16.6813 3.34101C16.6393 3.33564 16.5991 3.33027 16.5588 3.32669C16.5203 3.32311 16.4871 3.31953 16.4486 3.31774C16.3699 3.31058 16.2876 3.30879 16.2072 3.30879L16.1879 3.30879C16.1302 3.30879 16.0742 3.30879 16.0182 3.31416L16.0234 3.30879ZM16.3104 5.21673C16.3699 5.21673 16.4276 5.22568 16.4871 5.23463C17.3829 5.37602 18.0705 6.16712 18.0705 7.12288L18.0705 16.6751L19.9322 16.6751L19.9322 16.2706C19.9322 16.2259 19.9322 16.1829 19.9374 16.1382C20.0004 15.1466 20.8088 14.3609 21.7938 14.3609L21.8166 14.3609C22.7964 14.3609 23.6012 15.1377 23.6712 16.1238C23.6764 16.1722 23.6782 16.2205 23.6782 16.2706L23.6782 16.6751L23.6729 16.6751L23.6729 17.9799L25.5346 17.9799L25.5346 17.5736C25.5346 16.5176 26.3674 15.6639 27.3962 15.6639L27.4172 15.6639C28.4478 15.6639 29.2806 16.5176 29.2806 17.5736L29.2806 17.7615L29.2771 17.7615L29.2771 18.5311C29.2771 18.549 29.2771 18.5669 29.2771 18.5848L29.2771 19.0144L31.1387 19.0144L31.1387 18.6099C31.1387 18.5759 31.1387 18.5455 31.1387 18.5115C31.1895 17.502 32.0013 16.7002 32.9986 16.7002L33.0214 16.7002C34.0012 16.7002 34.806 17.4769 34.876 18.4631L34.876 26.2273C34.876 31.5037 30.6943 35.7796 25.5381 35.7796L23.6712 35.7796C20.7703 35.7796 18.179 34.4265 16.4661 32.3037C16.3996 32.2465 16.3331 32.1892 16.2684 32.1248L6.92173 23.1345C5.95592 22.2038 5.85794 20.636 6.70302 19.5889C7.51661 18.583 8.92684 18.4023 9.95213 19.1773L14.3368 22.4902L14.3368 7.12109C14.3368 6.19755 14.9771 5.42793 15.8275 5.25074C15.915 5.23105 16.0077 5.22031 16.0969 5.21494C16.1337 5.21494 16.1669 5.21136 16.2037 5.21136C16.2404 5.21136 16.2754 5.21136 16.3121 5.21494L16.3104 5.21673Z" fill="#2C2C2C"/>
<path d="M16.202 5.21484C16.2388 5.21484 16.2738 5.21484 16.3105 5.21842C16.37 5.21842 16.4277 5.22737 16.4872 5.23632C17.383 5.37771 18.0707 6.16882 18.0707 7.12457L18.0707 16.6768L19.9375 16.6768L19.9375 16.1399C20.0005 15.1483 20.8089 14.3626 21.7939 14.3626L21.8167 14.3626C22.7965 14.3626 23.6013 15.1393 23.6713 16.1255L23.6713 16.6768L23.6713 17.9816L25.5329 17.9816L25.5329 17.5753C25.5329 16.5193 26.3658 15.6656 27.3946 15.6656L27.4156 15.6656C28.4461 15.6656 29.279 16.5193 29.279 17.5753L29.279 17.7632L29.2755 17.7632L29.2755 18.5328C29.2755 18.5507 29.2755 18.5686 29.2755 18.5865L29.2755 19.0161L31.1371 19.0161L31.1371 18.7637L31.1371 18.5131C31.1878 17.5037 31.9997 16.7019 32.997 16.7019L33.0197 16.7019C33.9995 16.7019 34.8044 17.4786 34.8744 18.4648L34.8744 26.229C34.8744 31.5054 30.6927 35.7812 25.5364 35.7812L23.6696 35.7812C20.7686 35.7812 18.1774 34.4282 16.4645 32.3054C16.398 32.2482 16.3315 32.1909 16.2668 32.1265L6.92009 23.1362C5.95428 22.2055 5.8563 20.6377 6.70138 19.5906C7.51497 18.5847 8.9252 18.404 9.95049 19.179L14.3351 22.4919L14.3351 7.12278C14.3351 6.19924 14.9755 5.42962 15.8258 5.25243C15.9133 5.23274 16.0061 5.222 16.0953 5.21663C16.132 5.21663 16.1653 5.21305 16.202 5.21305L16.202 5.21484Z" fill="#FEC426"/>
<path d="M23.6729 16.5747L23.6729 16.6768L23.6782 16.6768L23.6782 16.5747L23.6729 16.5747Z" fill="#2C2C2C"/>
<defs>
<filter id="filter0_d_2940_8658" x="0" y="0.00195312" width="41" height="42.998" filterUnits="userSpaceOnUse" color-interpolation-filters="sRGB">
<feFlood flood-opacity="0" result="BackgroundImageFix"/>
<feColorMatrix in="SourceAlpha" type="matrix" values="0 0 0 0 0 0 0 0 0 0 0 0 0 0 0 0 0 0 127 0" result="hardAlpha"/>
<feOffset dy="1"/>
<feGaussianBlur stdDeviation="1"/>
<feComposite in2="hardAlpha" operator="out"/>
<feColorMatrix type="matrix" values="0 0 0 0 0 0 0 0 0 0 0 0 0 0 0 0 0 0 0.25 0"/>
<feBlend mode="normal" in2="BackgroundImageFix" result="effect1_dropShadow_2940_8658"/>
<feBlend mode="normal" in="SourceGraphic" in2="effect1_dropShadow_2940_8658" result="shape"/>
</filter>
</defs>
</svg>
