<svg width="80" height="79" viewBox="0 0 80 79" fill="none" xmlns="http://www.w3.org/2000/svg">
<g id="Photoshop Logomark" clip-path="url(#clip0_1345_3496)">
<g id="Photoshop">
<path id="Element" d="M54.8251 6.82157L15.77 12.9842C9.85572 13.9174 5.81785 19.4687 6.75113 25.3832L12.6755 62.9286C13.6088 68.8432 19.1598 72.8813 25.0741 71.9481L64.1292 65.7854C70.0435 64.8522 74.0813 59.301 73.1481 53.3864L67.2236 15.8411C66.2904 9.9265 60.7394 5.88834 54.8251 6.82157Z" fill="#001E36"/>
<g id="Element_2">
<path d="M25.201 53.8735L21.1104 27.9498C21.0806 27.7609 21.1468 27.653 21.3091 27.6274C21.7413 27.5592 22.1349 27.4906 22.728 27.3827C23.3205 27.2756 23.9606 27.1607 24.6485 27.0381C25.3361 26.9159 26.0642 26.7872 26.8328 26.6518C27.6013 26.5169 28.3643 26.3896 29.1215 26.2699C31.1765 25.9456 32.9479 25.9294 34.4357 26.2213C35.7724 26.4504 37.0411 26.9746 38.1496 27.7558C39.0921 28.4359 39.8758 29.3124 40.4467 30.3247C40.9914 31.3117 41.3581 32.3868 41.53 33.5009C41.8715 35.665 41.6528 37.529 40.874 39.0929C40.0895 40.6636 38.8424 41.956 37.3006 42.796C35.6971 43.7007 33.8378 44.215 31.7556 44.5436C31.1604 44.6375 30.7401 44.6969 30.4948 44.7217C30.2493 44.7468 29.8832 44.7976 29.3963 44.8742L30.6735 52.9684C30.6884 53.0169 30.6919 53.0682 30.6835 53.1182C30.6752 53.1682 30.6553 53.2156 30.6254 53.2566C30.5956 53.2977 30.5566 53.3312 30.5116 53.3545C30.4666 53.3778 30.4167 53.3904 30.366 53.3911L25.5362 54.1532C25.3467 54.1831 25.2352 54.0903 25.201 53.8735ZM27.3127 31.6695L28.6469 40.1248C29.0023 40.0966 29.329 40.059 29.6268 40.0117L30.9655 39.8005C31.95 39.6418 32.9039 39.3312 33.7931 38.8797C34.5591 38.5142 35.2039 37.9362 35.6507 37.2145C36.0799 36.5094 36.207 35.6024 36.0321 34.4932C35.9297 33.7051 35.6033 32.9629 35.0917 32.3547C34.5628 31.772 33.8673 31.3664 33.0998 31.193C32.099 30.9752 31.0645 30.9617 30.0584 31.1532C29.4093 31.2556 28.8357 31.353 28.3376 31.4455C27.839 31.5384 27.4974 31.6131 27.3127 31.6695Z" fill="#31A8FF"/>
<path d="M57.6795 33.9672C56.8553 33.6957 55.9981 33.5372 55.1313 33.4961C54.1729 33.4298 53.2101 33.4702 52.2607 33.6164C51.7452 33.6835 51.2423 33.8259 50.7682 34.039C50.464 34.159 50.212 34.3829 50.0571 34.671C49.9574 34.8976 49.9248 35.148 49.9632 35.3926C50.008 35.6287 50.1296 35.8434 50.309 36.0033C50.5897 36.2431 50.9151 36.425 51.2665 36.5383C51.894 36.7585 52.5338 36.9422 53.1827 37.0883C54.6161 37.3293 56.0148 37.7438 57.3481 38.3229C58.2557 38.7136 59.0521 39.3238 59.6656 40.0985C60.1957 40.8402 60.5381 41.6992 60.6635 42.6022C60.8754 43.7872 60.7199 45.0086 60.2181 46.1028C59.6721 47.2192 58.8167 48.1552 57.7538 48.7992C56.6082 49.5342 55.1297 50.0447 53.3181 50.3308C52.1692 50.524 51.0031 50.5965 49.839 50.5471C48.9244 50.5244 48.0161 50.3883 47.135 50.1422C47.039 50.1104 46.9542 50.0519 46.8903 49.9736C46.8264 49.8953 46.7861 49.8005 46.7742 49.7001L46.0828 45.3187C46.0712 45.2766 46.0712 45.2321 46.0828 45.1899C46.0945 45.1478 46.1174 45.1097 46.1491 45.0795C46.1808 45.0543 46.2195 45.0394 46.2599 45.0368C46.3003 45.0341 46.3406 45.0438 46.3754 45.0646C47.4362 45.4838 48.556 45.735 49.6943 45.8091C50.7014 45.8991 51.7156 45.8716 52.7164 45.7272C53.6628 45.5779 54.34 45.3463 54.748 45.0324C54.9351 44.9083 55.0821 44.7327 55.1714 44.5267C55.2607 44.3208 55.2883 44.0934 55.251 43.872C55.1956 43.5208 54.9394 43.2148 54.4825 42.9538C54.0256 42.6933 53.1388 42.4312 51.8222 42.1678C50.4784 41.9254 49.1738 41.5018 47.9439 40.9087C47.0639 40.4823 46.2959 39.8559 45.7012 39.0796C45.1761 38.3432 44.835 37.4916 44.7065 36.5963C44.5349 35.5233 44.6635 34.4236 45.0782 33.4192C45.5568 32.3097 46.3458 31.3622 47.3503 30.6907C48.4462 29.9084 49.8867 29.3761 51.6718 29.094C52.716 28.9207 53.7723 28.8304 54.8307 28.8243C55.5942 28.8011 56.3572 28.8836 57.0982 29.0694C57.1557 29.0765 57.2109 29.0969 57.2592 29.1289C57.3075 29.161 57.3478 29.2038 57.3767 29.2541C57.4198 29.3488 57.4496 29.4491 57.4653 29.552L58.1119 33.6494C58.1222 33.6967 58.12 33.7458 58.1054 33.7919C58.0908 33.838 58.0643 33.8794 58.0286 33.9121C57.9786 33.9476 57.9211 33.9711 57.8605 33.9806C57.8 33.9902 57.738 33.9856 57.6795 33.9672Z" fill="#31A8FF"/>
</g>
</g>
</g>
<defs>
<clipPath id="clip0_1345_3496">
<rect width="68.8733" height="68.8733" fill="white" transform="translate(0.566162 10.7349) rotate(-8.96697)"/>
</clipPath>
</defs>
</svg>
