<svg width="72" height="73" viewBox="0 0 72 73" fill="none" xmlns="http://www.w3.org/2000/svg">
<path d="M15.3333 5.97207H56.6667C62.5945 5.97207 67.4 10.7778 67.4 16.706V56.4415C67.4 62.3697 62.5945 67.1754 56.6667 67.1754H15.3333C9.40551 67.1754 4.6 62.3697 4.6 56.4415V16.706C4.6 10.7778 9.40551 5.97207 15.3333 5.97207Z" fill="black" stroke="#2A2A2A" stroke-width="1.2"/>
<g clip-path="url(#clip0_3484_118)">
<path fill-rule="evenodd" clip-rule="evenodd" d="M20.7998 22.5391C20.7998 23.6248 21.6934 24.5054 22.7953 24.5054H39.3323C41.2171 24.5054 42.7693 25.0791 43.9887 26.2266C45.2081 27.374 45.8179 28.8488 45.8179 30.6517C45.8179 32.318 45.2081 33.6837 43.9881 34.7488C42.7693 35.7871 41.2171 36.306 39.3323 36.306H32.1453C31.0429 36.306 30.1492 37.186 30.1492 38.2728C30.1492 39.3586 31.0429 40.2391 32.1453 40.2391H40.0814L47.2317 51.5477C47.6751 52.2311 48.2986 52.5723 49.1022 52.5723C49.9895 52.5723 50.613 52.2311 50.9732 51.5477C51.3334 50.838 51.264 50.0866 50.7656 49.2946L44.4045 39.2146C46.123 38.45 47.4813 37.33 48.4787 35.8551C49.4768 34.3528 49.9758 32.6186 49.9758 30.6517C49.9758 28.6574 49.5181 26.9094 48.6038 25.4071C47.717 23.9043 46.47 22.73 44.8623 21.8831C43.2545 21.0088 41.4116 20.5723 39.3323 20.5723H22.7959C21.6934 20.5723 20.7998 21.4523 20.7998 22.5391Z" fill="white"/>
</g>
<defs>
<clipPath id="clip0_3484_118">
<rect width="30.4" height="32" fill="white" transform="translate(20.7998 20.5723)"/>
</clipPath>
</defs>
</svg>
