<svg width="82" height="83" viewBox="0 0 82 83" fill="none" xmlns="http://www.w3.org/2000/svg">
<g id="Sketch Logomark">
<g id="Sketch Logomark_2">
<path d="M22.8076 14.0627L41.0009 12.1158L59.1942 14.0627L73.2793 33.2016L41.0009 71.2484L8.72241 33.2016L22.8076 14.0627Z" fill="#FDB300"/>
<path d="M21.7968 33.202L41.0009 71.2484L8.72241 33.2016L21.7968 33.202Z" fill="#EA6C00"/>
<path d="M60.2045 33.2019L41.0009 71.2484L73.2793 33.2016L60.2045 33.2019Z" fill="#EA6C00"/>
<path d="M21.7968 33.202L60.2045 33.2019L41.0009 71.2484L21.7968 33.202Z" fill="#FDAD00"/>
<path d="M41.0009 12.1158L22.8076 14.0627L21.7968 33.202L41.0009 12.1158Z" fill="#FDD231"/>
<path d="M41.0009 12.1158L59.1942 14.0627L60.2045 33.2019L41.0009 12.1158Z" fill="#FDD231"/>
<path d="M73.2793 33.2016L59.1942 14.0627L60.2045 33.2019L73.2793 33.2016Z" fill="#FDAD00"/>
<path d="M8.72241 33.2016L22.8076 14.0627L21.7968 33.202L8.72241 33.2016Z" fill="#FDAD00"/>
<path d="M41.0009 12.1158L21.7968 33.202L60.2045 33.2019L41.0009 12.1158Z" fill="#FEEEB7"/>
</g>
</g>
</svg>
