<svg width="72" height="73" viewBox="0 0 72 73" fill="none" xmlns="http://www.w3.org/2000/svg">
<path d="M15.3333 5.97207H56.6667C62.5945 5.97207 67.4 10.7778 67.4 16.706V56.4415C67.4 62.3697 62.5945 67.1754 56.6667 67.1754H15.3333C9.40551 67.1754 4.6 62.3697 4.6 56.4415V16.706C4.6 10.7778 9.40551 5.97207 15.3333 5.97207Z" fill="black" stroke="#2A2A2A" stroke-width="1.2"/>
<path fill-rule="evenodd" clip-rule="evenodd" d="M14.2708 30.5141L23.1945 18.406C23.3743 18.1621 23.6567 17.9952 23.9649 17.9567L35.8803 16.6341C35.9574 16.6213 36.0473 16.6213 36.1243 16.6341L48.0397 17.9567C48.3479 17.9952 48.6304 18.1493 48.8101 18.406L57.7339 30.5141C58.042 30.9378 58.0163 31.5028 57.6825 31.9008L36.625 56.2324C36.3297 56.5791 35.7905 56.6176 35.4438 56.3223C35.4181 56.2966 35.3796 56.2709 35.3539 56.2324L14.3221 31.9008C13.9754 31.5028 13.9626 30.925 14.2708 30.5141ZM38.5254 19.2278L47.4491 28.3955C47.6674 28.6138 48.014 28.6266 48.2323 28.4083C48.3479 28.2928 48.4121 28.1387 48.3992 27.9718L47.937 21.6289C47.9242 21.5133 48.014 21.4106 48.1296 21.4106C48.2323 21.3977 48.3222 21.4748 48.3479 21.5647L50.0556 28.3955C50.1712 28.8706 50.5307 29.2429 50.9801 29.3842L55.5511 30.8351C55.6666 30.8736 55.718 30.9892 55.6923 31.0919C55.6666 31.1818 55.5896 31.2331 55.4997 31.2331H51.0443C50.5564 31.2331 50.0941 31.4899 49.8502 31.9265L39.4755 49.6455C39.3728 49.8125 39.1673 49.8638 39.0004 49.7739C38.8464 49.6841 38.7822 49.4915 38.8592 49.3245L46.5888 32.4144C46.7814 31.9907 46.6017 31.5028 46.1779 31.3102C46.0752 31.2588 45.9468 31.2331 45.8313 31.2331H26.1605C25.6983 31.2331 25.3259 31.6055 25.3259 32.0677C25.3259 32.1833 25.3516 32.3117 25.403 32.4144L33.1326 49.3245C33.2096 49.5043 33.1326 49.7097 32.9657 49.7868C32.7988 49.8638 32.6062 49.7996 32.5163 49.6455L22.1416 31.9265C21.8977 31.5028 21.4354 31.2331 20.9475 31.2331H16.3637C16.2481 31.2331 16.1582 31.1432 16.1582 31.0277C16.1582 30.9378 16.2224 30.8608 16.2995 30.8222L20.9989 29.3713C21.4611 29.2301 21.8206 28.8577 21.9362 28.3827L23.6439 21.5647C23.6696 21.4491 23.7851 21.3849 23.9007 21.4106C24.0034 21.4363 24.0676 21.5261 24.0548 21.6289L23.6054 27.9718C23.5797 28.2799 23.8108 28.5496 24.119 28.5624C24.2859 28.5753 24.44 28.5111 24.5555 28.3955L33.4536 19.2278C33.5306 19.1508 33.6719 19.1379 33.7489 19.2278C33.8259 19.3048 33.8388 19.4204 33.7746 19.5103L27.3033 27.9076C27.1107 28.1515 27.162 28.4982 27.406 28.6908C27.5087 28.7679 27.6243 28.8064 27.7398 28.8064H44.252C44.5601 28.8064 44.8041 28.5624 44.8041 28.2543C44.8041 28.1259 44.7655 28.0103 44.6885 27.9204L38.2172 19.5231C38.153 19.4332 38.1658 19.3048 38.2557 19.2278C38.3328 19.1379 38.4612 19.1508 38.5254 19.2278Z" fill="white"/>
</svg>
