<svg width="72" height="73" viewBox="0 0 72 73" fill="none" xmlns="http://www.w3.org/2000/svg">
<path d="M15.3333 5.97207H56.6667C62.5945 5.97207 67.4 10.7778 67.4 16.706V56.4415C67.4 62.3697 62.5945 67.1754 56.6667 67.1754H15.3333C9.40551 67.1754 4.6 62.3697 4.6 56.4415V16.706C4.6 10.7778 9.40551 5.97207 15.3333 5.97207Z" fill="black" stroke="#2A2A2A" stroke-width="1.2"/>
<path fill-rule="evenodd" clip-rule="evenodd" d="M23.5683 31.9046C25.2155 25.31 29.3378 22.0127 35.931 22.0127C45.8228 22.0127 47.0569 29.4281 52.0014 30.6663C55.2987 31.4913 58.1827 30.2559 60.655 26.9586C59.0077 33.5518 54.8854 36.8491 48.2937 36.8491C38.4018 36.8491 37.1678 29.4337 32.2233 28.1955C28.926 27.3704 26.0419 28.6059 23.5697 31.9031L23.5683 31.9046ZM11.2056 46.7409C12.8556 40.1464 16.9737 36.8491 23.5683 36.8491C33.4601 36.8491 34.6941 44.2644 39.6387 45.5027C42.9359 46.3277 45.82 45.0923 48.2923 41.795C46.645 48.3896 42.5227 51.6869 35.9296 51.6869C26.0377 51.6869 24.8037 44.2715 19.8592 43.0333C16.5619 42.2082 13.6778 43.4437 11.2056 46.7409Z" fill="white"/>
</svg>
